G04 #@! TF.GenerationSoftware,KiCad,Pcbnew,7.0.7*
G04 #@! TF.CreationDate,2023-09-27T18:33:17+02:00*
G04 #@! TF.ProjectId,Power Charging Scheduler 90x90x1_6mm,506f7765-7220-4436-9861-7267696e6720,5.3*
G04 #@! TF.SameCoordinates,Original*
G04 #@! TF.FileFunction,Legend,Bot*
G04 #@! TF.FilePolarity,Positive*
%FSLAX46Y46*%
G04 Gerber Fmt 4.6, Leading zero omitted, Abs format (unit mm)*
G04 Created by KiCad (PCBNEW 7.0.7) date 2023-09-27 18:33:17*
%MOMM*%
%LPD*%
G01*
G04 APERTURE LIST*
G04 Aperture macros list*
%AMRoundRect*
0 Rectangle with rounded corners*
0 $1 Rounding radius*
0 $2 $3 $4 $5 $6 $7 $8 $9 X,Y pos of 4 corners*
0 Add a 4 corners polygon primitive as box body*
4,1,4,$2,$3,$4,$5,$6,$7,$8,$9,$2,$3,0*
0 Add four circle primitives for the rounded corners*
1,1,$1+$1,$2,$3*
1,1,$1+$1,$4,$5*
1,1,$1+$1,$6,$7*
1,1,$1+$1,$8,$9*
0 Add four rect primitives between the rounded corners*
20,1,$1+$1,$2,$3,$4,$5,0*
20,1,$1+$1,$4,$5,$6,$7,0*
20,1,$1+$1,$6,$7,$8,$9,0*
20,1,$1+$1,$8,$9,$2,$3,0*%
G04 Aperture macros list end*
%ADD10C,0.100000*%
%ADD11C,0.150000*%
%ADD12C,0.300000*%
%ADD13C,0.400000*%
%ADD14C,0.600000*%
%ADD15C,0.200000*%
%ADD16C,0.127000*%
%ADD17C,0.120000*%
%ADD18C,0.381000*%
%ADD19C,0.700000*%
%ADD20O,2.100000X1.050000*%
%ADD21R,1.524000X1.524000*%
%ADD22C,1.524000*%
%ADD23C,3.500000*%
%ADD24R,1.100000X2.250000*%
%ADD25R,1.050000X1.100000*%
%ADD26C,1.600000*%
%ADD27C,2.010000*%
%ADD28C,3.000000*%
%ADD29R,1.400000X2.100000*%
%ADD30C,2.000000*%
%ADD31RoundRect,0.124800X-0.275200X0.475200X-0.275200X-0.475200X0.275200X-0.475200X0.275200X0.475200X0*%
%ADD32C,2.500000*%
%ADD33R,2.743200X2.743200*%
%ADD34C,2.743200*%
G04 #@! TA.AperFunction,Profile*
%ADD35C,0.100000*%
G04 #@! TD*
G04 APERTURE END LIST*
D10*
D11*
X177002200Y-166007200D02*
X285002200Y-166007200D01*
X285002200Y-198007200D01*
X177002200Y-198007200D01*
X177002200Y-166007200D01*
D10*
D11*
X10000000Y-10000000D02*
X287002200Y-10000000D01*
X287002200Y-200007200D01*
X10000000Y-200007200D01*
X10000000Y-10000000D01*
D10*
D11*
X12000000Y-12000000D02*
X285002200Y-12000000D01*
X285002200Y-198007200D01*
X12000000Y-198007200D01*
X12000000Y-12000000D01*
D10*
D11*
X60000000Y-12000000D02*
X60000000Y-10000000D01*
D10*
D11*
X110000000Y-12000000D02*
X110000000Y-10000000D01*
D10*
D11*
X160000000Y-12000000D02*
X160000000Y-10000000D01*
D10*
D11*
X210000000Y-12000000D02*
X210000000Y-10000000D01*
D10*
D11*
X260000000Y-12000000D02*
X260000000Y-10000000D01*
D10*
D11*
X36089160Y-11593604D02*
X35346303Y-11593604D01*
X35717731Y-11593604D02*
X35717731Y-10293604D01*
X35717731Y-10293604D02*
X35593922Y-10479319D01*
X35593922Y-10479319D02*
X35470112Y-10603128D01*
X35470112Y-10603128D02*
X35346303Y-10665033D01*
D10*
D11*
X85346303Y-10417414D02*
X85408207Y-10355509D01*
X85408207Y-10355509D02*
X85532017Y-10293604D01*
X85532017Y-10293604D02*
X85841541Y-10293604D01*
X85841541Y-10293604D02*
X85965350Y-10355509D01*
X85965350Y-10355509D02*
X86027255Y-10417414D01*
X86027255Y-10417414D02*
X86089160Y-10541223D01*
X86089160Y-10541223D02*
X86089160Y-10665033D01*
X86089160Y-10665033D02*
X86027255Y-10850747D01*
X86027255Y-10850747D02*
X85284398Y-11593604D01*
X85284398Y-11593604D02*
X86089160Y-11593604D01*
D10*
D11*
X135284398Y-10293604D02*
X136089160Y-10293604D01*
X136089160Y-10293604D02*
X135655826Y-10788842D01*
X135655826Y-10788842D02*
X135841541Y-10788842D01*
X135841541Y-10788842D02*
X135965350Y-10850747D01*
X135965350Y-10850747D02*
X136027255Y-10912652D01*
X136027255Y-10912652D02*
X136089160Y-11036461D01*
X136089160Y-11036461D02*
X136089160Y-11345985D01*
X136089160Y-11345985D02*
X136027255Y-11469795D01*
X136027255Y-11469795D02*
X135965350Y-11531700D01*
X135965350Y-11531700D02*
X135841541Y-11593604D01*
X135841541Y-11593604D02*
X135470112Y-11593604D01*
X135470112Y-11593604D02*
X135346303Y-11531700D01*
X135346303Y-11531700D02*
X135284398Y-11469795D01*
D10*
D11*
X185965350Y-10726938D02*
X185965350Y-11593604D01*
X185655826Y-10231700D02*
X185346303Y-11160271D01*
X185346303Y-11160271D02*
X186151064Y-11160271D01*
D10*
D11*
X236027255Y-10293604D02*
X235408207Y-10293604D01*
X235408207Y-10293604D02*
X235346303Y-10912652D01*
X235346303Y-10912652D02*
X235408207Y-10850747D01*
X235408207Y-10850747D02*
X235532017Y-10788842D01*
X235532017Y-10788842D02*
X235841541Y-10788842D01*
X235841541Y-10788842D02*
X235965350Y-10850747D01*
X235965350Y-10850747D02*
X236027255Y-10912652D01*
X236027255Y-10912652D02*
X236089160Y-11036461D01*
X236089160Y-11036461D02*
X236089160Y-11345985D01*
X236089160Y-11345985D02*
X236027255Y-11469795D01*
X236027255Y-11469795D02*
X235965350Y-11531700D01*
X235965350Y-11531700D02*
X235841541Y-11593604D01*
X235841541Y-11593604D02*
X235532017Y-11593604D01*
X235532017Y-11593604D02*
X235408207Y-11531700D01*
X235408207Y-11531700D02*
X235346303Y-11469795D01*
D10*
D11*
X285965350Y-10293604D02*
X285717731Y-10293604D01*
X285717731Y-10293604D02*
X285593922Y-10355509D01*
X285593922Y-10355509D02*
X285532017Y-10417414D01*
X285532017Y-10417414D02*
X285408207Y-10603128D01*
X285408207Y-10603128D02*
X285346303Y-10850747D01*
X285346303Y-10850747D02*
X285346303Y-11345985D01*
X285346303Y-11345985D02*
X285408207Y-11469795D01*
X285408207Y-11469795D02*
X285470112Y-11531700D01*
X285470112Y-11531700D02*
X285593922Y-11593604D01*
X285593922Y-11593604D02*
X285841541Y-11593604D01*
X285841541Y-11593604D02*
X285965350Y-11531700D01*
X285965350Y-11531700D02*
X286027255Y-11469795D01*
X286027255Y-11469795D02*
X286089160Y-11345985D01*
X286089160Y-11345985D02*
X286089160Y-11036461D01*
X286089160Y-11036461D02*
X286027255Y-10912652D01*
X286027255Y-10912652D02*
X285965350Y-10850747D01*
X285965350Y-10850747D02*
X285841541Y-10788842D01*
X285841541Y-10788842D02*
X285593922Y-10788842D01*
X285593922Y-10788842D02*
X285470112Y-10850747D01*
X285470112Y-10850747D02*
X285408207Y-10912652D01*
X285408207Y-10912652D02*
X285346303Y-11036461D01*
D10*
D11*
X60000000Y-198007200D02*
X60000000Y-200007200D01*
D10*
D11*
X110000000Y-198007200D02*
X110000000Y-200007200D01*
D10*
D11*
X160000000Y-198007200D02*
X160000000Y-200007200D01*
D10*
D11*
X210000000Y-198007200D02*
X210000000Y-200007200D01*
D10*
D11*
X260000000Y-198007200D02*
X260000000Y-200007200D01*
D10*
D11*
X36089160Y-199600804D02*
X35346303Y-199600804D01*
X35717731Y-199600804D02*
X35717731Y-198300804D01*
X35717731Y-198300804D02*
X35593922Y-198486519D01*
X35593922Y-198486519D02*
X35470112Y-198610328D01*
X35470112Y-198610328D02*
X35346303Y-198672233D01*
D10*
D11*
X85346303Y-198424614D02*
X85408207Y-198362709D01*
X85408207Y-198362709D02*
X85532017Y-198300804D01*
X85532017Y-198300804D02*
X85841541Y-198300804D01*
X85841541Y-198300804D02*
X85965350Y-198362709D01*
X85965350Y-198362709D02*
X86027255Y-198424614D01*
X86027255Y-198424614D02*
X86089160Y-198548423D01*
X86089160Y-198548423D02*
X86089160Y-198672233D01*
X86089160Y-198672233D02*
X86027255Y-198857947D01*
X86027255Y-198857947D02*
X85284398Y-199600804D01*
X85284398Y-199600804D02*
X86089160Y-199600804D01*
D10*
D11*
X135284398Y-198300804D02*
X136089160Y-198300804D01*
X136089160Y-198300804D02*
X135655826Y-198796042D01*
X135655826Y-198796042D02*
X135841541Y-198796042D01*
X135841541Y-198796042D02*
X135965350Y-198857947D01*
X135965350Y-198857947D02*
X136027255Y-198919852D01*
X136027255Y-198919852D02*
X136089160Y-199043661D01*
X136089160Y-199043661D02*
X136089160Y-199353185D01*
X136089160Y-199353185D02*
X136027255Y-199476995D01*
X136027255Y-199476995D02*
X135965350Y-199538900D01*
X135965350Y-199538900D02*
X135841541Y-199600804D01*
X135841541Y-199600804D02*
X135470112Y-199600804D01*
X135470112Y-199600804D02*
X135346303Y-199538900D01*
X135346303Y-199538900D02*
X135284398Y-199476995D01*
D10*
D11*
X185965350Y-198734138D02*
X185965350Y-199600804D01*
X185655826Y-198238900D02*
X185346303Y-199167471D01*
X185346303Y-199167471D02*
X186151064Y-199167471D01*
D10*
D11*
X236027255Y-198300804D02*
X235408207Y-198300804D01*
X235408207Y-198300804D02*
X235346303Y-198919852D01*
X235346303Y-198919852D02*
X235408207Y-198857947D01*
X235408207Y-198857947D02*
X235532017Y-198796042D01*
X235532017Y-198796042D02*
X235841541Y-198796042D01*
X235841541Y-198796042D02*
X235965350Y-198857947D01*
X235965350Y-198857947D02*
X236027255Y-198919852D01*
X236027255Y-198919852D02*
X236089160Y-199043661D01*
X236089160Y-199043661D02*
X236089160Y-199353185D01*
X236089160Y-199353185D02*
X236027255Y-199476995D01*
X236027255Y-199476995D02*
X235965350Y-199538900D01*
X235965350Y-199538900D02*
X235841541Y-199600804D01*
X235841541Y-199600804D02*
X235532017Y-199600804D01*
X235532017Y-199600804D02*
X235408207Y-199538900D01*
X235408207Y-199538900D02*
X235346303Y-199476995D01*
D10*
D11*
X285965350Y-198300804D02*
X285717731Y-198300804D01*
X285717731Y-198300804D02*
X285593922Y-198362709D01*
X285593922Y-198362709D02*
X285532017Y-198424614D01*
X285532017Y-198424614D02*
X285408207Y-198610328D01*
X285408207Y-198610328D02*
X285346303Y-198857947D01*
X285346303Y-198857947D02*
X285346303Y-199353185D01*
X285346303Y-199353185D02*
X285408207Y-199476995D01*
X285408207Y-199476995D02*
X285470112Y-199538900D01*
X285470112Y-199538900D02*
X285593922Y-199600804D01*
X285593922Y-199600804D02*
X285841541Y-199600804D01*
X285841541Y-199600804D02*
X285965350Y-199538900D01*
X285965350Y-199538900D02*
X286027255Y-199476995D01*
X286027255Y-199476995D02*
X286089160Y-199353185D01*
X286089160Y-199353185D02*
X286089160Y-199043661D01*
X286089160Y-199043661D02*
X286027255Y-198919852D01*
X286027255Y-198919852D02*
X285965350Y-198857947D01*
X285965350Y-198857947D02*
X285841541Y-198796042D01*
X285841541Y-198796042D02*
X285593922Y-198796042D01*
X285593922Y-198796042D02*
X285470112Y-198857947D01*
X285470112Y-198857947D02*
X285408207Y-198919852D01*
X285408207Y-198919852D02*
X285346303Y-199043661D01*
D10*
D11*
X10000000Y-60000000D02*
X12000000Y-60000000D01*
D10*
D11*
X10000000Y-110000000D02*
X12000000Y-110000000D01*
D10*
D11*
X10000000Y-160000000D02*
X12000000Y-160000000D01*
D10*
D11*
X10690476Y-35222176D02*
X11309523Y-35222176D01*
X10566666Y-35593604D02*
X10999999Y-34293604D01*
X10999999Y-34293604D02*
X11433333Y-35593604D01*
D10*
D11*
X11092857Y-84912652D02*
X11278571Y-84974557D01*
X11278571Y-84974557D02*
X11340476Y-85036461D01*
X11340476Y-85036461D02*
X11402380Y-85160271D01*
X11402380Y-85160271D02*
X11402380Y-85345985D01*
X11402380Y-85345985D02*
X11340476Y-85469795D01*
X11340476Y-85469795D02*
X11278571Y-85531700D01*
X11278571Y-85531700D02*
X11154761Y-85593604D01*
X11154761Y-85593604D02*
X10659523Y-85593604D01*
X10659523Y-85593604D02*
X10659523Y-84293604D01*
X10659523Y-84293604D02*
X11092857Y-84293604D01*
X11092857Y-84293604D02*
X11216666Y-84355509D01*
X11216666Y-84355509D02*
X11278571Y-84417414D01*
X11278571Y-84417414D02*
X11340476Y-84541223D01*
X11340476Y-84541223D02*
X11340476Y-84665033D01*
X11340476Y-84665033D02*
X11278571Y-84788842D01*
X11278571Y-84788842D02*
X11216666Y-84850747D01*
X11216666Y-84850747D02*
X11092857Y-84912652D01*
X11092857Y-84912652D02*
X10659523Y-84912652D01*
D10*
D11*
X11402380Y-135469795D02*
X11340476Y-135531700D01*
X11340476Y-135531700D02*
X11154761Y-135593604D01*
X11154761Y-135593604D02*
X11030952Y-135593604D01*
X11030952Y-135593604D02*
X10845238Y-135531700D01*
X10845238Y-135531700D02*
X10721428Y-135407890D01*
X10721428Y-135407890D02*
X10659523Y-135284080D01*
X10659523Y-135284080D02*
X10597619Y-135036461D01*
X10597619Y-135036461D02*
X10597619Y-134850747D01*
X10597619Y-134850747D02*
X10659523Y-134603128D01*
X10659523Y-134603128D02*
X10721428Y-134479319D01*
X10721428Y-134479319D02*
X10845238Y-134355509D01*
X10845238Y-134355509D02*
X11030952Y-134293604D01*
X11030952Y-134293604D02*
X11154761Y-134293604D01*
X11154761Y-134293604D02*
X11340476Y-134355509D01*
X11340476Y-134355509D02*
X11402380Y-134417414D01*
D10*
D11*
X10659523Y-185593604D02*
X10659523Y-184293604D01*
X10659523Y-184293604D02*
X10969047Y-184293604D01*
X10969047Y-184293604D02*
X11154761Y-184355509D01*
X11154761Y-184355509D02*
X11278571Y-184479319D01*
X11278571Y-184479319D02*
X11340476Y-184603128D01*
X11340476Y-184603128D02*
X11402380Y-184850747D01*
X11402380Y-184850747D02*
X11402380Y-185036461D01*
X11402380Y-185036461D02*
X11340476Y-185284080D01*
X11340476Y-185284080D02*
X11278571Y-185407890D01*
X11278571Y-185407890D02*
X11154761Y-185531700D01*
X11154761Y-185531700D02*
X10969047Y-185593604D01*
X10969047Y-185593604D02*
X10659523Y-185593604D01*
D10*
D11*
X287002200Y-60000000D02*
X285002200Y-60000000D01*
D10*
D11*
X287002200Y-110000000D02*
X285002200Y-110000000D01*
D10*
D11*
X287002200Y-160000000D02*
X285002200Y-160000000D01*
D10*
D11*
X285692676Y-35222176D02*
X286311723Y-35222176D01*
X285568866Y-35593604D02*
X286002199Y-34293604D01*
X286002199Y-34293604D02*
X286435533Y-35593604D01*
D10*
D11*
X286095057Y-84912652D02*
X286280771Y-84974557D01*
X286280771Y-84974557D02*
X286342676Y-85036461D01*
X286342676Y-85036461D02*
X286404580Y-85160271D01*
X286404580Y-85160271D02*
X286404580Y-85345985D01*
X286404580Y-85345985D02*
X286342676Y-85469795D01*
X286342676Y-85469795D02*
X286280771Y-85531700D01*
X286280771Y-85531700D02*
X286156961Y-85593604D01*
X286156961Y-85593604D02*
X285661723Y-85593604D01*
X285661723Y-85593604D02*
X285661723Y-84293604D01*
X285661723Y-84293604D02*
X286095057Y-84293604D01*
X286095057Y-84293604D02*
X286218866Y-84355509D01*
X286218866Y-84355509D02*
X286280771Y-84417414D01*
X286280771Y-84417414D02*
X286342676Y-84541223D01*
X286342676Y-84541223D02*
X286342676Y-84665033D01*
X286342676Y-84665033D02*
X286280771Y-84788842D01*
X286280771Y-84788842D02*
X286218866Y-84850747D01*
X286218866Y-84850747D02*
X286095057Y-84912652D01*
X286095057Y-84912652D02*
X285661723Y-84912652D01*
D10*
D11*
X286404580Y-135469795D02*
X286342676Y-135531700D01*
X286342676Y-135531700D02*
X286156961Y-135593604D01*
X286156961Y-135593604D02*
X286033152Y-135593604D01*
X286033152Y-135593604D02*
X285847438Y-135531700D01*
X285847438Y-135531700D02*
X285723628Y-135407890D01*
X285723628Y-135407890D02*
X285661723Y-135284080D01*
X285661723Y-135284080D02*
X285599819Y-135036461D01*
X285599819Y-135036461D02*
X285599819Y-134850747D01*
X285599819Y-134850747D02*
X285661723Y-134603128D01*
X285661723Y-134603128D02*
X285723628Y-134479319D01*
X285723628Y-134479319D02*
X285847438Y-134355509D01*
X285847438Y-134355509D02*
X286033152Y-134293604D01*
X286033152Y-134293604D02*
X286156961Y-134293604D01*
X286156961Y-134293604D02*
X286342676Y-134355509D01*
X286342676Y-134355509D02*
X286404580Y-134417414D01*
D10*
D11*
X285661723Y-185593604D02*
X285661723Y-184293604D01*
X285661723Y-184293604D02*
X285971247Y-184293604D01*
X285971247Y-184293604D02*
X286156961Y-184355509D01*
X286156961Y-184355509D02*
X286280771Y-184479319D01*
X286280771Y-184479319D02*
X286342676Y-184603128D01*
X286342676Y-184603128D02*
X286404580Y-184850747D01*
X286404580Y-184850747D02*
X286404580Y-185036461D01*
X286404580Y-185036461D02*
X286342676Y-185284080D01*
X286342676Y-185284080D02*
X286280771Y-185407890D01*
X286280771Y-185407890D02*
X286156961Y-185531700D01*
X286156961Y-185531700D02*
X285971247Y-185593604D01*
X285971247Y-185593604D02*
X285661723Y-185593604D01*
D10*
D11*
X200458026Y-193793328D02*
X200458026Y-192293328D01*
X200458026Y-192293328D02*
X200815169Y-192293328D01*
X200815169Y-192293328D02*
X201029455Y-192364757D01*
X201029455Y-192364757D02*
X201172312Y-192507614D01*
X201172312Y-192507614D02*
X201243741Y-192650471D01*
X201243741Y-192650471D02*
X201315169Y-192936185D01*
X201315169Y-192936185D02*
X201315169Y-193150471D01*
X201315169Y-193150471D02*
X201243741Y-193436185D01*
X201243741Y-193436185D02*
X201172312Y-193579042D01*
X201172312Y-193579042D02*
X201029455Y-193721900D01*
X201029455Y-193721900D02*
X200815169Y-193793328D01*
X200815169Y-193793328D02*
X200458026Y-193793328D01*
X202600884Y-193793328D02*
X202600884Y-193007614D01*
X202600884Y-193007614D02*
X202529455Y-192864757D01*
X202529455Y-192864757D02*
X202386598Y-192793328D01*
X202386598Y-192793328D02*
X202100884Y-192793328D01*
X202100884Y-192793328D02*
X201958026Y-192864757D01*
X202600884Y-193721900D02*
X202458026Y-193793328D01*
X202458026Y-193793328D02*
X202100884Y-193793328D01*
X202100884Y-193793328D02*
X201958026Y-193721900D01*
X201958026Y-193721900D02*
X201886598Y-193579042D01*
X201886598Y-193579042D02*
X201886598Y-193436185D01*
X201886598Y-193436185D02*
X201958026Y-193293328D01*
X201958026Y-193293328D02*
X202100884Y-193221900D01*
X202100884Y-193221900D02*
X202458026Y-193221900D01*
X202458026Y-193221900D02*
X202600884Y-193150471D01*
X203100884Y-192793328D02*
X203672312Y-192793328D01*
X203315169Y-192293328D02*
X203315169Y-193579042D01*
X203315169Y-193579042D02*
X203386598Y-193721900D01*
X203386598Y-193721900D02*
X203529455Y-193793328D01*
X203529455Y-193793328D02*
X203672312Y-193793328D01*
X204743741Y-193721900D02*
X204600884Y-193793328D01*
X204600884Y-193793328D02*
X204315170Y-193793328D01*
X204315170Y-193793328D02*
X204172312Y-193721900D01*
X204172312Y-193721900D02*
X204100884Y-193579042D01*
X204100884Y-193579042D02*
X204100884Y-193007614D01*
X204100884Y-193007614D02*
X204172312Y-192864757D01*
X204172312Y-192864757D02*
X204315170Y-192793328D01*
X204315170Y-192793328D02*
X204600884Y-192793328D01*
X204600884Y-192793328D02*
X204743741Y-192864757D01*
X204743741Y-192864757D02*
X204815170Y-193007614D01*
X204815170Y-193007614D02*
X204815170Y-193150471D01*
X204815170Y-193150471D02*
X204100884Y-193293328D01*
X205458026Y-193650471D02*
X205529455Y-193721900D01*
X205529455Y-193721900D02*
X205458026Y-193793328D01*
X205458026Y-193793328D02*
X205386598Y-193721900D01*
X205386598Y-193721900D02*
X205458026Y-193650471D01*
X205458026Y-193650471D02*
X205458026Y-193793328D01*
X205458026Y-192864757D02*
X205529455Y-192936185D01*
X205529455Y-192936185D02*
X205458026Y-193007614D01*
X205458026Y-193007614D02*
X205386598Y-192936185D01*
X205386598Y-192936185D02*
X205458026Y-192864757D01*
X205458026Y-192864757D02*
X205458026Y-193007614D01*
X207243741Y-192436185D02*
X207315169Y-192364757D01*
X207315169Y-192364757D02*
X207458027Y-192293328D01*
X207458027Y-192293328D02*
X207815169Y-192293328D01*
X207815169Y-192293328D02*
X207958027Y-192364757D01*
X207958027Y-192364757D02*
X208029455Y-192436185D01*
X208029455Y-192436185D02*
X208100884Y-192579042D01*
X208100884Y-192579042D02*
X208100884Y-192721900D01*
X208100884Y-192721900D02*
X208029455Y-192936185D01*
X208029455Y-192936185D02*
X207172312Y-193793328D01*
X207172312Y-193793328D02*
X208100884Y-193793328D01*
X209029455Y-192293328D02*
X209172312Y-192293328D01*
X209172312Y-192293328D02*
X209315169Y-192364757D01*
X209315169Y-192364757D02*
X209386598Y-192436185D01*
X209386598Y-192436185D02*
X209458026Y-192579042D01*
X209458026Y-192579042D02*
X209529455Y-192864757D01*
X209529455Y-192864757D02*
X209529455Y-193221900D01*
X209529455Y-193221900D02*
X209458026Y-193507614D01*
X209458026Y-193507614D02*
X209386598Y-193650471D01*
X209386598Y-193650471D02*
X209315169Y-193721900D01*
X209315169Y-193721900D02*
X209172312Y-193793328D01*
X209172312Y-193793328D02*
X209029455Y-193793328D01*
X209029455Y-193793328D02*
X208886598Y-193721900D01*
X208886598Y-193721900D02*
X208815169Y-193650471D01*
X208815169Y-193650471D02*
X208743740Y-193507614D01*
X208743740Y-193507614D02*
X208672312Y-193221900D01*
X208672312Y-193221900D02*
X208672312Y-192864757D01*
X208672312Y-192864757D02*
X208743740Y-192579042D01*
X208743740Y-192579042D02*
X208815169Y-192436185D01*
X208815169Y-192436185D02*
X208886598Y-192364757D01*
X208886598Y-192364757D02*
X209029455Y-192293328D01*
X210100883Y-192436185D02*
X210172311Y-192364757D01*
X210172311Y-192364757D02*
X210315169Y-192293328D01*
X210315169Y-192293328D02*
X210672311Y-192293328D01*
X210672311Y-192293328D02*
X210815169Y-192364757D01*
X210815169Y-192364757D02*
X210886597Y-192436185D01*
X210886597Y-192436185D02*
X210958026Y-192579042D01*
X210958026Y-192579042D02*
X210958026Y-192721900D01*
X210958026Y-192721900D02*
X210886597Y-192936185D01*
X210886597Y-192936185D02*
X210029454Y-193793328D01*
X210029454Y-193793328D02*
X210958026Y-193793328D01*
X212386597Y-193793328D02*
X211529454Y-193793328D01*
X211958025Y-193793328D02*
X211958025Y-192293328D01*
X211958025Y-192293328D02*
X211815168Y-192507614D01*
X211815168Y-192507614D02*
X211672311Y-192650471D01*
X211672311Y-192650471D02*
X211529454Y-192721900D01*
X213029453Y-193221900D02*
X214172311Y-193221900D01*
X215672311Y-193793328D02*
X214815168Y-193793328D01*
X215243739Y-193793328D02*
X215243739Y-192293328D01*
X215243739Y-192293328D02*
X215100882Y-192507614D01*
X215100882Y-192507614D02*
X214958025Y-192650471D01*
X214958025Y-192650471D02*
X214815168Y-192721900D01*
X216243739Y-192436185D02*
X216315167Y-192364757D01*
X216315167Y-192364757D02*
X216458025Y-192293328D01*
X216458025Y-192293328D02*
X216815167Y-192293328D01*
X216815167Y-192293328D02*
X216958025Y-192364757D01*
X216958025Y-192364757D02*
X217029453Y-192436185D01*
X217029453Y-192436185D02*
X217100882Y-192579042D01*
X217100882Y-192579042D02*
X217100882Y-192721900D01*
X217100882Y-192721900D02*
X217029453Y-192936185D01*
X217029453Y-192936185D02*
X216172310Y-193793328D01*
X216172310Y-193793328D02*
X217100882Y-193793328D01*
X217743738Y-193221900D02*
X218886596Y-193221900D01*
X219529453Y-192436185D02*
X219600881Y-192364757D01*
X219600881Y-192364757D02*
X219743739Y-192293328D01*
X219743739Y-192293328D02*
X220100881Y-192293328D01*
X220100881Y-192293328D02*
X220243739Y-192364757D01*
X220243739Y-192364757D02*
X220315167Y-192436185D01*
X220315167Y-192436185D02*
X220386596Y-192579042D01*
X220386596Y-192579042D02*
X220386596Y-192721900D01*
X220386596Y-192721900D02*
X220315167Y-192936185D01*
X220315167Y-192936185D02*
X219458024Y-193793328D01*
X219458024Y-193793328D02*
X220386596Y-193793328D01*
X221243738Y-192936185D02*
X221100881Y-192864757D01*
X221100881Y-192864757D02*
X221029452Y-192793328D01*
X221029452Y-192793328D02*
X220958024Y-192650471D01*
X220958024Y-192650471D02*
X220958024Y-192579042D01*
X220958024Y-192579042D02*
X221029452Y-192436185D01*
X221029452Y-192436185D02*
X221100881Y-192364757D01*
X221100881Y-192364757D02*
X221243738Y-192293328D01*
X221243738Y-192293328D02*
X221529452Y-192293328D01*
X221529452Y-192293328D02*
X221672310Y-192364757D01*
X221672310Y-192364757D02*
X221743738Y-192436185D01*
X221743738Y-192436185D02*
X221815167Y-192579042D01*
X221815167Y-192579042D02*
X221815167Y-192650471D01*
X221815167Y-192650471D02*
X221743738Y-192793328D01*
X221743738Y-192793328D02*
X221672310Y-192864757D01*
X221672310Y-192864757D02*
X221529452Y-192936185D01*
X221529452Y-192936185D02*
X221243738Y-192936185D01*
X221243738Y-192936185D02*
X221100881Y-193007614D01*
X221100881Y-193007614D02*
X221029452Y-193079042D01*
X221029452Y-193079042D02*
X220958024Y-193221900D01*
X220958024Y-193221900D02*
X220958024Y-193507614D01*
X220958024Y-193507614D02*
X221029452Y-193650471D01*
X221029452Y-193650471D02*
X221100881Y-193721900D01*
X221100881Y-193721900D02*
X221243738Y-193793328D01*
X221243738Y-193793328D02*
X221529452Y-193793328D01*
X221529452Y-193793328D02*
X221672310Y-193721900D01*
X221672310Y-193721900D02*
X221743738Y-193650471D01*
X221743738Y-193650471D02*
X221815167Y-193507614D01*
X221815167Y-193507614D02*
X221815167Y-193221900D01*
X221815167Y-193221900D02*
X221743738Y-193079042D01*
X221743738Y-193079042D02*
X221672310Y-193007614D01*
X221672310Y-193007614D02*
X221529452Y-192936185D01*
D10*
D11*
X177002200Y-194507200D02*
X285002200Y-194507200D01*
D10*
D11*
X178458026Y-196593328D02*
X178458026Y-195093328D01*
X179315169Y-196593328D02*
X178672312Y-195736185D01*
X179315169Y-195093328D02*
X178458026Y-195950471D01*
X179958026Y-196593328D02*
X179958026Y-195593328D01*
X179958026Y-195093328D02*
X179886598Y-195164757D01*
X179886598Y-195164757D02*
X179958026Y-195236185D01*
X179958026Y-195236185D02*
X180029455Y-195164757D01*
X180029455Y-195164757D02*
X179958026Y-195093328D01*
X179958026Y-195093328D02*
X179958026Y-195236185D01*
X181529455Y-196450471D02*
X181458027Y-196521900D01*
X181458027Y-196521900D02*
X181243741Y-196593328D01*
X181243741Y-196593328D02*
X181100884Y-196593328D01*
X181100884Y-196593328D02*
X180886598Y-196521900D01*
X180886598Y-196521900D02*
X180743741Y-196379042D01*
X180743741Y-196379042D02*
X180672312Y-196236185D01*
X180672312Y-196236185D02*
X180600884Y-195950471D01*
X180600884Y-195950471D02*
X180600884Y-195736185D01*
X180600884Y-195736185D02*
X180672312Y-195450471D01*
X180672312Y-195450471D02*
X180743741Y-195307614D01*
X180743741Y-195307614D02*
X180886598Y-195164757D01*
X180886598Y-195164757D02*
X181100884Y-195093328D01*
X181100884Y-195093328D02*
X181243741Y-195093328D01*
X181243741Y-195093328D02*
X181458027Y-195164757D01*
X181458027Y-195164757D02*
X181529455Y-195236185D01*
X182815170Y-196593328D02*
X182815170Y-195807614D01*
X182815170Y-195807614D02*
X182743741Y-195664757D01*
X182743741Y-195664757D02*
X182600884Y-195593328D01*
X182600884Y-195593328D02*
X182315170Y-195593328D01*
X182315170Y-195593328D02*
X182172312Y-195664757D01*
X182815170Y-196521900D02*
X182672312Y-196593328D01*
X182672312Y-196593328D02*
X182315170Y-196593328D01*
X182315170Y-196593328D02*
X182172312Y-196521900D01*
X182172312Y-196521900D02*
X182100884Y-196379042D01*
X182100884Y-196379042D02*
X182100884Y-196236185D01*
X182100884Y-196236185D02*
X182172312Y-196093328D01*
X182172312Y-196093328D02*
X182315170Y-196021900D01*
X182315170Y-196021900D02*
X182672312Y-196021900D01*
X182672312Y-196021900D02*
X182815170Y-195950471D01*
X184172313Y-196593328D02*
X184172313Y-195093328D01*
X184172313Y-196521900D02*
X184029455Y-196593328D01*
X184029455Y-196593328D02*
X183743741Y-196593328D01*
X183743741Y-196593328D02*
X183600884Y-196521900D01*
X183600884Y-196521900D02*
X183529455Y-196450471D01*
X183529455Y-196450471D02*
X183458027Y-196307614D01*
X183458027Y-196307614D02*
X183458027Y-195879042D01*
X183458027Y-195879042D02*
X183529455Y-195736185D01*
X183529455Y-195736185D02*
X183600884Y-195664757D01*
X183600884Y-195664757D02*
X183743741Y-195593328D01*
X183743741Y-195593328D02*
X184029455Y-195593328D01*
X184029455Y-195593328D02*
X184172313Y-195664757D01*
X186029455Y-195807614D02*
X186529455Y-195807614D01*
X186743741Y-196593328D02*
X186029455Y-196593328D01*
X186029455Y-196593328D02*
X186029455Y-195093328D01*
X186029455Y-195093328D02*
X186743741Y-195093328D01*
X187386598Y-196450471D02*
X187458027Y-196521900D01*
X187458027Y-196521900D02*
X187386598Y-196593328D01*
X187386598Y-196593328D02*
X187315170Y-196521900D01*
X187315170Y-196521900D02*
X187386598Y-196450471D01*
X187386598Y-196450471D02*
X187386598Y-196593328D01*
X188100884Y-196593328D02*
X188100884Y-195093328D01*
X188100884Y-195093328D02*
X188458027Y-195093328D01*
X188458027Y-195093328D02*
X188672313Y-195164757D01*
X188672313Y-195164757D02*
X188815170Y-195307614D01*
X188815170Y-195307614D02*
X188886599Y-195450471D01*
X188886599Y-195450471D02*
X188958027Y-195736185D01*
X188958027Y-195736185D02*
X188958027Y-195950471D01*
X188958027Y-195950471D02*
X188886599Y-196236185D01*
X188886599Y-196236185D02*
X188815170Y-196379042D01*
X188815170Y-196379042D02*
X188672313Y-196521900D01*
X188672313Y-196521900D02*
X188458027Y-196593328D01*
X188458027Y-196593328D02*
X188100884Y-196593328D01*
X189600884Y-196450471D02*
X189672313Y-196521900D01*
X189672313Y-196521900D02*
X189600884Y-196593328D01*
X189600884Y-196593328D02*
X189529456Y-196521900D01*
X189529456Y-196521900D02*
X189600884Y-196450471D01*
X189600884Y-196450471D02*
X189600884Y-196593328D01*
X190243742Y-196164757D02*
X190958028Y-196164757D01*
X190100885Y-196593328D02*
X190600885Y-195093328D01*
X190600885Y-195093328D02*
X191100885Y-196593328D01*
X191600884Y-196450471D02*
X191672313Y-196521900D01*
X191672313Y-196521900D02*
X191600884Y-196593328D01*
X191600884Y-196593328D02*
X191529456Y-196521900D01*
X191529456Y-196521900D02*
X191600884Y-196450471D01*
X191600884Y-196450471D02*
X191600884Y-196593328D01*
X194600884Y-196593328D02*
X194600884Y-195093328D01*
X194743742Y-196021900D02*
X195172313Y-196593328D01*
X195172313Y-195593328D02*
X194600884Y-196164757D01*
X195815170Y-196593328D02*
X195815170Y-195593328D01*
X195815170Y-195093328D02*
X195743742Y-195164757D01*
X195743742Y-195164757D02*
X195815170Y-195236185D01*
X195815170Y-195236185D02*
X195886599Y-195164757D01*
X195886599Y-195164757D02*
X195815170Y-195093328D01*
X195815170Y-195093328D02*
X195815170Y-195236185D01*
X197172314Y-196521900D02*
X197029456Y-196593328D01*
X197029456Y-196593328D02*
X196743742Y-196593328D01*
X196743742Y-196593328D02*
X196600885Y-196521900D01*
X196600885Y-196521900D02*
X196529456Y-196450471D01*
X196529456Y-196450471D02*
X196458028Y-196307614D01*
X196458028Y-196307614D02*
X196458028Y-195879042D01*
X196458028Y-195879042D02*
X196529456Y-195736185D01*
X196529456Y-195736185D02*
X196600885Y-195664757D01*
X196600885Y-195664757D02*
X196743742Y-195593328D01*
X196743742Y-195593328D02*
X197029456Y-195593328D01*
X197029456Y-195593328D02*
X197172314Y-195664757D01*
X198458028Y-196593328D02*
X198458028Y-195807614D01*
X198458028Y-195807614D02*
X198386599Y-195664757D01*
X198386599Y-195664757D02*
X198243742Y-195593328D01*
X198243742Y-195593328D02*
X197958028Y-195593328D01*
X197958028Y-195593328D02*
X197815170Y-195664757D01*
X198458028Y-196521900D02*
X198315170Y-196593328D01*
X198315170Y-196593328D02*
X197958028Y-196593328D01*
X197958028Y-196593328D02*
X197815170Y-196521900D01*
X197815170Y-196521900D02*
X197743742Y-196379042D01*
X197743742Y-196379042D02*
X197743742Y-196236185D01*
X197743742Y-196236185D02*
X197815170Y-196093328D01*
X197815170Y-196093328D02*
X197958028Y-196021900D01*
X197958028Y-196021900D02*
X198315170Y-196021900D01*
X198315170Y-196021900D02*
X198458028Y-195950471D01*
X199815171Y-196593328D02*
X199815171Y-195093328D01*
X199815171Y-196521900D02*
X199672313Y-196593328D01*
X199672313Y-196593328D02*
X199386599Y-196593328D01*
X199386599Y-196593328D02*
X199243742Y-196521900D01*
X199243742Y-196521900D02*
X199172313Y-196450471D01*
X199172313Y-196450471D02*
X199100885Y-196307614D01*
X199100885Y-196307614D02*
X199100885Y-195879042D01*
X199100885Y-195879042D02*
X199172313Y-195736185D01*
X199172313Y-195736185D02*
X199243742Y-195664757D01*
X199243742Y-195664757D02*
X199386599Y-195593328D01*
X199386599Y-195593328D02*
X199672313Y-195593328D01*
X199672313Y-195593328D02*
X199815171Y-195664757D01*
X201529456Y-195093328D02*
X202529456Y-195093328D01*
X202529456Y-195093328D02*
X201886599Y-196593328D01*
X203100884Y-196450471D02*
X203172313Y-196521900D01*
X203172313Y-196521900D02*
X203100884Y-196593328D01*
X203100884Y-196593328D02*
X203029456Y-196521900D01*
X203029456Y-196521900D02*
X203100884Y-196450471D01*
X203100884Y-196450471D02*
X203100884Y-196593328D01*
X204100885Y-195093328D02*
X204243742Y-195093328D01*
X204243742Y-195093328D02*
X204386599Y-195164757D01*
X204386599Y-195164757D02*
X204458028Y-195236185D01*
X204458028Y-195236185D02*
X204529456Y-195379042D01*
X204529456Y-195379042D02*
X204600885Y-195664757D01*
X204600885Y-195664757D02*
X204600885Y-196021900D01*
X204600885Y-196021900D02*
X204529456Y-196307614D01*
X204529456Y-196307614D02*
X204458028Y-196450471D01*
X204458028Y-196450471D02*
X204386599Y-196521900D01*
X204386599Y-196521900D02*
X204243742Y-196593328D01*
X204243742Y-196593328D02*
X204100885Y-196593328D01*
X204100885Y-196593328D02*
X203958028Y-196521900D01*
X203958028Y-196521900D02*
X203886599Y-196450471D01*
X203886599Y-196450471D02*
X203815170Y-196307614D01*
X203815170Y-196307614D02*
X203743742Y-196021900D01*
X203743742Y-196021900D02*
X203743742Y-195664757D01*
X203743742Y-195664757D02*
X203815170Y-195379042D01*
X203815170Y-195379042D02*
X203886599Y-195236185D01*
X203886599Y-195236185D02*
X203958028Y-195164757D01*
X203958028Y-195164757D02*
X204100885Y-195093328D01*
X205243741Y-196450471D02*
X205315170Y-196521900D01*
X205315170Y-196521900D02*
X205243741Y-196593328D01*
X205243741Y-196593328D02*
X205172313Y-196521900D01*
X205172313Y-196521900D02*
X205243741Y-196450471D01*
X205243741Y-196450471D02*
X205243741Y-196593328D01*
X205815170Y-195093328D02*
X206815170Y-195093328D01*
X206815170Y-195093328D02*
X206172313Y-196593328D01*
D10*
D11*
X177002200Y-191507200D02*
X285002200Y-191507200D01*
D10*
D12*
X264413853Y-193785528D02*
X263913853Y-193071242D01*
X263556710Y-193785528D02*
X263556710Y-192285528D01*
X263556710Y-192285528D02*
X264128139Y-192285528D01*
X264128139Y-192285528D02*
X264270996Y-192356957D01*
X264270996Y-192356957D02*
X264342425Y-192428385D01*
X264342425Y-192428385D02*
X264413853Y-192571242D01*
X264413853Y-192571242D02*
X264413853Y-192785528D01*
X264413853Y-192785528D02*
X264342425Y-192928385D01*
X264342425Y-192928385D02*
X264270996Y-192999814D01*
X264270996Y-192999814D02*
X264128139Y-193071242D01*
X264128139Y-193071242D02*
X263556710Y-193071242D01*
X265628139Y-193714100D02*
X265485282Y-193785528D01*
X265485282Y-193785528D02*
X265199568Y-193785528D01*
X265199568Y-193785528D02*
X265056710Y-193714100D01*
X265056710Y-193714100D02*
X264985282Y-193571242D01*
X264985282Y-193571242D02*
X264985282Y-192999814D01*
X264985282Y-192999814D02*
X265056710Y-192856957D01*
X265056710Y-192856957D02*
X265199568Y-192785528D01*
X265199568Y-192785528D02*
X265485282Y-192785528D01*
X265485282Y-192785528D02*
X265628139Y-192856957D01*
X265628139Y-192856957D02*
X265699568Y-192999814D01*
X265699568Y-192999814D02*
X265699568Y-193142671D01*
X265699568Y-193142671D02*
X264985282Y-193285528D01*
X266199567Y-192785528D02*
X266556710Y-193785528D01*
X266556710Y-193785528D02*
X266913853Y-192785528D01*
X267485281Y-193642671D02*
X267556710Y-193714100D01*
X267556710Y-193714100D02*
X267485281Y-193785528D01*
X267485281Y-193785528D02*
X267413853Y-193714100D01*
X267413853Y-193714100D02*
X267485281Y-193642671D01*
X267485281Y-193642671D02*
X267485281Y-193785528D01*
X267485281Y-192856957D02*
X267556710Y-192928385D01*
X267556710Y-192928385D02*
X267485281Y-192999814D01*
X267485281Y-192999814D02*
X267413853Y-192928385D01*
X267413853Y-192928385D02*
X267485281Y-192856957D01*
X267485281Y-192856957D02*
X267485281Y-192999814D01*
X270056710Y-192285528D02*
X269342424Y-192285528D01*
X269342424Y-192285528D02*
X269270996Y-192999814D01*
X269270996Y-192999814D02*
X269342424Y-192928385D01*
X269342424Y-192928385D02*
X269485282Y-192856957D01*
X269485282Y-192856957D02*
X269842424Y-192856957D01*
X269842424Y-192856957D02*
X269985282Y-192928385D01*
X269985282Y-192928385D02*
X270056710Y-192999814D01*
X270056710Y-192999814D02*
X270128139Y-193142671D01*
X270128139Y-193142671D02*
X270128139Y-193499814D01*
X270128139Y-193499814D02*
X270056710Y-193642671D01*
X270056710Y-193642671D02*
X269985282Y-193714100D01*
X269985282Y-193714100D02*
X269842424Y-193785528D01*
X269842424Y-193785528D02*
X269485282Y-193785528D01*
X269485282Y-193785528D02*
X269342424Y-193714100D01*
X269342424Y-193714100D02*
X269270996Y-193642671D01*
X270770995Y-193642671D02*
X270842424Y-193714100D01*
X270842424Y-193714100D02*
X270770995Y-193785528D01*
X270770995Y-193785528D02*
X270699567Y-193714100D01*
X270699567Y-193714100D02*
X270770995Y-193642671D01*
X270770995Y-193642671D02*
X270770995Y-193785528D01*
X271342424Y-192285528D02*
X272270996Y-192285528D01*
X272270996Y-192285528D02*
X271770996Y-192856957D01*
X271770996Y-192856957D02*
X271985281Y-192856957D01*
X271985281Y-192856957D02*
X272128139Y-192928385D01*
X272128139Y-192928385D02*
X272199567Y-192999814D01*
X272199567Y-192999814D02*
X272270996Y-193142671D01*
X272270996Y-193142671D02*
X272270996Y-193499814D01*
X272270996Y-193499814D02*
X272199567Y-193642671D01*
X272199567Y-193642671D02*
X272128139Y-193714100D01*
X272128139Y-193714100D02*
X271985281Y-193785528D01*
X271985281Y-193785528D02*
X271556710Y-193785528D01*
X271556710Y-193785528D02*
X271413853Y-193714100D01*
X271413853Y-193714100D02*
X271342424Y-193642671D01*
D10*
D11*
X178386598Y-193721900D02*
X178600884Y-193793328D01*
X178600884Y-193793328D02*
X178958026Y-193793328D01*
X178958026Y-193793328D02*
X179100884Y-193721900D01*
X179100884Y-193721900D02*
X179172312Y-193650471D01*
X179172312Y-193650471D02*
X179243741Y-193507614D01*
X179243741Y-193507614D02*
X179243741Y-193364757D01*
X179243741Y-193364757D02*
X179172312Y-193221900D01*
X179172312Y-193221900D02*
X179100884Y-193150471D01*
X179100884Y-193150471D02*
X178958026Y-193079042D01*
X178958026Y-193079042D02*
X178672312Y-193007614D01*
X178672312Y-193007614D02*
X178529455Y-192936185D01*
X178529455Y-192936185D02*
X178458026Y-192864757D01*
X178458026Y-192864757D02*
X178386598Y-192721900D01*
X178386598Y-192721900D02*
X178386598Y-192579042D01*
X178386598Y-192579042D02*
X178458026Y-192436185D01*
X178458026Y-192436185D02*
X178529455Y-192364757D01*
X178529455Y-192364757D02*
X178672312Y-192293328D01*
X178672312Y-192293328D02*
X179029455Y-192293328D01*
X179029455Y-192293328D02*
X179243741Y-192364757D01*
X179886597Y-193793328D02*
X179886597Y-192793328D01*
X179886597Y-192293328D02*
X179815169Y-192364757D01*
X179815169Y-192364757D02*
X179886597Y-192436185D01*
X179886597Y-192436185D02*
X179958026Y-192364757D01*
X179958026Y-192364757D02*
X179886597Y-192293328D01*
X179886597Y-192293328D02*
X179886597Y-192436185D01*
X180458026Y-192793328D02*
X181243741Y-192793328D01*
X181243741Y-192793328D02*
X180458026Y-193793328D01*
X180458026Y-193793328D02*
X181243741Y-193793328D01*
X182386598Y-193721900D02*
X182243741Y-193793328D01*
X182243741Y-193793328D02*
X181958027Y-193793328D01*
X181958027Y-193793328D02*
X181815169Y-193721900D01*
X181815169Y-193721900D02*
X181743741Y-193579042D01*
X181743741Y-193579042D02*
X181743741Y-193007614D01*
X181743741Y-193007614D02*
X181815169Y-192864757D01*
X181815169Y-192864757D02*
X181958027Y-192793328D01*
X181958027Y-192793328D02*
X182243741Y-192793328D01*
X182243741Y-192793328D02*
X182386598Y-192864757D01*
X182386598Y-192864757D02*
X182458027Y-193007614D01*
X182458027Y-193007614D02*
X182458027Y-193150471D01*
X182458027Y-193150471D02*
X181743741Y-193293328D01*
X183100883Y-193650471D02*
X183172312Y-193721900D01*
X183172312Y-193721900D02*
X183100883Y-193793328D01*
X183100883Y-193793328D02*
X183029455Y-193721900D01*
X183029455Y-193721900D02*
X183100883Y-193650471D01*
X183100883Y-193650471D02*
X183100883Y-193793328D01*
X183100883Y-192864757D02*
X183172312Y-192936185D01*
X183172312Y-192936185D02*
X183100883Y-193007614D01*
X183100883Y-193007614D02*
X183029455Y-192936185D01*
X183029455Y-192936185D02*
X183100883Y-192864757D01*
X183100883Y-192864757D02*
X183100883Y-193007614D01*
X184886598Y-193364757D02*
X185600884Y-193364757D01*
X184743741Y-193793328D02*
X185243741Y-192293328D01*
X185243741Y-192293328D02*
X185743741Y-193793328D01*
X186886598Y-192793328D02*
X186886598Y-193793328D01*
X186529455Y-192221900D02*
X186172312Y-193293328D01*
X186172312Y-193293328D02*
X187100883Y-193293328D01*
D10*
D11*
X263458026Y-196593328D02*
X263458026Y-195093328D01*
X264815170Y-196593328D02*
X264815170Y-195093328D01*
X264815170Y-196521900D02*
X264672312Y-196593328D01*
X264672312Y-196593328D02*
X264386598Y-196593328D01*
X264386598Y-196593328D02*
X264243741Y-196521900D01*
X264243741Y-196521900D02*
X264172312Y-196450471D01*
X264172312Y-196450471D02*
X264100884Y-196307614D01*
X264100884Y-196307614D02*
X264100884Y-195879042D01*
X264100884Y-195879042D02*
X264172312Y-195736185D01*
X264172312Y-195736185D02*
X264243741Y-195664757D01*
X264243741Y-195664757D02*
X264386598Y-195593328D01*
X264386598Y-195593328D02*
X264672312Y-195593328D01*
X264672312Y-195593328D02*
X264815170Y-195664757D01*
X265529455Y-196450471D02*
X265600884Y-196521900D01*
X265600884Y-196521900D02*
X265529455Y-196593328D01*
X265529455Y-196593328D02*
X265458027Y-196521900D01*
X265458027Y-196521900D02*
X265529455Y-196450471D01*
X265529455Y-196450471D02*
X265529455Y-196593328D01*
X265529455Y-195664757D02*
X265600884Y-195736185D01*
X265600884Y-195736185D02*
X265529455Y-195807614D01*
X265529455Y-195807614D02*
X265458027Y-195736185D01*
X265458027Y-195736185D02*
X265529455Y-195664757D01*
X265529455Y-195664757D02*
X265529455Y-195807614D01*
X268172313Y-196593328D02*
X267315170Y-196593328D01*
X267743741Y-196593328D02*
X267743741Y-195093328D01*
X267743741Y-195093328D02*
X267600884Y-195307614D01*
X267600884Y-195307614D02*
X267458027Y-195450471D01*
X267458027Y-195450471D02*
X267315170Y-195521900D01*
X269886598Y-195021900D02*
X268600884Y-196950471D01*
X271172313Y-196593328D02*
X270315170Y-196593328D01*
X270743741Y-196593328D02*
X270743741Y-195093328D01*
X270743741Y-195093328D02*
X270600884Y-195307614D01*
X270600884Y-195307614D02*
X270458027Y-195450471D01*
X270458027Y-195450471D02*
X270315170Y-195521900D01*
D10*
D11*
X177002200Y-187507200D02*
X285002200Y-187507200D01*
D10*
D13*
X178693928Y-188211638D02*
X179836785Y-188211638D01*
X179015357Y-190211638D02*
X179265357Y-188211638D01*
X180253452Y-190211638D02*
X180420119Y-188878304D01*
X180503452Y-188211638D02*
X180396309Y-188306876D01*
X180396309Y-188306876D02*
X180479643Y-188402114D01*
X180479643Y-188402114D02*
X180586786Y-188306876D01*
X180586786Y-188306876D02*
X180503452Y-188211638D01*
X180503452Y-188211638D02*
X180479643Y-188402114D01*
X181086786Y-188878304D02*
X181848690Y-188878304D01*
X181455833Y-188211638D02*
X181241548Y-189925923D01*
X181241548Y-189925923D02*
X181312976Y-190116400D01*
X181312976Y-190116400D02*
X181491548Y-190211638D01*
X181491548Y-190211638D02*
X181682024Y-190211638D01*
X182634405Y-190211638D02*
X182455833Y-190116400D01*
X182455833Y-190116400D02*
X182384405Y-189925923D01*
X182384405Y-189925923D02*
X182598690Y-188211638D01*
X184170119Y-190116400D02*
X183967738Y-190211638D01*
X183967738Y-190211638D02*
X183586785Y-190211638D01*
X183586785Y-190211638D02*
X183408214Y-190116400D01*
X183408214Y-190116400D02*
X183336785Y-189925923D01*
X183336785Y-189925923D02*
X183432024Y-189164019D01*
X183432024Y-189164019D02*
X183551071Y-188973542D01*
X183551071Y-188973542D02*
X183753452Y-188878304D01*
X183753452Y-188878304D02*
X184134404Y-188878304D01*
X184134404Y-188878304D02*
X184312976Y-188973542D01*
X184312976Y-188973542D02*
X184384404Y-189164019D01*
X184384404Y-189164019D02*
X184360595Y-189354495D01*
X184360595Y-189354495D02*
X183384404Y-189544971D01*
X185134405Y-190021161D02*
X185217738Y-190116400D01*
X185217738Y-190116400D02*
X185110595Y-190211638D01*
X185110595Y-190211638D02*
X185027262Y-190116400D01*
X185027262Y-190116400D02*
X185134405Y-190021161D01*
X185134405Y-190021161D02*
X185110595Y-190211638D01*
X185265357Y-188973542D02*
X185348690Y-189068780D01*
X185348690Y-189068780D02*
X185241548Y-189164019D01*
X185241548Y-189164019D02*
X185158214Y-189068780D01*
X185158214Y-189068780D02*
X185265357Y-188973542D01*
X185265357Y-188973542D02*
X185241548Y-189164019D01*
D10*
D11*
X178958026Y-185607614D02*
X178458026Y-185607614D01*
X178458026Y-186393328D02*
X178458026Y-184893328D01*
X178458026Y-184893328D02*
X179172312Y-184893328D01*
X179743740Y-186393328D02*
X179743740Y-185393328D01*
X179743740Y-184893328D02*
X179672312Y-184964757D01*
X179672312Y-184964757D02*
X179743740Y-185036185D01*
X179743740Y-185036185D02*
X179815169Y-184964757D01*
X179815169Y-184964757D02*
X179743740Y-184893328D01*
X179743740Y-184893328D02*
X179743740Y-185036185D01*
X180672312Y-186393328D02*
X180529455Y-186321900D01*
X180529455Y-186321900D02*
X180458026Y-186179042D01*
X180458026Y-186179042D02*
X180458026Y-184893328D01*
X181815169Y-186321900D02*
X181672312Y-186393328D01*
X181672312Y-186393328D02*
X181386598Y-186393328D01*
X181386598Y-186393328D02*
X181243740Y-186321900D01*
X181243740Y-186321900D02*
X181172312Y-186179042D01*
X181172312Y-186179042D02*
X181172312Y-185607614D01*
X181172312Y-185607614D02*
X181243740Y-185464757D01*
X181243740Y-185464757D02*
X181386598Y-185393328D01*
X181386598Y-185393328D02*
X181672312Y-185393328D01*
X181672312Y-185393328D02*
X181815169Y-185464757D01*
X181815169Y-185464757D02*
X181886598Y-185607614D01*
X181886598Y-185607614D02*
X181886598Y-185750471D01*
X181886598Y-185750471D02*
X181172312Y-185893328D01*
X182529454Y-186250471D02*
X182600883Y-186321900D01*
X182600883Y-186321900D02*
X182529454Y-186393328D01*
X182529454Y-186393328D02*
X182458026Y-186321900D01*
X182458026Y-186321900D02*
X182529454Y-186250471D01*
X182529454Y-186250471D02*
X182529454Y-186393328D01*
X182529454Y-185464757D02*
X182600883Y-185536185D01*
X182600883Y-185536185D02*
X182529454Y-185607614D01*
X182529454Y-185607614D02*
X182458026Y-185536185D01*
X182458026Y-185536185D02*
X182529454Y-185464757D01*
X182529454Y-185464757D02*
X182529454Y-185607614D01*
X184386597Y-186393328D02*
X184386597Y-184893328D01*
X184386597Y-184893328D02*
X184958026Y-184893328D01*
X184958026Y-184893328D02*
X185100883Y-184964757D01*
X185100883Y-184964757D02*
X185172312Y-185036185D01*
X185172312Y-185036185D02*
X185243740Y-185179042D01*
X185243740Y-185179042D02*
X185243740Y-185393328D01*
X185243740Y-185393328D02*
X185172312Y-185536185D01*
X185172312Y-185536185D02*
X185100883Y-185607614D01*
X185100883Y-185607614D02*
X184958026Y-185679042D01*
X184958026Y-185679042D02*
X184386597Y-185679042D01*
X186100883Y-186393328D02*
X185958026Y-186321900D01*
X185958026Y-186321900D02*
X185886597Y-186250471D01*
X185886597Y-186250471D02*
X185815169Y-186107614D01*
X185815169Y-186107614D02*
X185815169Y-185679042D01*
X185815169Y-185679042D02*
X185886597Y-185536185D01*
X185886597Y-185536185D02*
X185958026Y-185464757D01*
X185958026Y-185464757D02*
X186100883Y-185393328D01*
X186100883Y-185393328D02*
X186315169Y-185393328D01*
X186315169Y-185393328D02*
X186458026Y-185464757D01*
X186458026Y-185464757D02*
X186529455Y-185536185D01*
X186529455Y-185536185D02*
X186600883Y-185679042D01*
X186600883Y-185679042D02*
X186600883Y-186107614D01*
X186600883Y-186107614D02*
X186529455Y-186250471D01*
X186529455Y-186250471D02*
X186458026Y-186321900D01*
X186458026Y-186321900D02*
X186315169Y-186393328D01*
X186315169Y-186393328D02*
X186100883Y-186393328D01*
X187100883Y-185393328D02*
X187386598Y-186393328D01*
X187386598Y-186393328D02*
X187672312Y-185679042D01*
X187672312Y-185679042D02*
X187958026Y-186393328D01*
X187958026Y-186393328D02*
X188243740Y-185393328D01*
X189386598Y-186321900D02*
X189243741Y-186393328D01*
X189243741Y-186393328D02*
X188958027Y-186393328D01*
X188958027Y-186393328D02*
X188815169Y-186321900D01*
X188815169Y-186321900D02*
X188743741Y-186179042D01*
X188743741Y-186179042D02*
X188743741Y-185607614D01*
X188743741Y-185607614D02*
X188815169Y-185464757D01*
X188815169Y-185464757D02*
X188958027Y-185393328D01*
X188958027Y-185393328D02*
X189243741Y-185393328D01*
X189243741Y-185393328D02*
X189386598Y-185464757D01*
X189386598Y-185464757D02*
X189458027Y-185607614D01*
X189458027Y-185607614D02*
X189458027Y-185750471D01*
X189458027Y-185750471D02*
X188743741Y-185893328D01*
X190100883Y-186393328D02*
X190100883Y-185393328D01*
X190100883Y-185679042D02*
X190172312Y-185536185D01*
X190172312Y-185536185D02*
X190243741Y-185464757D01*
X190243741Y-185464757D02*
X190386598Y-185393328D01*
X190386598Y-185393328D02*
X190529455Y-185393328D01*
X193029454Y-186250471D02*
X192958026Y-186321900D01*
X192958026Y-186321900D02*
X192743740Y-186393328D01*
X192743740Y-186393328D02*
X192600883Y-186393328D01*
X192600883Y-186393328D02*
X192386597Y-186321900D01*
X192386597Y-186321900D02*
X192243740Y-186179042D01*
X192243740Y-186179042D02*
X192172311Y-186036185D01*
X192172311Y-186036185D02*
X192100883Y-185750471D01*
X192100883Y-185750471D02*
X192100883Y-185536185D01*
X192100883Y-185536185D02*
X192172311Y-185250471D01*
X192172311Y-185250471D02*
X192243740Y-185107614D01*
X192243740Y-185107614D02*
X192386597Y-184964757D01*
X192386597Y-184964757D02*
X192600883Y-184893328D01*
X192600883Y-184893328D02*
X192743740Y-184893328D01*
X192743740Y-184893328D02*
X192958026Y-184964757D01*
X192958026Y-184964757D02*
X193029454Y-185036185D01*
X193672311Y-186393328D02*
X193672311Y-184893328D01*
X194315169Y-186393328D02*
X194315169Y-185607614D01*
X194315169Y-185607614D02*
X194243740Y-185464757D01*
X194243740Y-185464757D02*
X194100883Y-185393328D01*
X194100883Y-185393328D02*
X193886597Y-185393328D01*
X193886597Y-185393328D02*
X193743740Y-185464757D01*
X193743740Y-185464757D02*
X193672311Y-185536185D01*
X195672312Y-186393328D02*
X195672312Y-185607614D01*
X195672312Y-185607614D02*
X195600883Y-185464757D01*
X195600883Y-185464757D02*
X195458026Y-185393328D01*
X195458026Y-185393328D02*
X195172312Y-185393328D01*
X195172312Y-185393328D02*
X195029454Y-185464757D01*
X195672312Y-186321900D02*
X195529454Y-186393328D01*
X195529454Y-186393328D02*
X195172312Y-186393328D01*
X195172312Y-186393328D02*
X195029454Y-186321900D01*
X195029454Y-186321900D02*
X194958026Y-186179042D01*
X194958026Y-186179042D02*
X194958026Y-186036185D01*
X194958026Y-186036185D02*
X195029454Y-185893328D01*
X195029454Y-185893328D02*
X195172312Y-185821900D01*
X195172312Y-185821900D02*
X195529454Y-185821900D01*
X195529454Y-185821900D02*
X195672312Y-185750471D01*
X196386597Y-186393328D02*
X196386597Y-185393328D01*
X196386597Y-185679042D02*
X196458026Y-185536185D01*
X196458026Y-185536185D02*
X196529455Y-185464757D01*
X196529455Y-185464757D02*
X196672312Y-185393328D01*
X196672312Y-185393328D02*
X196815169Y-185393328D01*
X197958026Y-185393328D02*
X197958026Y-186607614D01*
X197958026Y-186607614D02*
X197886597Y-186750471D01*
X197886597Y-186750471D02*
X197815168Y-186821900D01*
X197815168Y-186821900D02*
X197672311Y-186893328D01*
X197672311Y-186893328D02*
X197458026Y-186893328D01*
X197458026Y-186893328D02*
X197315168Y-186821900D01*
X197958026Y-186321900D02*
X197815168Y-186393328D01*
X197815168Y-186393328D02*
X197529454Y-186393328D01*
X197529454Y-186393328D02*
X197386597Y-186321900D01*
X197386597Y-186321900D02*
X197315168Y-186250471D01*
X197315168Y-186250471D02*
X197243740Y-186107614D01*
X197243740Y-186107614D02*
X197243740Y-185679042D01*
X197243740Y-185679042D02*
X197315168Y-185536185D01*
X197315168Y-185536185D02*
X197386597Y-185464757D01*
X197386597Y-185464757D02*
X197529454Y-185393328D01*
X197529454Y-185393328D02*
X197815168Y-185393328D01*
X197815168Y-185393328D02*
X197958026Y-185464757D01*
X198672311Y-186393328D02*
X198672311Y-185393328D01*
X198672311Y-184893328D02*
X198600883Y-184964757D01*
X198600883Y-184964757D02*
X198672311Y-185036185D01*
X198672311Y-185036185D02*
X198743740Y-184964757D01*
X198743740Y-184964757D02*
X198672311Y-184893328D01*
X198672311Y-184893328D02*
X198672311Y-185036185D01*
X199386597Y-185393328D02*
X199386597Y-186393328D01*
X199386597Y-185536185D02*
X199458026Y-185464757D01*
X199458026Y-185464757D02*
X199600883Y-185393328D01*
X199600883Y-185393328D02*
X199815169Y-185393328D01*
X199815169Y-185393328D02*
X199958026Y-185464757D01*
X199958026Y-185464757D02*
X200029455Y-185607614D01*
X200029455Y-185607614D02*
X200029455Y-186393328D01*
X201386598Y-185393328D02*
X201386598Y-186607614D01*
X201386598Y-186607614D02*
X201315169Y-186750471D01*
X201315169Y-186750471D02*
X201243740Y-186821900D01*
X201243740Y-186821900D02*
X201100883Y-186893328D01*
X201100883Y-186893328D02*
X200886598Y-186893328D01*
X200886598Y-186893328D02*
X200743740Y-186821900D01*
X201386598Y-186321900D02*
X201243740Y-186393328D01*
X201243740Y-186393328D02*
X200958026Y-186393328D01*
X200958026Y-186393328D02*
X200815169Y-186321900D01*
X200815169Y-186321900D02*
X200743740Y-186250471D01*
X200743740Y-186250471D02*
X200672312Y-186107614D01*
X200672312Y-186107614D02*
X200672312Y-185679042D01*
X200672312Y-185679042D02*
X200743740Y-185536185D01*
X200743740Y-185536185D02*
X200815169Y-185464757D01*
X200815169Y-185464757D02*
X200958026Y-185393328D01*
X200958026Y-185393328D02*
X201243740Y-185393328D01*
X201243740Y-185393328D02*
X201386598Y-185464757D01*
X203172312Y-186321900D02*
X203386598Y-186393328D01*
X203386598Y-186393328D02*
X203743740Y-186393328D01*
X203743740Y-186393328D02*
X203886598Y-186321900D01*
X203886598Y-186321900D02*
X203958026Y-186250471D01*
X203958026Y-186250471D02*
X204029455Y-186107614D01*
X204029455Y-186107614D02*
X204029455Y-185964757D01*
X204029455Y-185964757D02*
X203958026Y-185821900D01*
X203958026Y-185821900D02*
X203886598Y-185750471D01*
X203886598Y-185750471D02*
X203743740Y-185679042D01*
X203743740Y-185679042D02*
X203458026Y-185607614D01*
X203458026Y-185607614D02*
X203315169Y-185536185D01*
X203315169Y-185536185D02*
X203243740Y-185464757D01*
X203243740Y-185464757D02*
X203172312Y-185321900D01*
X203172312Y-185321900D02*
X203172312Y-185179042D01*
X203172312Y-185179042D02*
X203243740Y-185036185D01*
X203243740Y-185036185D02*
X203315169Y-184964757D01*
X203315169Y-184964757D02*
X203458026Y-184893328D01*
X203458026Y-184893328D02*
X203815169Y-184893328D01*
X203815169Y-184893328D02*
X204029455Y-184964757D01*
X205315169Y-186321900D02*
X205172311Y-186393328D01*
X205172311Y-186393328D02*
X204886597Y-186393328D01*
X204886597Y-186393328D02*
X204743740Y-186321900D01*
X204743740Y-186321900D02*
X204672311Y-186250471D01*
X204672311Y-186250471D02*
X204600883Y-186107614D01*
X204600883Y-186107614D02*
X204600883Y-185679042D01*
X204600883Y-185679042D02*
X204672311Y-185536185D01*
X204672311Y-185536185D02*
X204743740Y-185464757D01*
X204743740Y-185464757D02*
X204886597Y-185393328D01*
X204886597Y-185393328D02*
X205172311Y-185393328D01*
X205172311Y-185393328D02*
X205315169Y-185464757D01*
X205958025Y-186393328D02*
X205958025Y-184893328D01*
X206600883Y-186393328D02*
X206600883Y-185607614D01*
X206600883Y-185607614D02*
X206529454Y-185464757D01*
X206529454Y-185464757D02*
X206386597Y-185393328D01*
X206386597Y-185393328D02*
X206172311Y-185393328D01*
X206172311Y-185393328D02*
X206029454Y-185464757D01*
X206029454Y-185464757D02*
X205958025Y-185536185D01*
X207886597Y-186321900D02*
X207743740Y-186393328D01*
X207743740Y-186393328D02*
X207458026Y-186393328D01*
X207458026Y-186393328D02*
X207315168Y-186321900D01*
X207315168Y-186321900D02*
X207243740Y-186179042D01*
X207243740Y-186179042D02*
X207243740Y-185607614D01*
X207243740Y-185607614D02*
X207315168Y-185464757D01*
X207315168Y-185464757D02*
X207458026Y-185393328D01*
X207458026Y-185393328D02*
X207743740Y-185393328D01*
X207743740Y-185393328D02*
X207886597Y-185464757D01*
X207886597Y-185464757D02*
X207958026Y-185607614D01*
X207958026Y-185607614D02*
X207958026Y-185750471D01*
X207958026Y-185750471D02*
X207243740Y-185893328D01*
X209243740Y-186393328D02*
X209243740Y-184893328D01*
X209243740Y-186321900D02*
X209100882Y-186393328D01*
X209100882Y-186393328D02*
X208815168Y-186393328D01*
X208815168Y-186393328D02*
X208672311Y-186321900D01*
X208672311Y-186321900D02*
X208600882Y-186250471D01*
X208600882Y-186250471D02*
X208529454Y-186107614D01*
X208529454Y-186107614D02*
X208529454Y-185679042D01*
X208529454Y-185679042D02*
X208600882Y-185536185D01*
X208600882Y-185536185D02*
X208672311Y-185464757D01*
X208672311Y-185464757D02*
X208815168Y-185393328D01*
X208815168Y-185393328D02*
X209100882Y-185393328D01*
X209100882Y-185393328D02*
X209243740Y-185464757D01*
X210600883Y-185393328D02*
X210600883Y-186393328D01*
X209958025Y-185393328D02*
X209958025Y-186179042D01*
X209958025Y-186179042D02*
X210029454Y-186321900D01*
X210029454Y-186321900D02*
X210172311Y-186393328D01*
X210172311Y-186393328D02*
X210386597Y-186393328D01*
X210386597Y-186393328D02*
X210529454Y-186321900D01*
X210529454Y-186321900D02*
X210600883Y-186250471D01*
X211529454Y-186393328D02*
X211386597Y-186321900D01*
X211386597Y-186321900D02*
X211315168Y-186179042D01*
X211315168Y-186179042D02*
X211315168Y-184893328D01*
X212672311Y-186321900D02*
X212529454Y-186393328D01*
X212529454Y-186393328D02*
X212243740Y-186393328D01*
X212243740Y-186393328D02*
X212100882Y-186321900D01*
X212100882Y-186321900D02*
X212029454Y-186179042D01*
X212029454Y-186179042D02*
X212029454Y-185607614D01*
X212029454Y-185607614D02*
X212100882Y-185464757D01*
X212100882Y-185464757D02*
X212243740Y-185393328D01*
X212243740Y-185393328D02*
X212529454Y-185393328D01*
X212529454Y-185393328D02*
X212672311Y-185464757D01*
X212672311Y-185464757D02*
X212743740Y-185607614D01*
X212743740Y-185607614D02*
X212743740Y-185750471D01*
X212743740Y-185750471D02*
X212029454Y-185893328D01*
X213386596Y-186393328D02*
X213386596Y-185393328D01*
X213386596Y-185679042D02*
X213458025Y-185536185D01*
X213458025Y-185536185D02*
X213529454Y-185464757D01*
X213529454Y-185464757D02*
X213672311Y-185393328D01*
X213672311Y-185393328D02*
X213815168Y-185393328D01*
X215529453Y-186393328D02*
X215815167Y-186393328D01*
X215815167Y-186393328D02*
X215958024Y-186321900D01*
X215958024Y-186321900D02*
X216029453Y-186250471D01*
X216029453Y-186250471D02*
X216172310Y-186036185D01*
X216172310Y-186036185D02*
X216243739Y-185750471D01*
X216243739Y-185750471D02*
X216243739Y-185179042D01*
X216243739Y-185179042D02*
X216172310Y-185036185D01*
X216172310Y-185036185D02*
X216100882Y-184964757D01*
X216100882Y-184964757D02*
X215958024Y-184893328D01*
X215958024Y-184893328D02*
X215672310Y-184893328D01*
X215672310Y-184893328D02*
X215529453Y-184964757D01*
X215529453Y-184964757D02*
X215458024Y-185036185D01*
X215458024Y-185036185D02*
X215386596Y-185179042D01*
X215386596Y-185179042D02*
X215386596Y-185536185D01*
X215386596Y-185536185D02*
X215458024Y-185679042D01*
X215458024Y-185679042D02*
X215529453Y-185750471D01*
X215529453Y-185750471D02*
X215672310Y-185821900D01*
X215672310Y-185821900D02*
X215958024Y-185821900D01*
X215958024Y-185821900D02*
X216100882Y-185750471D01*
X216100882Y-185750471D02*
X216172310Y-185679042D01*
X216172310Y-185679042D02*
X216243739Y-185536185D01*
X217172310Y-184893328D02*
X217315167Y-184893328D01*
X217315167Y-184893328D02*
X217458024Y-184964757D01*
X217458024Y-184964757D02*
X217529453Y-185036185D01*
X217529453Y-185036185D02*
X217600881Y-185179042D01*
X217600881Y-185179042D02*
X217672310Y-185464757D01*
X217672310Y-185464757D02*
X217672310Y-185821900D01*
X217672310Y-185821900D02*
X217600881Y-186107614D01*
X217600881Y-186107614D02*
X217529453Y-186250471D01*
X217529453Y-186250471D02*
X217458024Y-186321900D01*
X217458024Y-186321900D02*
X217315167Y-186393328D01*
X217315167Y-186393328D02*
X217172310Y-186393328D01*
X217172310Y-186393328D02*
X217029453Y-186321900D01*
X217029453Y-186321900D02*
X216958024Y-186250471D01*
X216958024Y-186250471D02*
X216886595Y-186107614D01*
X216886595Y-186107614D02*
X216815167Y-185821900D01*
X216815167Y-185821900D02*
X216815167Y-185464757D01*
X216815167Y-185464757D02*
X216886595Y-185179042D01*
X216886595Y-185179042D02*
X216958024Y-185036185D01*
X216958024Y-185036185D02*
X217029453Y-184964757D01*
X217029453Y-184964757D02*
X217172310Y-184893328D01*
X218172309Y-186393328D02*
X218958024Y-185393328D01*
X218172309Y-185393328D02*
X218958024Y-186393328D01*
X219600881Y-186393328D02*
X219886595Y-186393328D01*
X219886595Y-186393328D02*
X220029452Y-186321900D01*
X220029452Y-186321900D02*
X220100881Y-186250471D01*
X220100881Y-186250471D02*
X220243738Y-186036185D01*
X220243738Y-186036185D02*
X220315167Y-185750471D01*
X220315167Y-185750471D02*
X220315167Y-185179042D01*
X220315167Y-185179042D02*
X220243738Y-185036185D01*
X220243738Y-185036185D02*
X220172310Y-184964757D01*
X220172310Y-184964757D02*
X220029452Y-184893328D01*
X220029452Y-184893328D02*
X219743738Y-184893328D01*
X219743738Y-184893328D02*
X219600881Y-184964757D01*
X219600881Y-184964757D02*
X219529452Y-185036185D01*
X219529452Y-185036185D02*
X219458024Y-185179042D01*
X219458024Y-185179042D02*
X219458024Y-185536185D01*
X219458024Y-185536185D02*
X219529452Y-185679042D01*
X219529452Y-185679042D02*
X219600881Y-185750471D01*
X219600881Y-185750471D02*
X219743738Y-185821900D01*
X219743738Y-185821900D02*
X220029452Y-185821900D01*
X220029452Y-185821900D02*
X220172310Y-185750471D01*
X220172310Y-185750471D02*
X220243738Y-185679042D01*
X220243738Y-185679042D02*
X220315167Y-185536185D01*
X221243738Y-184893328D02*
X221386595Y-184893328D01*
X221386595Y-184893328D02*
X221529452Y-184964757D01*
X221529452Y-184964757D02*
X221600881Y-185036185D01*
X221600881Y-185036185D02*
X221672309Y-185179042D01*
X221672309Y-185179042D02*
X221743738Y-185464757D01*
X221743738Y-185464757D02*
X221743738Y-185821900D01*
X221743738Y-185821900D02*
X221672309Y-186107614D01*
X221672309Y-186107614D02*
X221600881Y-186250471D01*
X221600881Y-186250471D02*
X221529452Y-186321900D01*
X221529452Y-186321900D02*
X221386595Y-186393328D01*
X221386595Y-186393328D02*
X221243738Y-186393328D01*
X221243738Y-186393328D02*
X221100881Y-186321900D01*
X221100881Y-186321900D02*
X221029452Y-186250471D01*
X221029452Y-186250471D02*
X220958023Y-186107614D01*
X220958023Y-186107614D02*
X220886595Y-185821900D01*
X220886595Y-185821900D02*
X220886595Y-185464757D01*
X220886595Y-185464757D02*
X220958023Y-185179042D01*
X220958023Y-185179042D02*
X221029452Y-185036185D01*
X221029452Y-185036185D02*
X221100881Y-184964757D01*
X221100881Y-184964757D02*
X221243738Y-184893328D01*
X222243737Y-186393328D02*
X223029452Y-185393328D01*
X222243737Y-185393328D02*
X223029452Y-186393328D01*
X224386595Y-186393328D02*
X223529452Y-186393328D01*
X223958023Y-186393328D02*
X223958023Y-184893328D01*
X223958023Y-184893328D02*
X223815166Y-185107614D01*
X223815166Y-185107614D02*
X223672309Y-185250471D01*
X223672309Y-185250471D02*
X223529452Y-185321900D01*
X225100880Y-186321900D02*
X225100880Y-186393328D01*
X225100880Y-186393328D02*
X225029451Y-186536185D01*
X225029451Y-186536185D02*
X224958023Y-186607614D01*
X226386595Y-184893328D02*
X226100880Y-184893328D01*
X226100880Y-184893328D02*
X225958023Y-184964757D01*
X225958023Y-184964757D02*
X225886595Y-185036185D01*
X225886595Y-185036185D02*
X225743737Y-185250471D01*
X225743737Y-185250471D02*
X225672309Y-185536185D01*
X225672309Y-185536185D02*
X225672309Y-186107614D01*
X225672309Y-186107614D02*
X225743737Y-186250471D01*
X225743737Y-186250471D02*
X225815166Y-186321900D01*
X225815166Y-186321900D02*
X225958023Y-186393328D01*
X225958023Y-186393328D02*
X226243737Y-186393328D01*
X226243737Y-186393328D02*
X226386595Y-186321900D01*
X226386595Y-186321900D02*
X226458023Y-186250471D01*
X226458023Y-186250471D02*
X226529452Y-186107614D01*
X226529452Y-186107614D02*
X226529452Y-185750471D01*
X226529452Y-185750471D02*
X226458023Y-185607614D01*
X226458023Y-185607614D02*
X226386595Y-185536185D01*
X226386595Y-185536185D02*
X226243737Y-185464757D01*
X226243737Y-185464757D02*
X225958023Y-185464757D01*
X225958023Y-185464757D02*
X225815166Y-185536185D01*
X225815166Y-185536185D02*
X225743737Y-185607614D01*
X225743737Y-185607614D02*
X225672309Y-185750471D01*
X227172308Y-186393328D02*
X227172308Y-185393328D01*
X227172308Y-185536185D02*
X227243737Y-185464757D01*
X227243737Y-185464757D02*
X227386594Y-185393328D01*
X227386594Y-185393328D02*
X227600880Y-185393328D01*
X227600880Y-185393328D02*
X227743737Y-185464757D01*
X227743737Y-185464757D02*
X227815166Y-185607614D01*
X227815166Y-185607614D02*
X227815166Y-186393328D01*
X227815166Y-185607614D02*
X227886594Y-185464757D01*
X227886594Y-185464757D02*
X228029451Y-185393328D01*
X228029451Y-185393328D02*
X228243737Y-185393328D01*
X228243737Y-185393328D02*
X228386594Y-185464757D01*
X228386594Y-185464757D02*
X228458023Y-185607614D01*
X228458023Y-185607614D02*
X228458023Y-186393328D01*
X229172308Y-186393328D02*
X229172308Y-185393328D01*
X229172308Y-185536185D02*
X229243737Y-185464757D01*
X229243737Y-185464757D02*
X229386594Y-185393328D01*
X229386594Y-185393328D02*
X229600880Y-185393328D01*
X229600880Y-185393328D02*
X229743737Y-185464757D01*
X229743737Y-185464757D02*
X229815166Y-185607614D01*
X229815166Y-185607614D02*
X229815166Y-186393328D01*
X229815166Y-185607614D02*
X229886594Y-185464757D01*
X229886594Y-185464757D02*
X230029451Y-185393328D01*
X230029451Y-185393328D02*
X230243737Y-185393328D01*
X230243737Y-185393328D02*
X230386594Y-185464757D01*
X230386594Y-185464757D02*
X230458023Y-185607614D01*
X230458023Y-185607614D02*
X230458023Y-186393328D01*
X231172308Y-186250471D02*
X231243737Y-186321900D01*
X231243737Y-186321900D02*
X231172308Y-186393328D01*
X231172308Y-186393328D02*
X231100880Y-186321900D01*
X231100880Y-186321900D02*
X231172308Y-186250471D01*
X231172308Y-186250471D02*
X231172308Y-186393328D01*
X231886594Y-186393328D02*
X231886594Y-184893328D01*
X232029452Y-185821900D02*
X232458023Y-186393328D01*
X232458023Y-185393328D02*
X231886594Y-185964757D01*
X233100880Y-186393328D02*
X233100880Y-185393328D01*
X233100880Y-184893328D02*
X233029452Y-184964757D01*
X233029452Y-184964757D02*
X233100880Y-185036185D01*
X233100880Y-185036185D02*
X233172309Y-184964757D01*
X233172309Y-184964757D02*
X233100880Y-184893328D01*
X233100880Y-184893328D02*
X233100880Y-185036185D01*
X234458024Y-186321900D02*
X234315166Y-186393328D01*
X234315166Y-186393328D02*
X234029452Y-186393328D01*
X234029452Y-186393328D02*
X233886595Y-186321900D01*
X233886595Y-186321900D02*
X233815166Y-186250471D01*
X233815166Y-186250471D02*
X233743738Y-186107614D01*
X233743738Y-186107614D02*
X233743738Y-185679042D01*
X233743738Y-185679042D02*
X233815166Y-185536185D01*
X233815166Y-185536185D02*
X233886595Y-185464757D01*
X233886595Y-185464757D02*
X234029452Y-185393328D01*
X234029452Y-185393328D02*
X234315166Y-185393328D01*
X234315166Y-185393328D02*
X234458024Y-185464757D01*
X235743738Y-186393328D02*
X235743738Y-185607614D01*
X235743738Y-185607614D02*
X235672309Y-185464757D01*
X235672309Y-185464757D02*
X235529452Y-185393328D01*
X235529452Y-185393328D02*
X235243738Y-185393328D01*
X235243738Y-185393328D02*
X235100880Y-185464757D01*
X235743738Y-186321900D02*
X235600880Y-186393328D01*
X235600880Y-186393328D02*
X235243738Y-186393328D01*
X235243738Y-186393328D02*
X235100880Y-186321900D01*
X235100880Y-186321900D02*
X235029452Y-186179042D01*
X235029452Y-186179042D02*
X235029452Y-186036185D01*
X235029452Y-186036185D02*
X235100880Y-185893328D01*
X235100880Y-185893328D02*
X235243738Y-185821900D01*
X235243738Y-185821900D02*
X235600880Y-185821900D01*
X235600880Y-185821900D02*
X235743738Y-185750471D01*
X237100881Y-186393328D02*
X237100881Y-184893328D01*
X237100881Y-186321900D02*
X236958023Y-186393328D01*
X236958023Y-186393328D02*
X236672309Y-186393328D01*
X236672309Y-186393328D02*
X236529452Y-186321900D01*
X236529452Y-186321900D02*
X236458023Y-186250471D01*
X236458023Y-186250471D02*
X236386595Y-186107614D01*
X236386595Y-186107614D02*
X236386595Y-185679042D01*
X236386595Y-185679042D02*
X236458023Y-185536185D01*
X236458023Y-185536185D02*
X236529452Y-185464757D01*
X236529452Y-185464757D02*
X236672309Y-185393328D01*
X236672309Y-185393328D02*
X236958023Y-185393328D01*
X236958023Y-185393328D02*
X237100881Y-185464757D01*
X237458024Y-186536185D02*
X238600881Y-186536185D01*
X238958023Y-185393328D02*
X238958023Y-186893328D01*
X238958023Y-185464757D02*
X239100881Y-185393328D01*
X239100881Y-185393328D02*
X239386595Y-185393328D01*
X239386595Y-185393328D02*
X239529452Y-185464757D01*
X239529452Y-185464757D02*
X239600881Y-185536185D01*
X239600881Y-185536185D02*
X239672309Y-185679042D01*
X239672309Y-185679042D02*
X239672309Y-186107614D01*
X239672309Y-186107614D02*
X239600881Y-186250471D01*
X239600881Y-186250471D02*
X239529452Y-186321900D01*
X239529452Y-186321900D02*
X239386595Y-186393328D01*
X239386595Y-186393328D02*
X239100881Y-186393328D01*
X239100881Y-186393328D02*
X238958023Y-186321900D01*
X240958024Y-186321900D02*
X240815166Y-186393328D01*
X240815166Y-186393328D02*
X240529452Y-186393328D01*
X240529452Y-186393328D02*
X240386595Y-186321900D01*
X240386595Y-186321900D02*
X240315166Y-186250471D01*
X240315166Y-186250471D02*
X240243738Y-186107614D01*
X240243738Y-186107614D02*
X240243738Y-185679042D01*
X240243738Y-185679042D02*
X240315166Y-185536185D01*
X240315166Y-185536185D02*
X240386595Y-185464757D01*
X240386595Y-185464757D02*
X240529452Y-185393328D01*
X240529452Y-185393328D02*
X240815166Y-185393328D01*
X240815166Y-185393328D02*
X240958024Y-185464757D01*
X241600880Y-186393328D02*
X241600880Y-184893328D01*
X241600880Y-185464757D02*
X241743738Y-185393328D01*
X241743738Y-185393328D02*
X242029452Y-185393328D01*
X242029452Y-185393328D02*
X242172309Y-185464757D01*
X242172309Y-185464757D02*
X242243738Y-185536185D01*
X242243738Y-185536185D02*
X242315166Y-185679042D01*
X242315166Y-185679042D02*
X242315166Y-186107614D01*
X242315166Y-186107614D02*
X242243738Y-186250471D01*
X242243738Y-186250471D02*
X242172309Y-186321900D01*
X242172309Y-186321900D02*
X242029452Y-186393328D01*
X242029452Y-186393328D02*
X241743738Y-186393328D01*
X241743738Y-186393328D02*
X241600880Y-186321900D01*
D10*
D11*
X177002200Y-181507200D02*
X285002200Y-181507200D01*
D10*
D11*
X178386598Y-183621900D02*
X178600884Y-183693328D01*
X178600884Y-183693328D02*
X178958026Y-183693328D01*
X178958026Y-183693328D02*
X179100884Y-183621900D01*
X179100884Y-183621900D02*
X179172312Y-183550471D01*
X179172312Y-183550471D02*
X179243741Y-183407614D01*
X179243741Y-183407614D02*
X179243741Y-183264757D01*
X179243741Y-183264757D02*
X179172312Y-183121900D01*
X179172312Y-183121900D02*
X179100884Y-183050471D01*
X179100884Y-183050471D02*
X178958026Y-182979042D01*
X178958026Y-182979042D02*
X178672312Y-182907614D01*
X178672312Y-182907614D02*
X178529455Y-182836185D01*
X178529455Y-182836185D02*
X178458026Y-182764757D01*
X178458026Y-182764757D02*
X178386598Y-182621900D01*
X178386598Y-182621900D02*
X178386598Y-182479042D01*
X178386598Y-182479042D02*
X178458026Y-182336185D01*
X178458026Y-182336185D02*
X178529455Y-182264757D01*
X178529455Y-182264757D02*
X178672312Y-182193328D01*
X178672312Y-182193328D02*
X179029455Y-182193328D01*
X179029455Y-182193328D02*
X179243741Y-182264757D01*
X179886597Y-183693328D02*
X179886597Y-182193328D01*
X180529455Y-183693328D02*
X180529455Y-182907614D01*
X180529455Y-182907614D02*
X180458026Y-182764757D01*
X180458026Y-182764757D02*
X180315169Y-182693328D01*
X180315169Y-182693328D02*
X180100883Y-182693328D01*
X180100883Y-182693328D02*
X179958026Y-182764757D01*
X179958026Y-182764757D02*
X179886597Y-182836185D01*
X181815169Y-183621900D02*
X181672312Y-183693328D01*
X181672312Y-183693328D02*
X181386598Y-183693328D01*
X181386598Y-183693328D02*
X181243740Y-183621900D01*
X181243740Y-183621900D02*
X181172312Y-183479042D01*
X181172312Y-183479042D02*
X181172312Y-182907614D01*
X181172312Y-182907614D02*
X181243740Y-182764757D01*
X181243740Y-182764757D02*
X181386598Y-182693328D01*
X181386598Y-182693328D02*
X181672312Y-182693328D01*
X181672312Y-182693328D02*
X181815169Y-182764757D01*
X181815169Y-182764757D02*
X181886598Y-182907614D01*
X181886598Y-182907614D02*
X181886598Y-183050471D01*
X181886598Y-183050471D02*
X181172312Y-183193328D01*
X183100883Y-183621900D02*
X182958026Y-183693328D01*
X182958026Y-183693328D02*
X182672312Y-183693328D01*
X182672312Y-183693328D02*
X182529454Y-183621900D01*
X182529454Y-183621900D02*
X182458026Y-183479042D01*
X182458026Y-183479042D02*
X182458026Y-182907614D01*
X182458026Y-182907614D02*
X182529454Y-182764757D01*
X182529454Y-182764757D02*
X182672312Y-182693328D01*
X182672312Y-182693328D02*
X182958026Y-182693328D01*
X182958026Y-182693328D02*
X183100883Y-182764757D01*
X183100883Y-182764757D02*
X183172312Y-182907614D01*
X183172312Y-182907614D02*
X183172312Y-183050471D01*
X183172312Y-183050471D02*
X182458026Y-183193328D01*
X183600883Y-182693328D02*
X184172311Y-182693328D01*
X183815168Y-182193328D02*
X183815168Y-183479042D01*
X183815168Y-183479042D02*
X183886597Y-183621900D01*
X183886597Y-183621900D02*
X184029454Y-183693328D01*
X184029454Y-183693328D02*
X184172311Y-183693328D01*
X184672311Y-183550471D02*
X184743740Y-183621900D01*
X184743740Y-183621900D02*
X184672311Y-183693328D01*
X184672311Y-183693328D02*
X184600883Y-183621900D01*
X184600883Y-183621900D02*
X184672311Y-183550471D01*
X184672311Y-183550471D02*
X184672311Y-183693328D01*
X184672311Y-182764757D02*
X184743740Y-182836185D01*
X184743740Y-182836185D02*
X184672311Y-182907614D01*
X184672311Y-182907614D02*
X184600883Y-182836185D01*
X184600883Y-182836185D02*
X184672311Y-182764757D01*
X184672311Y-182764757D02*
X184672311Y-182907614D01*
D10*
D12*
X178485282Y-180256957D02*
X179199568Y-180256957D01*
X178342425Y-180685528D02*
X178842425Y-179185528D01*
X178842425Y-179185528D02*
X179342425Y-180685528D01*
X180413853Y-180614100D02*
X180270996Y-180685528D01*
X180270996Y-180685528D02*
X179985282Y-180685528D01*
X179985282Y-180685528D02*
X179842424Y-180614100D01*
X179842424Y-180614100D02*
X179770996Y-180471242D01*
X179770996Y-180471242D02*
X179770996Y-179899814D01*
X179770996Y-179899814D02*
X179842424Y-179756957D01*
X179842424Y-179756957D02*
X179985282Y-179685528D01*
X179985282Y-179685528D02*
X180270996Y-179685528D01*
X180270996Y-179685528D02*
X180413853Y-179756957D01*
X180413853Y-179756957D02*
X180485282Y-179899814D01*
X180485282Y-179899814D02*
X180485282Y-180042671D01*
X180485282Y-180042671D02*
X179770996Y-180185528D01*
X181342424Y-180685528D02*
X181199567Y-180614100D01*
X181199567Y-180614100D02*
X181128138Y-180542671D01*
X181128138Y-180542671D02*
X181056710Y-180399814D01*
X181056710Y-180399814D02*
X181056710Y-179971242D01*
X181056710Y-179971242D02*
X181128138Y-179828385D01*
X181128138Y-179828385D02*
X181199567Y-179756957D01*
X181199567Y-179756957D02*
X181342424Y-179685528D01*
X181342424Y-179685528D02*
X181556710Y-179685528D01*
X181556710Y-179685528D02*
X181699567Y-179756957D01*
X181699567Y-179756957D02*
X181770996Y-179828385D01*
X181770996Y-179828385D02*
X181842424Y-179971242D01*
X181842424Y-179971242D02*
X181842424Y-180399814D01*
X181842424Y-180399814D02*
X181770996Y-180542671D01*
X181770996Y-180542671D02*
X181699567Y-180614100D01*
X181699567Y-180614100D02*
X181556710Y-180685528D01*
X181556710Y-180685528D02*
X181342424Y-180685528D01*
X182485281Y-179685528D02*
X182485281Y-180685528D01*
X182485281Y-179828385D02*
X182556710Y-179756957D01*
X182556710Y-179756957D02*
X182699567Y-179685528D01*
X182699567Y-179685528D02*
X182913853Y-179685528D01*
X182913853Y-179685528D02*
X183056710Y-179756957D01*
X183056710Y-179756957D02*
X183128139Y-179899814D01*
X183128139Y-179899814D02*
X183128139Y-180685528D01*
X184556710Y-180685528D02*
X183842424Y-180685528D01*
X183842424Y-180685528D02*
X183842424Y-179185528D01*
X185699568Y-180685528D02*
X185699568Y-179899814D01*
X185699568Y-179899814D02*
X185628139Y-179756957D01*
X185628139Y-179756957D02*
X185485282Y-179685528D01*
X185485282Y-179685528D02*
X185199568Y-179685528D01*
X185199568Y-179685528D02*
X185056710Y-179756957D01*
X185699568Y-180614100D02*
X185556710Y-180685528D01*
X185556710Y-180685528D02*
X185199568Y-180685528D01*
X185199568Y-180685528D02*
X185056710Y-180614100D01*
X185056710Y-180614100D02*
X184985282Y-180471242D01*
X184985282Y-180471242D02*
X184985282Y-180328385D01*
X184985282Y-180328385D02*
X185056710Y-180185528D01*
X185056710Y-180185528D02*
X185199568Y-180114100D01*
X185199568Y-180114100D02*
X185556710Y-180114100D01*
X185556710Y-180114100D02*
X185699568Y-180042671D01*
X186413853Y-180685528D02*
X186413853Y-179185528D01*
X186413853Y-179756957D02*
X186556711Y-179685528D01*
X186556711Y-179685528D02*
X186842425Y-179685528D01*
X186842425Y-179685528D02*
X186985282Y-179756957D01*
X186985282Y-179756957D02*
X187056711Y-179828385D01*
X187056711Y-179828385D02*
X187128139Y-179971242D01*
X187128139Y-179971242D02*
X187128139Y-180399814D01*
X187128139Y-180399814D02*
X187056711Y-180542671D01*
X187056711Y-180542671D02*
X186985282Y-180614100D01*
X186985282Y-180614100D02*
X186842425Y-180685528D01*
X186842425Y-180685528D02*
X186556711Y-180685528D01*
X186556711Y-180685528D02*
X186413853Y-180614100D01*
X187699568Y-180614100D02*
X187842425Y-180685528D01*
X187842425Y-180685528D02*
X188128139Y-180685528D01*
X188128139Y-180685528D02*
X188270996Y-180614100D01*
X188270996Y-180614100D02*
X188342425Y-180471242D01*
X188342425Y-180471242D02*
X188342425Y-180399814D01*
X188342425Y-180399814D02*
X188270996Y-180256957D01*
X188270996Y-180256957D02*
X188128139Y-180185528D01*
X188128139Y-180185528D02*
X187913854Y-180185528D01*
X187913854Y-180185528D02*
X187770996Y-180114100D01*
X187770996Y-180114100D02*
X187699568Y-179971242D01*
X187699568Y-179971242D02*
X187699568Y-179899814D01*
X187699568Y-179899814D02*
X187770996Y-179756957D01*
X187770996Y-179756957D02*
X187913854Y-179685528D01*
X187913854Y-179685528D02*
X188128139Y-179685528D01*
X188128139Y-179685528D02*
X188270996Y-179756957D01*
D10*
D11*
D10*
D11*
D10*
D11*
D10*
D11*
D10*
D11*
X197002200Y-191507200D02*
X197002200Y-194507200D01*
D10*
D11*
X261002200Y-191507200D02*
X261002200Y-198007200D01*
D14*
X124312448Y-56690000D02*
G75*
G03*
X124312448Y-56690000I-222448J0D01*
G01*
D11*
X127280001Y-58543966D02*
X127613334Y-58543966D01*
X127213334Y-58343966D02*
X127446668Y-59043966D01*
X127446668Y-59043966D02*
X127680001Y-58343966D01*
X127913334Y-58343966D02*
X127913334Y-59043966D01*
X127913334Y-59043966D02*
X128313334Y-58343966D01*
X128313334Y-58343966D02*
X128313334Y-59043966D01*
X128546667Y-59043966D02*
X128946667Y-59043966D01*
X128746667Y-58343966D02*
X128746667Y-59043966D01*
X129180000Y-58710633D02*
X129413334Y-58710633D01*
X129513334Y-58343966D02*
X129180000Y-58343966D01*
X129180000Y-58343966D02*
X129180000Y-59043966D01*
X129180000Y-59043966D02*
X129513334Y-59043966D01*
X129813333Y-58343966D02*
X129813333Y-59043966D01*
X129813333Y-59043966D02*
X130213333Y-58343966D01*
X130213333Y-58343966D02*
X130213333Y-59043966D01*
X130546666Y-58343966D02*
X130546666Y-59043966D01*
X130546666Y-59043966D02*
X130946666Y-58343966D01*
X130946666Y-58343966D02*
X130946666Y-59043966D01*
X131246666Y-58543966D02*
X131579999Y-58543966D01*
X131179999Y-58343966D02*
X131413333Y-59043966D01*
X131413333Y-59043966D02*
X131646666Y-58343966D01*
D15*
X128001185Y-63338571D02*
X128001185Y-62910000D01*
X127744042Y-63424285D02*
X128644042Y-63124285D01*
X128644042Y-63124285D02*
X127744042Y-62824285D01*
X127744042Y-62524285D02*
X128644042Y-62524285D01*
X128644042Y-62524285D02*
X127744042Y-62009999D01*
X127744042Y-62009999D02*
X128644042Y-62009999D01*
X128644042Y-61709999D02*
X128644042Y-61195714D01*
X127744042Y-61452856D02*
X128644042Y-61452856D01*
X125065400Y-72476190D02*
X125017780Y-72333333D01*
X125017780Y-72333333D02*
X125017780Y-72095238D01*
X125017780Y-72095238D02*
X125065400Y-72000000D01*
X125065400Y-72000000D02*
X125113019Y-71952381D01*
X125113019Y-71952381D02*
X125208257Y-71904762D01*
X125208257Y-71904762D02*
X125303495Y-71904762D01*
X125303495Y-71904762D02*
X125398733Y-71952381D01*
X125398733Y-71952381D02*
X125446352Y-72000000D01*
X125446352Y-72000000D02*
X125493971Y-72095238D01*
X125493971Y-72095238D02*
X125541590Y-72285714D01*
X125541590Y-72285714D02*
X125589209Y-72380952D01*
X125589209Y-72380952D02*
X125636828Y-72428571D01*
X125636828Y-72428571D02*
X125732066Y-72476190D01*
X125732066Y-72476190D02*
X125827304Y-72476190D01*
X125827304Y-72476190D02*
X125922542Y-72428571D01*
X125922542Y-72428571D02*
X125970161Y-72380952D01*
X125970161Y-72380952D02*
X126017780Y-72285714D01*
X126017780Y-72285714D02*
X126017780Y-72047619D01*
X126017780Y-72047619D02*
X125970161Y-71904762D01*
X126017780Y-71619047D02*
X126017780Y-71047619D01*
X125017780Y-71333333D02*
X126017780Y-71333333D01*
X125303495Y-70761904D02*
X125303495Y-70285714D01*
X125017780Y-70857142D02*
X126017780Y-70523809D01*
X126017780Y-70523809D02*
X125017780Y-70190476D01*
X126017780Y-69999999D02*
X126017780Y-69428571D01*
X125017780Y-69714285D02*
X126017780Y-69714285D01*
X126017780Y-69095237D02*
X125208257Y-69095237D01*
X125208257Y-69095237D02*
X125113019Y-69047618D01*
X125113019Y-69047618D02*
X125065400Y-68999999D01*
X125065400Y-68999999D02*
X125017780Y-68904761D01*
X125017780Y-68904761D02*
X125017780Y-68714285D01*
X125017780Y-68714285D02*
X125065400Y-68619047D01*
X125065400Y-68619047D02*
X125113019Y-68571428D01*
X125113019Y-68571428D02*
X125208257Y-68523809D01*
X125208257Y-68523809D02*
X126017780Y-68523809D01*
X125065400Y-68095237D02*
X125017780Y-67952380D01*
X125017780Y-67952380D02*
X125017780Y-67714285D01*
X125017780Y-67714285D02*
X125065400Y-67619047D01*
X125065400Y-67619047D02*
X125113019Y-67571428D01*
X125113019Y-67571428D02*
X125208257Y-67523809D01*
X125208257Y-67523809D02*
X125303495Y-67523809D01*
X125303495Y-67523809D02*
X125398733Y-67571428D01*
X125398733Y-67571428D02*
X125446352Y-67619047D01*
X125446352Y-67619047D02*
X125493971Y-67714285D01*
X125493971Y-67714285D02*
X125541590Y-67904761D01*
X125541590Y-67904761D02*
X125589209Y-67999999D01*
X125589209Y-67999999D02*
X125636828Y-68047618D01*
X125636828Y-68047618D02*
X125732066Y-68095237D01*
X125732066Y-68095237D02*
X125827304Y-68095237D01*
X125827304Y-68095237D02*
X125922542Y-68047618D01*
X125922542Y-68047618D02*
X125970161Y-67999999D01*
X125970161Y-67999999D02*
X126017780Y-67904761D01*
X126017780Y-67904761D02*
X126017780Y-67666666D01*
X126017780Y-67666666D02*
X125970161Y-67523809D01*
D10*
X76786704Y-80966265D02*
X76786704Y-81442455D01*
X77072419Y-80871027D02*
X76072419Y-81204360D01*
X76072419Y-81204360D02*
X77072419Y-81537693D01*
X76977180Y-82442455D02*
X77024800Y-82394836D01*
X77024800Y-82394836D02*
X77072419Y-82251979D01*
X77072419Y-82251979D02*
X77072419Y-82156741D01*
X77072419Y-82156741D02*
X77024800Y-82013884D01*
X77024800Y-82013884D02*
X76929561Y-81918646D01*
X76929561Y-81918646D02*
X76834323Y-81871027D01*
X76834323Y-81871027D02*
X76643847Y-81823408D01*
X76643847Y-81823408D02*
X76500990Y-81823408D01*
X76500990Y-81823408D02*
X76310514Y-81871027D01*
X76310514Y-81871027D02*
X76215276Y-81918646D01*
X76215276Y-81918646D02*
X76120038Y-82013884D01*
X76120038Y-82013884D02*
X76072419Y-82156741D01*
X76072419Y-82156741D02*
X76072419Y-82251979D01*
X76072419Y-82251979D02*
X76120038Y-82394836D01*
X76120038Y-82394836D02*
X76167657Y-82442455D01*
X87851466Y-119206115D02*
X87851466Y-118444211D01*
X88232419Y-118825163D02*
X87470514Y-118825163D01*
X65131466Y-118276115D02*
X65131466Y-117514211D01*
X76032419Y-120933884D02*
X75032419Y-120933884D01*
X75032419Y-120933884D02*
X75032419Y-121171979D01*
X75032419Y-121171979D02*
X75080038Y-121314836D01*
X75080038Y-121314836D02*
X75175276Y-121410074D01*
X75175276Y-121410074D02*
X75270514Y-121457693D01*
X75270514Y-121457693D02*
X75460990Y-121505312D01*
X75460990Y-121505312D02*
X75603847Y-121505312D01*
X75603847Y-121505312D02*
X75794323Y-121457693D01*
X75794323Y-121457693D02*
X75889561Y-121410074D01*
X75889561Y-121410074D02*
X75984800Y-121314836D01*
X75984800Y-121314836D02*
X76032419Y-121171979D01*
X76032419Y-121171979D02*
X76032419Y-120933884D01*
X75937180Y-122505312D02*
X75984800Y-122457693D01*
X75984800Y-122457693D02*
X76032419Y-122314836D01*
X76032419Y-122314836D02*
X76032419Y-122219598D01*
X76032419Y-122219598D02*
X75984800Y-122076741D01*
X75984800Y-122076741D02*
X75889561Y-121981503D01*
X75889561Y-121981503D02*
X75794323Y-121933884D01*
X75794323Y-121933884D02*
X75603847Y-121886265D01*
X75603847Y-121886265D02*
X75460990Y-121886265D01*
X75460990Y-121886265D02*
X75270514Y-121933884D01*
X75270514Y-121933884D02*
X75175276Y-121981503D01*
X75175276Y-121981503D02*
X75080038Y-122076741D01*
X75080038Y-122076741D02*
X75032419Y-122219598D01*
X75032419Y-122219598D02*
X75032419Y-122314836D01*
X75032419Y-122314836D02*
X75080038Y-122457693D01*
X75080038Y-122457693D02*
X75127657Y-122505312D01*
X116291466Y-97916115D02*
X116291466Y-97154211D01*
X116672419Y-97535163D02*
X115910514Y-97535163D01*
X104472419Y-99643884D02*
X103472419Y-99643884D01*
X103472419Y-99643884D02*
X103472419Y-99881979D01*
X103472419Y-99881979D02*
X103520038Y-100024836D01*
X103520038Y-100024836D02*
X103615276Y-100120074D01*
X103615276Y-100120074D02*
X103710514Y-100167693D01*
X103710514Y-100167693D02*
X103900990Y-100215312D01*
X103900990Y-100215312D02*
X104043847Y-100215312D01*
X104043847Y-100215312D02*
X104234323Y-100167693D01*
X104234323Y-100167693D02*
X104329561Y-100120074D01*
X104329561Y-100120074D02*
X104424800Y-100024836D01*
X104424800Y-100024836D02*
X104472419Y-99881979D01*
X104472419Y-99881979D02*
X104472419Y-99643884D01*
X104377180Y-101215312D02*
X104424800Y-101167693D01*
X104424800Y-101167693D02*
X104472419Y-101024836D01*
X104472419Y-101024836D02*
X104472419Y-100929598D01*
X104472419Y-100929598D02*
X104424800Y-100786741D01*
X104424800Y-100786741D02*
X104329561Y-100691503D01*
X104329561Y-100691503D02*
X104234323Y-100643884D01*
X104234323Y-100643884D02*
X104043847Y-100596265D01*
X104043847Y-100596265D02*
X103900990Y-100596265D01*
X103900990Y-100596265D02*
X103710514Y-100643884D01*
X103710514Y-100643884D02*
X103615276Y-100691503D01*
X103615276Y-100691503D02*
X103520038Y-100786741D01*
X103520038Y-100786741D02*
X103472419Y-100929598D01*
X103472419Y-100929598D02*
X103472419Y-101024836D01*
X103472419Y-101024836D02*
X103520038Y-101167693D01*
X103520038Y-101167693D02*
X103567657Y-101215312D01*
X93571466Y-96986115D02*
X93571466Y-96224211D01*
X105226704Y-59676265D02*
X105226704Y-60152455D01*
X105512419Y-59581027D02*
X104512419Y-59914360D01*
X104512419Y-59914360D02*
X105512419Y-60247693D01*
X105417180Y-61152455D02*
X105464800Y-61104836D01*
X105464800Y-61104836D02*
X105512419Y-60961979D01*
X105512419Y-60961979D02*
X105512419Y-60866741D01*
X105512419Y-60866741D02*
X105464800Y-60723884D01*
X105464800Y-60723884D02*
X105369561Y-60628646D01*
X105369561Y-60628646D02*
X105274323Y-60581027D01*
X105274323Y-60581027D02*
X105083847Y-60533408D01*
X105083847Y-60533408D02*
X104940990Y-60533408D01*
X104940990Y-60533408D02*
X104750514Y-60581027D01*
X104750514Y-60581027D02*
X104655276Y-60628646D01*
X104655276Y-60628646D02*
X104560038Y-60723884D01*
X104560038Y-60723884D02*
X104512419Y-60866741D01*
X104512419Y-60866741D02*
X104512419Y-60961979D01*
X104512419Y-60961979D02*
X104560038Y-61104836D01*
X104560038Y-61104836D02*
X104607657Y-61152455D01*
X93631466Y-145136115D02*
X93631466Y-144374211D01*
X104532419Y-147793884D02*
X103532419Y-147793884D01*
X103532419Y-147793884D02*
X103532419Y-148031979D01*
X103532419Y-148031979D02*
X103580038Y-148174836D01*
X103580038Y-148174836D02*
X103675276Y-148270074D01*
X103675276Y-148270074D02*
X103770514Y-148317693D01*
X103770514Y-148317693D02*
X103960990Y-148365312D01*
X103960990Y-148365312D02*
X104103847Y-148365312D01*
X104103847Y-148365312D02*
X104294323Y-148317693D01*
X104294323Y-148317693D02*
X104389561Y-148270074D01*
X104389561Y-148270074D02*
X104484800Y-148174836D01*
X104484800Y-148174836D02*
X104532419Y-148031979D01*
X104532419Y-148031979D02*
X104532419Y-147793884D01*
X104437180Y-149365312D02*
X104484800Y-149317693D01*
X104484800Y-149317693D02*
X104532419Y-149174836D01*
X104532419Y-149174836D02*
X104532419Y-149079598D01*
X104532419Y-149079598D02*
X104484800Y-148936741D01*
X104484800Y-148936741D02*
X104389561Y-148841503D01*
X104389561Y-148841503D02*
X104294323Y-148793884D01*
X104294323Y-148793884D02*
X104103847Y-148746265D01*
X104103847Y-148746265D02*
X103960990Y-148746265D01*
X103960990Y-148746265D02*
X103770514Y-148793884D01*
X103770514Y-148793884D02*
X103675276Y-148841503D01*
X103675276Y-148841503D02*
X103580038Y-148936741D01*
X103580038Y-148936741D02*
X103532419Y-149079598D01*
X103532419Y-149079598D02*
X103532419Y-149174836D01*
X103532419Y-149174836D02*
X103580038Y-149317693D01*
X103580038Y-149317693D02*
X103627657Y-149365312D01*
X105286704Y-107826265D02*
X105286704Y-108302455D01*
X105572419Y-107731027D02*
X104572419Y-108064360D01*
X104572419Y-108064360D02*
X105572419Y-108397693D01*
X105477180Y-109302455D02*
X105524800Y-109254836D01*
X105524800Y-109254836D02*
X105572419Y-109111979D01*
X105572419Y-109111979D02*
X105572419Y-109016741D01*
X105572419Y-109016741D02*
X105524800Y-108873884D01*
X105524800Y-108873884D02*
X105429561Y-108778646D01*
X105429561Y-108778646D02*
X105334323Y-108731027D01*
X105334323Y-108731027D02*
X105143847Y-108683408D01*
X105143847Y-108683408D02*
X105000990Y-108683408D01*
X105000990Y-108683408D02*
X104810514Y-108731027D01*
X104810514Y-108731027D02*
X104715276Y-108778646D01*
X104715276Y-108778646D02*
X104620038Y-108873884D01*
X104620038Y-108873884D02*
X104572419Y-109016741D01*
X104572419Y-109016741D02*
X104572419Y-109111979D01*
X104572419Y-109111979D02*
X104620038Y-109254836D01*
X104620038Y-109254836D02*
X104667657Y-109302455D01*
X116351466Y-146066115D02*
X116351466Y-145304211D01*
X116732419Y-145685163D02*
X115970514Y-145685163D01*
D16*
G04 #@! TO.C,E_LNA_ANT2*
X125480000Y-63320000D02*
X122880000Y-63320000D01*
D11*
G04 #@! TO.C,HLV1*
X60120000Y-78800000D02*
X53120000Y-78800000D01*
X60120000Y-75400000D02*
X60120000Y-78800000D01*
X60120000Y-75400000D02*
X53120000Y-75400000D01*
X53120000Y-75400000D02*
X53120000Y-78800000D01*
D17*
G04 #@! TO.C,PF1*
X52660000Y-100690000D02*
X57982000Y-100690000D01*
X52660000Y-102140000D02*
X52660000Y-100690000D01*
X52660000Y-103890000D02*
X52660000Y-103640000D01*
X52660000Y-103890000D02*
X52881000Y-103890000D01*
X54639000Y-103890000D02*
X59960000Y-103890000D01*
X59739000Y-100690000D02*
X59960000Y-100690000D01*
X59960000Y-100940000D02*
X59960000Y-100690000D01*
X59960000Y-103890000D02*
X59960000Y-102439000D01*
D10*
G04 #@! TO.C,HiLink1*
X62360000Y-76790000D02*
X90240000Y-76790000D01*
X90240000Y-76790000D02*
X90240000Y-123760000D01*
X90240000Y-123760000D02*
X62360000Y-123760000D01*
X62360000Y-123760000D02*
X62360000Y-76790000D01*
X65824622Y-117890000D02*
G75*
G03*
X65824622Y-117890000I-694622J0D01*
G01*
X88479682Y-118850000D02*
G75*
G03*
X88479682Y-118850000I-629682J0D01*
G01*
D16*
G04 #@! TO.C,E_LNA_ANT1*
X124940500Y-59980000D02*
X132940500Y-59980000D01*
X132940500Y-57880000D02*
X124940500Y-57880000D01*
D18*
X122781000Y-58930000D02*
G75*
G03*
X122781000Y-58930000I-190500J0D01*
G01*
D17*
G04 #@! TO.C,HLC2*
X59990000Y-74680000D02*
X46750000Y-74680000D01*
X59990000Y-68440000D02*
X59990000Y-74680000D01*
X59990000Y-68440000D02*
X46750000Y-68440000D01*
X46750000Y-68440000D02*
X46750000Y-74680000D01*
D10*
G04 #@! TO.C,HiLink2*
X90800000Y-55500000D02*
X118680000Y-55500000D01*
X118680000Y-55500000D02*
X118680000Y-102470000D01*
X118680000Y-102470000D02*
X90800000Y-102470000D01*
X90800000Y-102470000D02*
X90800000Y-55500000D01*
X94264622Y-96600000D02*
G75*
G03*
X94264622Y-96600000I-694622J0D01*
G01*
X116919682Y-97560000D02*
G75*
G03*
X116919682Y-97560000I-629682J0D01*
G01*
D17*
G04 #@! TO.C,LED1*
X124095000Y-67795000D02*
X124095000Y-71880000D01*
X121925000Y-67795000D02*
X124095000Y-67795000D01*
X121925000Y-71880000D02*
X121925000Y-67795000D01*
G04 #@! TO.C,Relay1*
X55590000Y-80490000D02*
X62190000Y-80490000D01*
X46590000Y-80490000D02*
X53190000Y-80490000D01*
X46590000Y-80490000D02*
X46590000Y-100290000D01*
X54440000Y-84540000D02*
X54440000Y-83740000D01*
X54440000Y-84540000D02*
X58040000Y-84540000D01*
X60440000Y-85440000D02*
X60440000Y-87940000D01*
X56240000Y-85940000D02*
X52640000Y-85940000D01*
X52640000Y-85940000D02*
X52640000Y-89940000D01*
X56240000Y-87940000D02*
X60440000Y-87940000D01*
X48440000Y-87940000D02*
X48440000Y-85440000D01*
X48440000Y-87940000D02*
X52640000Y-87940000D01*
X56240000Y-89940000D02*
X56240000Y-85940000D01*
X56240000Y-89940000D02*
X52640000Y-85940000D01*
X52640000Y-89940000D02*
X56240000Y-89940000D01*
X58040000Y-91340000D02*
X58040000Y-84540000D01*
X54440000Y-91340000D02*
X58040000Y-91340000D01*
X54440000Y-91340000D02*
X54440000Y-92840000D01*
X54440000Y-92840000D02*
X51940000Y-97440000D01*
X58590000Y-96040000D02*
X56140000Y-96040000D01*
X50190000Y-96040000D02*
X52690000Y-96040000D01*
X62190000Y-100290000D02*
X62190000Y-80490000D01*
X46590000Y-100290000D02*
X62190000Y-100290000D01*
D10*
G04 #@! TO.C,HLL2*
X64140000Y-55110000D02*
X88630000Y-55110000D01*
X88630000Y-55110000D02*
X88630000Y-76710000D01*
X88630000Y-76710000D02*
X64140000Y-76710000D01*
X64140000Y-76710000D02*
X64140000Y-55110000D01*
X79180000Y-60700000D02*
X73530000Y-60700000D01*
X73530000Y-60700000D02*
X73530000Y-55120000D01*
X73530000Y-55120000D02*
X79180000Y-55120000D01*
X79180000Y-55120000D02*
X79180000Y-60700000D01*
X64140000Y-63790000D02*
X68230000Y-63790000D01*
X68230000Y-63790000D02*
X68230000Y-67920000D01*
X68230000Y-67920000D02*
X64140000Y-67920000D01*
X64140000Y-67920000D02*
X64140000Y-63790000D01*
X84530000Y-63810000D02*
X88620000Y-63810000D01*
X88620000Y-63810000D02*
X88620000Y-67940000D01*
X88620000Y-67940000D02*
X84530000Y-67940000D01*
X84530000Y-67940000D02*
X84530000Y-63810000D01*
X79260000Y-76700000D02*
X73610000Y-76700000D01*
X73610000Y-76700000D02*
X73610000Y-71120000D01*
X73610000Y-71120000D02*
X79260000Y-71120000D01*
X79260000Y-71120000D02*
X79260000Y-76700000D01*
G04 #@! TO.C,HiLink3*
X90860000Y-103650000D02*
X118740000Y-103650000D01*
X118740000Y-103650000D02*
X118740000Y-150620000D01*
X118740000Y-150620000D02*
X90860000Y-150620000D01*
X90860000Y-150620000D02*
X90860000Y-103650000D01*
X94324622Y-144750000D02*
G75*
G03*
X94324622Y-144750000I-694622J0D01*
G01*
X116979682Y-145710000D02*
G75*
G03*
X116979682Y-145710000I-629682J0D01*
G01*
D16*
G04 #@! TO.C,Main220Connector1*
X46736000Y-138870000D02*
X59436000Y-138870000D01*
X46736000Y-104199000D02*
X46736000Y-138870000D01*
X59436000Y-104199000D02*
X59436000Y-138870000D01*
X59436000Y-104199000D02*
X46736000Y-104199000D01*
D15*
X57250000Y-139520000D02*
G75*
G03*
X57250000Y-139520000I-100000J0D01*
G01*
D17*
G04 #@! TO.C,Relay2*
X86430000Y-132890000D02*
X86430000Y-139490000D01*
X86430000Y-123890000D02*
X86430000Y-130490000D01*
X86430000Y-123890000D02*
X66630000Y-123890000D01*
X82380000Y-131740000D02*
X83180000Y-131740000D01*
X82380000Y-131740000D02*
X82380000Y-135340000D01*
X81480000Y-137740000D02*
X78980000Y-137740000D01*
X80980000Y-133540000D02*
X80980000Y-129940000D01*
X80980000Y-129940000D02*
X76980000Y-129940000D01*
X78980000Y-133540000D02*
X78980000Y-137740000D01*
X78980000Y-125740000D02*
X81480000Y-125740000D01*
X78980000Y-125740000D02*
X78980000Y-129940000D01*
X76980000Y-133540000D02*
X80980000Y-133540000D01*
X76980000Y-133540000D02*
X80980000Y-129940000D01*
X76980000Y-129940000D02*
X76980000Y-133540000D01*
X75580000Y-135340000D02*
X82380000Y-135340000D01*
X75580000Y-131740000D02*
X75580000Y-135340000D01*
X75580000Y-131740000D02*
X74080000Y-131740000D01*
X74080000Y-131740000D02*
X69480000Y-129240000D01*
X70880000Y-135890000D02*
X70880000Y-133440000D01*
X70880000Y-127490000D02*
X70880000Y-129990000D01*
X66630000Y-139490000D02*
X86430000Y-139490000D01*
X66630000Y-123890000D02*
X66630000Y-139490000D01*
G04 #@! TD*
%LPC*%
D19*
G04 #@! TO.C,USB-C2*
X137070000Y-79400000D03*
X137070000Y-73620000D03*
D20*
X136540000Y-80830000D03*
X136540000Y-72190000D03*
X140720000Y-80830000D03*
X140720000Y-72190000D03*
G04 #@! TD*
D21*
G04 #@! TO.C,USB-A1*
X67530000Y-141490000D03*
D22*
X70030000Y-141490000D03*
X72030000Y-141490000D03*
X74530000Y-141490000D03*
D23*
X64460000Y-144200000D03*
X77600000Y-144200000D03*
G04 #@! TD*
D19*
G04 #@! TO.C,USB-C3*
X136940000Y-96820000D03*
X136940000Y-91040000D03*
D20*
X136410000Y-98250000D03*
X136410000Y-89610000D03*
X140590000Y-98250000D03*
X140590000Y-89610000D03*
G04 #@! TD*
D19*
G04 #@! TO.C,USB-C1*
X136840000Y-114420000D03*
X136840000Y-108640000D03*
D20*
X136310000Y-115850000D03*
X136310000Y-107210000D03*
X140490000Y-115850000D03*
X140490000Y-107210000D03*
G04 #@! TD*
D21*
G04 #@! TO.C,USB-A2*
X89470000Y-141510000D03*
D22*
X91970000Y-141510000D03*
X93970000Y-141510000D03*
X96470000Y-141510000D03*
D23*
X86400000Y-144220000D03*
X99540000Y-144220000D03*
G04 #@! TD*
D21*
G04 #@! TO.C,USB-A3*
X112920000Y-141480000D03*
D22*
X115420000Y-141480000D03*
X117420000Y-141480000D03*
X119920000Y-141480000D03*
D23*
X109850000Y-144190000D03*
X122990000Y-144190000D03*
G04 #@! TD*
D19*
G04 #@! TO.C,USB-C4*
X136915000Y-131400000D03*
X136915000Y-125620000D03*
D20*
X136385000Y-132830000D03*
X136385000Y-124190000D03*
X140565000Y-132830000D03*
X140565000Y-124190000D03*
G04 #@! TD*
D24*
G04 #@! TO.C,E_LNA_ANT2*
X122705000Y-62020000D03*
X125655000Y-62020000D03*
D25*
X124180000Y-60470000D03*
G04 #@! TD*
D26*
G04 #@! TO.C,HLV1*
X59120000Y-76450000D03*
X54120000Y-77750000D03*
G04 #@! TD*
D27*
G04 #@! TO.C,PF1*
X53760000Y-102890000D03*
X58860000Y-101690000D03*
G04 #@! TD*
D28*
G04 #@! TO.C,HiLink1*
X72450000Y-79020000D03*
X80210000Y-78970000D03*
X64950000Y-121500000D03*
X87730000Y-121520000D03*
G04 #@! TD*
D29*
G04 #@! TO.C,E_LNA_ANT1*
X124190500Y-58930000D03*
X133690500Y-58930000D03*
G04 #@! TD*
D30*
G04 #@! TO.C,HLC2*
X58370000Y-71560000D03*
X48370000Y-71560000D03*
G04 #@! TD*
D28*
G04 #@! TO.C,HiLink2*
X100890000Y-57730000D03*
X108650000Y-57680000D03*
X93390000Y-100210000D03*
X116170000Y-100230000D03*
G04 #@! TD*
D31*
G04 #@! TO.C,LED1*
X123560000Y-68700000D03*
X123570000Y-71880000D03*
X122420000Y-68700000D03*
X122450000Y-71890000D03*
G04 #@! TD*
D28*
G04 #@! TO.C,Relay1*
X54390000Y-81890000D03*
D32*
X60440000Y-83840000D03*
D28*
X60440000Y-96040000D03*
X48390000Y-96090000D03*
D32*
X48440000Y-83840000D03*
G04 #@! TD*
D28*
G04 #@! TO.C,HLL2*
X65830000Y-57410000D03*
X87000000Y-57330000D03*
X65780000Y-74460000D03*
X86990000Y-74520000D03*
G04 #@! TD*
G04 #@! TO.C,HiLink3*
X100950000Y-105880000D03*
X108710000Y-105830000D03*
X93450000Y-148360000D03*
X116230000Y-148380000D03*
G04 #@! TD*
D33*
G04 #@! TO.C,Main220Connector1*
X57150000Y-133790000D03*
D34*
X57150000Y-125535000D03*
X57150000Y-117280000D03*
X57150000Y-109025000D03*
G04 #@! TD*
D28*
G04 #@! TO.C,Relay2*
X85030000Y-131690000D03*
D32*
X83080000Y-137740000D03*
D28*
X70880000Y-137740000D03*
X70830000Y-125690000D03*
D32*
X83080000Y-125740000D03*
G04 #@! TD*
%LPD*%
D35*
X94620249Y-67869743D02*
X94629405Y-75569405D01*
X61530000Y-55500000D02*
X126690000Y-55500000D01*
X96764828Y-65750020D02*
G75*
G03*
X96414040Y-65893703I-28J-499980D01*
G01*
X134999066Y-141490000D02*
G75*
G03*
X134999066Y-141490000I-2569066J0D01*
G01*
X107690000Y-64750000D02*
G75*
G03*
X107190000Y-64250000I-500000J0D01*
G01*
X94129405Y-76070005D02*
G75*
G03*
X94629405Y-75569405I-5J500005D01*
G01*
X126690000Y-150630000D02*
X61530000Y-150630000D01*
X107190000Y-65750000D02*
X96764828Y-65750000D01*
X107190000Y-64250000D02*
X96668650Y-64250000D01*
X94769469Y-67512858D02*
G75*
G03*
X94620249Y-67869743I350631J-356242D01*
G01*
X93150757Y-67576230D02*
G75*
G03*
X93120106Y-67749239I469343J-172370D01*
G01*
X94129405Y-76070000D02*
X93629406Y-76070000D01*
X96414040Y-65893703D02*
X94769461Y-67512850D01*
X93441342Y-66785234D02*
X93150771Y-67576235D01*
X96668650Y-64249985D02*
G75*
G03*
X96461147Y-64295091I-50J-499615D01*
G01*
X93129400Y-75570595D02*
G75*
G03*
X93629406Y-76070000I500000J595D01*
G01*
X61530000Y-55500000D02*
G75*
G03*
X46530000Y-70500000I0J-15000000D01*
G01*
X107690000Y-64750000D02*
X107690000Y-65250000D01*
X59219066Y-65440000D02*
G75*
G03*
X59219066Y-65440000I-2569066J0D01*
G01*
X107190000Y-65750000D02*
G75*
G03*
X107690000Y-65250000I0J500000D01*
G01*
X141690000Y-70500000D02*
G75*
G03*
X126690000Y-55500000I-15000000J0D01*
G01*
X95500352Y-64733349D02*
G75*
G03*
X95357066Y-64831961I207048J-454251D01*
G01*
X59849066Y-141670935D02*
G75*
G03*
X59849066Y-141670935I-2569066J0D01*
G01*
X134649066Y-65350000D02*
G75*
G03*
X134649066Y-65350000I-2569066J0D01*
G01*
X95357066Y-64831961D02*
X93559890Y-66601346D01*
X93559876Y-66601332D02*
G75*
G03*
X93441343Y-66785234I351124J-356468D01*
G01*
X93120106Y-67749239D02*
X93129406Y-75570595D01*
X126690000Y-150630000D02*
G75*
G03*
X141690000Y-135630000I0J15000000D01*
G01*
X46530000Y-135630000D02*
G75*
G03*
X61530000Y-150630000I15000000J0D01*
G01*
X141690000Y-70500000D02*
X141690000Y-135630000D01*
X46530000Y-135630000D02*
X46530000Y-70500000D01*
X96461147Y-64295091D02*
X95500351Y-64733348D01*
M02*
