M48
; DRILL file {KiCad 7.0.7} date Sat Sep 23 13:03:44 2023
; FORMAT={-:-/ absolute / inch / decimal}
; #@! TF.CreationDate,2023-09-23T13:03:44+02:00
; #@! TF.GenerationSoftware,Kicad,Pcbnew,7.0.7
; #@! TF.FileFunction,Plated,1,2,PTH
FMAT,2
INCH
; #@! TA.AperFunction,Plated,PTH,ViaDrill
T1C0.0157
; #@! TA.AperFunction,Plated,PTH,ComponentDrill
T2C0.0236
; #@! TA.AperFunction,Plated,PTH,ComponentDrill
T3C0.0256
; #@! TA.AperFunction,Plated,PTH,ComponentDrill
T4C0.0354
; #@! TA.AperFunction,Plated,PTH,ComponentDrill
T5C0.0362
; #@! TA.AperFunction,Plated,PTH,ComponentDrill
T6C0.0394
; #@! TA.AperFunction,Plated,PTH,ComponentDrill
T7C0.0398
; #@! TA.AperFunction,Plated,PTH,ComponentDrill
T8C0.0512
; #@! TA.AperFunction,Plated,PTH,ComponentDrill
T9C0.0720
; #@! TA.AperFunction,Plated,PTH,ComponentDrill
T10C0.0906
%
G90
G05
T1
X2.8748Y-4.461
X2.8764Y-4.5764
X2.8862Y-4.1583
X3.0122Y-4.1642
X3.0988Y-4.5
X3.1146Y-4.3614
X3.5831Y-3.5756
X3.5874Y-3.6138
X3.6008Y-3.4937
X3.6413Y-3.6303
X3.6516Y-4.5469
X3.6776Y-5.3614
X3.6783Y-5.0228
X3.6835Y-3.6283
X3.6972Y-3.278
X3.698Y-3.4217
X3.7126Y-3.4602
X3.7272Y-5.3228
X3.728Y-5.061
X3.7437Y-3.674
X3.7621Y-5.3661
X3.7665Y-5.0248
X3.7827Y-3.428
X3.8039Y-5.0634
X3.8039Y-5.3114
X3.8174Y-3.1518
X3.8193Y-3.1057
X3.8201Y-4.6913
X3.824Y-4.5417
X3.8289Y-2.8777
X3.8313Y-3.4238
X3.8417Y-5.3343
X3.8425Y-5.0228
X3.8476Y-3.2766
X3.8494Y-2.9668
X3.852Y-3.0825
X3.8524Y-3.0459
X3.8878Y-3.062
X3.9291Y-3.2781
X3.9632Y-3.1679
X3.9636Y-2.988
X3.9783Y-3.4724
X3.9888Y-2.9348
X3.989Y-2.9694
X3.9894Y-4.6945
X3.9961Y-4.5484
X4.006Y-2.6454
X4.0067Y-2.9069
X4.0094Y-2.7663
X4.0402Y-3.2146
X4.0478Y-2.8721
X4.0559Y-2.8412
X4.0634Y-2.7856
X4.0787Y-3.3331
X4.0809Y-3.1143
X4.0843Y-5.3705
X4.085Y-5.4894
X4.0858Y-5.4276
X4.0899Y-2.8433
X4.1065Y-2.796
X4.1254Y-2.6479
X4.1276Y-5.4614
X4.1287Y-5.4016
X4.1295Y-2.7677
X4.1441Y-3.6118
X4.1534Y-2.8024
X4.1673Y-4.6764
X4.1675Y-3.5492
X4.1875Y-2.7539
X4.2122Y-2.8156
X4.2122Y-2.8527
X4.224Y-3.6224
X4.2343Y-2.7791
X4.2598Y-2.9507
X4.2886Y-2.6896
X4.29Y-3.4193
X4.2902Y-3.6217
X4.3031Y-3.2669
X4.3066Y-2.8789
X4.3472Y-4.6508
X4.363Y-3.6201
X4.3665Y-3.0894
X4.3709Y-3.0502
X4.3772Y-2.688
X4.378Y-3.0055
X4.3961Y-3.1213
X4.3962Y-2.9667
X4.4309Y-3.3087
X4.4565Y-3.4669
X4.4709Y-3.1831
X4.5079Y-2.3602
X4.5488Y-2.3276
X4.5543Y-2.9752
X4.5567Y-2.9335
X4.5591Y-2.6295
X4.5795Y-2.8953
X4.5819Y-2.2941
X4.5996Y-2.5965
X4.6161Y-2.2583
X4.6441Y-2.8575
X4.6563Y-2.213
X4.6681Y-4.7343
X4.6976Y-2.5591
X4.7Y-3.6291
X4.7063Y-2.7713
X4.7291Y-4.5563
X4.7382Y-2.2114
X4.7516Y-4.8262
X4.7591Y-3.9642
X4.7661Y-2.5571
X4.7677Y-2.6827
X4.7854Y-2.2461
X4.7858Y-2.3122
X4.802Y-4.8618
X4.8157Y-2.5551
X4.8283Y-3.3551
X4.835Y-4.0567
X4.8618Y-2.3496
X4.8634Y-4.2402
X4.8681Y-4.6126
X4.8705Y-4.6811
X4.8827Y-2.5543
X4.9413Y-2.5563
X4.9819Y-3.3701
X5.0043Y-2.5551
X5.0303Y-3.9362
X5.0327Y-2.4283
X5.0634Y-2.5563
X5.0677Y-4.7181
X5.0701Y-5.2378
X5.0984Y-5.1744
X5.0988Y-3.7807
X5.103Y-3.5276
X5.1079Y-2.8429
X5.1079Y-4.2496
X5.1138Y-2.4319
X5.1161Y-4.8906
X5.135Y-4.2122
X5.1356Y-3.4937
X5.1406Y-2.8091
X5.1476Y-4.5693
X5.1488Y-4.8567
X5.1604Y-3.5307
X5.1654Y-2.8461
X5.1661Y-4.2484
X5.1736Y-4.8937
X5.1963Y-3.4882
X5.2012Y-2.4299
X5.2012Y-2.8035
X5.2016Y-4.2142
X5.2083Y-3.9409
X5.2094Y-3.8752
X5.2094Y-4.8512
X5.2106Y-4.0016
X5.2187Y-3.535
X5.2236Y-2.8504
X5.2315Y-4.2496
X5.2319Y-4.898
X5.2494Y-3.4902
X5.2543Y-2.8055
X5.2626Y-4.8531
X5.2665Y-4.2134
X5.2766Y-3.8736
X5.2768Y-3.9996
X5.2776Y-3.3713
X5.2789Y-3.9366
X5.2793Y-3.537
X5.2811Y-4.7504
X5.2815Y-3.189
X5.2835Y-3.3138
X5.2839Y-3.252
X5.2843Y-2.8524
X5.285Y-4.5681
X5.2858Y-5.4189
X5.287Y-4.6929
X5.2874Y-4.6311
X5.2894Y-2.4315
X5.2898Y-5.2366
X5.2917Y-5.3614
X5.2921Y-5.2996
X5.2925Y-4.9
X5.3252Y-3.3559
X5.3264Y-3.2362
X5.3268Y-3.2909
X5.3287Y-4.735
X5.3299Y-4.6154
X5.3303Y-4.6701
X5.3335Y-5.4035
X5.3346Y-5.2839
X5.335Y-5.3386
X5.3642Y-2.3579
X5.3669Y-2.4189
X5.3744Y-2.5575
X5.4402Y-2.5598
X5.4984Y-2.5594
T2
X2.1307Y-3.061
X2.3276Y-3.0098
T4
X2.5571Y-4.7835
X2.8524Y-3.111
X3.1579Y-3.1091
X3.4539Y-4.7843
X3.6768Y-3.9453
X3.6791Y-5.8409
X3.972Y-2.2728
X3.9744Y-4.1685
X4.2776Y-2.2709
X4.2799Y-4.1665
X4.5736Y-3.9461
X4.576Y-5.8417
T5
X2.6587Y-5.5705
X2.7571Y-5.5705
X2.8358Y-5.5705
X2.9343Y-5.5705
X3.5224Y-5.5713
X3.6209Y-5.5713
X3.6996Y-5.5713
X3.798Y-5.5713
X4.4457Y-5.5701
X4.5441Y-5.5701
X4.6228Y-5.5701
X4.7213Y-5.5701
T6
X1.9043Y-2.8173
X1.9071Y-3.3008
X2.298Y-2.8173
X2.3795Y-3.3008
X2.5898Y-2.9315
X2.5917Y-2.2602
X3.2709Y-4.9504
X3.2709Y-5.4228
X3.4248Y-2.9339
X3.4252Y-2.2571
T7
X2.1165Y-4.0508
X2.3173Y-4.0035
T8
X1.9051Y-3.7831
X2.1413Y-3.224
X2.3795Y-3.7811
X2.7886Y-4.9484
X2.7906Y-5.4228
X3.3476Y-5.1846
T9
X2.25Y-4.2923
X2.25Y-4.6173
X2.25Y-4.9423
X2.25Y-5.2673
T10
X2.5378Y-5.6772
X3.0551Y-5.6772
X3.4016Y-5.678
X3.9189Y-5.678
X4.3248Y-5.6768
X4.8421Y-5.6768
T3
G00X5.3447Y-4.2201
M15
G01X5.388Y-4.2201
M16
G05
G00X5.3447Y-4.5602
M15
G01X5.388Y-4.5602
M16
G05
G00X5.3469Y-4.8898
M15
G01X5.3902Y-4.8898
M16
G05
G00X5.3469Y-5.2299
M15
G01X5.3902Y-5.2299
M16
G05
G00X5.3484Y-3.528
M15
G01X5.3917Y-3.528
M16
G05
G00X5.3484Y-3.8681
M15
G01X5.3917Y-3.8681
M16
G05
G00X5.3539Y-2.8421
M15
G01X5.3972Y-2.8421
M16
G05
G00X5.3539Y-3.1823
M15
G01X5.3972Y-3.1823
M16
G05
G00X5.5191Y-4.2201
M15
G01X5.5427Y-4.2201
M16
G05
G00X5.5191Y-4.5602
M15
G01X5.5427Y-4.5602
M16
G05
G00X5.5213Y-4.8898
M15
G01X5.5449Y-4.8898
M16
G05
G00X5.5213Y-5.2299
M15
G01X5.5449Y-5.2299
M16
G05
G00X5.5228Y-3.528
M15
G01X5.5465Y-3.528
M16
G05
G00X5.5228Y-3.8681
M15
G01X5.5465Y-3.8681
M16
G05
G00X5.5283Y-2.8421
M15
G01X5.552Y-2.8421
M16
G05
G00X5.5283Y-3.1823
M15
G01X5.552Y-3.1823
M16
G05
T0
M30
