%TF.GenerationSoftware,KiCad,Pcbnew,7.0.7*%
%TF.CreationDate,2023-09-23T13:03:43+02:00*%
%TF.ProjectId,Power Charging Scheduler 90x90x1_6mm,506f7765-7220-4436-9861-7267696e6720,5.3*%
%TF.SameCoordinates,Original*%
%TF.FileFunction,Drillmap*%
%TF.FilePolarity,Positive*%
%FSLAX45Y45*%
G04 Gerber Fmt 4.5, Leading zero omitted, Abs format (unit mm)*
G04 Created by KiCad (PCBNEW 7.0.7) date 2023-09-23 13:03:43*
%MOMM*%
%LPD*%
G01*
G04 APERTURE LIST*
%ADD10C,0.100000*%
%ADD11C,0.200000*%
%ADD12C,0.040000*%
%ADD13C,0.060000*%
%ADD14C,0.065000*%
%ADD15C,0.090000*%
%ADD16C,0.092000*%
%ADD17C,0.101000*%
%ADD18C,0.130000*%
%ADD19C,0.182880*%
%ADD20C,0.230000*%
G04 APERTURE END LIST*
D10*
X9355990Y-6660136D02*
G75*
G03*
X9344134Y-6678523I35080J-35634D01*
G01*
X9550034Y-6473333D02*
G75*
G03*
X9535707Y-6483196I20756J-45487D01*
G01*
X10719000Y-6575000D02*
G75*
G03*
X10769000Y-6525000I0J50000D01*
G01*
X9676483Y-6575002D02*
G75*
G03*
X9641404Y-6589370I-3J-49998D01*
G01*
X9476945Y-6751284D02*
G75*
G03*
X9462025Y-6786974I35075J-35626D01*
G01*
X9412941Y-7607000D02*
G75*
G03*
X9462941Y-7556940I-1J50001D01*
G01*
X9666865Y-6424998D02*
G75*
G03*
X9646115Y-6429509I5J-50002D01*
G01*
X10769000Y-6475000D02*
G75*
G03*
X10719000Y-6425000I-50000J0D01*
G01*
X9315076Y-6757623D02*
G75*
G03*
X9312011Y-6774924I46934J-17237D01*
G01*
X9312940Y-7557059D02*
G75*
G03*
X9362941Y-7607000I50000J60D01*
G01*
X9344134Y-6678523D02*
X9315077Y-6757623D01*
X9535707Y-6483196D02*
X9355989Y-6660135D01*
X9646115Y-6429509D02*
X9550035Y-6473335D01*
X9312011Y-6774924D02*
X9312941Y-7557059D01*
X10719000Y-6425000D02*
X9666865Y-6425000D01*
X10769000Y-6475000D02*
X10769000Y-6525000D01*
X9412941Y-7607000D02*
X9362941Y-7607000D01*
X9462025Y-6786974D02*
X9462941Y-7556940D01*
X9641404Y-6589370D02*
X9476946Y-6751285D01*
X10719000Y-6575000D02*
X9676483Y-6575000D01*
X6153000Y-5550000D02*
X12669000Y-5550000D01*
X13499907Y-14149000D02*
G75*
G03*
X13499907Y-14149000I-256907J0D01*
G01*
X12669000Y-15063000D02*
X6153000Y-15063000D01*
X6153000Y-5550000D02*
G75*
G03*
X4653000Y-7050000I0J-1500000D01*
G01*
X5921907Y-6544000D02*
G75*
G03*
X5921907Y-6544000I-256907J0D01*
G01*
X14169000Y-7050000D02*
G75*
G03*
X12669000Y-5550000I-1500000J0D01*
G01*
X5984907Y-14167093D02*
G75*
G03*
X5984907Y-14167093I-256907J0D01*
G01*
X13464907Y-6535000D02*
G75*
G03*
X13464907Y-6535000I-256907J0D01*
G01*
X12669000Y-15063000D02*
G75*
G03*
X14169000Y-13563000I0J1500000D01*
G01*
X4653000Y-13563000D02*
G75*
G03*
X6153000Y-15063000I1500000J0D01*
G01*
X14169000Y-7050000D02*
X14169000Y-13563000D01*
X4653000Y-13563000D02*
X4653000Y-7050000D01*
D11*
D12*
X7282000Y-11311000D02*
X7322000Y-11351000D01*
X7322000Y-11311000D02*
X7282000Y-11351000D01*
X7286000Y-11604000D02*
X7326000Y-11644000D01*
X7326000Y-11604000D02*
X7286000Y-11644000D01*
X7311000Y-10542000D02*
X7351000Y-10582000D01*
X7351000Y-10542000D02*
X7311000Y-10582000D01*
X7631000Y-10557000D02*
X7671000Y-10597000D01*
X7671000Y-10557000D02*
X7631000Y-10597000D01*
X7851000Y-11410000D02*
X7891000Y-11450000D01*
X7891000Y-11410000D02*
X7851000Y-11450000D01*
X7891000Y-11058000D02*
X7931000Y-11098000D01*
X7931000Y-11058000D02*
X7891000Y-11098000D01*
X9081000Y-9062000D02*
X9121000Y-9102000D01*
X9121000Y-9062000D02*
X9081000Y-9102000D01*
X9092000Y-9159000D02*
X9132000Y-9199000D01*
X9132000Y-9159000D02*
X9092000Y-9199000D01*
X9126000Y-8854000D02*
X9166000Y-8894000D01*
X9166000Y-8854000D02*
X9126000Y-8894000D01*
X9229000Y-9201000D02*
X9269000Y-9241000D01*
X9269000Y-9201000D02*
X9229000Y-9241000D01*
X9255000Y-11529000D02*
X9295000Y-11569000D01*
X9295000Y-11529000D02*
X9255000Y-11569000D01*
X9321000Y-13598000D02*
X9361000Y-13638000D01*
X9361000Y-13598000D02*
X9321000Y-13638000D01*
X9323000Y-12738000D02*
X9363000Y-12778000D01*
X9363000Y-12738000D02*
X9323000Y-12778000D01*
X9336000Y-9196000D02*
X9376000Y-9236000D01*
X9376000Y-9196000D02*
X9336000Y-9236000D01*
X9371000Y-8306000D02*
X9411000Y-8346000D01*
X9411000Y-8306000D02*
X9371000Y-8346000D01*
X9373000Y-8671000D02*
X9413000Y-8711000D01*
X9413000Y-8671000D02*
X9373000Y-8711000D01*
X9410000Y-8769000D02*
X9450000Y-8809000D01*
X9450000Y-8769000D02*
X9410000Y-8809000D01*
X9447000Y-13500000D02*
X9487000Y-13540000D01*
X9487000Y-13500000D02*
X9447000Y-13540000D01*
X9449000Y-12835000D02*
X9489000Y-12875000D01*
X9489000Y-12835000D02*
X9449000Y-12875000D01*
X9489000Y-9312000D02*
X9529000Y-9352000D01*
X9529000Y-9312000D02*
X9489000Y-9352000D01*
X9535750Y-13610000D02*
X9575750Y-13650000D01*
X9575750Y-13610000D02*
X9535750Y-13650000D01*
X9547000Y-12743000D02*
X9587000Y-12783000D01*
X9587000Y-12743000D02*
X9547000Y-12783000D01*
X9588000Y-8687000D02*
X9628000Y-8727000D01*
X9628000Y-8687000D02*
X9588000Y-8727000D01*
X9642000Y-12841000D02*
X9682000Y-12881000D01*
X9682000Y-12841000D02*
X9642000Y-12881000D01*
X9642000Y-13471000D02*
X9682000Y-13511000D01*
X9682000Y-13471000D02*
X9642000Y-13511000D01*
X9676282Y-7985500D02*
X9716282Y-8025500D01*
X9716282Y-7985500D02*
X9676282Y-8025500D01*
X9681000Y-7868500D02*
X9721000Y-7908500D01*
X9721000Y-7868500D02*
X9681000Y-7908500D01*
X9683000Y-11896000D02*
X9723000Y-11936000D01*
X9723000Y-11896000D02*
X9683000Y-11936000D01*
X9693000Y-11516000D02*
X9733000Y-11556000D01*
X9733000Y-11516000D02*
X9693000Y-11556000D01*
X9705521Y-7289430D02*
X9745521Y-7329430D01*
X9745521Y-7289430D02*
X9705521Y-7329430D01*
X9711500Y-8676500D02*
X9751500Y-8716500D01*
X9751500Y-8676500D02*
X9711500Y-8716500D01*
X9738000Y-13529000D02*
X9778000Y-13569000D01*
X9778000Y-13529000D02*
X9738000Y-13569000D01*
X9740000Y-12738000D02*
X9780000Y-12778000D01*
X9780000Y-12738000D02*
X9740000Y-12778000D01*
X9753000Y-8302500D02*
X9793000Y-8342500D01*
X9793000Y-8302500D02*
X9753000Y-8342500D01*
X9757450Y-7515688D02*
X9797450Y-7555688D01*
X9797450Y-7515688D02*
X9757450Y-7555688D01*
X9764000Y-7809500D02*
X9804000Y-7849500D01*
X9804000Y-7809500D02*
X9764000Y-7849500D01*
X9765000Y-7716500D02*
X9805000Y-7756500D01*
X9805000Y-7716500D02*
X9765000Y-7756500D01*
X9855000Y-7757500D02*
X9895000Y-7797500D01*
X9895000Y-7757500D02*
X9855000Y-7797500D01*
X9960000Y-8306275D02*
X10000000Y-8346275D01*
X10000000Y-8306275D02*
X9960000Y-8346275D01*
X10046550Y-8026500D02*
X10086550Y-8066500D01*
X10086550Y-8026500D02*
X10046550Y-8066500D01*
X10047544Y-7569550D02*
X10087544Y-7609550D01*
X10087544Y-7569550D02*
X10047544Y-7609550D01*
X10085000Y-8800000D02*
X10125000Y-8840000D01*
X10125000Y-8800000D02*
X10085000Y-8840000D01*
X10111550Y-7434463D02*
X10151550Y-7474463D01*
X10151550Y-7434463D02*
X10111550Y-7474463D01*
X10112002Y-7522251D02*
X10152002Y-7562251D01*
X10152002Y-7522251D02*
X10112002Y-7562251D01*
X10113000Y-11904000D02*
X10153000Y-11944000D01*
X10153000Y-11904000D02*
X10113000Y-11944000D01*
X10130000Y-11533000D02*
X10170000Y-11573000D01*
X10170000Y-11533000D02*
X10130000Y-11573000D01*
X10155332Y-6699375D02*
X10195332Y-6739375D01*
X10195332Y-6699375D02*
X10155332Y-6739375D01*
X10157000Y-7363500D02*
X10197000Y-7403500D01*
X10197000Y-7363500D02*
X10157000Y-7403500D01*
X10164000Y-7006500D02*
X10204000Y-7046500D01*
X10204000Y-7006500D02*
X10164000Y-7046500D01*
X10242000Y-8145000D02*
X10282000Y-8185000D01*
X10282000Y-8145000D02*
X10242000Y-8185000D01*
X10261407Y-7275235D02*
X10301407Y-7315235D01*
X10301407Y-7275235D02*
X10261407Y-7315235D01*
X10282045Y-7196581D02*
X10322045Y-7236581D01*
X10322045Y-7196581D02*
X10282045Y-7236581D01*
X10301000Y-7055500D02*
X10341000Y-7095500D01*
X10341000Y-7055500D02*
X10301000Y-7095500D01*
X10340000Y-8446000D02*
X10380000Y-8486000D01*
X10380000Y-8446000D02*
X10340000Y-8486000D01*
X10345521Y-7890430D02*
X10385521Y-7930430D01*
X10385521Y-7890430D02*
X10345521Y-7930430D01*
X10354000Y-13621000D02*
X10394000Y-13661000D01*
X10394000Y-13621000D02*
X10354000Y-13661000D01*
X10356000Y-13923000D02*
X10396000Y-13963000D01*
X10396000Y-13923000D02*
X10356000Y-13963000D01*
X10358000Y-13766000D02*
X10398000Y-13806000D01*
X10398000Y-13766000D02*
X10358000Y-13806000D01*
X10368235Y-7202032D02*
X10408235Y-7242032D01*
X10408235Y-7202032D02*
X10368235Y-7242032D01*
X10410550Y-7081783D02*
X10450550Y-7121783D01*
X10450550Y-7081783D02*
X10410550Y-7121783D01*
X10458450Y-6705750D02*
X10498450Y-6745750D01*
X10498450Y-6705750D02*
X10458450Y-6745750D01*
X10464000Y-13852000D02*
X10504000Y-13892000D01*
X10504000Y-13852000D02*
X10464000Y-13892000D01*
X10467000Y-13700000D02*
X10507000Y-13740000D01*
X10507000Y-13700000D02*
X10467000Y-13740000D01*
X10469000Y-7010000D02*
X10509000Y-7050000D01*
X10509000Y-7010000D02*
X10469000Y-7050000D01*
X10506000Y-9154000D02*
X10546000Y-9194000D01*
X10546000Y-9154000D02*
X10506000Y-9194000D01*
X10529550Y-7097972D02*
X10569550Y-7137972D01*
X10569550Y-7097972D02*
X10529550Y-7137972D01*
X10565000Y-11858000D02*
X10605000Y-11898000D01*
X10605000Y-11858000D02*
X10565000Y-11898000D01*
X10565500Y-8995000D02*
X10605500Y-9035000D01*
X10605500Y-8995000D02*
X10565500Y-9035000D01*
X10616123Y-6974877D02*
X10656123Y-7014877D01*
X10656123Y-6974877D02*
X10616123Y-7014877D01*
X10678882Y-7131500D02*
X10718882Y-7171500D01*
X10718882Y-7131500D02*
X10678882Y-7171500D01*
X10678882Y-7225860D02*
X10718882Y-7265860D01*
X10718882Y-7225860D02*
X10678882Y-7265860D01*
X10709000Y-9181000D02*
X10749000Y-9221000D01*
X10749000Y-9181000D02*
X10709000Y-9221000D01*
X10735000Y-7039000D02*
X10775000Y-7079000D01*
X10775000Y-7039000D02*
X10735000Y-7079000D01*
X10799854Y-7474854D02*
X10839854Y-7514854D01*
X10839854Y-7474854D02*
X10799854Y-7514854D01*
X10873000Y-6811500D02*
X10913000Y-6851500D01*
X10913000Y-6811500D02*
X10873000Y-6851500D01*
X10876500Y-8665000D02*
X10916500Y-8705000D01*
X10916500Y-8665000D02*
X10876500Y-8705000D01*
X10877000Y-9179000D02*
X10917000Y-9219000D01*
X10917000Y-9179000D02*
X10877000Y-9219000D01*
X10910000Y-8278000D02*
X10950000Y-8318000D01*
X10950000Y-8278000D02*
X10910000Y-8318000D01*
X10918786Y-7292500D02*
X10958786Y-7332500D01*
X10958786Y-7292500D02*
X10918786Y-7332500D01*
X11022000Y-11793000D02*
X11062000Y-11833000D01*
X11062000Y-11793000D02*
X11022000Y-11833000D01*
X11062000Y-9175000D02*
X11102000Y-9215000D01*
X11102000Y-9175000D02*
X11062000Y-9215000D01*
X11071000Y-7827000D02*
X11111000Y-7867000D01*
X11111000Y-7827000D02*
X11071000Y-7867000D01*
X11082000Y-7727500D02*
X11122000Y-7767500D01*
X11122000Y-7727500D02*
X11082000Y-7767500D01*
X11098000Y-6807500D02*
X11138000Y-6847500D01*
X11138000Y-6807500D02*
X11098000Y-6847500D01*
X11100000Y-7614000D02*
X11140000Y-7654000D01*
X11140000Y-7614000D02*
X11100000Y-7654000D01*
X11146000Y-7908000D02*
X11186000Y-7948000D01*
X11186000Y-7908000D02*
X11146000Y-7948000D01*
X11146373Y-7515373D02*
X11186373Y-7555373D01*
X11186373Y-7515373D02*
X11146373Y-7555373D01*
X11234500Y-8384000D02*
X11274500Y-8424000D01*
X11274500Y-8384000D02*
X11234500Y-8424000D01*
X11299500Y-8786000D02*
X11339500Y-8826000D01*
X11339500Y-8786000D02*
X11299500Y-8826000D01*
X11336000Y-8065000D02*
X11376000Y-8105000D01*
X11376000Y-8065000D02*
X11336000Y-8105000D01*
X11430000Y-5975000D02*
X11470000Y-6015000D01*
X11470000Y-5975000D02*
X11430000Y-6015000D01*
X11534000Y-5892000D02*
X11574000Y-5932000D01*
X11574000Y-5892000D02*
X11534000Y-5932000D01*
X11548000Y-7537000D02*
X11588000Y-7577000D01*
X11588000Y-7537000D02*
X11548000Y-7577000D01*
X11554000Y-7431000D02*
X11594000Y-7471000D01*
X11594000Y-7431000D02*
X11554000Y-7471000D01*
X11560000Y-6659000D02*
X11600000Y-6699000D01*
X11600000Y-6659000D02*
X11560000Y-6699000D01*
X11612000Y-7334000D02*
X11652000Y-7374000D01*
X11652000Y-7334000D02*
X11612000Y-7374000D01*
X11618000Y-5807000D02*
X11658000Y-5847000D01*
X11658000Y-5807000D02*
X11618000Y-5847000D01*
X11663000Y-6575000D02*
X11703000Y-6615000D01*
X11703000Y-6575000D02*
X11663000Y-6615000D01*
X11705000Y-5716000D02*
X11745000Y-5756000D01*
X11745000Y-5716000D02*
X11705000Y-5756000D01*
X11776000Y-7238000D02*
X11816000Y-7278000D01*
X11816000Y-7238000D02*
X11776000Y-7278000D01*
X11807000Y-5601000D02*
X11847000Y-5641000D01*
X11847000Y-5601000D02*
X11807000Y-5641000D01*
X11837000Y-12005000D02*
X11877000Y-12045000D01*
X11877000Y-12005000D02*
X11837000Y-12045000D01*
X11912000Y-6480000D02*
X11952000Y-6520000D01*
X11952000Y-6480000D02*
X11912000Y-6520000D01*
X11918000Y-9198000D02*
X11958000Y-9238000D01*
X11958000Y-9198000D02*
X11918000Y-9238000D01*
X11934000Y-7019000D02*
X11974000Y-7059000D01*
X11974000Y-7019000D02*
X11934000Y-7059000D01*
X11992000Y-11553000D02*
X12032000Y-11593000D01*
X12032000Y-11553000D02*
X11992000Y-11593000D01*
X12015000Y-5597000D02*
X12055000Y-5637000D01*
X12055000Y-5597000D02*
X12015000Y-5637000D01*
X12049000Y-12238450D02*
X12089000Y-12278450D01*
X12089000Y-12238450D02*
X12049000Y-12278450D01*
X12068000Y-10049000D02*
X12108000Y-10089000D01*
X12108000Y-10049000D02*
X12068000Y-10089000D01*
X12086000Y-6475000D02*
X12126000Y-6515000D01*
X12126000Y-6475000D02*
X12086000Y-6515000D01*
X12090000Y-6794000D02*
X12130000Y-6834000D01*
X12130000Y-6794000D02*
X12090000Y-6834000D01*
X12135000Y-5685000D02*
X12175000Y-5725000D01*
X12175000Y-5685000D02*
X12135000Y-5725000D01*
X12136000Y-5853000D02*
X12176000Y-5893000D01*
X12176000Y-5853000D02*
X12136000Y-5893000D01*
X12177000Y-12329000D02*
X12217000Y-12369000D01*
X12217000Y-12329000D02*
X12177000Y-12369000D01*
X12212000Y-6470000D02*
X12252000Y-6510000D01*
X12252000Y-6470000D02*
X12212000Y-6510000D01*
X12244000Y-8502000D02*
X12284000Y-8542000D01*
X12284000Y-8502000D02*
X12244000Y-8542000D01*
X12261000Y-10284000D02*
X12301000Y-10324000D01*
X12301000Y-10284000D02*
X12261000Y-10324000D01*
X12329000Y-5948000D02*
X12369000Y-5988000D01*
X12369000Y-5948000D02*
X12329000Y-5988000D01*
X12333000Y-10750000D02*
X12373000Y-10790000D01*
X12373000Y-10750000D02*
X12333000Y-10790000D01*
X12345000Y-11696000D02*
X12385000Y-11736000D01*
X12385000Y-11696000D02*
X12345000Y-11736000D01*
X12351000Y-11870000D02*
X12391000Y-11910000D01*
X12391000Y-11870000D02*
X12351000Y-11910000D01*
X12382000Y-6468000D02*
X12422000Y-6508000D01*
X12422000Y-6468000D02*
X12382000Y-6508000D01*
X12531000Y-6473000D02*
X12571000Y-6513000D01*
X12571000Y-6473000D02*
X12531000Y-6513000D01*
X12634000Y-8540000D02*
X12674000Y-8580000D01*
X12674000Y-8540000D02*
X12634000Y-8580000D01*
X12691000Y-6470000D02*
X12731000Y-6510000D01*
X12731000Y-6470000D02*
X12691000Y-6510000D01*
X12757000Y-9978000D02*
X12797000Y-10018000D01*
X12797000Y-9978000D02*
X12757000Y-10018000D01*
X12763000Y-6148000D02*
X12803000Y-6188000D01*
X12803000Y-6148000D02*
X12763000Y-6188000D01*
X12841000Y-6473000D02*
X12881000Y-6513000D01*
X12881000Y-6473000D02*
X12841000Y-6513000D01*
X12852000Y-11964000D02*
X12892000Y-12004000D01*
X12892000Y-11964000D02*
X12852000Y-12004000D01*
X12858000Y-13284000D02*
X12898000Y-13324000D01*
X12898000Y-13284000D02*
X12858000Y-13324000D01*
X12930000Y-13123000D02*
X12970000Y-13163000D01*
X12970000Y-13123000D02*
X12930000Y-13163000D01*
X12931000Y-9583000D02*
X12971000Y-9623000D01*
X12971000Y-9583000D02*
X12931000Y-9623000D01*
X12941500Y-8940000D02*
X12981500Y-8980000D01*
X12981500Y-8940000D02*
X12941500Y-8980000D01*
X12954000Y-7201000D02*
X12994000Y-7241000D01*
X12994000Y-7201000D02*
X12954000Y-7241000D01*
X12954000Y-10774000D02*
X12994000Y-10814000D01*
X12994000Y-10774000D02*
X12954000Y-10814000D01*
X12969000Y-6157000D02*
X13009000Y-6197000D01*
X13009000Y-6157000D02*
X12969000Y-6197000D01*
X12975000Y-12402000D02*
X13015000Y-12442000D01*
X13015000Y-12402000D02*
X12975000Y-12442000D01*
X13023000Y-10679000D02*
X13063000Y-10719000D01*
X13063000Y-10679000D02*
X13023000Y-10719000D01*
X13024500Y-8854000D02*
X13064500Y-8894000D01*
X13064500Y-8854000D02*
X13024500Y-8894000D01*
X13037000Y-7115000D02*
X13077000Y-7155000D01*
X13077000Y-7115000D02*
X13037000Y-7155000D01*
X13055000Y-11586000D02*
X13095000Y-11626000D01*
X13095000Y-11586000D02*
X13055000Y-11626000D01*
X13058000Y-12316000D02*
X13098000Y-12356000D01*
X13098000Y-12316000D02*
X13058000Y-12356000D01*
X13087500Y-8948000D02*
X13127500Y-8988000D01*
X13127500Y-8948000D02*
X13087500Y-8988000D01*
X13100000Y-7209000D02*
X13140000Y-7249000D01*
X13140000Y-7209000D02*
X13100000Y-7249000D01*
X13102000Y-10771000D02*
X13142000Y-10811000D01*
X13142000Y-10771000D02*
X13102000Y-10811000D01*
X13121000Y-12410000D02*
X13161000Y-12450000D01*
X13161000Y-12410000D02*
X13121000Y-12450000D01*
X13178500Y-8840000D02*
X13218500Y-8880000D01*
X13218500Y-8840000D02*
X13178500Y-8880000D01*
X13191000Y-6152000D02*
X13231000Y-6192000D01*
X13231000Y-6152000D02*
X13191000Y-6192000D01*
X13191000Y-7101000D02*
X13231000Y-7141000D01*
X13231000Y-7101000D02*
X13191000Y-7141000D01*
X13192000Y-10684000D02*
X13232000Y-10724000D01*
X13232000Y-10684000D02*
X13192000Y-10724000D01*
X13209000Y-9990000D02*
X13249000Y-10030000D01*
X13249000Y-9990000D02*
X13209000Y-10030000D01*
X13212000Y-9823000D02*
X13252000Y-9863000D01*
X13252000Y-9823000D02*
X13212000Y-9863000D01*
X13212000Y-12302000D02*
X13252000Y-12342000D01*
X13252000Y-12302000D02*
X13212000Y-12342000D01*
X13215000Y-10144000D02*
X13255000Y-10184000D01*
X13255000Y-10144000D02*
X13215000Y-10184000D01*
X13235500Y-8959000D02*
X13275500Y-8999000D01*
X13275500Y-8959000D02*
X13235500Y-8999000D01*
X13248000Y-7220000D02*
X13288000Y-7260000D01*
X13288000Y-7220000D02*
X13248000Y-7260000D01*
X13268000Y-10774000D02*
X13308000Y-10814000D01*
X13308000Y-10774000D02*
X13268000Y-10814000D01*
X13269000Y-12421000D02*
X13309000Y-12461000D01*
X13309000Y-12421000D02*
X13269000Y-12461000D01*
X13313500Y-8845000D02*
X13353500Y-8885000D01*
X13353500Y-8845000D02*
X13313500Y-8885000D01*
X13326000Y-7106000D02*
X13366000Y-7146000D01*
X13366000Y-7106000D02*
X13326000Y-7146000D01*
X13347000Y-12307000D02*
X13387000Y-12347000D01*
X13387000Y-12307000D02*
X13347000Y-12347000D01*
X13357000Y-10682000D02*
X13397000Y-10722000D01*
X13397000Y-10682000D02*
X13357000Y-10722000D01*
X13382500Y-9819000D02*
X13422500Y-9859000D01*
X13422500Y-9819000D02*
X13382500Y-9859000D01*
X13383000Y-10139000D02*
X13423000Y-10179000D01*
X13423000Y-10139000D02*
X13383000Y-10179000D01*
X13385000Y-8543000D02*
X13425000Y-8583000D01*
X13425000Y-8543000D02*
X13385000Y-8583000D01*
X13388500Y-9979000D02*
X13428500Y-10019000D01*
X13428500Y-9979000D02*
X13388500Y-10019000D01*
X13389500Y-8964000D02*
X13429500Y-9004000D01*
X13429500Y-8964000D02*
X13389500Y-9004000D01*
X13394000Y-12046000D02*
X13434000Y-12086000D01*
X13434000Y-12046000D02*
X13394000Y-12086000D01*
X13395000Y-8080000D02*
X13435000Y-8120000D01*
X13435000Y-8080000D02*
X13395000Y-8120000D01*
X13400000Y-8397000D02*
X13440000Y-8437000D01*
X13440000Y-8397000D02*
X13400000Y-8437000D01*
X13401000Y-8240000D02*
X13441000Y-8280000D01*
X13441000Y-8240000D02*
X13401000Y-8280000D01*
X13402000Y-7225000D02*
X13442000Y-7265000D01*
X13442000Y-7225000D02*
X13402000Y-7265000D01*
X13404000Y-11583000D02*
X13444000Y-11623000D01*
X13444000Y-11583000D02*
X13404000Y-11623000D01*
X13406000Y-13744000D02*
X13446000Y-13784000D01*
X13446000Y-13744000D02*
X13406000Y-13784000D01*
X13409000Y-11900000D02*
X13449000Y-11940000D01*
X13449000Y-11900000D02*
X13409000Y-11940000D01*
X13410000Y-11743000D02*
X13450000Y-11783000D01*
X13450000Y-11743000D02*
X13410000Y-11783000D01*
X13415000Y-6156000D02*
X13455000Y-6196000D01*
X13455000Y-6156000D02*
X13415000Y-6196000D01*
X13416000Y-13281000D02*
X13456000Y-13321000D01*
X13456000Y-13281000D02*
X13416000Y-13321000D01*
X13421000Y-13598000D02*
X13461000Y-13638000D01*
X13461000Y-13598000D02*
X13421000Y-13638000D01*
X13422000Y-13441000D02*
X13462000Y-13481000D01*
X13462000Y-13441000D02*
X13422000Y-13481000D01*
X13423000Y-12426000D02*
X13463000Y-12466000D01*
X13463000Y-12426000D02*
X13423000Y-12466000D01*
X13506000Y-8504000D02*
X13546000Y-8544000D01*
X13546000Y-8504000D02*
X13506000Y-8544000D01*
X13509000Y-8200000D02*
X13549000Y-8240000D01*
X13549000Y-8200000D02*
X13509000Y-8240000D01*
X13510000Y-8339000D02*
X13550000Y-8379000D01*
X13550000Y-8339000D02*
X13510000Y-8379000D01*
X13515000Y-12007000D02*
X13555000Y-12047000D01*
X13555000Y-12007000D02*
X13515000Y-12047000D01*
X13518000Y-11703000D02*
X13558000Y-11743000D01*
X13558000Y-11703000D02*
X13518000Y-11743000D01*
X13519000Y-11842000D02*
X13559000Y-11882000D01*
X13559000Y-11842000D02*
X13519000Y-11882000D01*
X13527000Y-13705000D02*
X13567000Y-13745000D01*
X13567000Y-13705000D02*
X13527000Y-13745000D01*
X13530000Y-13401000D02*
X13570000Y-13441000D01*
X13570000Y-13401000D02*
X13530000Y-13441000D01*
X13531000Y-13540000D02*
X13571000Y-13580000D01*
X13571000Y-13540000D02*
X13531000Y-13580000D01*
X13605000Y-5969000D02*
X13645000Y-6009000D01*
X13645000Y-5969000D02*
X13605000Y-6009000D01*
X13612000Y-6124000D02*
X13652000Y-6164000D01*
X13652000Y-6124000D02*
X13612000Y-6164000D01*
X13631000Y-6476000D02*
X13671000Y-6516000D01*
X13671000Y-6476000D02*
X13631000Y-6516000D01*
X13798000Y-6482000D02*
X13838000Y-6522000D01*
X13838000Y-6482000D02*
X13798000Y-6522000D01*
X13946000Y-6481000D02*
X13986000Y-6521000D01*
X13986000Y-6481000D02*
X13946000Y-6521000D01*
D13*
X5442000Y-7775000D02*
G75*
G03*
X5442000Y-7775000I-30000J0D01*
G01*
X5942000Y-7645000D02*
G75*
G03*
X5942000Y-7645000I-30000J0D01*
G01*
D14*
X13630500Y-10686500D02*
X13630500Y-10751500D01*
X13598000Y-10719000D02*
X13663000Y-10719000D01*
D11*
X13575500Y-10751500D02*
X13685500Y-10751500D01*
X13685500Y-10751500D02*
G75*
G03*
X13685500Y-10686500I0J32500D01*
G01*
X13685500Y-10686500D02*
X13575500Y-10686500D01*
X13575500Y-10686500D02*
G75*
G03*
X13575500Y-10751500I0J-32500D01*
G01*
D14*
X13630500Y-11550500D02*
X13630500Y-11615500D01*
X13598000Y-11583000D02*
X13663000Y-11583000D01*
D11*
X13575500Y-11615500D02*
X13685500Y-11615500D01*
X13685500Y-11615500D02*
G75*
G03*
X13685500Y-11550500I0J32500D01*
G01*
X13685500Y-11550500D02*
X13575500Y-11550500D01*
X13575500Y-11550500D02*
G75*
G03*
X13575500Y-11615500I0J-32500D01*
G01*
D14*
X13636000Y-12387500D02*
X13636000Y-12452500D01*
X13603500Y-12420000D02*
X13668500Y-12420000D01*
D11*
X13581000Y-12452500D02*
X13691000Y-12452500D01*
X13691000Y-12452500D02*
G75*
G03*
X13691000Y-12387500I0J32500D01*
G01*
X13691000Y-12387500D02*
X13581000Y-12387500D01*
X13581000Y-12387500D02*
G75*
G03*
X13581000Y-12452500I0J-32500D01*
G01*
D14*
X13636000Y-13251500D02*
X13636000Y-13316500D01*
X13603500Y-13284000D02*
X13668500Y-13284000D01*
D11*
X13581000Y-13316500D02*
X13691000Y-13316500D01*
X13691000Y-13316500D02*
G75*
G03*
X13691000Y-13251500I0J32500D01*
G01*
X13691000Y-13251500D02*
X13581000Y-13251500D01*
X13581000Y-13251500D02*
G75*
G03*
X13581000Y-13316500I0J-32500D01*
G01*
D14*
X13640000Y-8928500D02*
X13640000Y-8993500D01*
X13607500Y-8961000D02*
X13672500Y-8961000D01*
D11*
X13585000Y-8993500D02*
X13695000Y-8993500D01*
X13695000Y-8993500D02*
G75*
G03*
X13695000Y-8928500I0J32500D01*
G01*
X13695000Y-8928500D02*
X13585000Y-8928500D01*
X13585000Y-8928500D02*
G75*
G03*
X13585000Y-8993500I0J-32500D01*
G01*
D14*
X13640000Y-9792500D02*
X13640000Y-9857500D01*
X13607500Y-9825000D02*
X13672500Y-9825000D01*
D11*
X13585000Y-9857500D02*
X13695000Y-9857500D01*
X13695000Y-9857500D02*
G75*
G03*
X13695000Y-9792500I0J32500D01*
G01*
X13695000Y-9792500D02*
X13585000Y-9792500D01*
X13585000Y-9792500D02*
G75*
G03*
X13585000Y-9857500I0J-32500D01*
G01*
D14*
X13654000Y-7186500D02*
X13654000Y-7251500D01*
X13621500Y-7219000D02*
X13686500Y-7219000D01*
D11*
X13599000Y-7251500D02*
X13709000Y-7251500D01*
X13709000Y-7251500D02*
G75*
G03*
X13709000Y-7186500I0J32500D01*
G01*
X13709000Y-7186500D02*
X13599000Y-7186500D01*
X13599000Y-7186500D02*
G75*
G03*
X13599000Y-7251500I0J-32500D01*
G01*
D14*
X13654000Y-8050500D02*
X13654000Y-8115500D01*
X13621500Y-8083000D02*
X13686500Y-8083000D01*
D11*
X13599000Y-8115500D02*
X13709000Y-8115500D01*
X13709000Y-8115500D02*
G75*
G03*
X13709000Y-8050500I0J32500D01*
G01*
X13709000Y-8050500D02*
X13599000Y-8050500D01*
X13599000Y-8050500D02*
G75*
G03*
X13599000Y-8115500I0J-32500D01*
G01*
D14*
X14048500Y-10686500D02*
X14048500Y-10751500D01*
X14016000Y-10719000D02*
X14081000Y-10719000D01*
D11*
X14018500Y-10751500D02*
X14078500Y-10751500D01*
X14078500Y-10751500D02*
G75*
G03*
X14078500Y-10686500I0J32500D01*
G01*
X14078500Y-10686500D02*
X14018500Y-10686500D01*
X14018500Y-10686500D02*
G75*
G03*
X14018500Y-10751500I0J-32500D01*
G01*
D14*
X14048500Y-11550500D02*
X14048500Y-11615500D01*
X14016000Y-11583000D02*
X14081000Y-11583000D01*
D11*
X14018500Y-11615500D02*
X14078500Y-11615500D01*
X14078500Y-11615500D02*
G75*
G03*
X14078500Y-11550500I0J32500D01*
G01*
X14078500Y-11550500D02*
X14018500Y-11550500D01*
X14018500Y-11550500D02*
G75*
G03*
X14018500Y-11615500I0J-32500D01*
G01*
D14*
X14054000Y-12387500D02*
X14054000Y-12452500D01*
X14021500Y-12420000D02*
X14086500Y-12420000D01*
D11*
X14024000Y-12452500D02*
X14084000Y-12452500D01*
X14084000Y-12452500D02*
G75*
G03*
X14084000Y-12387500I0J32500D01*
G01*
X14084000Y-12387500D02*
X14024000Y-12387500D01*
X14024000Y-12387500D02*
G75*
G03*
X14024000Y-12452500I0J-32500D01*
G01*
D14*
X14054000Y-13251500D02*
X14054000Y-13316500D01*
X14021500Y-13284000D02*
X14086500Y-13284000D01*
D11*
X14024000Y-13316500D02*
X14084000Y-13316500D01*
X14084000Y-13316500D02*
G75*
G03*
X14084000Y-13251500I0J32500D01*
G01*
X14084000Y-13251500D02*
X14024000Y-13251500D01*
X14024000Y-13251500D02*
G75*
G03*
X14024000Y-13316500I0J-32500D01*
G01*
D14*
X14058000Y-8928500D02*
X14058000Y-8993500D01*
X14025500Y-8961000D02*
X14090500Y-8961000D01*
D11*
X14028000Y-8993500D02*
X14088000Y-8993500D01*
X14088000Y-8993500D02*
G75*
G03*
X14088000Y-8928500I0J32500D01*
G01*
X14088000Y-8928500D02*
X14028000Y-8928500D01*
X14028000Y-8928500D02*
G75*
G03*
X14028000Y-8993500I0J-32500D01*
G01*
D14*
X14058000Y-9792500D02*
X14058000Y-9857500D01*
X14025500Y-9825000D02*
X14090500Y-9825000D01*
D11*
X14028000Y-9857500D02*
X14088000Y-9857500D01*
X14088000Y-9857500D02*
G75*
G03*
X14088000Y-9792500I0J32500D01*
G01*
X14088000Y-9792500D02*
X14028000Y-9792500D01*
X14028000Y-9792500D02*
G75*
G03*
X14028000Y-9857500I0J-32500D01*
G01*
D14*
X14072000Y-7186500D02*
X14072000Y-7251500D01*
X14039500Y-7219000D02*
X14104500Y-7219000D01*
D11*
X14042000Y-7251500D02*
X14102000Y-7251500D01*
X14102000Y-7251500D02*
G75*
G03*
X14102000Y-7186500I0J32500D01*
G01*
X14102000Y-7186500D02*
X14042000Y-7186500D01*
X14042000Y-7186500D02*
G75*
G03*
X14042000Y-7251500I0J-32500D01*
G01*
D14*
X14072000Y-8050500D02*
X14072000Y-8115500D01*
X14039500Y-8083000D02*
X14104500Y-8083000D01*
D11*
X14042000Y-8115500D02*
X14102000Y-8115500D01*
X14102000Y-8115500D02*
G75*
G03*
X14102000Y-8050500I0J32500D01*
G01*
X14102000Y-8050500D02*
X14042000Y-8050500D01*
X14042000Y-8050500D02*
G75*
G03*
X14042000Y-8115500I0J-32500D01*
G01*
D15*
X6526820Y-12181820D02*
X6526820Y-12118180D01*
X6463180Y-12118180D01*
X6463180Y-12181820D01*
X6526820Y-12181820D01*
X7276820Y-7933820D02*
X7276820Y-7870180D01*
X7213180Y-7870180D01*
X7213180Y-7933820D01*
X7276820Y-7933820D01*
X8052820Y-7928820D02*
X8052820Y-7865180D01*
X7989180Y-7865180D01*
X7989180Y-7928820D01*
X8052820Y-7928820D01*
X8804820Y-12183820D02*
X8804820Y-12120180D01*
X8741180Y-12120180D01*
X8741180Y-12183820D01*
X8804820Y-12183820D01*
X9370820Y-10052820D02*
X9370820Y-9989180D01*
X9307180Y-9989180D01*
X9307180Y-10052820D01*
X9370820Y-10052820D01*
X9376820Y-14867820D02*
X9376820Y-14804180D01*
X9313180Y-14804180D01*
X9313180Y-14867820D01*
X9376820Y-14867820D01*
X10120820Y-5804820D02*
X10120820Y-5741180D01*
X10057180Y-5741180D01*
X10057180Y-5804820D01*
X10120820Y-5804820D01*
X10126820Y-10619820D02*
X10126820Y-10556180D01*
X10063180Y-10556180D01*
X10063180Y-10619820D01*
X10126820Y-10619820D01*
X10896820Y-5799820D02*
X10896820Y-5736180D01*
X10833180Y-5736180D01*
X10833180Y-5799820D01*
X10896820Y-5799820D01*
X10902820Y-10614820D02*
X10902820Y-10551180D01*
X10839180Y-10551180D01*
X10839180Y-10614820D01*
X10902820Y-10614820D01*
X11648820Y-10054820D02*
X11648820Y-9991180D01*
X11585180Y-9991180D01*
X11585180Y-10054820D01*
X11648820Y-10054820D01*
X11654820Y-14869820D02*
X11654820Y-14806180D01*
X11591180Y-14806180D01*
X11591180Y-14869820D01*
X11654820Y-14869820D01*
D16*
X6753000Y-14195000D02*
X6799000Y-14149000D01*
X6753000Y-14103000D01*
X6707000Y-14149000D01*
X6753000Y-14195000D01*
X7003000Y-14195000D02*
X7049000Y-14149000D01*
X7003000Y-14103000D01*
X6957000Y-14149000D01*
X7003000Y-14195000D01*
X7203000Y-14195000D02*
X7249000Y-14149000D01*
X7203000Y-14103000D01*
X7157000Y-14149000D01*
X7203000Y-14195000D01*
X7453000Y-14195000D02*
X7499000Y-14149000D01*
X7453000Y-14103000D01*
X7407000Y-14149000D01*
X7453000Y-14195000D01*
X8947000Y-14197000D02*
X8993000Y-14151000D01*
X8947000Y-14105000D01*
X8901000Y-14151000D01*
X8947000Y-14197000D01*
X9197000Y-14197000D02*
X9243000Y-14151000D01*
X9197000Y-14105000D01*
X9151000Y-14151000D01*
X9197000Y-14197000D01*
X9397000Y-14197000D02*
X9443000Y-14151000D01*
X9397000Y-14105000D01*
X9351000Y-14151000D01*
X9397000Y-14197000D01*
X9647000Y-14197000D02*
X9693000Y-14151000D01*
X9647000Y-14105000D01*
X9601000Y-14151000D01*
X9647000Y-14197000D01*
X11292000Y-14194000D02*
X11338000Y-14148000D01*
X11292000Y-14102000D01*
X11246000Y-14148000D01*
X11292000Y-14194000D01*
X11542000Y-14194000D02*
X11588000Y-14148000D01*
X11542000Y-14102000D01*
X11496000Y-14148000D01*
X11542000Y-14194000D01*
X11742000Y-14194000D02*
X11788000Y-14148000D01*
X11742000Y-14102000D01*
X11696000Y-14148000D01*
X11742000Y-14194000D01*
X11992000Y-14194000D02*
X12038000Y-14148000D01*
X11992000Y-14102000D01*
X11946000Y-14148000D01*
X11992000Y-14194000D01*
D10*
X4787000Y-7106000D02*
X4887000Y-7206000D01*
X4887000Y-7106000D02*
X4787000Y-7206000D01*
X4887000Y-7156000D02*
G75*
G03*
X4887000Y-7156000I-50000J0D01*
G01*
X4794000Y-8334000D02*
X4894000Y-8434000D01*
X4894000Y-8334000D02*
X4794000Y-8434000D01*
X4894000Y-8384000D02*
G75*
G03*
X4894000Y-8384000I-50000J0D01*
G01*
X5787000Y-7106000D02*
X5887000Y-7206000D01*
X5887000Y-7106000D02*
X5787000Y-7206000D01*
X5887000Y-7156000D02*
G75*
G03*
X5887000Y-7156000I-50000J0D01*
G01*
X5994000Y-8334000D02*
X6094000Y-8434000D01*
X6094000Y-8334000D02*
X5994000Y-8434000D01*
X6094000Y-8384000D02*
G75*
G03*
X6094000Y-8384000I-50000J0D01*
G01*
X6528000Y-7396000D02*
X6628000Y-7496000D01*
X6628000Y-7396000D02*
X6528000Y-7496000D01*
X6628000Y-7446000D02*
G75*
G03*
X6628000Y-7446000I-50000J0D01*
G01*
X6533000Y-5691000D02*
X6633000Y-5791000D01*
X6633000Y-5691000D02*
X6533000Y-5791000D01*
X6633000Y-5741000D02*
G75*
G03*
X6633000Y-5741000I-50000J0D01*
G01*
X8258000Y-12524000D02*
X8358000Y-12624000D01*
X8358000Y-12524000D02*
X8258000Y-12624000D01*
X8358000Y-12574000D02*
G75*
G03*
X8358000Y-12574000I-50000J0D01*
G01*
X8258000Y-13724000D02*
X8358000Y-13824000D01*
X8358000Y-13724000D02*
X8258000Y-13824000D01*
X8358000Y-13774000D02*
G75*
G03*
X8358000Y-13774000I-50000J0D01*
G01*
X8649000Y-7402000D02*
X8749000Y-7502000D01*
X8749000Y-7402000D02*
X8649000Y-7502000D01*
X8749000Y-7452000D02*
G75*
G03*
X8749000Y-7452000I-50000J0D01*
G01*
X8650000Y-5683000D02*
X8750000Y-5783000D01*
X8750000Y-5683000D02*
X8650000Y-5783000D01*
X8750000Y-5733000D02*
G75*
G03*
X8750000Y-5733000I-50000J0D01*
G01*
D17*
X5325500Y-10238500D02*
X5426500Y-10339500D01*
X5426500Y-10238500D02*
X5325500Y-10339500D01*
X5376000Y-10238500D02*
X5376000Y-10339500D01*
X5325500Y-10289000D02*
X5426500Y-10289000D01*
X5835500Y-10118500D02*
X5936500Y-10219500D01*
X5936500Y-10118500D02*
X5835500Y-10219500D01*
X5886000Y-10118500D02*
X5886000Y-10219500D01*
X5835500Y-10169000D02*
X5936500Y-10169000D01*
D18*
X4774000Y-9544000D02*
X4904000Y-9674000D01*
X4904000Y-9544000D02*
X4774000Y-9674000D01*
X4884962Y-9654962D02*
X4884962Y-9563038D01*
X4793038Y-9563038D01*
X4793038Y-9654962D01*
X4884962Y-9654962D01*
X5374000Y-8124000D02*
X5504000Y-8254000D01*
X5504000Y-8124000D02*
X5374000Y-8254000D01*
X5484962Y-8234962D02*
X5484962Y-8143038D01*
X5393038Y-8143038D01*
X5393038Y-8234962D01*
X5484962Y-8234962D01*
X5979000Y-9539000D02*
X6109000Y-9669000D01*
X6109000Y-9539000D02*
X5979000Y-9669000D01*
X6089962Y-9649962D02*
X6089962Y-9558038D01*
X5998038Y-9558038D01*
X5998038Y-9649962D01*
X6089962Y-9649962D01*
X7018000Y-12504000D02*
X7148000Y-12634000D01*
X7148000Y-12504000D02*
X7018000Y-12634000D01*
X7128962Y-12614962D02*
X7128962Y-12523038D01*
X7037038Y-12523038D01*
X7037038Y-12614962D01*
X7128962Y-12614962D01*
X7023000Y-13709000D02*
X7153000Y-13839000D01*
X7153000Y-13709000D02*
X7023000Y-13839000D01*
X7133962Y-13819962D02*
X7133962Y-13728038D01*
X7042038Y-13728038D01*
X7042038Y-13819962D01*
X7133962Y-13819962D01*
X8438000Y-13104000D02*
X8568000Y-13234000D01*
X8568000Y-13104000D02*
X8438000Y-13234000D01*
X8548962Y-13214962D02*
X8548962Y-13123038D01*
X8457038Y-13123038D01*
X8457038Y-13214962D01*
X8548962Y-13214962D01*
D19*
X5623560Y-10811060D02*
X5806440Y-10993940D01*
X5806440Y-10811060D02*
X5623560Y-10993940D01*
X5715000Y-10993940D02*
X5806440Y-10902500D01*
X5715000Y-10811060D01*
X5623560Y-10902500D01*
X5715000Y-10993940D01*
X5623560Y-11636560D02*
X5806440Y-11819440D01*
X5806440Y-11636560D02*
X5623560Y-11819440D01*
X5715000Y-11819440D02*
X5806440Y-11728000D01*
X5715000Y-11636560D01*
X5623560Y-11728000D01*
X5715000Y-11819440D01*
X5623560Y-12462060D02*
X5806440Y-12644940D01*
X5806440Y-12462060D02*
X5623560Y-12644940D01*
X5715000Y-12644940D02*
X5806440Y-12553500D01*
X5715000Y-12462060D01*
X5623560Y-12553500D01*
X5715000Y-12644940D01*
X5623560Y-13287560D02*
X5806440Y-13470440D01*
X5806440Y-13287560D02*
X5623560Y-13470440D01*
X5715000Y-13470440D02*
X5806440Y-13379000D01*
X5715000Y-13287560D01*
X5623560Y-13379000D01*
X5715000Y-13470440D01*
D20*
X6446000Y-14305000D02*
X6446000Y-14535000D01*
X6331000Y-14420000D02*
X6561000Y-14420000D01*
X6561000Y-14420000D02*
G75*
G03*
X6561000Y-14420000I-115000J0D01*
G01*
X7760000Y-14305000D02*
X7760000Y-14535000D01*
X7645000Y-14420000D02*
X7875000Y-14420000D01*
X7875000Y-14420000D02*
G75*
G03*
X7875000Y-14420000I-115000J0D01*
G01*
X8640000Y-14307000D02*
X8640000Y-14537000D01*
X8525000Y-14422000D02*
X8755000Y-14422000D01*
X8755000Y-14422000D02*
G75*
G03*
X8755000Y-14422000I-115000J0D01*
G01*
X9954000Y-14307000D02*
X9954000Y-14537000D01*
X9839000Y-14422000D02*
X10069000Y-14422000D01*
X10069000Y-14422000D02*
G75*
G03*
X10069000Y-14422000I-115000J0D01*
G01*
X10985000Y-14304000D02*
X10985000Y-14534000D01*
X10870000Y-14419000D02*
X11100000Y-14419000D01*
X11100000Y-14419000D02*
G75*
G03*
X11100000Y-14419000I-115000J0D01*
G01*
X12299000Y-14304000D02*
X12299000Y-14534000D01*
X12184000Y-14419000D02*
X12414000Y-14419000D01*
X12414000Y-14419000D02*
G75*
G03*
X12414000Y-14419000I-115000J0D01*
G01*
D11*
X4908777Y-15379484D02*
X4908777Y-15179484D01*
X4908777Y-15179484D02*
X4956396Y-15179484D01*
X4956396Y-15179484D02*
X4984967Y-15189008D01*
X4984967Y-15189008D02*
X5004015Y-15208055D01*
X5004015Y-15208055D02*
X5013539Y-15227103D01*
X5013539Y-15227103D02*
X5023063Y-15265198D01*
X5023063Y-15265198D02*
X5023063Y-15293769D01*
X5023063Y-15293769D02*
X5013539Y-15331865D01*
X5013539Y-15331865D02*
X5004015Y-15350912D01*
X5004015Y-15350912D02*
X4984967Y-15369960D01*
X4984967Y-15369960D02*
X4956396Y-15379484D01*
X4956396Y-15379484D02*
X4908777Y-15379484D01*
X5108777Y-15379484D02*
X5108777Y-15246150D01*
X5108777Y-15284246D02*
X5118301Y-15265198D01*
X5118301Y-15265198D02*
X5127824Y-15255674D01*
X5127824Y-15255674D02*
X5146872Y-15246150D01*
X5146872Y-15246150D02*
X5165920Y-15246150D01*
X5232586Y-15379484D02*
X5232586Y-15246150D01*
X5232586Y-15179484D02*
X5223063Y-15189008D01*
X5223063Y-15189008D02*
X5232586Y-15198531D01*
X5232586Y-15198531D02*
X5242110Y-15189008D01*
X5242110Y-15189008D02*
X5232586Y-15179484D01*
X5232586Y-15179484D02*
X5232586Y-15198531D01*
X5356396Y-15379484D02*
X5337348Y-15369960D01*
X5337348Y-15369960D02*
X5327824Y-15350912D01*
X5327824Y-15350912D02*
X5327824Y-15179484D01*
X5461158Y-15379484D02*
X5442110Y-15369960D01*
X5442110Y-15369960D02*
X5432586Y-15350912D01*
X5432586Y-15350912D02*
X5432586Y-15179484D01*
X5689729Y-15379484D02*
X5689729Y-15179484D01*
X5689729Y-15179484D02*
X5756396Y-15322341D01*
X5756396Y-15322341D02*
X5823062Y-15179484D01*
X5823062Y-15179484D02*
X5823062Y-15379484D01*
X6004015Y-15379484D02*
X6004015Y-15274722D01*
X6004015Y-15274722D02*
X5994491Y-15255674D01*
X5994491Y-15255674D02*
X5975443Y-15246150D01*
X5975443Y-15246150D02*
X5937348Y-15246150D01*
X5937348Y-15246150D02*
X5918301Y-15255674D01*
X6004015Y-15369960D02*
X5984967Y-15379484D01*
X5984967Y-15379484D02*
X5937348Y-15379484D01*
X5937348Y-15379484D02*
X5918301Y-15369960D01*
X5918301Y-15369960D02*
X5908777Y-15350912D01*
X5908777Y-15350912D02*
X5908777Y-15331865D01*
X5908777Y-15331865D02*
X5918301Y-15312817D01*
X5918301Y-15312817D02*
X5937348Y-15303293D01*
X5937348Y-15303293D02*
X5984967Y-15303293D01*
X5984967Y-15303293D02*
X6004015Y-15293769D01*
X6099253Y-15246150D02*
X6099253Y-15446150D01*
X6099253Y-15255674D02*
X6118301Y-15246150D01*
X6118301Y-15246150D02*
X6156396Y-15246150D01*
X6156396Y-15246150D02*
X6175443Y-15255674D01*
X6175443Y-15255674D02*
X6184967Y-15265198D01*
X6184967Y-15265198D02*
X6194491Y-15284246D01*
X6194491Y-15284246D02*
X6194491Y-15341388D01*
X6194491Y-15341388D02*
X6184967Y-15360436D01*
X6184967Y-15360436D02*
X6175443Y-15369960D01*
X6175443Y-15369960D02*
X6156396Y-15379484D01*
X6156396Y-15379484D02*
X6118301Y-15379484D01*
X6118301Y-15379484D02*
X6099253Y-15369960D01*
X6280205Y-15360436D02*
X6289729Y-15369960D01*
X6289729Y-15369960D02*
X6280205Y-15379484D01*
X6280205Y-15379484D02*
X6270682Y-15369960D01*
X6270682Y-15369960D02*
X6280205Y-15360436D01*
X6280205Y-15360436D02*
X6280205Y-15379484D01*
X6280205Y-15255674D02*
X6289729Y-15265198D01*
X6289729Y-15265198D02*
X6280205Y-15274722D01*
X6280205Y-15274722D02*
X6270682Y-15265198D01*
X6270682Y-15265198D02*
X6280205Y-15255674D01*
X6280205Y-15255674D02*
X6280205Y-15274722D01*
D12*
X4608000Y-15688000D02*
X4648000Y-15728000D01*
X4648000Y-15688000D02*
X4608000Y-15728000D01*
D11*
X4946872Y-15599484D02*
X4965920Y-15599484D01*
X4965920Y-15599484D02*
X4984967Y-15609008D01*
X4984967Y-15609008D02*
X4994491Y-15618531D01*
X4994491Y-15618531D02*
X5004015Y-15637579D01*
X5004015Y-15637579D02*
X5013539Y-15675674D01*
X5013539Y-15675674D02*
X5013539Y-15723293D01*
X5013539Y-15723293D02*
X5004015Y-15761388D01*
X5004015Y-15761388D02*
X4994491Y-15780436D01*
X4994491Y-15780436D02*
X4984967Y-15789960D01*
X4984967Y-15789960D02*
X4965920Y-15799484D01*
X4965920Y-15799484D02*
X4946872Y-15799484D01*
X4946872Y-15799484D02*
X4927824Y-15789960D01*
X4927824Y-15789960D02*
X4918301Y-15780436D01*
X4918301Y-15780436D02*
X4908777Y-15761388D01*
X4908777Y-15761388D02*
X4899253Y-15723293D01*
X4899253Y-15723293D02*
X4899253Y-15675674D01*
X4899253Y-15675674D02*
X4908777Y-15637579D01*
X4908777Y-15637579D02*
X4918301Y-15618531D01*
X4918301Y-15618531D02*
X4927824Y-15609008D01*
X4927824Y-15609008D02*
X4946872Y-15599484D01*
X5099253Y-15780436D02*
X5108777Y-15789960D01*
X5108777Y-15789960D02*
X5099253Y-15799484D01*
X5099253Y-15799484D02*
X5089729Y-15789960D01*
X5089729Y-15789960D02*
X5099253Y-15780436D01*
X5099253Y-15780436D02*
X5099253Y-15799484D01*
X5280205Y-15666150D02*
X5280205Y-15799484D01*
X5232586Y-15589960D02*
X5184967Y-15732817D01*
X5184967Y-15732817D02*
X5308777Y-15732817D01*
X5423063Y-15599484D02*
X5442110Y-15599484D01*
X5442110Y-15599484D02*
X5461158Y-15609008D01*
X5461158Y-15609008D02*
X5470682Y-15618531D01*
X5470682Y-15618531D02*
X5480205Y-15637579D01*
X5480205Y-15637579D02*
X5489729Y-15675674D01*
X5489729Y-15675674D02*
X5489729Y-15723293D01*
X5489729Y-15723293D02*
X5480205Y-15761388D01*
X5480205Y-15761388D02*
X5470682Y-15780436D01*
X5470682Y-15780436D02*
X5461158Y-15789960D01*
X5461158Y-15789960D02*
X5442110Y-15799484D01*
X5442110Y-15799484D02*
X5423063Y-15799484D01*
X5423063Y-15799484D02*
X5404015Y-15789960D01*
X5404015Y-15789960D02*
X5394491Y-15780436D01*
X5394491Y-15780436D02*
X5384967Y-15761388D01*
X5384967Y-15761388D02*
X5375444Y-15723293D01*
X5375444Y-15723293D02*
X5375444Y-15675674D01*
X5375444Y-15675674D02*
X5384967Y-15637579D01*
X5384967Y-15637579D02*
X5394491Y-15618531D01*
X5394491Y-15618531D02*
X5404015Y-15609008D01*
X5404015Y-15609008D02*
X5423063Y-15599484D01*
X5613539Y-15599484D02*
X5632586Y-15599484D01*
X5632586Y-15599484D02*
X5651634Y-15609008D01*
X5651634Y-15609008D02*
X5661158Y-15618531D01*
X5661158Y-15618531D02*
X5670682Y-15637579D01*
X5670682Y-15637579D02*
X5680205Y-15675674D01*
X5680205Y-15675674D02*
X5680205Y-15723293D01*
X5680205Y-15723293D02*
X5670682Y-15761388D01*
X5670682Y-15761388D02*
X5661158Y-15780436D01*
X5661158Y-15780436D02*
X5651634Y-15789960D01*
X5651634Y-15789960D02*
X5632586Y-15799484D01*
X5632586Y-15799484D02*
X5613539Y-15799484D01*
X5613539Y-15799484D02*
X5594491Y-15789960D01*
X5594491Y-15789960D02*
X5584967Y-15780436D01*
X5584967Y-15780436D02*
X5575444Y-15761388D01*
X5575444Y-15761388D02*
X5565920Y-15723293D01*
X5565920Y-15723293D02*
X5565920Y-15675674D01*
X5565920Y-15675674D02*
X5575444Y-15637579D01*
X5575444Y-15637579D02*
X5584967Y-15618531D01*
X5584967Y-15618531D02*
X5594491Y-15609008D01*
X5594491Y-15609008D02*
X5613539Y-15599484D01*
X5765920Y-15799484D02*
X5765920Y-15666150D01*
X5765920Y-15685198D02*
X5775443Y-15675674D01*
X5775443Y-15675674D02*
X5794491Y-15666150D01*
X5794491Y-15666150D02*
X5823063Y-15666150D01*
X5823063Y-15666150D02*
X5842110Y-15675674D01*
X5842110Y-15675674D02*
X5851634Y-15694722D01*
X5851634Y-15694722D02*
X5851634Y-15799484D01*
X5851634Y-15694722D02*
X5861158Y-15675674D01*
X5861158Y-15675674D02*
X5880205Y-15666150D01*
X5880205Y-15666150D02*
X5908777Y-15666150D01*
X5908777Y-15666150D02*
X5927824Y-15675674D01*
X5927824Y-15675674D02*
X5937348Y-15694722D01*
X5937348Y-15694722D02*
X5937348Y-15799484D01*
X6032586Y-15799484D02*
X6032586Y-15666150D01*
X6032586Y-15685198D02*
X6042110Y-15675674D01*
X6042110Y-15675674D02*
X6061158Y-15666150D01*
X6061158Y-15666150D02*
X6089729Y-15666150D01*
X6089729Y-15666150D02*
X6108777Y-15675674D01*
X6108777Y-15675674D02*
X6118301Y-15694722D01*
X6118301Y-15694722D02*
X6118301Y-15799484D01*
X6118301Y-15694722D02*
X6127824Y-15675674D01*
X6127824Y-15675674D02*
X6146872Y-15666150D01*
X6146872Y-15666150D02*
X6175443Y-15666150D01*
X6175443Y-15666150D02*
X6194491Y-15675674D01*
X6194491Y-15675674D02*
X6204015Y-15694722D01*
X6204015Y-15694722D02*
X6204015Y-15799484D01*
X6594491Y-15589960D02*
X6423063Y-15847103D01*
X6851634Y-15599484D02*
X6870682Y-15599484D01*
X6870682Y-15599484D02*
X6889729Y-15609008D01*
X6889729Y-15609008D02*
X6899253Y-15618531D01*
X6899253Y-15618531D02*
X6908777Y-15637579D01*
X6908777Y-15637579D02*
X6918301Y-15675674D01*
X6918301Y-15675674D02*
X6918301Y-15723293D01*
X6918301Y-15723293D02*
X6908777Y-15761388D01*
X6908777Y-15761388D02*
X6899253Y-15780436D01*
X6899253Y-15780436D02*
X6889729Y-15789960D01*
X6889729Y-15789960D02*
X6870682Y-15799484D01*
X6870682Y-15799484D02*
X6851634Y-15799484D01*
X6851634Y-15799484D02*
X6832586Y-15789960D01*
X6832586Y-15789960D02*
X6823063Y-15780436D01*
X6823063Y-15780436D02*
X6813539Y-15761388D01*
X6813539Y-15761388D02*
X6804015Y-15723293D01*
X6804015Y-15723293D02*
X6804015Y-15675674D01*
X6804015Y-15675674D02*
X6813539Y-15637579D01*
X6813539Y-15637579D02*
X6823063Y-15618531D01*
X6823063Y-15618531D02*
X6832586Y-15609008D01*
X6832586Y-15609008D02*
X6851634Y-15599484D01*
X7004015Y-15780436D02*
X7013539Y-15789960D01*
X7013539Y-15789960D02*
X7004015Y-15799484D01*
X7004015Y-15799484D02*
X6994491Y-15789960D01*
X6994491Y-15789960D02*
X7004015Y-15780436D01*
X7004015Y-15780436D02*
X7004015Y-15799484D01*
X7137348Y-15599484D02*
X7156396Y-15599484D01*
X7156396Y-15599484D02*
X7175444Y-15609008D01*
X7175444Y-15609008D02*
X7184967Y-15618531D01*
X7184967Y-15618531D02*
X7194491Y-15637579D01*
X7194491Y-15637579D02*
X7204015Y-15675674D01*
X7204015Y-15675674D02*
X7204015Y-15723293D01*
X7204015Y-15723293D02*
X7194491Y-15761388D01*
X7194491Y-15761388D02*
X7184967Y-15780436D01*
X7184967Y-15780436D02*
X7175444Y-15789960D01*
X7175444Y-15789960D02*
X7156396Y-15799484D01*
X7156396Y-15799484D02*
X7137348Y-15799484D01*
X7137348Y-15799484D02*
X7118301Y-15789960D01*
X7118301Y-15789960D02*
X7108777Y-15780436D01*
X7108777Y-15780436D02*
X7099253Y-15761388D01*
X7099253Y-15761388D02*
X7089729Y-15723293D01*
X7089729Y-15723293D02*
X7089729Y-15675674D01*
X7089729Y-15675674D02*
X7099253Y-15637579D01*
X7099253Y-15637579D02*
X7108777Y-15618531D01*
X7108777Y-15618531D02*
X7118301Y-15609008D01*
X7118301Y-15609008D02*
X7137348Y-15599484D01*
X7394491Y-15799484D02*
X7280206Y-15799484D01*
X7337348Y-15799484D02*
X7337348Y-15599484D01*
X7337348Y-15599484D02*
X7318301Y-15628055D01*
X7318301Y-15628055D02*
X7299253Y-15647103D01*
X7299253Y-15647103D02*
X7280206Y-15656627D01*
X7575444Y-15599484D02*
X7480206Y-15599484D01*
X7480206Y-15599484D02*
X7470682Y-15694722D01*
X7470682Y-15694722D02*
X7480206Y-15685198D01*
X7480206Y-15685198D02*
X7499253Y-15675674D01*
X7499253Y-15675674D02*
X7546872Y-15675674D01*
X7546872Y-15675674D02*
X7565920Y-15685198D01*
X7565920Y-15685198D02*
X7575444Y-15694722D01*
X7575444Y-15694722D02*
X7584967Y-15713769D01*
X7584967Y-15713769D02*
X7584967Y-15761388D01*
X7584967Y-15761388D02*
X7575444Y-15780436D01*
X7575444Y-15780436D02*
X7565920Y-15789960D01*
X7565920Y-15789960D02*
X7546872Y-15799484D01*
X7546872Y-15799484D02*
X7499253Y-15799484D01*
X7499253Y-15799484D02*
X7480206Y-15789960D01*
X7480206Y-15789960D02*
X7470682Y-15780436D01*
X7651634Y-15599484D02*
X7784967Y-15599484D01*
X7784967Y-15599484D02*
X7699253Y-15799484D01*
X7851634Y-15599484D02*
X7851634Y-15637579D01*
X7927825Y-15599484D02*
X7927825Y-15637579D01*
X8223063Y-15875674D02*
X8213539Y-15866150D01*
X8213539Y-15866150D02*
X8194491Y-15837579D01*
X8194491Y-15837579D02*
X8184968Y-15818531D01*
X8184968Y-15818531D02*
X8175444Y-15789960D01*
X8175444Y-15789960D02*
X8165920Y-15742341D01*
X8165920Y-15742341D02*
X8165920Y-15704246D01*
X8165920Y-15704246D02*
X8175444Y-15656627D01*
X8175444Y-15656627D02*
X8184968Y-15628055D01*
X8184968Y-15628055D02*
X8194491Y-15609008D01*
X8194491Y-15609008D02*
X8213539Y-15580436D01*
X8213539Y-15580436D02*
X8223063Y-15570912D01*
X8404015Y-15799484D02*
X8289729Y-15799484D01*
X8346872Y-15799484D02*
X8346872Y-15599484D01*
X8346872Y-15599484D02*
X8327825Y-15628055D01*
X8327825Y-15628055D02*
X8308777Y-15647103D01*
X8308777Y-15647103D02*
X8289729Y-15656627D01*
X8499253Y-15799484D02*
X8537349Y-15799484D01*
X8537349Y-15799484D02*
X8556396Y-15789960D01*
X8556396Y-15789960D02*
X8565920Y-15780436D01*
X8565920Y-15780436D02*
X8584968Y-15751865D01*
X8584968Y-15751865D02*
X8594491Y-15713769D01*
X8594491Y-15713769D02*
X8594491Y-15637579D01*
X8594491Y-15637579D02*
X8584968Y-15618531D01*
X8584968Y-15618531D02*
X8575444Y-15609008D01*
X8575444Y-15609008D02*
X8556396Y-15599484D01*
X8556396Y-15599484D02*
X8518301Y-15599484D01*
X8518301Y-15599484D02*
X8499253Y-15609008D01*
X8499253Y-15609008D02*
X8489730Y-15618531D01*
X8489730Y-15618531D02*
X8480206Y-15637579D01*
X8480206Y-15637579D02*
X8480206Y-15685198D01*
X8480206Y-15685198D02*
X8489730Y-15704246D01*
X8489730Y-15704246D02*
X8499253Y-15713769D01*
X8499253Y-15713769D02*
X8518301Y-15723293D01*
X8518301Y-15723293D02*
X8556396Y-15723293D01*
X8556396Y-15723293D02*
X8575444Y-15713769D01*
X8575444Y-15713769D02*
X8584968Y-15704246D01*
X8584968Y-15704246D02*
X8594491Y-15685198D01*
X8775444Y-15599484D02*
X8680206Y-15599484D01*
X8680206Y-15599484D02*
X8670682Y-15694722D01*
X8670682Y-15694722D02*
X8680206Y-15685198D01*
X8680206Y-15685198D02*
X8699253Y-15675674D01*
X8699253Y-15675674D02*
X8746872Y-15675674D01*
X8746872Y-15675674D02*
X8765920Y-15685198D01*
X8765920Y-15685198D02*
X8775444Y-15694722D01*
X8775444Y-15694722D02*
X8784968Y-15713769D01*
X8784968Y-15713769D02*
X8784968Y-15761388D01*
X8784968Y-15761388D02*
X8775444Y-15780436D01*
X8775444Y-15780436D02*
X8765920Y-15789960D01*
X8765920Y-15789960D02*
X8746872Y-15799484D01*
X8746872Y-15799484D02*
X8699253Y-15799484D01*
X8699253Y-15799484D02*
X8680206Y-15789960D01*
X8680206Y-15789960D02*
X8670682Y-15780436D01*
X9023063Y-15799484D02*
X9023063Y-15599484D01*
X9108777Y-15799484D02*
X9108777Y-15694722D01*
X9108777Y-15694722D02*
X9099253Y-15675674D01*
X9099253Y-15675674D02*
X9080206Y-15666150D01*
X9080206Y-15666150D02*
X9051634Y-15666150D01*
X9051634Y-15666150D02*
X9032587Y-15675674D01*
X9032587Y-15675674D02*
X9023063Y-15685198D01*
X9232587Y-15799484D02*
X9213539Y-15789960D01*
X9213539Y-15789960D02*
X9204015Y-15780436D01*
X9204015Y-15780436D02*
X9194492Y-15761388D01*
X9194492Y-15761388D02*
X9194492Y-15704246D01*
X9194492Y-15704246D02*
X9204015Y-15685198D01*
X9204015Y-15685198D02*
X9213539Y-15675674D01*
X9213539Y-15675674D02*
X9232587Y-15666150D01*
X9232587Y-15666150D02*
X9261158Y-15666150D01*
X9261158Y-15666150D02*
X9280206Y-15675674D01*
X9280206Y-15675674D02*
X9289730Y-15685198D01*
X9289730Y-15685198D02*
X9299253Y-15704246D01*
X9299253Y-15704246D02*
X9299253Y-15761388D01*
X9299253Y-15761388D02*
X9289730Y-15780436D01*
X9289730Y-15780436D02*
X9280206Y-15789960D01*
X9280206Y-15789960D02*
X9261158Y-15799484D01*
X9261158Y-15799484D02*
X9232587Y-15799484D01*
X9413539Y-15799484D02*
X9394492Y-15789960D01*
X9394492Y-15789960D02*
X9384968Y-15770912D01*
X9384968Y-15770912D02*
X9384968Y-15599484D01*
X9565920Y-15789960D02*
X9546873Y-15799484D01*
X9546873Y-15799484D02*
X9508777Y-15799484D01*
X9508777Y-15799484D02*
X9489730Y-15789960D01*
X9489730Y-15789960D02*
X9480206Y-15770912D01*
X9480206Y-15770912D02*
X9480206Y-15694722D01*
X9480206Y-15694722D02*
X9489730Y-15675674D01*
X9489730Y-15675674D02*
X9508777Y-15666150D01*
X9508777Y-15666150D02*
X9546873Y-15666150D01*
X9546873Y-15666150D02*
X9565920Y-15675674D01*
X9565920Y-15675674D02*
X9575444Y-15694722D01*
X9575444Y-15694722D02*
X9575444Y-15713769D01*
X9575444Y-15713769D02*
X9480206Y-15732817D01*
X9651634Y-15789960D02*
X9670682Y-15799484D01*
X9670682Y-15799484D02*
X9708777Y-15799484D01*
X9708777Y-15799484D02*
X9727825Y-15789960D01*
X9727825Y-15789960D02*
X9737349Y-15770912D01*
X9737349Y-15770912D02*
X9737349Y-15761388D01*
X9737349Y-15761388D02*
X9727825Y-15742341D01*
X9727825Y-15742341D02*
X9708777Y-15732817D01*
X9708777Y-15732817D02*
X9680206Y-15732817D01*
X9680206Y-15732817D02*
X9661158Y-15723293D01*
X9661158Y-15723293D02*
X9651634Y-15704246D01*
X9651634Y-15704246D02*
X9651634Y-15694722D01*
X9651634Y-15694722D02*
X9661158Y-15675674D01*
X9661158Y-15675674D02*
X9680206Y-15666150D01*
X9680206Y-15666150D02*
X9708777Y-15666150D01*
X9708777Y-15666150D02*
X9727825Y-15675674D01*
X9804015Y-15875674D02*
X9813539Y-15866150D01*
X9813539Y-15866150D02*
X9832587Y-15837579D01*
X9832587Y-15837579D02*
X9842111Y-15818531D01*
X9842111Y-15818531D02*
X9851634Y-15789960D01*
X9851634Y-15789960D02*
X9861158Y-15742341D01*
X9861158Y-15742341D02*
X9861158Y-15704246D01*
X9861158Y-15704246D02*
X9851634Y-15656627D01*
X9851634Y-15656627D02*
X9842111Y-15628055D01*
X9842111Y-15628055D02*
X9832587Y-15609008D01*
X9832587Y-15609008D02*
X9813539Y-15580436D01*
X9813539Y-15580436D02*
X9804015Y-15570912D01*
D13*
X4648000Y-15972000D02*
G75*
G03*
X4648000Y-15972000I-30000J0D01*
G01*
D11*
X4946872Y-15863484D02*
X4965920Y-15863484D01*
X4965920Y-15863484D02*
X4984967Y-15873008D01*
X4984967Y-15873008D02*
X4994491Y-15882531D01*
X4994491Y-15882531D02*
X5004015Y-15901579D01*
X5004015Y-15901579D02*
X5013539Y-15939674D01*
X5013539Y-15939674D02*
X5013539Y-15987293D01*
X5013539Y-15987293D02*
X5004015Y-16025388D01*
X5004015Y-16025388D02*
X4994491Y-16044436D01*
X4994491Y-16044436D02*
X4984967Y-16053960D01*
X4984967Y-16053960D02*
X4965920Y-16063484D01*
X4965920Y-16063484D02*
X4946872Y-16063484D01*
X4946872Y-16063484D02*
X4927824Y-16053960D01*
X4927824Y-16053960D02*
X4918301Y-16044436D01*
X4918301Y-16044436D02*
X4908777Y-16025388D01*
X4908777Y-16025388D02*
X4899253Y-15987293D01*
X4899253Y-15987293D02*
X4899253Y-15939674D01*
X4899253Y-15939674D02*
X4908777Y-15901579D01*
X4908777Y-15901579D02*
X4918301Y-15882531D01*
X4918301Y-15882531D02*
X4927824Y-15873008D01*
X4927824Y-15873008D02*
X4946872Y-15863484D01*
X5099253Y-16044436D02*
X5108777Y-16053960D01*
X5108777Y-16053960D02*
X5099253Y-16063484D01*
X5099253Y-16063484D02*
X5089729Y-16053960D01*
X5089729Y-16053960D02*
X5099253Y-16044436D01*
X5099253Y-16044436D02*
X5099253Y-16063484D01*
X5280205Y-15863484D02*
X5242110Y-15863484D01*
X5242110Y-15863484D02*
X5223063Y-15873008D01*
X5223063Y-15873008D02*
X5213539Y-15882531D01*
X5213539Y-15882531D02*
X5194491Y-15911103D01*
X5194491Y-15911103D02*
X5184967Y-15949198D01*
X5184967Y-15949198D02*
X5184967Y-16025388D01*
X5184967Y-16025388D02*
X5194491Y-16044436D01*
X5194491Y-16044436D02*
X5204015Y-16053960D01*
X5204015Y-16053960D02*
X5223063Y-16063484D01*
X5223063Y-16063484D02*
X5261158Y-16063484D01*
X5261158Y-16063484D02*
X5280205Y-16053960D01*
X5280205Y-16053960D02*
X5289729Y-16044436D01*
X5289729Y-16044436D02*
X5299253Y-16025388D01*
X5299253Y-16025388D02*
X5299253Y-15977769D01*
X5299253Y-15977769D02*
X5289729Y-15958722D01*
X5289729Y-15958722D02*
X5280205Y-15949198D01*
X5280205Y-15949198D02*
X5261158Y-15939674D01*
X5261158Y-15939674D02*
X5223063Y-15939674D01*
X5223063Y-15939674D02*
X5204015Y-15949198D01*
X5204015Y-15949198D02*
X5194491Y-15958722D01*
X5194491Y-15958722D02*
X5184967Y-15977769D01*
X5423063Y-15863484D02*
X5442110Y-15863484D01*
X5442110Y-15863484D02*
X5461158Y-15873008D01*
X5461158Y-15873008D02*
X5470682Y-15882531D01*
X5470682Y-15882531D02*
X5480205Y-15901579D01*
X5480205Y-15901579D02*
X5489729Y-15939674D01*
X5489729Y-15939674D02*
X5489729Y-15987293D01*
X5489729Y-15987293D02*
X5480205Y-16025388D01*
X5480205Y-16025388D02*
X5470682Y-16044436D01*
X5470682Y-16044436D02*
X5461158Y-16053960D01*
X5461158Y-16053960D02*
X5442110Y-16063484D01*
X5442110Y-16063484D02*
X5423063Y-16063484D01*
X5423063Y-16063484D02*
X5404015Y-16053960D01*
X5404015Y-16053960D02*
X5394491Y-16044436D01*
X5394491Y-16044436D02*
X5384967Y-16025388D01*
X5384967Y-16025388D02*
X5375444Y-15987293D01*
X5375444Y-15987293D02*
X5375444Y-15939674D01*
X5375444Y-15939674D02*
X5384967Y-15901579D01*
X5384967Y-15901579D02*
X5394491Y-15882531D01*
X5394491Y-15882531D02*
X5404015Y-15873008D01*
X5404015Y-15873008D02*
X5423063Y-15863484D01*
X5613539Y-15863484D02*
X5632586Y-15863484D01*
X5632586Y-15863484D02*
X5651634Y-15873008D01*
X5651634Y-15873008D02*
X5661158Y-15882531D01*
X5661158Y-15882531D02*
X5670682Y-15901579D01*
X5670682Y-15901579D02*
X5680205Y-15939674D01*
X5680205Y-15939674D02*
X5680205Y-15987293D01*
X5680205Y-15987293D02*
X5670682Y-16025388D01*
X5670682Y-16025388D02*
X5661158Y-16044436D01*
X5661158Y-16044436D02*
X5651634Y-16053960D01*
X5651634Y-16053960D02*
X5632586Y-16063484D01*
X5632586Y-16063484D02*
X5613539Y-16063484D01*
X5613539Y-16063484D02*
X5594491Y-16053960D01*
X5594491Y-16053960D02*
X5584967Y-16044436D01*
X5584967Y-16044436D02*
X5575444Y-16025388D01*
X5575444Y-16025388D02*
X5565920Y-15987293D01*
X5565920Y-15987293D02*
X5565920Y-15939674D01*
X5565920Y-15939674D02*
X5575444Y-15901579D01*
X5575444Y-15901579D02*
X5584967Y-15882531D01*
X5584967Y-15882531D02*
X5594491Y-15873008D01*
X5594491Y-15873008D02*
X5613539Y-15863484D01*
X5765920Y-16063484D02*
X5765920Y-15930150D01*
X5765920Y-15949198D02*
X5775443Y-15939674D01*
X5775443Y-15939674D02*
X5794491Y-15930150D01*
X5794491Y-15930150D02*
X5823063Y-15930150D01*
X5823063Y-15930150D02*
X5842110Y-15939674D01*
X5842110Y-15939674D02*
X5851634Y-15958722D01*
X5851634Y-15958722D02*
X5851634Y-16063484D01*
X5851634Y-15958722D02*
X5861158Y-15939674D01*
X5861158Y-15939674D02*
X5880205Y-15930150D01*
X5880205Y-15930150D02*
X5908777Y-15930150D01*
X5908777Y-15930150D02*
X5927824Y-15939674D01*
X5927824Y-15939674D02*
X5937348Y-15958722D01*
X5937348Y-15958722D02*
X5937348Y-16063484D01*
X6032586Y-16063484D02*
X6032586Y-15930150D01*
X6032586Y-15949198D02*
X6042110Y-15939674D01*
X6042110Y-15939674D02*
X6061158Y-15930150D01*
X6061158Y-15930150D02*
X6089729Y-15930150D01*
X6089729Y-15930150D02*
X6108777Y-15939674D01*
X6108777Y-15939674D02*
X6118301Y-15958722D01*
X6118301Y-15958722D02*
X6118301Y-16063484D01*
X6118301Y-15958722D02*
X6127824Y-15939674D01*
X6127824Y-15939674D02*
X6146872Y-15930150D01*
X6146872Y-15930150D02*
X6175443Y-15930150D01*
X6175443Y-15930150D02*
X6194491Y-15939674D01*
X6194491Y-15939674D02*
X6204015Y-15958722D01*
X6204015Y-15958722D02*
X6204015Y-16063484D01*
X6594491Y-15853960D02*
X6423063Y-16111103D01*
X6851634Y-15863484D02*
X6870682Y-15863484D01*
X6870682Y-15863484D02*
X6889729Y-15873008D01*
X6889729Y-15873008D02*
X6899253Y-15882531D01*
X6899253Y-15882531D02*
X6908777Y-15901579D01*
X6908777Y-15901579D02*
X6918301Y-15939674D01*
X6918301Y-15939674D02*
X6918301Y-15987293D01*
X6918301Y-15987293D02*
X6908777Y-16025388D01*
X6908777Y-16025388D02*
X6899253Y-16044436D01*
X6899253Y-16044436D02*
X6889729Y-16053960D01*
X6889729Y-16053960D02*
X6870682Y-16063484D01*
X6870682Y-16063484D02*
X6851634Y-16063484D01*
X6851634Y-16063484D02*
X6832586Y-16053960D01*
X6832586Y-16053960D02*
X6823063Y-16044436D01*
X6823063Y-16044436D02*
X6813539Y-16025388D01*
X6813539Y-16025388D02*
X6804015Y-15987293D01*
X6804015Y-15987293D02*
X6804015Y-15939674D01*
X6804015Y-15939674D02*
X6813539Y-15901579D01*
X6813539Y-15901579D02*
X6823063Y-15882531D01*
X6823063Y-15882531D02*
X6832586Y-15873008D01*
X6832586Y-15873008D02*
X6851634Y-15863484D01*
X7004015Y-16044436D02*
X7013539Y-16053960D01*
X7013539Y-16053960D02*
X7004015Y-16063484D01*
X7004015Y-16063484D02*
X6994491Y-16053960D01*
X6994491Y-16053960D02*
X7004015Y-16044436D01*
X7004015Y-16044436D02*
X7004015Y-16063484D01*
X7137348Y-15863484D02*
X7156396Y-15863484D01*
X7156396Y-15863484D02*
X7175444Y-15873008D01*
X7175444Y-15873008D02*
X7184967Y-15882531D01*
X7184967Y-15882531D02*
X7194491Y-15901579D01*
X7194491Y-15901579D02*
X7204015Y-15939674D01*
X7204015Y-15939674D02*
X7204015Y-15987293D01*
X7204015Y-15987293D02*
X7194491Y-16025388D01*
X7194491Y-16025388D02*
X7184967Y-16044436D01*
X7184967Y-16044436D02*
X7175444Y-16053960D01*
X7175444Y-16053960D02*
X7156396Y-16063484D01*
X7156396Y-16063484D02*
X7137348Y-16063484D01*
X7137348Y-16063484D02*
X7118301Y-16053960D01*
X7118301Y-16053960D02*
X7108777Y-16044436D01*
X7108777Y-16044436D02*
X7099253Y-16025388D01*
X7099253Y-16025388D02*
X7089729Y-15987293D01*
X7089729Y-15987293D02*
X7089729Y-15939674D01*
X7089729Y-15939674D02*
X7099253Y-15901579D01*
X7099253Y-15901579D02*
X7108777Y-15882531D01*
X7108777Y-15882531D02*
X7118301Y-15873008D01*
X7118301Y-15873008D02*
X7137348Y-15863484D01*
X7280206Y-15882531D02*
X7289729Y-15873008D01*
X7289729Y-15873008D02*
X7308777Y-15863484D01*
X7308777Y-15863484D02*
X7356396Y-15863484D01*
X7356396Y-15863484D02*
X7375444Y-15873008D01*
X7375444Y-15873008D02*
X7384967Y-15882531D01*
X7384967Y-15882531D02*
X7394491Y-15901579D01*
X7394491Y-15901579D02*
X7394491Y-15920627D01*
X7394491Y-15920627D02*
X7384967Y-15949198D01*
X7384967Y-15949198D02*
X7270682Y-16063484D01*
X7270682Y-16063484D02*
X7394491Y-16063484D01*
X7461158Y-15863484D02*
X7584967Y-15863484D01*
X7584967Y-15863484D02*
X7518301Y-15939674D01*
X7518301Y-15939674D02*
X7546872Y-15939674D01*
X7546872Y-15939674D02*
X7565920Y-15949198D01*
X7565920Y-15949198D02*
X7575444Y-15958722D01*
X7575444Y-15958722D02*
X7584967Y-15977769D01*
X7584967Y-15977769D02*
X7584967Y-16025388D01*
X7584967Y-16025388D02*
X7575444Y-16044436D01*
X7575444Y-16044436D02*
X7565920Y-16053960D01*
X7565920Y-16053960D02*
X7546872Y-16063484D01*
X7546872Y-16063484D02*
X7489729Y-16063484D01*
X7489729Y-16063484D02*
X7470682Y-16053960D01*
X7470682Y-16053960D02*
X7461158Y-16044436D01*
X7756396Y-15863484D02*
X7718301Y-15863484D01*
X7718301Y-15863484D02*
X7699253Y-15873008D01*
X7699253Y-15873008D02*
X7689729Y-15882531D01*
X7689729Y-15882531D02*
X7670682Y-15911103D01*
X7670682Y-15911103D02*
X7661158Y-15949198D01*
X7661158Y-15949198D02*
X7661158Y-16025388D01*
X7661158Y-16025388D02*
X7670682Y-16044436D01*
X7670682Y-16044436D02*
X7680206Y-16053960D01*
X7680206Y-16053960D02*
X7699253Y-16063484D01*
X7699253Y-16063484D02*
X7737348Y-16063484D01*
X7737348Y-16063484D02*
X7756396Y-16053960D01*
X7756396Y-16053960D02*
X7765920Y-16044436D01*
X7765920Y-16044436D02*
X7775444Y-16025388D01*
X7775444Y-16025388D02*
X7775444Y-15977769D01*
X7775444Y-15977769D02*
X7765920Y-15958722D01*
X7765920Y-15958722D02*
X7756396Y-15949198D01*
X7756396Y-15949198D02*
X7737348Y-15939674D01*
X7737348Y-15939674D02*
X7699253Y-15939674D01*
X7699253Y-15939674D02*
X7680206Y-15949198D01*
X7680206Y-15949198D02*
X7670682Y-15958722D01*
X7670682Y-15958722D02*
X7661158Y-15977769D01*
X7851634Y-15863484D02*
X7851634Y-15901579D01*
X7927825Y-15863484D02*
X7927825Y-15901579D01*
X8223063Y-16139674D02*
X8213539Y-16130150D01*
X8213539Y-16130150D02*
X8194491Y-16101579D01*
X8194491Y-16101579D02*
X8184968Y-16082531D01*
X8184968Y-16082531D02*
X8175444Y-16053960D01*
X8175444Y-16053960D02*
X8165920Y-16006341D01*
X8165920Y-16006341D02*
X8165920Y-15968246D01*
X8165920Y-15968246D02*
X8175444Y-15920627D01*
X8175444Y-15920627D02*
X8184968Y-15892055D01*
X8184968Y-15892055D02*
X8194491Y-15873008D01*
X8194491Y-15873008D02*
X8213539Y-15844436D01*
X8213539Y-15844436D02*
X8223063Y-15834912D01*
X8289729Y-15882531D02*
X8299253Y-15873008D01*
X8299253Y-15873008D02*
X8318301Y-15863484D01*
X8318301Y-15863484D02*
X8365920Y-15863484D01*
X8365920Y-15863484D02*
X8384968Y-15873008D01*
X8384968Y-15873008D02*
X8394491Y-15882531D01*
X8394491Y-15882531D02*
X8404015Y-15901579D01*
X8404015Y-15901579D02*
X8404015Y-15920627D01*
X8404015Y-15920627D02*
X8394491Y-15949198D01*
X8394491Y-15949198D02*
X8280206Y-16063484D01*
X8280206Y-16063484D02*
X8404015Y-16063484D01*
X8642111Y-16063484D02*
X8642111Y-15863484D01*
X8727825Y-16063484D02*
X8727825Y-15958722D01*
X8727825Y-15958722D02*
X8718301Y-15939674D01*
X8718301Y-15939674D02*
X8699253Y-15930150D01*
X8699253Y-15930150D02*
X8670682Y-15930150D01*
X8670682Y-15930150D02*
X8651634Y-15939674D01*
X8651634Y-15939674D02*
X8642111Y-15949198D01*
X8851634Y-16063484D02*
X8832587Y-16053960D01*
X8832587Y-16053960D02*
X8823063Y-16044436D01*
X8823063Y-16044436D02*
X8813539Y-16025388D01*
X8813539Y-16025388D02*
X8813539Y-15968246D01*
X8813539Y-15968246D02*
X8823063Y-15949198D01*
X8823063Y-15949198D02*
X8832587Y-15939674D01*
X8832587Y-15939674D02*
X8851634Y-15930150D01*
X8851634Y-15930150D02*
X8880206Y-15930150D01*
X8880206Y-15930150D02*
X8899253Y-15939674D01*
X8899253Y-15939674D02*
X8908777Y-15949198D01*
X8908777Y-15949198D02*
X8918301Y-15968246D01*
X8918301Y-15968246D02*
X8918301Y-16025388D01*
X8918301Y-16025388D02*
X8908777Y-16044436D01*
X8908777Y-16044436D02*
X8899253Y-16053960D01*
X8899253Y-16053960D02*
X8880206Y-16063484D01*
X8880206Y-16063484D02*
X8851634Y-16063484D01*
X9032587Y-16063484D02*
X9013539Y-16053960D01*
X9013539Y-16053960D02*
X9004015Y-16034912D01*
X9004015Y-16034912D02*
X9004015Y-15863484D01*
X9184968Y-16053960D02*
X9165920Y-16063484D01*
X9165920Y-16063484D02*
X9127825Y-16063484D01*
X9127825Y-16063484D02*
X9108777Y-16053960D01*
X9108777Y-16053960D02*
X9099253Y-16034912D01*
X9099253Y-16034912D02*
X9099253Y-15958722D01*
X9099253Y-15958722D02*
X9108777Y-15939674D01*
X9108777Y-15939674D02*
X9127825Y-15930150D01*
X9127825Y-15930150D02*
X9165920Y-15930150D01*
X9165920Y-15930150D02*
X9184968Y-15939674D01*
X9184968Y-15939674D02*
X9194492Y-15958722D01*
X9194492Y-15958722D02*
X9194492Y-15977769D01*
X9194492Y-15977769D02*
X9099253Y-15996817D01*
X9270682Y-16053960D02*
X9289730Y-16063484D01*
X9289730Y-16063484D02*
X9327825Y-16063484D01*
X9327825Y-16063484D02*
X9346873Y-16053960D01*
X9346873Y-16053960D02*
X9356396Y-16034912D01*
X9356396Y-16034912D02*
X9356396Y-16025388D01*
X9356396Y-16025388D02*
X9346873Y-16006341D01*
X9346873Y-16006341D02*
X9327825Y-15996817D01*
X9327825Y-15996817D02*
X9299253Y-15996817D01*
X9299253Y-15996817D02*
X9280206Y-15987293D01*
X9280206Y-15987293D02*
X9270682Y-15968246D01*
X9270682Y-15968246D02*
X9270682Y-15958722D01*
X9270682Y-15958722D02*
X9280206Y-15939674D01*
X9280206Y-15939674D02*
X9299253Y-15930150D01*
X9299253Y-15930150D02*
X9327825Y-15930150D01*
X9327825Y-15930150D02*
X9346873Y-15939674D01*
X9423063Y-16139674D02*
X9432587Y-16130150D01*
X9432587Y-16130150D02*
X9451634Y-16101579D01*
X9451634Y-16101579D02*
X9461158Y-16082531D01*
X9461158Y-16082531D02*
X9470682Y-16053960D01*
X9470682Y-16053960D02*
X9480206Y-16006341D01*
X9480206Y-16006341D02*
X9480206Y-15968246D01*
X9480206Y-15968246D02*
X9470682Y-15920627D01*
X9470682Y-15920627D02*
X9461158Y-15892055D01*
X9461158Y-15892055D02*
X9451634Y-15873008D01*
X9451634Y-15873008D02*
X9432587Y-15844436D01*
X9432587Y-15844436D02*
X9423063Y-15834912D01*
D14*
X4615500Y-16203500D02*
X4615500Y-16268500D01*
X4583000Y-16236000D02*
X4648000Y-16236000D01*
D11*
X4946872Y-16127484D02*
X4965920Y-16127484D01*
X4965920Y-16127484D02*
X4984967Y-16137008D01*
X4984967Y-16137008D02*
X4994491Y-16146531D01*
X4994491Y-16146531D02*
X5004015Y-16165579D01*
X5004015Y-16165579D02*
X5013539Y-16203674D01*
X5013539Y-16203674D02*
X5013539Y-16251293D01*
X5013539Y-16251293D02*
X5004015Y-16289388D01*
X5004015Y-16289388D02*
X4994491Y-16308436D01*
X4994491Y-16308436D02*
X4984967Y-16317960D01*
X4984967Y-16317960D02*
X4965920Y-16327484D01*
X4965920Y-16327484D02*
X4946872Y-16327484D01*
X4946872Y-16327484D02*
X4927824Y-16317960D01*
X4927824Y-16317960D02*
X4918301Y-16308436D01*
X4918301Y-16308436D02*
X4908777Y-16289388D01*
X4908777Y-16289388D02*
X4899253Y-16251293D01*
X4899253Y-16251293D02*
X4899253Y-16203674D01*
X4899253Y-16203674D02*
X4908777Y-16165579D01*
X4908777Y-16165579D02*
X4918301Y-16146531D01*
X4918301Y-16146531D02*
X4927824Y-16137008D01*
X4927824Y-16137008D02*
X4946872Y-16127484D01*
X5099253Y-16308436D02*
X5108777Y-16317960D01*
X5108777Y-16317960D02*
X5099253Y-16327484D01*
X5099253Y-16327484D02*
X5089729Y-16317960D01*
X5089729Y-16317960D02*
X5099253Y-16308436D01*
X5099253Y-16308436D02*
X5099253Y-16327484D01*
X5280205Y-16127484D02*
X5242110Y-16127484D01*
X5242110Y-16127484D02*
X5223063Y-16137008D01*
X5223063Y-16137008D02*
X5213539Y-16146531D01*
X5213539Y-16146531D02*
X5194491Y-16175103D01*
X5194491Y-16175103D02*
X5184967Y-16213198D01*
X5184967Y-16213198D02*
X5184967Y-16289388D01*
X5184967Y-16289388D02*
X5194491Y-16308436D01*
X5194491Y-16308436D02*
X5204015Y-16317960D01*
X5204015Y-16317960D02*
X5223063Y-16327484D01*
X5223063Y-16327484D02*
X5261158Y-16327484D01*
X5261158Y-16327484D02*
X5280205Y-16317960D01*
X5280205Y-16317960D02*
X5289729Y-16308436D01*
X5289729Y-16308436D02*
X5299253Y-16289388D01*
X5299253Y-16289388D02*
X5299253Y-16241769D01*
X5299253Y-16241769D02*
X5289729Y-16222722D01*
X5289729Y-16222722D02*
X5280205Y-16213198D01*
X5280205Y-16213198D02*
X5261158Y-16203674D01*
X5261158Y-16203674D02*
X5223063Y-16203674D01*
X5223063Y-16203674D02*
X5204015Y-16213198D01*
X5204015Y-16213198D02*
X5194491Y-16222722D01*
X5194491Y-16222722D02*
X5184967Y-16241769D01*
X5480205Y-16127484D02*
X5384967Y-16127484D01*
X5384967Y-16127484D02*
X5375444Y-16222722D01*
X5375444Y-16222722D02*
X5384967Y-16213198D01*
X5384967Y-16213198D02*
X5404015Y-16203674D01*
X5404015Y-16203674D02*
X5451634Y-16203674D01*
X5451634Y-16203674D02*
X5470682Y-16213198D01*
X5470682Y-16213198D02*
X5480205Y-16222722D01*
X5480205Y-16222722D02*
X5489729Y-16241769D01*
X5489729Y-16241769D02*
X5489729Y-16289388D01*
X5489729Y-16289388D02*
X5480205Y-16308436D01*
X5480205Y-16308436D02*
X5470682Y-16317960D01*
X5470682Y-16317960D02*
X5451634Y-16327484D01*
X5451634Y-16327484D02*
X5404015Y-16327484D01*
X5404015Y-16327484D02*
X5384967Y-16317960D01*
X5384967Y-16317960D02*
X5375444Y-16308436D01*
X5613539Y-16127484D02*
X5632586Y-16127484D01*
X5632586Y-16127484D02*
X5651634Y-16137008D01*
X5651634Y-16137008D02*
X5661158Y-16146531D01*
X5661158Y-16146531D02*
X5670682Y-16165579D01*
X5670682Y-16165579D02*
X5680205Y-16203674D01*
X5680205Y-16203674D02*
X5680205Y-16251293D01*
X5680205Y-16251293D02*
X5670682Y-16289388D01*
X5670682Y-16289388D02*
X5661158Y-16308436D01*
X5661158Y-16308436D02*
X5651634Y-16317960D01*
X5651634Y-16317960D02*
X5632586Y-16327484D01*
X5632586Y-16327484D02*
X5613539Y-16327484D01*
X5613539Y-16327484D02*
X5594491Y-16317960D01*
X5594491Y-16317960D02*
X5584967Y-16308436D01*
X5584967Y-16308436D02*
X5575444Y-16289388D01*
X5575444Y-16289388D02*
X5565920Y-16251293D01*
X5565920Y-16251293D02*
X5565920Y-16203674D01*
X5565920Y-16203674D02*
X5575444Y-16165579D01*
X5575444Y-16165579D02*
X5584967Y-16146531D01*
X5584967Y-16146531D02*
X5594491Y-16137008D01*
X5594491Y-16137008D02*
X5613539Y-16127484D01*
X5765920Y-16327484D02*
X5765920Y-16194150D01*
X5765920Y-16213198D02*
X5775443Y-16203674D01*
X5775443Y-16203674D02*
X5794491Y-16194150D01*
X5794491Y-16194150D02*
X5823063Y-16194150D01*
X5823063Y-16194150D02*
X5842110Y-16203674D01*
X5842110Y-16203674D02*
X5851634Y-16222722D01*
X5851634Y-16222722D02*
X5851634Y-16327484D01*
X5851634Y-16222722D02*
X5861158Y-16203674D01*
X5861158Y-16203674D02*
X5880205Y-16194150D01*
X5880205Y-16194150D02*
X5908777Y-16194150D01*
X5908777Y-16194150D02*
X5927824Y-16203674D01*
X5927824Y-16203674D02*
X5937348Y-16222722D01*
X5937348Y-16222722D02*
X5937348Y-16327484D01*
X6032586Y-16327484D02*
X6032586Y-16194150D01*
X6032586Y-16213198D02*
X6042110Y-16203674D01*
X6042110Y-16203674D02*
X6061158Y-16194150D01*
X6061158Y-16194150D02*
X6089729Y-16194150D01*
X6089729Y-16194150D02*
X6108777Y-16203674D01*
X6108777Y-16203674D02*
X6118301Y-16222722D01*
X6118301Y-16222722D02*
X6118301Y-16327484D01*
X6118301Y-16222722D02*
X6127824Y-16203674D01*
X6127824Y-16203674D02*
X6146872Y-16194150D01*
X6146872Y-16194150D02*
X6175443Y-16194150D01*
X6175443Y-16194150D02*
X6194491Y-16203674D01*
X6194491Y-16203674D02*
X6204015Y-16222722D01*
X6204015Y-16222722D02*
X6204015Y-16327484D01*
X6594491Y-16117960D02*
X6423063Y-16375103D01*
X6851634Y-16127484D02*
X6870682Y-16127484D01*
X6870682Y-16127484D02*
X6889729Y-16137008D01*
X6889729Y-16137008D02*
X6899253Y-16146531D01*
X6899253Y-16146531D02*
X6908777Y-16165579D01*
X6908777Y-16165579D02*
X6918301Y-16203674D01*
X6918301Y-16203674D02*
X6918301Y-16251293D01*
X6918301Y-16251293D02*
X6908777Y-16289388D01*
X6908777Y-16289388D02*
X6899253Y-16308436D01*
X6899253Y-16308436D02*
X6889729Y-16317960D01*
X6889729Y-16317960D02*
X6870682Y-16327484D01*
X6870682Y-16327484D02*
X6851634Y-16327484D01*
X6851634Y-16327484D02*
X6832586Y-16317960D01*
X6832586Y-16317960D02*
X6823063Y-16308436D01*
X6823063Y-16308436D02*
X6813539Y-16289388D01*
X6813539Y-16289388D02*
X6804015Y-16251293D01*
X6804015Y-16251293D02*
X6804015Y-16203674D01*
X6804015Y-16203674D02*
X6813539Y-16165579D01*
X6813539Y-16165579D02*
X6823063Y-16146531D01*
X6823063Y-16146531D02*
X6832586Y-16137008D01*
X6832586Y-16137008D02*
X6851634Y-16127484D01*
X7004015Y-16308436D02*
X7013539Y-16317960D01*
X7013539Y-16317960D02*
X7004015Y-16327484D01*
X7004015Y-16327484D02*
X6994491Y-16317960D01*
X6994491Y-16317960D02*
X7004015Y-16308436D01*
X7004015Y-16308436D02*
X7004015Y-16327484D01*
X7137348Y-16127484D02*
X7156396Y-16127484D01*
X7156396Y-16127484D02*
X7175444Y-16137008D01*
X7175444Y-16137008D02*
X7184967Y-16146531D01*
X7184967Y-16146531D02*
X7194491Y-16165579D01*
X7194491Y-16165579D02*
X7204015Y-16203674D01*
X7204015Y-16203674D02*
X7204015Y-16251293D01*
X7204015Y-16251293D02*
X7194491Y-16289388D01*
X7194491Y-16289388D02*
X7184967Y-16308436D01*
X7184967Y-16308436D02*
X7175444Y-16317960D01*
X7175444Y-16317960D02*
X7156396Y-16327484D01*
X7156396Y-16327484D02*
X7137348Y-16327484D01*
X7137348Y-16327484D02*
X7118301Y-16317960D01*
X7118301Y-16317960D02*
X7108777Y-16308436D01*
X7108777Y-16308436D02*
X7099253Y-16289388D01*
X7099253Y-16289388D02*
X7089729Y-16251293D01*
X7089729Y-16251293D02*
X7089729Y-16203674D01*
X7089729Y-16203674D02*
X7099253Y-16165579D01*
X7099253Y-16165579D02*
X7108777Y-16146531D01*
X7108777Y-16146531D02*
X7118301Y-16137008D01*
X7118301Y-16137008D02*
X7137348Y-16127484D01*
X7280206Y-16146531D02*
X7289729Y-16137008D01*
X7289729Y-16137008D02*
X7308777Y-16127484D01*
X7308777Y-16127484D02*
X7356396Y-16127484D01*
X7356396Y-16127484D02*
X7375444Y-16137008D01*
X7375444Y-16137008D02*
X7384967Y-16146531D01*
X7384967Y-16146531D02*
X7394491Y-16165579D01*
X7394491Y-16165579D02*
X7394491Y-16184627D01*
X7394491Y-16184627D02*
X7384967Y-16213198D01*
X7384967Y-16213198D02*
X7270682Y-16327484D01*
X7270682Y-16327484D02*
X7394491Y-16327484D01*
X7575444Y-16127484D02*
X7480206Y-16127484D01*
X7480206Y-16127484D02*
X7470682Y-16222722D01*
X7470682Y-16222722D02*
X7480206Y-16213198D01*
X7480206Y-16213198D02*
X7499253Y-16203674D01*
X7499253Y-16203674D02*
X7546872Y-16203674D01*
X7546872Y-16203674D02*
X7565920Y-16213198D01*
X7565920Y-16213198D02*
X7575444Y-16222722D01*
X7575444Y-16222722D02*
X7584967Y-16241769D01*
X7584967Y-16241769D02*
X7584967Y-16289388D01*
X7584967Y-16289388D02*
X7575444Y-16308436D01*
X7575444Y-16308436D02*
X7565920Y-16317960D01*
X7565920Y-16317960D02*
X7546872Y-16327484D01*
X7546872Y-16327484D02*
X7499253Y-16327484D01*
X7499253Y-16327484D02*
X7480206Y-16317960D01*
X7480206Y-16317960D02*
X7470682Y-16308436D01*
X7756396Y-16127484D02*
X7718301Y-16127484D01*
X7718301Y-16127484D02*
X7699253Y-16137008D01*
X7699253Y-16137008D02*
X7689729Y-16146531D01*
X7689729Y-16146531D02*
X7670682Y-16175103D01*
X7670682Y-16175103D02*
X7661158Y-16213198D01*
X7661158Y-16213198D02*
X7661158Y-16289388D01*
X7661158Y-16289388D02*
X7670682Y-16308436D01*
X7670682Y-16308436D02*
X7680206Y-16317960D01*
X7680206Y-16317960D02*
X7699253Y-16327484D01*
X7699253Y-16327484D02*
X7737348Y-16327484D01*
X7737348Y-16327484D02*
X7756396Y-16317960D01*
X7756396Y-16317960D02*
X7765920Y-16308436D01*
X7765920Y-16308436D02*
X7775444Y-16289388D01*
X7775444Y-16289388D02*
X7775444Y-16241769D01*
X7775444Y-16241769D02*
X7765920Y-16222722D01*
X7765920Y-16222722D02*
X7756396Y-16213198D01*
X7756396Y-16213198D02*
X7737348Y-16203674D01*
X7737348Y-16203674D02*
X7699253Y-16203674D01*
X7699253Y-16203674D02*
X7680206Y-16213198D01*
X7680206Y-16213198D02*
X7670682Y-16222722D01*
X7670682Y-16222722D02*
X7661158Y-16241769D01*
X7851634Y-16127484D02*
X7851634Y-16165579D01*
X7927825Y-16127484D02*
X7927825Y-16165579D01*
X8223063Y-16403674D02*
X8213539Y-16394150D01*
X8213539Y-16394150D02*
X8194491Y-16365579D01*
X8194491Y-16365579D02*
X8184968Y-16346531D01*
X8184968Y-16346531D02*
X8175444Y-16317960D01*
X8175444Y-16317960D02*
X8165920Y-16270341D01*
X8165920Y-16270341D02*
X8165920Y-16232246D01*
X8165920Y-16232246D02*
X8175444Y-16184627D01*
X8175444Y-16184627D02*
X8184968Y-16156055D01*
X8184968Y-16156055D02*
X8194491Y-16137008D01*
X8194491Y-16137008D02*
X8213539Y-16108436D01*
X8213539Y-16108436D02*
X8223063Y-16098912D01*
X8337348Y-16127484D02*
X8356396Y-16127484D01*
X8356396Y-16127484D02*
X8375444Y-16137008D01*
X8375444Y-16137008D02*
X8384968Y-16146531D01*
X8384968Y-16146531D02*
X8394491Y-16165579D01*
X8394491Y-16165579D02*
X8404015Y-16203674D01*
X8404015Y-16203674D02*
X8404015Y-16251293D01*
X8404015Y-16251293D02*
X8394491Y-16289388D01*
X8394491Y-16289388D02*
X8384968Y-16308436D01*
X8384968Y-16308436D02*
X8375444Y-16317960D01*
X8375444Y-16317960D02*
X8356396Y-16327484D01*
X8356396Y-16327484D02*
X8337348Y-16327484D01*
X8337348Y-16327484D02*
X8318301Y-16317960D01*
X8318301Y-16317960D02*
X8308777Y-16308436D01*
X8308777Y-16308436D02*
X8299253Y-16289388D01*
X8299253Y-16289388D02*
X8289729Y-16251293D01*
X8289729Y-16251293D02*
X8289729Y-16203674D01*
X8289729Y-16203674D02*
X8299253Y-16165579D01*
X8299253Y-16165579D02*
X8308777Y-16146531D01*
X8308777Y-16146531D02*
X8318301Y-16137008D01*
X8318301Y-16137008D02*
X8337348Y-16127484D01*
X8642111Y-16327484D02*
X8642111Y-16127484D01*
X8727825Y-16327484D02*
X8727825Y-16222722D01*
X8727825Y-16222722D02*
X8718301Y-16203674D01*
X8718301Y-16203674D02*
X8699253Y-16194150D01*
X8699253Y-16194150D02*
X8670682Y-16194150D01*
X8670682Y-16194150D02*
X8651634Y-16203674D01*
X8651634Y-16203674D02*
X8642111Y-16213198D01*
X8851634Y-16327484D02*
X8832587Y-16317960D01*
X8832587Y-16317960D02*
X8823063Y-16308436D01*
X8823063Y-16308436D02*
X8813539Y-16289388D01*
X8813539Y-16289388D02*
X8813539Y-16232246D01*
X8813539Y-16232246D02*
X8823063Y-16213198D01*
X8823063Y-16213198D02*
X8832587Y-16203674D01*
X8832587Y-16203674D02*
X8851634Y-16194150D01*
X8851634Y-16194150D02*
X8880206Y-16194150D01*
X8880206Y-16194150D02*
X8899253Y-16203674D01*
X8899253Y-16203674D02*
X8908777Y-16213198D01*
X8908777Y-16213198D02*
X8918301Y-16232246D01*
X8918301Y-16232246D02*
X8918301Y-16289388D01*
X8918301Y-16289388D02*
X8908777Y-16308436D01*
X8908777Y-16308436D02*
X8899253Y-16317960D01*
X8899253Y-16317960D02*
X8880206Y-16327484D01*
X8880206Y-16327484D02*
X8851634Y-16327484D01*
X9032587Y-16327484D02*
X9013539Y-16317960D01*
X9013539Y-16317960D02*
X9004015Y-16298912D01*
X9004015Y-16298912D02*
X9004015Y-16127484D01*
X9184968Y-16317960D02*
X9165920Y-16327484D01*
X9165920Y-16327484D02*
X9127825Y-16327484D01*
X9127825Y-16327484D02*
X9108777Y-16317960D01*
X9108777Y-16317960D02*
X9099253Y-16298912D01*
X9099253Y-16298912D02*
X9099253Y-16222722D01*
X9099253Y-16222722D02*
X9108777Y-16203674D01*
X9108777Y-16203674D02*
X9127825Y-16194150D01*
X9127825Y-16194150D02*
X9165920Y-16194150D01*
X9165920Y-16194150D02*
X9184968Y-16203674D01*
X9184968Y-16203674D02*
X9194492Y-16222722D01*
X9194492Y-16222722D02*
X9194492Y-16241769D01*
X9194492Y-16241769D02*
X9099253Y-16260817D01*
X9270682Y-16317960D02*
X9289730Y-16327484D01*
X9289730Y-16327484D02*
X9327825Y-16327484D01*
X9327825Y-16327484D02*
X9346873Y-16317960D01*
X9346873Y-16317960D02*
X9356396Y-16298912D01*
X9356396Y-16298912D02*
X9356396Y-16289388D01*
X9356396Y-16289388D02*
X9346873Y-16270341D01*
X9346873Y-16270341D02*
X9327825Y-16260817D01*
X9327825Y-16260817D02*
X9299253Y-16260817D01*
X9299253Y-16260817D02*
X9280206Y-16251293D01*
X9280206Y-16251293D02*
X9270682Y-16232246D01*
X9270682Y-16232246D02*
X9270682Y-16222722D01*
X9270682Y-16222722D02*
X9280206Y-16203674D01*
X9280206Y-16203674D02*
X9299253Y-16194150D01*
X9299253Y-16194150D02*
X9327825Y-16194150D01*
X9327825Y-16194150D02*
X9346873Y-16203674D01*
X9594492Y-16251293D02*
X9746873Y-16251293D01*
X9670682Y-16327484D02*
X9670682Y-16175103D01*
X10099254Y-16327484D02*
X9984968Y-16327484D01*
X10042111Y-16327484D02*
X10042111Y-16127484D01*
X10042111Y-16127484D02*
X10023063Y-16156055D01*
X10023063Y-16156055D02*
X10004015Y-16175103D01*
X10004015Y-16175103D02*
X9984968Y-16184627D01*
X10270682Y-16127484D02*
X10232587Y-16127484D01*
X10232587Y-16127484D02*
X10213539Y-16137008D01*
X10213539Y-16137008D02*
X10204015Y-16146531D01*
X10204015Y-16146531D02*
X10184968Y-16175103D01*
X10184968Y-16175103D02*
X10175444Y-16213198D01*
X10175444Y-16213198D02*
X10175444Y-16289388D01*
X10175444Y-16289388D02*
X10184968Y-16308436D01*
X10184968Y-16308436D02*
X10194492Y-16317960D01*
X10194492Y-16317960D02*
X10213539Y-16327484D01*
X10213539Y-16327484D02*
X10251635Y-16327484D01*
X10251635Y-16327484D02*
X10270682Y-16317960D01*
X10270682Y-16317960D02*
X10280206Y-16308436D01*
X10280206Y-16308436D02*
X10289730Y-16289388D01*
X10289730Y-16289388D02*
X10289730Y-16241769D01*
X10289730Y-16241769D02*
X10280206Y-16222722D01*
X10280206Y-16222722D02*
X10270682Y-16213198D01*
X10270682Y-16213198D02*
X10251635Y-16203674D01*
X10251635Y-16203674D02*
X10213539Y-16203674D01*
X10213539Y-16203674D02*
X10194492Y-16213198D01*
X10194492Y-16213198D02*
X10184968Y-16222722D01*
X10184968Y-16222722D02*
X10175444Y-16241769D01*
X10518301Y-16317960D02*
X10537349Y-16327484D01*
X10537349Y-16327484D02*
X10575444Y-16327484D01*
X10575444Y-16327484D02*
X10594492Y-16317960D01*
X10594492Y-16317960D02*
X10604016Y-16298912D01*
X10604016Y-16298912D02*
X10604016Y-16289388D01*
X10604016Y-16289388D02*
X10594492Y-16270341D01*
X10594492Y-16270341D02*
X10575444Y-16260817D01*
X10575444Y-16260817D02*
X10546873Y-16260817D01*
X10546873Y-16260817D02*
X10527825Y-16251293D01*
X10527825Y-16251293D02*
X10518301Y-16232246D01*
X10518301Y-16232246D02*
X10518301Y-16222722D01*
X10518301Y-16222722D02*
X10527825Y-16203674D01*
X10527825Y-16203674D02*
X10546873Y-16194150D01*
X10546873Y-16194150D02*
X10575444Y-16194150D01*
X10575444Y-16194150D02*
X10594492Y-16203674D01*
X10718301Y-16327484D02*
X10699254Y-16317960D01*
X10699254Y-16317960D02*
X10689730Y-16298912D01*
X10689730Y-16298912D02*
X10689730Y-16127484D01*
X10823063Y-16327484D02*
X10804016Y-16317960D01*
X10804016Y-16317960D02*
X10794492Y-16308436D01*
X10794492Y-16308436D02*
X10784968Y-16289388D01*
X10784968Y-16289388D02*
X10784968Y-16232246D01*
X10784968Y-16232246D02*
X10794492Y-16213198D01*
X10794492Y-16213198D02*
X10804016Y-16203674D01*
X10804016Y-16203674D02*
X10823063Y-16194150D01*
X10823063Y-16194150D02*
X10851635Y-16194150D01*
X10851635Y-16194150D02*
X10870682Y-16203674D01*
X10870682Y-16203674D02*
X10880206Y-16213198D01*
X10880206Y-16213198D02*
X10889730Y-16232246D01*
X10889730Y-16232246D02*
X10889730Y-16289388D01*
X10889730Y-16289388D02*
X10880206Y-16308436D01*
X10880206Y-16308436D02*
X10870682Y-16317960D01*
X10870682Y-16317960D02*
X10851635Y-16327484D01*
X10851635Y-16327484D02*
X10823063Y-16327484D01*
X10946873Y-16194150D02*
X11023063Y-16194150D01*
X10975444Y-16127484D02*
X10975444Y-16298912D01*
X10975444Y-16298912D02*
X10984968Y-16317960D01*
X10984968Y-16317960D02*
X11004016Y-16327484D01*
X11004016Y-16327484D02*
X11023063Y-16327484D01*
X11080206Y-16317960D02*
X11099254Y-16327484D01*
X11099254Y-16327484D02*
X11137349Y-16327484D01*
X11137349Y-16327484D02*
X11156397Y-16317960D01*
X11156397Y-16317960D02*
X11165920Y-16298912D01*
X11165920Y-16298912D02*
X11165920Y-16289388D01*
X11165920Y-16289388D02*
X11156397Y-16270341D01*
X11156397Y-16270341D02*
X11137349Y-16260817D01*
X11137349Y-16260817D02*
X11108777Y-16260817D01*
X11108777Y-16260817D02*
X11089730Y-16251293D01*
X11089730Y-16251293D02*
X11080206Y-16232246D01*
X11080206Y-16232246D02*
X11080206Y-16222722D01*
X11080206Y-16222722D02*
X11089730Y-16203674D01*
X11089730Y-16203674D02*
X11108777Y-16194150D01*
X11108777Y-16194150D02*
X11137349Y-16194150D01*
X11137349Y-16194150D02*
X11156397Y-16203674D01*
X11232587Y-16403674D02*
X11242111Y-16394150D01*
X11242111Y-16394150D02*
X11261158Y-16365579D01*
X11261158Y-16365579D02*
X11270682Y-16346531D01*
X11270682Y-16346531D02*
X11280206Y-16317960D01*
X11280206Y-16317960D02*
X11289730Y-16270341D01*
X11289730Y-16270341D02*
X11289730Y-16232246D01*
X11289730Y-16232246D02*
X11280206Y-16184627D01*
X11280206Y-16184627D02*
X11270682Y-16156055D01*
X11270682Y-16156055D02*
X11261158Y-16137008D01*
X11261158Y-16137008D02*
X11242111Y-16108436D01*
X11242111Y-16108436D02*
X11232587Y-16098912D01*
D15*
X4634820Y-16531820D02*
X4634820Y-16468180D01*
X4571180Y-16468180D01*
X4571180Y-16531820D01*
X4634820Y-16531820D01*
D11*
X4946872Y-16391484D02*
X4965920Y-16391484D01*
X4965920Y-16391484D02*
X4984967Y-16401008D01*
X4984967Y-16401008D02*
X4994491Y-16410531D01*
X4994491Y-16410531D02*
X5004015Y-16429579D01*
X5004015Y-16429579D02*
X5013539Y-16467674D01*
X5013539Y-16467674D02*
X5013539Y-16515293D01*
X5013539Y-16515293D02*
X5004015Y-16553388D01*
X5004015Y-16553388D02*
X4994491Y-16572436D01*
X4994491Y-16572436D02*
X4984967Y-16581960D01*
X4984967Y-16581960D02*
X4965920Y-16591484D01*
X4965920Y-16591484D02*
X4946872Y-16591484D01*
X4946872Y-16591484D02*
X4927824Y-16581960D01*
X4927824Y-16581960D02*
X4918301Y-16572436D01*
X4918301Y-16572436D02*
X4908777Y-16553388D01*
X4908777Y-16553388D02*
X4899253Y-16515293D01*
X4899253Y-16515293D02*
X4899253Y-16467674D01*
X4899253Y-16467674D02*
X4908777Y-16429579D01*
X4908777Y-16429579D02*
X4918301Y-16410531D01*
X4918301Y-16410531D02*
X4927824Y-16401008D01*
X4927824Y-16401008D02*
X4946872Y-16391484D01*
X5099253Y-16572436D02*
X5108777Y-16581960D01*
X5108777Y-16581960D02*
X5099253Y-16591484D01*
X5099253Y-16591484D02*
X5089729Y-16581960D01*
X5089729Y-16581960D02*
X5099253Y-16572436D01*
X5099253Y-16572436D02*
X5099253Y-16591484D01*
X5204015Y-16591484D02*
X5242110Y-16591484D01*
X5242110Y-16591484D02*
X5261158Y-16581960D01*
X5261158Y-16581960D02*
X5270682Y-16572436D01*
X5270682Y-16572436D02*
X5289729Y-16543865D01*
X5289729Y-16543865D02*
X5299253Y-16505769D01*
X5299253Y-16505769D02*
X5299253Y-16429579D01*
X5299253Y-16429579D02*
X5289729Y-16410531D01*
X5289729Y-16410531D02*
X5280205Y-16401008D01*
X5280205Y-16401008D02*
X5261158Y-16391484D01*
X5261158Y-16391484D02*
X5223063Y-16391484D01*
X5223063Y-16391484D02*
X5204015Y-16401008D01*
X5204015Y-16401008D02*
X5194491Y-16410531D01*
X5194491Y-16410531D02*
X5184967Y-16429579D01*
X5184967Y-16429579D02*
X5184967Y-16477198D01*
X5184967Y-16477198D02*
X5194491Y-16496246D01*
X5194491Y-16496246D02*
X5204015Y-16505769D01*
X5204015Y-16505769D02*
X5223063Y-16515293D01*
X5223063Y-16515293D02*
X5261158Y-16515293D01*
X5261158Y-16515293D02*
X5280205Y-16505769D01*
X5280205Y-16505769D02*
X5289729Y-16496246D01*
X5289729Y-16496246D02*
X5299253Y-16477198D01*
X5423063Y-16391484D02*
X5442110Y-16391484D01*
X5442110Y-16391484D02*
X5461158Y-16401008D01*
X5461158Y-16401008D02*
X5470682Y-16410531D01*
X5470682Y-16410531D02*
X5480205Y-16429579D01*
X5480205Y-16429579D02*
X5489729Y-16467674D01*
X5489729Y-16467674D02*
X5489729Y-16515293D01*
X5489729Y-16515293D02*
X5480205Y-16553388D01*
X5480205Y-16553388D02*
X5470682Y-16572436D01*
X5470682Y-16572436D02*
X5461158Y-16581960D01*
X5461158Y-16581960D02*
X5442110Y-16591484D01*
X5442110Y-16591484D02*
X5423063Y-16591484D01*
X5423063Y-16591484D02*
X5404015Y-16581960D01*
X5404015Y-16581960D02*
X5394491Y-16572436D01*
X5394491Y-16572436D02*
X5384967Y-16553388D01*
X5384967Y-16553388D02*
X5375444Y-16515293D01*
X5375444Y-16515293D02*
X5375444Y-16467674D01*
X5375444Y-16467674D02*
X5384967Y-16429579D01*
X5384967Y-16429579D02*
X5394491Y-16410531D01*
X5394491Y-16410531D02*
X5404015Y-16401008D01*
X5404015Y-16401008D02*
X5423063Y-16391484D01*
X5613539Y-16391484D02*
X5632586Y-16391484D01*
X5632586Y-16391484D02*
X5651634Y-16401008D01*
X5651634Y-16401008D02*
X5661158Y-16410531D01*
X5661158Y-16410531D02*
X5670682Y-16429579D01*
X5670682Y-16429579D02*
X5680205Y-16467674D01*
X5680205Y-16467674D02*
X5680205Y-16515293D01*
X5680205Y-16515293D02*
X5670682Y-16553388D01*
X5670682Y-16553388D02*
X5661158Y-16572436D01*
X5661158Y-16572436D02*
X5651634Y-16581960D01*
X5651634Y-16581960D02*
X5632586Y-16591484D01*
X5632586Y-16591484D02*
X5613539Y-16591484D01*
X5613539Y-16591484D02*
X5594491Y-16581960D01*
X5594491Y-16581960D02*
X5584967Y-16572436D01*
X5584967Y-16572436D02*
X5575444Y-16553388D01*
X5575444Y-16553388D02*
X5565920Y-16515293D01*
X5565920Y-16515293D02*
X5565920Y-16467674D01*
X5565920Y-16467674D02*
X5575444Y-16429579D01*
X5575444Y-16429579D02*
X5584967Y-16410531D01*
X5584967Y-16410531D02*
X5594491Y-16401008D01*
X5594491Y-16401008D02*
X5613539Y-16391484D01*
X5765920Y-16591484D02*
X5765920Y-16458150D01*
X5765920Y-16477198D02*
X5775443Y-16467674D01*
X5775443Y-16467674D02*
X5794491Y-16458150D01*
X5794491Y-16458150D02*
X5823063Y-16458150D01*
X5823063Y-16458150D02*
X5842110Y-16467674D01*
X5842110Y-16467674D02*
X5851634Y-16486722D01*
X5851634Y-16486722D02*
X5851634Y-16591484D01*
X5851634Y-16486722D02*
X5861158Y-16467674D01*
X5861158Y-16467674D02*
X5880205Y-16458150D01*
X5880205Y-16458150D02*
X5908777Y-16458150D01*
X5908777Y-16458150D02*
X5927824Y-16467674D01*
X5927824Y-16467674D02*
X5937348Y-16486722D01*
X5937348Y-16486722D02*
X5937348Y-16591484D01*
X6032586Y-16591484D02*
X6032586Y-16458150D01*
X6032586Y-16477198D02*
X6042110Y-16467674D01*
X6042110Y-16467674D02*
X6061158Y-16458150D01*
X6061158Y-16458150D02*
X6089729Y-16458150D01*
X6089729Y-16458150D02*
X6108777Y-16467674D01*
X6108777Y-16467674D02*
X6118301Y-16486722D01*
X6118301Y-16486722D02*
X6118301Y-16591484D01*
X6118301Y-16486722D02*
X6127824Y-16467674D01*
X6127824Y-16467674D02*
X6146872Y-16458150D01*
X6146872Y-16458150D02*
X6175443Y-16458150D01*
X6175443Y-16458150D02*
X6194491Y-16467674D01*
X6194491Y-16467674D02*
X6204015Y-16486722D01*
X6204015Y-16486722D02*
X6204015Y-16591484D01*
X6594491Y-16381960D02*
X6423063Y-16639103D01*
X6851634Y-16391484D02*
X6870682Y-16391484D01*
X6870682Y-16391484D02*
X6889729Y-16401008D01*
X6889729Y-16401008D02*
X6899253Y-16410531D01*
X6899253Y-16410531D02*
X6908777Y-16429579D01*
X6908777Y-16429579D02*
X6918301Y-16467674D01*
X6918301Y-16467674D02*
X6918301Y-16515293D01*
X6918301Y-16515293D02*
X6908777Y-16553388D01*
X6908777Y-16553388D02*
X6899253Y-16572436D01*
X6899253Y-16572436D02*
X6889729Y-16581960D01*
X6889729Y-16581960D02*
X6870682Y-16591484D01*
X6870682Y-16591484D02*
X6851634Y-16591484D01*
X6851634Y-16591484D02*
X6832586Y-16581960D01*
X6832586Y-16581960D02*
X6823063Y-16572436D01*
X6823063Y-16572436D02*
X6813539Y-16553388D01*
X6813539Y-16553388D02*
X6804015Y-16515293D01*
X6804015Y-16515293D02*
X6804015Y-16467674D01*
X6804015Y-16467674D02*
X6813539Y-16429579D01*
X6813539Y-16429579D02*
X6823063Y-16410531D01*
X6823063Y-16410531D02*
X6832586Y-16401008D01*
X6832586Y-16401008D02*
X6851634Y-16391484D01*
X7004015Y-16572436D02*
X7013539Y-16581960D01*
X7013539Y-16581960D02*
X7004015Y-16591484D01*
X7004015Y-16591484D02*
X6994491Y-16581960D01*
X6994491Y-16581960D02*
X7004015Y-16572436D01*
X7004015Y-16572436D02*
X7004015Y-16591484D01*
X7137348Y-16391484D02*
X7156396Y-16391484D01*
X7156396Y-16391484D02*
X7175444Y-16401008D01*
X7175444Y-16401008D02*
X7184967Y-16410531D01*
X7184967Y-16410531D02*
X7194491Y-16429579D01*
X7194491Y-16429579D02*
X7204015Y-16467674D01*
X7204015Y-16467674D02*
X7204015Y-16515293D01*
X7204015Y-16515293D02*
X7194491Y-16553388D01*
X7194491Y-16553388D02*
X7184967Y-16572436D01*
X7184967Y-16572436D02*
X7175444Y-16581960D01*
X7175444Y-16581960D02*
X7156396Y-16591484D01*
X7156396Y-16591484D02*
X7137348Y-16591484D01*
X7137348Y-16591484D02*
X7118301Y-16581960D01*
X7118301Y-16581960D02*
X7108777Y-16572436D01*
X7108777Y-16572436D02*
X7099253Y-16553388D01*
X7099253Y-16553388D02*
X7089729Y-16515293D01*
X7089729Y-16515293D02*
X7089729Y-16467674D01*
X7089729Y-16467674D02*
X7099253Y-16429579D01*
X7099253Y-16429579D02*
X7108777Y-16410531D01*
X7108777Y-16410531D02*
X7118301Y-16401008D01*
X7118301Y-16401008D02*
X7137348Y-16391484D01*
X7270682Y-16391484D02*
X7394491Y-16391484D01*
X7394491Y-16391484D02*
X7327825Y-16467674D01*
X7327825Y-16467674D02*
X7356396Y-16467674D01*
X7356396Y-16467674D02*
X7375444Y-16477198D01*
X7375444Y-16477198D02*
X7384967Y-16486722D01*
X7384967Y-16486722D02*
X7394491Y-16505769D01*
X7394491Y-16505769D02*
X7394491Y-16553388D01*
X7394491Y-16553388D02*
X7384967Y-16572436D01*
X7384967Y-16572436D02*
X7375444Y-16581960D01*
X7375444Y-16581960D02*
X7356396Y-16591484D01*
X7356396Y-16591484D02*
X7299253Y-16591484D01*
X7299253Y-16591484D02*
X7280206Y-16581960D01*
X7280206Y-16581960D02*
X7270682Y-16572436D01*
X7575444Y-16391484D02*
X7480206Y-16391484D01*
X7480206Y-16391484D02*
X7470682Y-16486722D01*
X7470682Y-16486722D02*
X7480206Y-16477198D01*
X7480206Y-16477198D02*
X7499253Y-16467674D01*
X7499253Y-16467674D02*
X7546872Y-16467674D01*
X7546872Y-16467674D02*
X7565920Y-16477198D01*
X7565920Y-16477198D02*
X7575444Y-16486722D01*
X7575444Y-16486722D02*
X7584967Y-16505769D01*
X7584967Y-16505769D02*
X7584967Y-16553388D01*
X7584967Y-16553388D02*
X7575444Y-16572436D01*
X7575444Y-16572436D02*
X7565920Y-16581960D01*
X7565920Y-16581960D02*
X7546872Y-16591484D01*
X7546872Y-16591484D02*
X7499253Y-16591484D01*
X7499253Y-16591484D02*
X7480206Y-16581960D01*
X7480206Y-16581960D02*
X7470682Y-16572436D01*
X7756396Y-16458150D02*
X7756396Y-16591484D01*
X7708777Y-16381960D02*
X7661158Y-16524817D01*
X7661158Y-16524817D02*
X7784967Y-16524817D01*
X7851634Y-16391484D02*
X7851634Y-16429579D01*
X7927825Y-16391484D02*
X7927825Y-16429579D01*
X8223063Y-16667674D02*
X8213539Y-16658150D01*
X8213539Y-16658150D02*
X8194491Y-16629579D01*
X8194491Y-16629579D02*
X8184968Y-16610531D01*
X8184968Y-16610531D02*
X8175444Y-16581960D01*
X8175444Y-16581960D02*
X8165920Y-16534341D01*
X8165920Y-16534341D02*
X8165920Y-16496246D01*
X8165920Y-16496246D02*
X8175444Y-16448627D01*
X8175444Y-16448627D02*
X8184968Y-16420055D01*
X8184968Y-16420055D02*
X8194491Y-16401008D01*
X8194491Y-16401008D02*
X8213539Y-16372436D01*
X8213539Y-16372436D02*
X8223063Y-16362912D01*
X8404015Y-16591484D02*
X8289729Y-16591484D01*
X8346872Y-16591484D02*
X8346872Y-16391484D01*
X8346872Y-16391484D02*
X8327825Y-16420055D01*
X8327825Y-16420055D02*
X8308777Y-16439103D01*
X8308777Y-16439103D02*
X8289729Y-16448627D01*
X8480206Y-16410531D02*
X8489730Y-16401008D01*
X8489730Y-16401008D02*
X8508777Y-16391484D01*
X8508777Y-16391484D02*
X8556396Y-16391484D01*
X8556396Y-16391484D02*
X8575444Y-16401008D01*
X8575444Y-16401008D02*
X8584968Y-16410531D01*
X8584968Y-16410531D02*
X8594491Y-16429579D01*
X8594491Y-16429579D02*
X8594491Y-16448627D01*
X8594491Y-16448627D02*
X8584968Y-16477198D01*
X8584968Y-16477198D02*
X8470682Y-16591484D01*
X8470682Y-16591484D02*
X8594491Y-16591484D01*
X8832587Y-16591484D02*
X8832587Y-16391484D01*
X8918301Y-16591484D02*
X8918301Y-16486722D01*
X8918301Y-16486722D02*
X8908777Y-16467674D01*
X8908777Y-16467674D02*
X8889730Y-16458150D01*
X8889730Y-16458150D02*
X8861158Y-16458150D01*
X8861158Y-16458150D02*
X8842111Y-16467674D01*
X8842111Y-16467674D02*
X8832587Y-16477198D01*
X9042111Y-16591484D02*
X9023063Y-16581960D01*
X9023063Y-16581960D02*
X9013539Y-16572436D01*
X9013539Y-16572436D02*
X9004015Y-16553388D01*
X9004015Y-16553388D02*
X9004015Y-16496246D01*
X9004015Y-16496246D02*
X9013539Y-16477198D01*
X9013539Y-16477198D02*
X9023063Y-16467674D01*
X9023063Y-16467674D02*
X9042111Y-16458150D01*
X9042111Y-16458150D02*
X9070682Y-16458150D01*
X9070682Y-16458150D02*
X9089730Y-16467674D01*
X9089730Y-16467674D02*
X9099253Y-16477198D01*
X9099253Y-16477198D02*
X9108777Y-16496246D01*
X9108777Y-16496246D02*
X9108777Y-16553388D01*
X9108777Y-16553388D02*
X9099253Y-16572436D01*
X9099253Y-16572436D02*
X9089730Y-16581960D01*
X9089730Y-16581960D02*
X9070682Y-16591484D01*
X9070682Y-16591484D02*
X9042111Y-16591484D01*
X9223063Y-16591484D02*
X9204015Y-16581960D01*
X9204015Y-16581960D02*
X9194492Y-16562912D01*
X9194492Y-16562912D02*
X9194492Y-16391484D01*
X9375444Y-16581960D02*
X9356396Y-16591484D01*
X9356396Y-16591484D02*
X9318301Y-16591484D01*
X9318301Y-16591484D02*
X9299253Y-16581960D01*
X9299253Y-16581960D02*
X9289730Y-16562912D01*
X9289730Y-16562912D02*
X9289730Y-16486722D01*
X9289730Y-16486722D02*
X9299253Y-16467674D01*
X9299253Y-16467674D02*
X9318301Y-16458150D01*
X9318301Y-16458150D02*
X9356396Y-16458150D01*
X9356396Y-16458150D02*
X9375444Y-16467674D01*
X9375444Y-16467674D02*
X9384968Y-16486722D01*
X9384968Y-16486722D02*
X9384968Y-16505769D01*
X9384968Y-16505769D02*
X9289730Y-16524817D01*
X9461158Y-16581960D02*
X9480206Y-16591484D01*
X9480206Y-16591484D02*
X9518301Y-16591484D01*
X9518301Y-16591484D02*
X9537349Y-16581960D01*
X9537349Y-16581960D02*
X9546873Y-16562912D01*
X9546873Y-16562912D02*
X9546873Y-16553388D01*
X9546873Y-16553388D02*
X9537349Y-16534341D01*
X9537349Y-16534341D02*
X9518301Y-16524817D01*
X9518301Y-16524817D02*
X9489730Y-16524817D01*
X9489730Y-16524817D02*
X9470682Y-16515293D01*
X9470682Y-16515293D02*
X9461158Y-16496246D01*
X9461158Y-16496246D02*
X9461158Y-16486722D01*
X9461158Y-16486722D02*
X9470682Y-16467674D01*
X9470682Y-16467674D02*
X9489730Y-16458150D01*
X9489730Y-16458150D02*
X9518301Y-16458150D01*
X9518301Y-16458150D02*
X9537349Y-16467674D01*
X9613539Y-16667674D02*
X9623063Y-16658150D01*
X9623063Y-16658150D02*
X9642111Y-16629579D01*
X9642111Y-16629579D02*
X9651634Y-16610531D01*
X9651634Y-16610531D02*
X9661158Y-16581960D01*
X9661158Y-16581960D02*
X9670682Y-16534341D01*
X9670682Y-16534341D02*
X9670682Y-16496246D01*
X9670682Y-16496246D02*
X9661158Y-16448627D01*
X9661158Y-16448627D02*
X9651634Y-16420055D01*
X9651634Y-16420055D02*
X9642111Y-16401008D01*
X9642111Y-16401008D02*
X9623063Y-16372436D01*
X9623063Y-16372436D02*
X9613539Y-16362912D01*
D16*
X4602000Y-16810000D02*
X4648000Y-16764000D01*
X4602000Y-16718000D01*
X4556000Y-16764000D01*
X4602000Y-16810000D01*
D11*
X4946872Y-16655484D02*
X4965920Y-16655484D01*
X4965920Y-16655484D02*
X4984967Y-16665008D01*
X4984967Y-16665008D02*
X4994491Y-16674531D01*
X4994491Y-16674531D02*
X5004015Y-16693579D01*
X5004015Y-16693579D02*
X5013539Y-16731674D01*
X5013539Y-16731674D02*
X5013539Y-16779293D01*
X5013539Y-16779293D02*
X5004015Y-16817389D01*
X5004015Y-16817389D02*
X4994491Y-16836436D01*
X4994491Y-16836436D02*
X4984967Y-16845960D01*
X4984967Y-16845960D02*
X4965920Y-16855484D01*
X4965920Y-16855484D02*
X4946872Y-16855484D01*
X4946872Y-16855484D02*
X4927824Y-16845960D01*
X4927824Y-16845960D02*
X4918301Y-16836436D01*
X4918301Y-16836436D02*
X4908777Y-16817389D01*
X4908777Y-16817389D02*
X4899253Y-16779293D01*
X4899253Y-16779293D02*
X4899253Y-16731674D01*
X4899253Y-16731674D02*
X4908777Y-16693579D01*
X4908777Y-16693579D02*
X4918301Y-16674531D01*
X4918301Y-16674531D02*
X4927824Y-16665008D01*
X4927824Y-16665008D02*
X4946872Y-16655484D01*
X5099253Y-16836436D02*
X5108777Y-16845960D01*
X5108777Y-16845960D02*
X5099253Y-16855484D01*
X5099253Y-16855484D02*
X5089729Y-16845960D01*
X5089729Y-16845960D02*
X5099253Y-16836436D01*
X5099253Y-16836436D02*
X5099253Y-16855484D01*
X5204015Y-16855484D02*
X5242110Y-16855484D01*
X5242110Y-16855484D02*
X5261158Y-16845960D01*
X5261158Y-16845960D02*
X5270682Y-16836436D01*
X5270682Y-16836436D02*
X5289729Y-16807865D01*
X5289729Y-16807865D02*
X5299253Y-16769769D01*
X5299253Y-16769769D02*
X5299253Y-16693579D01*
X5299253Y-16693579D02*
X5289729Y-16674531D01*
X5289729Y-16674531D02*
X5280205Y-16665008D01*
X5280205Y-16665008D02*
X5261158Y-16655484D01*
X5261158Y-16655484D02*
X5223063Y-16655484D01*
X5223063Y-16655484D02*
X5204015Y-16665008D01*
X5204015Y-16665008D02*
X5194491Y-16674531D01*
X5194491Y-16674531D02*
X5184967Y-16693579D01*
X5184967Y-16693579D02*
X5184967Y-16741198D01*
X5184967Y-16741198D02*
X5194491Y-16760246D01*
X5194491Y-16760246D02*
X5204015Y-16769769D01*
X5204015Y-16769769D02*
X5223063Y-16779293D01*
X5223063Y-16779293D02*
X5261158Y-16779293D01*
X5261158Y-16779293D02*
X5280205Y-16769769D01*
X5280205Y-16769769D02*
X5289729Y-16760246D01*
X5289729Y-16760246D02*
X5299253Y-16741198D01*
X5375444Y-16674531D02*
X5384967Y-16665008D01*
X5384967Y-16665008D02*
X5404015Y-16655484D01*
X5404015Y-16655484D02*
X5451634Y-16655484D01*
X5451634Y-16655484D02*
X5470682Y-16665008D01*
X5470682Y-16665008D02*
X5480205Y-16674531D01*
X5480205Y-16674531D02*
X5489729Y-16693579D01*
X5489729Y-16693579D02*
X5489729Y-16712627D01*
X5489729Y-16712627D02*
X5480205Y-16741198D01*
X5480205Y-16741198D02*
X5365920Y-16855484D01*
X5365920Y-16855484D02*
X5489729Y-16855484D01*
X5613539Y-16655484D02*
X5632586Y-16655484D01*
X5632586Y-16655484D02*
X5651634Y-16665008D01*
X5651634Y-16665008D02*
X5661158Y-16674531D01*
X5661158Y-16674531D02*
X5670682Y-16693579D01*
X5670682Y-16693579D02*
X5680205Y-16731674D01*
X5680205Y-16731674D02*
X5680205Y-16779293D01*
X5680205Y-16779293D02*
X5670682Y-16817389D01*
X5670682Y-16817389D02*
X5661158Y-16836436D01*
X5661158Y-16836436D02*
X5651634Y-16845960D01*
X5651634Y-16845960D02*
X5632586Y-16855484D01*
X5632586Y-16855484D02*
X5613539Y-16855484D01*
X5613539Y-16855484D02*
X5594491Y-16845960D01*
X5594491Y-16845960D02*
X5584967Y-16836436D01*
X5584967Y-16836436D02*
X5575444Y-16817389D01*
X5575444Y-16817389D02*
X5565920Y-16779293D01*
X5565920Y-16779293D02*
X5565920Y-16731674D01*
X5565920Y-16731674D02*
X5575444Y-16693579D01*
X5575444Y-16693579D02*
X5584967Y-16674531D01*
X5584967Y-16674531D02*
X5594491Y-16665008D01*
X5594491Y-16665008D02*
X5613539Y-16655484D01*
X5765920Y-16855484D02*
X5765920Y-16722150D01*
X5765920Y-16741198D02*
X5775443Y-16731674D01*
X5775443Y-16731674D02*
X5794491Y-16722150D01*
X5794491Y-16722150D02*
X5823063Y-16722150D01*
X5823063Y-16722150D02*
X5842110Y-16731674D01*
X5842110Y-16731674D02*
X5851634Y-16750722D01*
X5851634Y-16750722D02*
X5851634Y-16855484D01*
X5851634Y-16750722D02*
X5861158Y-16731674D01*
X5861158Y-16731674D02*
X5880205Y-16722150D01*
X5880205Y-16722150D02*
X5908777Y-16722150D01*
X5908777Y-16722150D02*
X5927824Y-16731674D01*
X5927824Y-16731674D02*
X5937348Y-16750722D01*
X5937348Y-16750722D02*
X5937348Y-16855484D01*
X6032586Y-16855484D02*
X6032586Y-16722150D01*
X6032586Y-16741198D02*
X6042110Y-16731674D01*
X6042110Y-16731674D02*
X6061158Y-16722150D01*
X6061158Y-16722150D02*
X6089729Y-16722150D01*
X6089729Y-16722150D02*
X6108777Y-16731674D01*
X6108777Y-16731674D02*
X6118301Y-16750722D01*
X6118301Y-16750722D02*
X6118301Y-16855484D01*
X6118301Y-16750722D02*
X6127824Y-16731674D01*
X6127824Y-16731674D02*
X6146872Y-16722150D01*
X6146872Y-16722150D02*
X6175443Y-16722150D01*
X6175443Y-16722150D02*
X6194491Y-16731674D01*
X6194491Y-16731674D02*
X6204015Y-16750722D01*
X6204015Y-16750722D02*
X6204015Y-16855484D01*
X6594491Y-16645960D02*
X6423063Y-16903103D01*
X6851634Y-16655484D02*
X6870682Y-16655484D01*
X6870682Y-16655484D02*
X6889729Y-16665008D01*
X6889729Y-16665008D02*
X6899253Y-16674531D01*
X6899253Y-16674531D02*
X6908777Y-16693579D01*
X6908777Y-16693579D02*
X6918301Y-16731674D01*
X6918301Y-16731674D02*
X6918301Y-16779293D01*
X6918301Y-16779293D02*
X6908777Y-16817389D01*
X6908777Y-16817389D02*
X6899253Y-16836436D01*
X6899253Y-16836436D02*
X6889729Y-16845960D01*
X6889729Y-16845960D02*
X6870682Y-16855484D01*
X6870682Y-16855484D02*
X6851634Y-16855484D01*
X6851634Y-16855484D02*
X6832586Y-16845960D01*
X6832586Y-16845960D02*
X6823063Y-16836436D01*
X6823063Y-16836436D02*
X6813539Y-16817389D01*
X6813539Y-16817389D02*
X6804015Y-16779293D01*
X6804015Y-16779293D02*
X6804015Y-16731674D01*
X6804015Y-16731674D02*
X6813539Y-16693579D01*
X6813539Y-16693579D02*
X6823063Y-16674531D01*
X6823063Y-16674531D02*
X6832586Y-16665008D01*
X6832586Y-16665008D02*
X6851634Y-16655484D01*
X7004015Y-16836436D02*
X7013539Y-16845960D01*
X7013539Y-16845960D02*
X7004015Y-16855484D01*
X7004015Y-16855484D02*
X6994491Y-16845960D01*
X6994491Y-16845960D02*
X7004015Y-16836436D01*
X7004015Y-16836436D02*
X7004015Y-16855484D01*
X7137348Y-16655484D02*
X7156396Y-16655484D01*
X7156396Y-16655484D02*
X7175444Y-16665008D01*
X7175444Y-16665008D02*
X7184967Y-16674531D01*
X7184967Y-16674531D02*
X7194491Y-16693579D01*
X7194491Y-16693579D02*
X7204015Y-16731674D01*
X7204015Y-16731674D02*
X7204015Y-16779293D01*
X7204015Y-16779293D02*
X7194491Y-16817389D01*
X7194491Y-16817389D02*
X7184967Y-16836436D01*
X7184967Y-16836436D02*
X7175444Y-16845960D01*
X7175444Y-16845960D02*
X7156396Y-16855484D01*
X7156396Y-16855484D02*
X7137348Y-16855484D01*
X7137348Y-16855484D02*
X7118301Y-16845960D01*
X7118301Y-16845960D02*
X7108777Y-16836436D01*
X7108777Y-16836436D02*
X7099253Y-16817389D01*
X7099253Y-16817389D02*
X7089729Y-16779293D01*
X7089729Y-16779293D02*
X7089729Y-16731674D01*
X7089729Y-16731674D02*
X7099253Y-16693579D01*
X7099253Y-16693579D02*
X7108777Y-16674531D01*
X7108777Y-16674531D02*
X7118301Y-16665008D01*
X7118301Y-16665008D02*
X7137348Y-16655484D01*
X7270682Y-16655484D02*
X7394491Y-16655484D01*
X7394491Y-16655484D02*
X7327825Y-16731674D01*
X7327825Y-16731674D02*
X7356396Y-16731674D01*
X7356396Y-16731674D02*
X7375444Y-16741198D01*
X7375444Y-16741198D02*
X7384967Y-16750722D01*
X7384967Y-16750722D02*
X7394491Y-16769769D01*
X7394491Y-16769769D02*
X7394491Y-16817389D01*
X7394491Y-16817389D02*
X7384967Y-16836436D01*
X7384967Y-16836436D02*
X7375444Y-16845960D01*
X7375444Y-16845960D02*
X7356396Y-16855484D01*
X7356396Y-16855484D02*
X7299253Y-16855484D01*
X7299253Y-16855484D02*
X7280206Y-16845960D01*
X7280206Y-16845960D02*
X7270682Y-16836436D01*
X7565920Y-16655484D02*
X7527825Y-16655484D01*
X7527825Y-16655484D02*
X7508777Y-16665008D01*
X7508777Y-16665008D02*
X7499253Y-16674531D01*
X7499253Y-16674531D02*
X7480206Y-16703103D01*
X7480206Y-16703103D02*
X7470682Y-16741198D01*
X7470682Y-16741198D02*
X7470682Y-16817389D01*
X7470682Y-16817389D02*
X7480206Y-16836436D01*
X7480206Y-16836436D02*
X7489729Y-16845960D01*
X7489729Y-16845960D02*
X7508777Y-16855484D01*
X7508777Y-16855484D02*
X7546872Y-16855484D01*
X7546872Y-16855484D02*
X7565920Y-16845960D01*
X7565920Y-16845960D02*
X7575444Y-16836436D01*
X7575444Y-16836436D02*
X7584967Y-16817389D01*
X7584967Y-16817389D02*
X7584967Y-16769769D01*
X7584967Y-16769769D02*
X7575444Y-16750722D01*
X7575444Y-16750722D02*
X7565920Y-16741198D01*
X7565920Y-16741198D02*
X7546872Y-16731674D01*
X7546872Y-16731674D02*
X7508777Y-16731674D01*
X7508777Y-16731674D02*
X7489729Y-16741198D01*
X7489729Y-16741198D02*
X7480206Y-16750722D01*
X7480206Y-16750722D02*
X7470682Y-16769769D01*
X7661158Y-16674531D02*
X7670682Y-16665008D01*
X7670682Y-16665008D02*
X7689729Y-16655484D01*
X7689729Y-16655484D02*
X7737348Y-16655484D01*
X7737348Y-16655484D02*
X7756396Y-16665008D01*
X7756396Y-16665008D02*
X7765920Y-16674531D01*
X7765920Y-16674531D02*
X7775444Y-16693579D01*
X7775444Y-16693579D02*
X7775444Y-16712627D01*
X7775444Y-16712627D02*
X7765920Y-16741198D01*
X7765920Y-16741198D02*
X7651634Y-16855484D01*
X7651634Y-16855484D02*
X7775444Y-16855484D01*
X7851634Y-16655484D02*
X7851634Y-16693579D01*
X7927825Y-16655484D02*
X7927825Y-16693579D01*
X8223063Y-16931674D02*
X8213539Y-16922150D01*
X8213539Y-16922150D02*
X8194491Y-16893579D01*
X8194491Y-16893579D02*
X8184968Y-16874531D01*
X8184968Y-16874531D02*
X8175444Y-16845960D01*
X8175444Y-16845960D02*
X8165920Y-16798341D01*
X8165920Y-16798341D02*
X8165920Y-16760246D01*
X8165920Y-16760246D02*
X8175444Y-16712627D01*
X8175444Y-16712627D02*
X8184968Y-16684055D01*
X8184968Y-16684055D02*
X8194491Y-16665008D01*
X8194491Y-16665008D02*
X8213539Y-16636436D01*
X8213539Y-16636436D02*
X8223063Y-16626912D01*
X8404015Y-16855484D02*
X8289729Y-16855484D01*
X8346872Y-16855484D02*
X8346872Y-16655484D01*
X8346872Y-16655484D02*
X8327825Y-16684055D01*
X8327825Y-16684055D02*
X8308777Y-16703103D01*
X8308777Y-16703103D02*
X8289729Y-16712627D01*
X8480206Y-16674531D02*
X8489730Y-16665008D01*
X8489730Y-16665008D02*
X8508777Y-16655484D01*
X8508777Y-16655484D02*
X8556396Y-16655484D01*
X8556396Y-16655484D02*
X8575444Y-16665008D01*
X8575444Y-16665008D02*
X8584968Y-16674531D01*
X8584968Y-16674531D02*
X8594491Y-16693579D01*
X8594491Y-16693579D02*
X8594491Y-16712627D01*
X8594491Y-16712627D02*
X8584968Y-16741198D01*
X8584968Y-16741198D02*
X8470682Y-16855484D01*
X8470682Y-16855484D02*
X8594491Y-16855484D01*
X8832587Y-16855484D02*
X8832587Y-16655484D01*
X8918301Y-16855484D02*
X8918301Y-16750722D01*
X8918301Y-16750722D02*
X8908777Y-16731674D01*
X8908777Y-16731674D02*
X8889730Y-16722150D01*
X8889730Y-16722150D02*
X8861158Y-16722150D01*
X8861158Y-16722150D02*
X8842111Y-16731674D01*
X8842111Y-16731674D02*
X8832587Y-16741198D01*
X9042111Y-16855484D02*
X9023063Y-16845960D01*
X9023063Y-16845960D02*
X9013539Y-16836436D01*
X9013539Y-16836436D02*
X9004015Y-16817389D01*
X9004015Y-16817389D02*
X9004015Y-16760246D01*
X9004015Y-16760246D02*
X9013539Y-16741198D01*
X9013539Y-16741198D02*
X9023063Y-16731674D01*
X9023063Y-16731674D02*
X9042111Y-16722150D01*
X9042111Y-16722150D02*
X9070682Y-16722150D01*
X9070682Y-16722150D02*
X9089730Y-16731674D01*
X9089730Y-16731674D02*
X9099253Y-16741198D01*
X9099253Y-16741198D02*
X9108777Y-16760246D01*
X9108777Y-16760246D02*
X9108777Y-16817389D01*
X9108777Y-16817389D02*
X9099253Y-16836436D01*
X9099253Y-16836436D02*
X9089730Y-16845960D01*
X9089730Y-16845960D02*
X9070682Y-16855484D01*
X9070682Y-16855484D02*
X9042111Y-16855484D01*
X9223063Y-16855484D02*
X9204015Y-16845960D01*
X9204015Y-16845960D02*
X9194492Y-16826912D01*
X9194492Y-16826912D02*
X9194492Y-16655484D01*
X9375444Y-16845960D02*
X9356396Y-16855484D01*
X9356396Y-16855484D02*
X9318301Y-16855484D01*
X9318301Y-16855484D02*
X9299253Y-16845960D01*
X9299253Y-16845960D02*
X9289730Y-16826912D01*
X9289730Y-16826912D02*
X9289730Y-16750722D01*
X9289730Y-16750722D02*
X9299253Y-16731674D01*
X9299253Y-16731674D02*
X9318301Y-16722150D01*
X9318301Y-16722150D02*
X9356396Y-16722150D01*
X9356396Y-16722150D02*
X9375444Y-16731674D01*
X9375444Y-16731674D02*
X9384968Y-16750722D01*
X9384968Y-16750722D02*
X9384968Y-16769769D01*
X9384968Y-16769769D02*
X9289730Y-16788817D01*
X9461158Y-16845960D02*
X9480206Y-16855484D01*
X9480206Y-16855484D02*
X9518301Y-16855484D01*
X9518301Y-16855484D02*
X9537349Y-16845960D01*
X9537349Y-16845960D02*
X9546873Y-16826912D01*
X9546873Y-16826912D02*
X9546873Y-16817389D01*
X9546873Y-16817389D02*
X9537349Y-16798341D01*
X9537349Y-16798341D02*
X9518301Y-16788817D01*
X9518301Y-16788817D02*
X9489730Y-16788817D01*
X9489730Y-16788817D02*
X9470682Y-16779293D01*
X9470682Y-16779293D02*
X9461158Y-16760246D01*
X9461158Y-16760246D02*
X9461158Y-16750722D01*
X9461158Y-16750722D02*
X9470682Y-16731674D01*
X9470682Y-16731674D02*
X9489730Y-16722150D01*
X9489730Y-16722150D02*
X9518301Y-16722150D01*
X9518301Y-16722150D02*
X9537349Y-16731674D01*
X9613539Y-16931674D02*
X9623063Y-16922150D01*
X9623063Y-16922150D02*
X9642111Y-16893579D01*
X9642111Y-16893579D02*
X9651634Y-16874531D01*
X9651634Y-16874531D02*
X9661158Y-16845960D01*
X9661158Y-16845960D02*
X9670682Y-16798341D01*
X9670682Y-16798341D02*
X9670682Y-16760246D01*
X9670682Y-16760246D02*
X9661158Y-16712627D01*
X9661158Y-16712627D02*
X9651634Y-16684055D01*
X9651634Y-16684055D02*
X9642111Y-16665008D01*
X9642111Y-16665008D02*
X9623063Y-16636436D01*
X9623063Y-16636436D02*
X9613539Y-16626912D01*
D10*
X4548000Y-16978000D02*
X4648000Y-17078000D01*
X4648000Y-16978000D02*
X4548000Y-17078000D01*
X4648000Y-17028000D02*
G75*
G03*
X4648000Y-17028000I-50000J0D01*
G01*
D11*
X5013539Y-17119484D02*
X4899253Y-17119484D01*
X4956396Y-17119484D02*
X4956396Y-16919484D01*
X4956396Y-16919484D02*
X4937348Y-16948055D01*
X4937348Y-16948055D02*
X4918301Y-16967103D01*
X4918301Y-16967103D02*
X4899253Y-16976627D01*
X5099253Y-17100436D02*
X5108777Y-17109960D01*
X5108777Y-17109960D02*
X5099253Y-17119484D01*
X5099253Y-17119484D02*
X5089729Y-17109960D01*
X5089729Y-17109960D02*
X5099253Y-17100436D01*
X5099253Y-17100436D02*
X5099253Y-17119484D01*
X5232586Y-16919484D02*
X5251634Y-16919484D01*
X5251634Y-16919484D02*
X5270682Y-16929008D01*
X5270682Y-16929008D02*
X5280205Y-16938531D01*
X5280205Y-16938531D02*
X5289729Y-16957579D01*
X5289729Y-16957579D02*
X5299253Y-16995674D01*
X5299253Y-16995674D02*
X5299253Y-17043293D01*
X5299253Y-17043293D02*
X5289729Y-17081389D01*
X5289729Y-17081389D02*
X5280205Y-17100436D01*
X5280205Y-17100436D02*
X5270682Y-17109960D01*
X5270682Y-17109960D02*
X5251634Y-17119484D01*
X5251634Y-17119484D02*
X5232586Y-17119484D01*
X5232586Y-17119484D02*
X5213539Y-17109960D01*
X5213539Y-17109960D02*
X5204015Y-17100436D01*
X5204015Y-17100436D02*
X5194491Y-17081389D01*
X5194491Y-17081389D02*
X5184967Y-17043293D01*
X5184967Y-17043293D02*
X5184967Y-16995674D01*
X5184967Y-16995674D02*
X5194491Y-16957579D01*
X5194491Y-16957579D02*
X5204015Y-16938531D01*
X5204015Y-16938531D02*
X5213539Y-16929008D01*
X5213539Y-16929008D02*
X5232586Y-16919484D01*
X5423063Y-16919484D02*
X5442110Y-16919484D01*
X5442110Y-16919484D02*
X5461158Y-16929008D01*
X5461158Y-16929008D02*
X5470682Y-16938531D01*
X5470682Y-16938531D02*
X5480205Y-16957579D01*
X5480205Y-16957579D02*
X5489729Y-16995674D01*
X5489729Y-16995674D02*
X5489729Y-17043293D01*
X5489729Y-17043293D02*
X5480205Y-17081389D01*
X5480205Y-17081389D02*
X5470682Y-17100436D01*
X5470682Y-17100436D02*
X5461158Y-17109960D01*
X5461158Y-17109960D02*
X5442110Y-17119484D01*
X5442110Y-17119484D02*
X5423063Y-17119484D01*
X5423063Y-17119484D02*
X5404015Y-17109960D01*
X5404015Y-17109960D02*
X5394491Y-17100436D01*
X5394491Y-17100436D02*
X5384967Y-17081389D01*
X5384967Y-17081389D02*
X5375444Y-17043293D01*
X5375444Y-17043293D02*
X5375444Y-16995674D01*
X5375444Y-16995674D02*
X5384967Y-16957579D01*
X5384967Y-16957579D02*
X5394491Y-16938531D01*
X5394491Y-16938531D02*
X5404015Y-16929008D01*
X5404015Y-16929008D02*
X5423063Y-16919484D01*
X5613539Y-16919484D02*
X5632586Y-16919484D01*
X5632586Y-16919484D02*
X5651634Y-16929008D01*
X5651634Y-16929008D02*
X5661158Y-16938531D01*
X5661158Y-16938531D02*
X5670682Y-16957579D01*
X5670682Y-16957579D02*
X5680205Y-16995674D01*
X5680205Y-16995674D02*
X5680205Y-17043293D01*
X5680205Y-17043293D02*
X5670682Y-17081389D01*
X5670682Y-17081389D02*
X5661158Y-17100436D01*
X5661158Y-17100436D02*
X5651634Y-17109960D01*
X5651634Y-17109960D02*
X5632586Y-17119484D01*
X5632586Y-17119484D02*
X5613539Y-17119484D01*
X5613539Y-17119484D02*
X5594491Y-17109960D01*
X5594491Y-17109960D02*
X5584967Y-17100436D01*
X5584967Y-17100436D02*
X5575444Y-17081389D01*
X5575444Y-17081389D02*
X5565920Y-17043293D01*
X5565920Y-17043293D02*
X5565920Y-16995674D01*
X5565920Y-16995674D02*
X5575444Y-16957579D01*
X5575444Y-16957579D02*
X5584967Y-16938531D01*
X5584967Y-16938531D02*
X5594491Y-16929008D01*
X5594491Y-16929008D02*
X5613539Y-16919484D01*
X5765920Y-17119484D02*
X5765920Y-16986150D01*
X5765920Y-17005198D02*
X5775443Y-16995674D01*
X5775443Y-16995674D02*
X5794491Y-16986150D01*
X5794491Y-16986150D02*
X5823063Y-16986150D01*
X5823063Y-16986150D02*
X5842110Y-16995674D01*
X5842110Y-16995674D02*
X5851634Y-17014722D01*
X5851634Y-17014722D02*
X5851634Y-17119484D01*
X5851634Y-17014722D02*
X5861158Y-16995674D01*
X5861158Y-16995674D02*
X5880205Y-16986150D01*
X5880205Y-16986150D02*
X5908777Y-16986150D01*
X5908777Y-16986150D02*
X5927824Y-16995674D01*
X5927824Y-16995674D02*
X5937348Y-17014722D01*
X5937348Y-17014722D02*
X5937348Y-17119484D01*
X6032586Y-17119484D02*
X6032586Y-16986150D01*
X6032586Y-17005198D02*
X6042110Y-16995674D01*
X6042110Y-16995674D02*
X6061158Y-16986150D01*
X6061158Y-16986150D02*
X6089729Y-16986150D01*
X6089729Y-16986150D02*
X6108777Y-16995674D01*
X6108777Y-16995674D02*
X6118301Y-17014722D01*
X6118301Y-17014722D02*
X6118301Y-17119484D01*
X6118301Y-17014722D02*
X6127824Y-16995674D01*
X6127824Y-16995674D02*
X6146872Y-16986150D01*
X6146872Y-16986150D02*
X6175443Y-16986150D01*
X6175443Y-16986150D02*
X6194491Y-16995674D01*
X6194491Y-16995674D02*
X6204015Y-17014722D01*
X6204015Y-17014722D02*
X6204015Y-17119484D01*
X6594491Y-16909960D02*
X6423063Y-17167103D01*
X6851634Y-16919484D02*
X6870682Y-16919484D01*
X6870682Y-16919484D02*
X6889729Y-16929008D01*
X6889729Y-16929008D02*
X6899253Y-16938531D01*
X6899253Y-16938531D02*
X6908777Y-16957579D01*
X6908777Y-16957579D02*
X6918301Y-16995674D01*
X6918301Y-16995674D02*
X6918301Y-17043293D01*
X6918301Y-17043293D02*
X6908777Y-17081389D01*
X6908777Y-17081389D02*
X6899253Y-17100436D01*
X6899253Y-17100436D02*
X6889729Y-17109960D01*
X6889729Y-17109960D02*
X6870682Y-17119484D01*
X6870682Y-17119484D02*
X6851634Y-17119484D01*
X6851634Y-17119484D02*
X6832586Y-17109960D01*
X6832586Y-17109960D02*
X6823063Y-17100436D01*
X6823063Y-17100436D02*
X6813539Y-17081389D01*
X6813539Y-17081389D02*
X6804015Y-17043293D01*
X6804015Y-17043293D02*
X6804015Y-16995674D01*
X6804015Y-16995674D02*
X6813539Y-16957579D01*
X6813539Y-16957579D02*
X6823063Y-16938531D01*
X6823063Y-16938531D02*
X6832586Y-16929008D01*
X6832586Y-16929008D02*
X6851634Y-16919484D01*
X7004015Y-17100436D02*
X7013539Y-17109960D01*
X7013539Y-17109960D02*
X7004015Y-17119484D01*
X7004015Y-17119484D02*
X6994491Y-17109960D01*
X6994491Y-17109960D02*
X7004015Y-17100436D01*
X7004015Y-17100436D02*
X7004015Y-17119484D01*
X7137348Y-16919484D02*
X7156396Y-16919484D01*
X7156396Y-16919484D02*
X7175444Y-16929008D01*
X7175444Y-16929008D02*
X7184967Y-16938531D01*
X7184967Y-16938531D02*
X7194491Y-16957579D01*
X7194491Y-16957579D02*
X7204015Y-16995674D01*
X7204015Y-16995674D02*
X7204015Y-17043293D01*
X7204015Y-17043293D02*
X7194491Y-17081389D01*
X7194491Y-17081389D02*
X7184967Y-17100436D01*
X7184967Y-17100436D02*
X7175444Y-17109960D01*
X7175444Y-17109960D02*
X7156396Y-17119484D01*
X7156396Y-17119484D02*
X7137348Y-17119484D01*
X7137348Y-17119484D02*
X7118301Y-17109960D01*
X7118301Y-17109960D02*
X7108777Y-17100436D01*
X7108777Y-17100436D02*
X7099253Y-17081389D01*
X7099253Y-17081389D02*
X7089729Y-17043293D01*
X7089729Y-17043293D02*
X7089729Y-16995674D01*
X7089729Y-16995674D02*
X7099253Y-16957579D01*
X7099253Y-16957579D02*
X7108777Y-16938531D01*
X7108777Y-16938531D02*
X7118301Y-16929008D01*
X7118301Y-16929008D02*
X7137348Y-16919484D01*
X7270682Y-16919484D02*
X7394491Y-16919484D01*
X7394491Y-16919484D02*
X7327825Y-16995674D01*
X7327825Y-16995674D02*
X7356396Y-16995674D01*
X7356396Y-16995674D02*
X7375444Y-17005198D01*
X7375444Y-17005198D02*
X7384967Y-17014722D01*
X7384967Y-17014722D02*
X7394491Y-17033770D01*
X7394491Y-17033770D02*
X7394491Y-17081389D01*
X7394491Y-17081389D02*
X7384967Y-17100436D01*
X7384967Y-17100436D02*
X7375444Y-17109960D01*
X7375444Y-17109960D02*
X7356396Y-17119484D01*
X7356396Y-17119484D02*
X7299253Y-17119484D01*
X7299253Y-17119484D02*
X7280206Y-17109960D01*
X7280206Y-17109960D02*
X7270682Y-17100436D01*
X7489729Y-17119484D02*
X7527825Y-17119484D01*
X7527825Y-17119484D02*
X7546872Y-17109960D01*
X7546872Y-17109960D02*
X7556396Y-17100436D01*
X7556396Y-17100436D02*
X7575444Y-17071865D01*
X7575444Y-17071865D02*
X7584967Y-17033770D01*
X7584967Y-17033770D02*
X7584967Y-16957579D01*
X7584967Y-16957579D02*
X7575444Y-16938531D01*
X7575444Y-16938531D02*
X7565920Y-16929008D01*
X7565920Y-16929008D02*
X7546872Y-16919484D01*
X7546872Y-16919484D02*
X7508777Y-16919484D01*
X7508777Y-16919484D02*
X7489729Y-16929008D01*
X7489729Y-16929008D02*
X7480206Y-16938531D01*
X7480206Y-16938531D02*
X7470682Y-16957579D01*
X7470682Y-16957579D02*
X7470682Y-17005198D01*
X7470682Y-17005198D02*
X7480206Y-17024246D01*
X7480206Y-17024246D02*
X7489729Y-17033770D01*
X7489729Y-17033770D02*
X7508777Y-17043293D01*
X7508777Y-17043293D02*
X7546872Y-17043293D01*
X7546872Y-17043293D02*
X7565920Y-17033770D01*
X7565920Y-17033770D02*
X7575444Y-17024246D01*
X7575444Y-17024246D02*
X7584967Y-17005198D01*
X7756396Y-16986150D02*
X7756396Y-17119484D01*
X7708777Y-16909960D02*
X7661158Y-17052817D01*
X7661158Y-17052817D02*
X7784967Y-17052817D01*
X7851634Y-16919484D02*
X7851634Y-16957579D01*
X7927825Y-16919484D02*
X7927825Y-16957579D01*
X8223063Y-17195674D02*
X8213539Y-17186150D01*
X8213539Y-17186150D02*
X8194491Y-17157579D01*
X8194491Y-17157579D02*
X8184968Y-17138531D01*
X8184968Y-17138531D02*
X8175444Y-17109960D01*
X8175444Y-17109960D02*
X8165920Y-17062341D01*
X8165920Y-17062341D02*
X8165920Y-17024246D01*
X8165920Y-17024246D02*
X8175444Y-16976627D01*
X8175444Y-16976627D02*
X8184968Y-16948055D01*
X8184968Y-16948055D02*
X8194491Y-16929008D01*
X8194491Y-16929008D02*
X8213539Y-16900436D01*
X8213539Y-16900436D02*
X8223063Y-16890912D01*
X8404015Y-17119484D02*
X8289729Y-17119484D01*
X8346872Y-17119484D02*
X8346872Y-16919484D01*
X8346872Y-16919484D02*
X8327825Y-16948055D01*
X8327825Y-16948055D02*
X8308777Y-16967103D01*
X8308777Y-16967103D02*
X8289729Y-16976627D01*
X8527825Y-16919484D02*
X8546872Y-16919484D01*
X8546872Y-16919484D02*
X8565920Y-16929008D01*
X8565920Y-16929008D02*
X8575444Y-16938531D01*
X8575444Y-16938531D02*
X8584968Y-16957579D01*
X8584968Y-16957579D02*
X8594491Y-16995674D01*
X8594491Y-16995674D02*
X8594491Y-17043293D01*
X8594491Y-17043293D02*
X8584968Y-17081389D01*
X8584968Y-17081389D02*
X8575444Y-17100436D01*
X8575444Y-17100436D02*
X8565920Y-17109960D01*
X8565920Y-17109960D02*
X8546872Y-17119484D01*
X8546872Y-17119484D02*
X8527825Y-17119484D01*
X8527825Y-17119484D02*
X8508777Y-17109960D01*
X8508777Y-17109960D02*
X8499253Y-17100436D01*
X8499253Y-17100436D02*
X8489730Y-17081389D01*
X8489730Y-17081389D02*
X8480206Y-17043293D01*
X8480206Y-17043293D02*
X8480206Y-16995674D01*
X8480206Y-16995674D02*
X8489730Y-16957579D01*
X8489730Y-16957579D02*
X8499253Y-16938531D01*
X8499253Y-16938531D02*
X8508777Y-16929008D01*
X8508777Y-16929008D02*
X8527825Y-16919484D01*
X8832587Y-17119484D02*
X8832587Y-16919484D01*
X8918301Y-17119484D02*
X8918301Y-17014722D01*
X8918301Y-17014722D02*
X8908777Y-16995674D01*
X8908777Y-16995674D02*
X8889730Y-16986150D01*
X8889730Y-16986150D02*
X8861158Y-16986150D01*
X8861158Y-16986150D02*
X8842111Y-16995674D01*
X8842111Y-16995674D02*
X8832587Y-17005198D01*
X9042111Y-17119484D02*
X9023063Y-17109960D01*
X9023063Y-17109960D02*
X9013539Y-17100436D01*
X9013539Y-17100436D02*
X9004015Y-17081389D01*
X9004015Y-17081389D02*
X9004015Y-17024246D01*
X9004015Y-17024246D02*
X9013539Y-17005198D01*
X9013539Y-17005198D02*
X9023063Y-16995674D01*
X9023063Y-16995674D02*
X9042111Y-16986150D01*
X9042111Y-16986150D02*
X9070682Y-16986150D01*
X9070682Y-16986150D02*
X9089730Y-16995674D01*
X9089730Y-16995674D02*
X9099253Y-17005198D01*
X9099253Y-17005198D02*
X9108777Y-17024246D01*
X9108777Y-17024246D02*
X9108777Y-17081389D01*
X9108777Y-17081389D02*
X9099253Y-17100436D01*
X9099253Y-17100436D02*
X9089730Y-17109960D01*
X9089730Y-17109960D02*
X9070682Y-17119484D01*
X9070682Y-17119484D02*
X9042111Y-17119484D01*
X9223063Y-17119484D02*
X9204015Y-17109960D01*
X9204015Y-17109960D02*
X9194492Y-17090912D01*
X9194492Y-17090912D02*
X9194492Y-16919484D01*
X9375444Y-17109960D02*
X9356396Y-17119484D01*
X9356396Y-17119484D02*
X9318301Y-17119484D01*
X9318301Y-17119484D02*
X9299253Y-17109960D01*
X9299253Y-17109960D02*
X9289730Y-17090912D01*
X9289730Y-17090912D02*
X9289730Y-17014722D01*
X9289730Y-17014722D02*
X9299253Y-16995674D01*
X9299253Y-16995674D02*
X9318301Y-16986150D01*
X9318301Y-16986150D02*
X9356396Y-16986150D01*
X9356396Y-16986150D02*
X9375444Y-16995674D01*
X9375444Y-16995674D02*
X9384968Y-17014722D01*
X9384968Y-17014722D02*
X9384968Y-17033770D01*
X9384968Y-17033770D02*
X9289730Y-17052817D01*
X9461158Y-17109960D02*
X9480206Y-17119484D01*
X9480206Y-17119484D02*
X9518301Y-17119484D01*
X9518301Y-17119484D02*
X9537349Y-17109960D01*
X9537349Y-17109960D02*
X9546873Y-17090912D01*
X9546873Y-17090912D02*
X9546873Y-17081389D01*
X9546873Y-17081389D02*
X9537349Y-17062341D01*
X9537349Y-17062341D02*
X9518301Y-17052817D01*
X9518301Y-17052817D02*
X9489730Y-17052817D01*
X9489730Y-17052817D02*
X9470682Y-17043293D01*
X9470682Y-17043293D02*
X9461158Y-17024246D01*
X9461158Y-17024246D02*
X9461158Y-17014722D01*
X9461158Y-17014722D02*
X9470682Y-16995674D01*
X9470682Y-16995674D02*
X9489730Y-16986150D01*
X9489730Y-16986150D02*
X9518301Y-16986150D01*
X9518301Y-16986150D02*
X9537349Y-16995674D01*
X9613539Y-17195674D02*
X9623063Y-17186150D01*
X9623063Y-17186150D02*
X9642111Y-17157579D01*
X9642111Y-17157579D02*
X9651634Y-17138531D01*
X9651634Y-17138531D02*
X9661158Y-17109960D01*
X9661158Y-17109960D02*
X9670682Y-17062341D01*
X9670682Y-17062341D02*
X9670682Y-17024246D01*
X9670682Y-17024246D02*
X9661158Y-16976627D01*
X9661158Y-16976627D02*
X9651634Y-16948055D01*
X9651634Y-16948055D02*
X9642111Y-16929008D01*
X9642111Y-16929008D02*
X9623063Y-16900436D01*
X9623063Y-16900436D02*
X9613539Y-16890912D01*
D17*
X4547000Y-17241500D02*
X4648000Y-17342500D01*
X4648000Y-17241500D02*
X4547000Y-17342500D01*
X4597500Y-17241500D02*
X4597500Y-17342500D01*
X4547000Y-17292000D02*
X4648000Y-17292000D01*
D11*
X5013539Y-17383484D02*
X4899253Y-17383484D01*
X4956396Y-17383484D02*
X4956396Y-17183484D01*
X4956396Y-17183484D02*
X4937348Y-17212055D01*
X4937348Y-17212055D02*
X4918301Y-17231103D01*
X4918301Y-17231103D02*
X4899253Y-17240627D01*
X5099253Y-17364436D02*
X5108777Y-17373960D01*
X5108777Y-17373960D02*
X5099253Y-17383484D01*
X5099253Y-17383484D02*
X5089729Y-17373960D01*
X5089729Y-17373960D02*
X5099253Y-17364436D01*
X5099253Y-17364436D02*
X5099253Y-17383484D01*
X5232586Y-17183484D02*
X5251634Y-17183484D01*
X5251634Y-17183484D02*
X5270682Y-17193008D01*
X5270682Y-17193008D02*
X5280205Y-17202531D01*
X5280205Y-17202531D02*
X5289729Y-17221579D01*
X5289729Y-17221579D02*
X5299253Y-17259674D01*
X5299253Y-17259674D02*
X5299253Y-17307293D01*
X5299253Y-17307293D02*
X5289729Y-17345389D01*
X5289729Y-17345389D02*
X5280205Y-17364436D01*
X5280205Y-17364436D02*
X5270682Y-17373960D01*
X5270682Y-17373960D02*
X5251634Y-17383484D01*
X5251634Y-17383484D02*
X5232586Y-17383484D01*
X5232586Y-17383484D02*
X5213539Y-17373960D01*
X5213539Y-17373960D02*
X5204015Y-17364436D01*
X5204015Y-17364436D02*
X5194491Y-17345389D01*
X5194491Y-17345389D02*
X5184967Y-17307293D01*
X5184967Y-17307293D02*
X5184967Y-17259674D01*
X5184967Y-17259674D02*
X5194491Y-17221579D01*
X5194491Y-17221579D02*
X5204015Y-17202531D01*
X5204015Y-17202531D02*
X5213539Y-17193008D01*
X5213539Y-17193008D02*
X5232586Y-17183484D01*
X5489729Y-17383484D02*
X5375444Y-17383484D01*
X5432586Y-17383484D02*
X5432586Y-17183484D01*
X5432586Y-17183484D02*
X5413539Y-17212055D01*
X5413539Y-17212055D02*
X5394491Y-17231103D01*
X5394491Y-17231103D02*
X5375444Y-17240627D01*
X5613539Y-17183484D02*
X5632586Y-17183484D01*
X5632586Y-17183484D02*
X5651634Y-17193008D01*
X5651634Y-17193008D02*
X5661158Y-17202531D01*
X5661158Y-17202531D02*
X5670682Y-17221579D01*
X5670682Y-17221579D02*
X5680205Y-17259674D01*
X5680205Y-17259674D02*
X5680205Y-17307293D01*
X5680205Y-17307293D02*
X5670682Y-17345389D01*
X5670682Y-17345389D02*
X5661158Y-17364436D01*
X5661158Y-17364436D02*
X5651634Y-17373960D01*
X5651634Y-17373960D02*
X5632586Y-17383484D01*
X5632586Y-17383484D02*
X5613539Y-17383484D01*
X5613539Y-17383484D02*
X5594491Y-17373960D01*
X5594491Y-17373960D02*
X5584967Y-17364436D01*
X5584967Y-17364436D02*
X5575444Y-17345389D01*
X5575444Y-17345389D02*
X5565920Y-17307293D01*
X5565920Y-17307293D02*
X5565920Y-17259674D01*
X5565920Y-17259674D02*
X5575444Y-17221579D01*
X5575444Y-17221579D02*
X5584967Y-17202531D01*
X5584967Y-17202531D02*
X5594491Y-17193008D01*
X5594491Y-17193008D02*
X5613539Y-17183484D01*
X5765920Y-17383484D02*
X5765920Y-17250150D01*
X5765920Y-17269198D02*
X5775443Y-17259674D01*
X5775443Y-17259674D02*
X5794491Y-17250150D01*
X5794491Y-17250150D02*
X5823063Y-17250150D01*
X5823063Y-17250150D02*
X5842110Y-17259674D01*
X5842110Y-17259674D02*
X5851634Y-17278722D01*
X5851634Y-17278722D02*
X5851634Y-17383484D01*
X5851634Y-17278722D02*
X5861158Y-17259674D01*
X5861158Y-17259674D02*
X5880205Y-17250150D01*
X5880205Y-17250150D02*
X5908777Y-17250150D01*
X5908777Y-17250150D02*
X5927824Y-17259674D01*
X5927824Y-17259674D02*
X5937348Y-17278722D01*
X5937348Y-17278722D02*
X5937348Y-17383484D01*
X6032586Y-17383484D02*
X6032586Y-17250150D01*
X6032586Y-17269198D02*
X6042110Y-17259674D01*
X6042110Y-17259674D02*
X6061158Y-17250150D01*
X6061158Y-17250150D02*
X6089729Y-17250150D01*
X6089729Y-17250150D02*
X6108777Y-17259674D01*
X6108777Y-17259674D02*
X6118301Y-17278722D01*
X6118301Y-17278722D02*
X6118301Y-17383484D01*
X6118301Y-17278722D02*
X6127824Y-17259674D01*
X6127824Y-17259674D02*
X6146872Y-17250150D01*
X6146872Y-17250150D02*
X6175443Y-17250150D01*
X6175443Y-17250150D02*
X6194491Y-17259674D01*
X6194491Y-17259674D02*
X6204015Y-17278722D01*
X6204015Y-17278722D02*
X6204015Y-17383484D01*
X6594491Y-17173960D02*
X6423063Y-17431103D01*
X6851634Y-17183484D02*
X6870682Y-17183484D01*
X6870682Y-17183484D02*
X6889729Y-17193008D01*
X6889729Y-17193008D02*
X6899253Y-17202531D01*
X6899253Y-17202531D02*
X6908777Y-17221579D01*
X6908777Y-17221579D02*
X6918301Y-17259674D01*
X6918301Y-17259674D02*
X6918301Y-17307293D01*
X6918301Y-17307293D02*
X6908777Y-17345389D01*
X6908777Y-17345389D02*
X6899253Y-17364436D01*
X6899253Y-17364436D02*
X6889729Y-17373960D01*
X6889729Y-17373960D02*
X6870682Y-17383484D01*
X6870682Y-17383484D02*
X6851634Y-17383484D01*
X6851634Y-17383484D02*
X6832586Y-17373960D01*
X6832586Y-17373960D02*
X6823063Y-17364436D01*
X6823063Y-17364436D02*
X6813539Y-17345389D01*
X6813539Y-17345389D02*
X6804015Y-17307293D01*
X6804015Y-17307293D02*
X6804015Y-17259674D01*
X6804015Y-17259674D02*
X6813539Y-17221579D01*
X6813539Y-17221579D02*
X6823063Y-17202531D01*
X6823063Y-17202531D02*
X6832586Y-17193008D01*
X6832586Y-17193008D02*
X6851634Y-17183484D01*
X7004015Y-17364436D02*
X7013539Y-17373960D01*
X7013539Y-17373960D02*
X7004015Y-17383484D01*
X7004015Y-17383484D02*
X6994491Y-17373960D01*
X6994491Y-17373960D02*
X7004015Y-17364436D01*
X7004015Y-17364436D02*
X7004015Y-17383484D01*
X7137348Y-17183484D02*
X7156396Y-17183484D01*
X7156396Y-17183484D02*
X7175444Y-17193008D01*
X7175444Y-17193008D02*
X7184967Y-17202531D01*
X7184967Y-17202531D02*
X7194491Y-17221579D01*
X7194491Y-17221579D02*
X7204015Y-17259674D01*
X7204015Y-17259674D02*
X7204015Y-17307293D01*
X7204015Y-17307293D02*
X7194491Y-17345389D01*
X7194491Y-17345389D02*
X7184967Y-17364436D01*
X7184967Y-17364436D02*
X7175444Y-17373960D01*
X7175444Y-17373960D02*
X7156396Y-17383484D01*
X7156396Y-17383484D02*
X7137348Y-17383484D01*
X7137348Y-17383484D02*
X7118301Y-17373960D01*
X7118301Y-17373960D02*
X7108777Y-17364436D01*
X7108777Y-17364436D02*
X7099253Y-17345389D01*
X7099253Y-17345389D02*
X7089729Y-17307293D01*
X7089729Y-17307293D02*
X7089729Y-17259674D01*
X7089729Y-17259674D02*
X7099253Y-17221579D01*
X7099253Y-17221579D02*
X7108777Y-17202531D01*
X7108777Y-17202531D02*
X7118301Y-17193008D01*
X7118301Y-17193008D02*
X7137348Y-17183484D01*
X7270682Y-17183484D02*
X7394491Y-17183484D01*
X7394491Y-17183484D02*
X7327825Y-17259674D01*
X7327825Y-17259674D02*
X7356396Y-17259674D01*
X7356396Y-17259674D02*
X7375444Y-17269198D01*
X7375444Y-17269198D02*
X7384967Y-17278722D01*
X7384967Y-17278722D02*
X7394491Y-17297770D01*
X7394491Y-17297770D02*
X7394491Y-17345389D01*
X7394491Y-17345389D02*
X7384967Y-17364436D01*
X7384967Y-17364436D02*
X7375444Y-17373960D01*
X7375444Y-17373960D02*
X7356396Y-17383484D01*
X7356396Y-17383484D02*
X7299253Y-17383484D01*
X7299253Y-17383484D02*
X7280206Y-17373960D01*
X7280206Y-17373960D02*
X7270682Y-17364436D01*
X7489729Y-17383484D02*
X7527825Y-17383484D01*
X7527825Y-17383484D02*
X7546872Y-17373960D01*
X7546872Y-17373960D02*
X7556396Y-17364436D01*
X7556396Y-17364436D02*
X7575444Y-17335865D01*
X7575444Y-17335865D02*
X7584967Y-17297770D01*
X7584967Y-17297770D02*
X7584967Y-17221579D01*
X7584967Y-17221579D02*
X7575444Y-17202531D01*
X7575444Y-17202531D02*
X7565920Y-17193008D01*
X7565920Y-17193008D02*
X7546872Y-17183484D01*
X7546872Y-17183484D02*
X7508777Y-17183484D01*
X7508777Y-17183484D02*
X7489729Y-17193008D01*
X7489729Y-17193008D02*
X7480206Y-17202531D01*
X7480206Y-17202531D02*
X7470682Y-17221579D01*
X7470682Y-17221579D02*
X7470682Y-17269198D01*
X7470682Y-17269198D02*
X7480206Y-17288246D01*
X7480206Y-17288246D02*
X7489729Y-17297770D01*
X7489729Y-17297770D02*
X7508777Y-17307293D01*
X7508777Y-17307293D02*
X7546872Y-17307293D01*
X7546872Y-17307293D02*
X7565920Y-17297770D01*
X7565920Y-17297770D02*
X7575444Y-17288246D01*
X7575444Y-17288246D02*
X7584967Y-17269198D01*
X7699253Y-17269198D02*
X7680206Y-17259674D01*
X7680206Y-17259674D02*
X7670682Y-17250150D01*
X7670682Y-17250150D02*
X7661158Y-17231103D01*
X7661158Y-17231103D02*
X7661158Y-17221579D01*
X7661158Y-17221579D02*
X7670682Y-17202531D01*
X7670682Y-17202531D02*
X7680206Y-17193008D01*
X7680206Y-17193008D02*
X7699253Y-17183484D01*
X7699253Y-17183484D02*
X7737348Y-17183484D01*
X7737348Y-17183484D02*
X7756396Y-17193008D01*
X7756396Y-17193008D02*
X7765920Y-17202531D01*
X7765920Y-17202531D02*
X7775444Y-17221579D01*
X7775444Y-17221579D02*
X7775444Y-17231103D01*
X7775444Y-17231103D02*
X7765920Y-17250150D01*
X7765920Y-17250150D02*
X7756396Y-17259674D01*
X7756396Y-17259674D02*
X7737348Y-17269198D01*
X7737348Y-17269198D02*
X7699253Y-17269198D01*
X7699253Y-17269198D02*
X7680206Y-17278722D01*
X7680206Y-17278722D02*
X7670682Y-17288246D01*
X7670682Y-17288246D02*
X7661158Y-17307293D01*
X7661158Y-17307293D02*
X7661158Y-17345389D01*
X7661158Y-17345389D02*
X7670682Y-17364436D01*
X7670682Y-17364436D02*
X7680206Y-17373960D01*
X7680206Y-17373960D02*
X7699253Y-17383484D01*
X7699253Y-17383484D02*
X7737348Y-17383484D01*
X7737348Y-17383484D02*
X7756396Y-17373960D01*
X7756396Y-17373960D02*
X7765920Y-17364436D01*
X7765920Y-17364436D02*
X7775444Y-17345389D01*
X7775444Y-17345389D02*
X7775444Y-17307293D01*
X7775444Y-17307293D02*
X7765920Y-17288246D01*
X7765920Y-17288246D02*
X7756396Y-17278722D01*
X7756396Y-17278722D02*
X7737348Y-17269198D01*
X7851634Y-17183484D02*
X7851634Y-17221579D01*
X7927825Y-17183484D02*
X7927825Y-17221579D01*
X8223063Y-17459674D02*
X8213539Y-17450150D01*
X8213539Y-17450150D02*
X8194491Y-17421579D01*
X8194491Y-17421579D02*
X8184968Y-17402531D01*
X8184968Y-17402531D02*
X8175444Y-17373960D01*
X8175444Y-17373960D02*
X8165920Y-17326341D01*
X8165920Y-17326341D02*
X8165920Y-17288246D01*
X8165920Y-17288246D02*
X8175444Y-17240627D01*
X8175444Y-17240627D02*
X8184968Y-17212055D01*
X8184968Y-17212055D02*
X8194491Y-17193008D01*
X8194491Y-17193008D02*
X8213539Y-17164436D01*
X8213539Y-17164436D02*
X8223063Y-17154912D01*
X8289729Y-17202531D02*
X8299253Y-17193008D01*
X8299253Y-17193008D02*
X8318301Y-17183484D01*
X8318301Y-17183484D02*
X8365920Y-17183484D01*
X8365920Y-17183484D02*
X8384968Y-17193008D01*
X8384968Y-17193008D02*
X8394491Y-17202531D01*
X8394491Y-17202531D02*
X8404015Y-17221579D01*
X8404015Y-17221579D02*
X8404015Y-17240627D01*
X8404015Y-17240627D02*
X8394491Y-17269198D01*
X8394491Y-17269198D02*
X8280206Y-17383484D01*
X8280206Y-17383484D02*
X8404015Y-17383484D01*
X8642111Y-17383484D02*
X8642111Y-17183484D01*
X8727825Y-17383484D02*
X8727825Y-17278722D01*
X8727825Y-17278722D02*
X8718301Y-17259674D01*
X8718301Y-17259674D02*
X8699253Y-17250150D01*
X8699253Y-17250150D02*
X8670682Y-17250150D01*
X8670682Y-17250150D02*
X8651634Y-17259674D01*
X8651634Y-17259674D02*
X8642111Y-17269198D01*
X8851634Y-17383484D02*
X8832587Y-17373960D01*
X8832587Y-17373960D02*
X8823063Y-17364436D01*
X8823063Y-17364436D02*
X8813539Y-17345389D01*
X8813539Y-17345389D02*
X8813539Y-17288246D01*
X8813539Y-17288246D02*
X8823063Y-17269198D01*
X8823063Y-17269198D02*
X8832587Y-17259674D01*
X8832587Y-17259674D02*
X8851634Y-17250150D01*
X8851634Y-17250150D02*
X8880206Y-17250150D01*
X8880206Y-17250150D02*
X8899253Y-17259674D01*
X8899253Y-17259674D02*
X8908777Y-17269198D01*
X8908777Y-17269198D02*
X8918301Y-17288246D01*
X8918301Y-17288246D02*
X8918301Y-17345389D01*
X8918301Y-17345389D02*
X8908777Y-17364436D01*
X8908777Y-17364436D02*
X8899253Y-17373960D01*
X8899253Y-17373960D02*
X8880206Y-17383484D01*
X8880206Y-17383484D02*
X8851634Y-17383484D01*
X9032587Y-17383484D02*
X9013539Y-17373960D01*
X9013539Y-17373960D02*
X9004015Y-17354912D01*
X9004015Y-17354912D02*
X9004015Y-17183484D01*
X9184968Y-17373960D02*
X9165920Y-17383484D01*
X9165920Y-17383484D02*
X9127825Y-17383484D01*
X9127825Y-17383484D02*
X9108777Y-17373960D01*
X9108777Y-17373960D02*
X9099253Y-17354912D01*
X9099253Y-17354912D02*
X9099253Y-17278722D01*
X9099253Y-17278722D02*
X9108777Y-17259674D01*
X9108777Y-17259674D02*
X9127825Y-17250150D01*
X9127825Y-17250150D02*
X9165920Y-17250150D01*
X9165920Y-17250150D02*
X9184968Y-17259674D01*
X9184968Y-17259674D02*
X9194492Y-17278722D01*
X9194492Y-17278722D02*
X9194492Y-17297770D01*
X9194492Y-17297770D02*
X9099253Y-17316817D01*
X9270682Y-17373960D02*
X9289730Y-17383484D01*
X9289730Y-17383484D02*
X9327825Y-17383484D01*
X9327825Y-17383484D02*
X9346873Y-17373960D01*
X9346873Y-17373960D02*
X9356396Y-17354912D01*
X9356396Y-17354912D02*
X9356396Y-17345389D01*
X9356396Y-17345389D02*
X9346873Y-17326341D01*
X9346873Y-17326341D02*
X9327825Y-17316817D01*
X9327825Y-17316817D02*
X9299253Y-17316817D01*
X9299253Y-17316817D02*
X9280206Y-17307293D01*
X9280206Y-17307293D02*
X9270682Y-17288246D01*
X9270682Y-17288246D02*
X9270682Y-17278722D01*
X9270682Y-17278722D02*
X9280206Y-17259674D01*
X9280206Y-17259674D02*
X9299253Y-17250150D01*
X9299253Y-17250150D02*
X9327825Y-17250150D01*
X9327825Y-17250150D02*
X9346873Y-17259674D01*
X9423063Y-17459674D02*
X9432587Y-17450150D01*
X9432587Y-17450150D02*
X9451634Y-17421579D01*
X9451634Y-17421579D02*
X9461158Y-17402531D01*
X9461158Y-17402531D02*
X9470682Y-17373960D01*
X9470682Y-17373960D02*
X9480206Y-17326341D01*
X9480206Y-17326341D02*
X9480206Y-17288246D01*
X9480206Y-17288246D02*
X9470682Y-17240627D01*
X9470682Y-17240627D02*
X9461158Y-17212055D01*
X9461158Y-17212055D02*
X9451634Y-17193008D01*
X9451634Y-17193008D02*
X9432587Y-17164436D01*
X9432587Y-17164436D02*
X9423063Y-17154912D01*
D18*
X4518000Y-17491000D02*
X4648000Y-17621000D01*
X4648000Y-17491000D02*
X4518000Y-17621000D01*
X4628962Y-17601962D02*
X4628962Y-17510038D01*
X4537038Y-17510038D01*
X4537038Y-17601962D01*
X4628962Y-17601962D01*
D11*
X5013539Y-17647484D02*
X4899253Y-17647484D01*
X4956396Y-17647484D02*
X4956396Y-17447484D01*
X4956396Y-17447484D02*
X4937348Y-17476055D01*
X4937348Y-17476055D02*
X4918301Y-17495103D01*
X4918301Y-17495103D02*
X4899253Y-17504627D01*
X5099253Y-17628436D02*
X5108777Y-17637960D01*
X5108777Y-17637960D02*
X5099253Y-17647484D01*
X5099253Y-17647484D02*
X5089729Y-17637960D01*
X5089729Y-17637960D02*
X5099253Y-17628436D01*
X5099253Y-17628436D02*
X5099253Y-17647484D01*
X5175444Y-17447484D02*
X5299253Y-17447484D01*
X5299253Y-17447484D02*
X5232586Y-17523674D01*
X5232586Y-17523674D02*
X5261158Y-17523674D01*
X5261158Y-17523674D02*
X5280205Y-17533198D01*
X5280205Y-17533198D02*
X5289729Y-17542722D01*
X5289729Y-17542722D02*
X5299253Y-17561770D01*
X5299253Y-17561770D02*
X5299253Y-17609389D01*
X5299253Y-17609389D02*
X5289729Y-17628436D01*
X5289729Y-17628436D02*
X5280205Y-17637960D01*
X5280205Y-17637960D02*
X5261158Y-17647484D01*
X5261158Y-17647484D02*
X5204015Y-17647484D01*
X5204015Y-17647484D02*
X5184967Y-17637960D01*
X5184967Y-17637960D02*
X5175444Y-17628436D01*
X5423063Y-17447484D02*
X5442110Y-17447484D01*
X5442110Y-17447484D02*
X5461158Y-17457008D01*
X5461158Y-17457008D02*
X5470682Y-17466531D01*
X5470682Y-17466531D02*
X5480205Y-17485579D01*
X5480205Y-17485579D02*
X5489729Y-17523674D01*
X5489729Y-17523674D02*
X5489729Y-17571293D01*
X5489729Y-17571293D02*
X5480205Y-17609389D01*
X5480205Y-17609389D02*
X5470682Y-17628436D01*
X5470682Y-17628436D02*
X5461158Y-17637960D01*
X5461158Y-17637960D02*
X5442110Y-17647484D01*
X5442110Y-17647484D02*
X5423063Y-17647484D01*
X5423063Y-17647484D02*
X5404015Y-17637960D01*
X5404015Y-17637960D02*
X5394491Y-17628436D01*
X5394491Y-17628436D02*
X5384967Y-17609389D01*
X5384967Y-17609389D02*
X5375444Y-17571293D01*
X5375444Y-17571293D02*
X5375444Y-17523674D01*
X5375444Y-17523674D02*
X5384967Y-17485579D01*
X5384967Y-17485579D02*
X5394491Y-17466531D01*
X5394491Y-17466531D02*
X5404015Y-17457008D01*
X5404015Y-17457008D02*
X5423063Y-17447484D01*
X5613539Y-17447484D02*
X5632586Y-17447484D01*
X5632586Y-17447484D02*
X5651634Y-17457008D01*
X5651634Y-17457008D02*
X5661158Y-17466531D01*
X5661158Y-17466531D02*
X5670682Y-17485579D01*
X5670682Y-17485579D02*
X5680205Y-17523674D01*
X5680205Y-17523674D02*
X5680205Y-17571293D01*
X5680205Y-17571293D02*
X5670682Y-17609389D01*
X5670682Y-17609389D02*
X5661158Y-17628436D01*
X5661158Y-17628436D02*
X5651634Y-17637960D01*
X5651634Y-17637960D02*
X5632586Y-17647484D01*
X5632586Y-17647484D02*
X5613539Y-17647484D01*
X5613539Y-17647484D02*
X5594491Y-17637960D01*
X5594491Y-17637960D02*
X5584967Y-17628436D01*
X5584967Y-17628436D02*
X5575444Y-17609389D01*
X5575444Y-17609389D02*
X5565920Y-17571293D01*
X5565920Y-17571293D02*
X5565920Y-17523674D01*
X5565920Y-17523674D02*
X5575444Y-17485579D01*
X5575444Y-17485579D02*
X5584967Y-17466531D01*
X5584967Y-17466531D02*
X5594491Y-17457008D01*
X5594491Y-17457008D02*
X5613539Y-17447484D01*
X5765920Y-17647484D02*
X5765920Y-17514150D01*
X5765920Y-17533198D02*
X5775443Y-17523674D01*
X5775443Y-17523674D02*
X5794491Y-17514150D01*
X5794491Y-17514150D02*
X5823063Y-17514150D01*
X5823063Y-17514150D02*
X5842110Y-17523674D01*
X5842110Y-17523674D02*
X5851634Y-17542722D01*
X5851634Y-17542722D02*
X5851634Y-17647484D01*
X5851634Y-17542722D02*
X5861158Y-17523674D01*
X5861158Y-17523674D02*
X5880205Y-17514150D01*
X5880205Y-17514150D02*
X5908777Y-17514150D01*
X5908777Y-17514150D02*
X5927824Y-17523674D01*
X5927824Y-17523674D02*
X5937348Y-17542722D01*
X5937348Y-17542722D02*
X5937348Y-17647484D01*
X6032586Y-17647484D02*
X6032586Y-17514150D01*
X6032586Y-17533198D02*
X6042110Y-17523674D01*
X6042110Y-17523674D02*
X6061158Y-17514150D01*
X6061158Y-17514150D02*
X6089729Y-17514150D01*
X6089729Y-17514150D02*
X6108777Y-17523674D01*
X6108777Y-17523674D02*
X6118301Y-17542722D01*
X6118301Y-17542722D02*
X6118301Y-17647484D01*
X6118301Y-17542722D02*
X6127824Y-17523674D01*
X6127824Y-17523674D02*
X6146872Y-17514150D01*
X6146872Y-17514150D02*
X6175443Y-17514150D01*
X6175443Y-17514150D02*
X6194491Y-17523674D01*
X6194491Y-17523674D02*
X6204015Y-17542722D01*
X6204015Y-17542722D02*
X6204015Y-17647484D01*
X6594491Y-17437960D02*
X6423063Y-17695103D01*
X6851634Y-17447484D02*
X6870682Y-17447484D01*
X6870682Y-17447484D02*
X6889729Y-17457008D01*
X6889729Y-17457008D02*
X6899253Y-17466531D01*
X6899253Y-17466531D02*
X6908777Y-17485579D01*
X6908777Y-17485579D02*
X6918301Y-17523674D01*
X6918301Y-17523674D02*
X6918301Y-17571293D01*
X6918301Y-17571293D02*
X6908777Y-17609389D01*
X6908777Y-17609389D02*
X6899253Y-17628436D01*
X6899253Y-17628436D02*
X6889729Y-17637960D01*
X6889729Y-17637960D02*
X6870682Y-17647484D01*
X6870682Y-17647484D02*
X6851634Y-17647484D01*
X6851634Y-17647484D02*
X6832586Y-17637960D01*
X6832586Y-17637960D02*
X6823063Y-17628436D01*
X6823063Y-17628436D02*
X6813539Y-17609389D01*
X6813539Y-17609389D02*
X6804015Y-17571293D01*
X6804015Y-17571293D02*
X6804015Y-17523674D01*
X6804015Y-17523674D02*
X6813539Y-17485579D01*
X6813539Y-17485579D02*
X6823063Y-17466531D01*
X6823063Y-17466531D02*
X6832586Y-17457008D01*
X6832586Y-17457008D02*
X6851634Y-17447484D01*
X7004015Y-17628436D02*
X7013539Y-17637960D01*
X7013539Y-17637960D02*
X7004015Y-17647484D01*
X7004015Y-17647484D02*
X6994491Y-17637960D01*
X6994491Y-17637960D02*
X7004015Y-17628436D01*
X7004015Y-17628436D02*
X7004015Y-17647484D01*
X7137348Y-17447484D02*
X7156396Y-17447484D01*
X7156396Y-17447484D02*
X7175444Y-17457008D01*
X7175444Y-17457008D02*
X7184967Y-17466531D01*
X7184967Y-17466531D02*
X7194491Y-17485579D01*
X7194491Y-17485579D02*
X7204015Y-17523674D01*
X7204015Y-17523674D02*
X7204015Y-17571293D01*
X7204015Y-17571293D02*
X7194491Y-17609389D01*
X7194491Y-17609389D02*
X7184967Y-17628436D01*
X7184967Y-17628436D02*
X7175444Y-17637960D01*
X7175444Y-17637960D02*
X7156396Y-17647484D01*
X7156396Y-17647484D02*
X7137348Y-17647484D01*
X7137348Y-17647484D02*
X7118301Y-17637960D01*
X7118301Y-17637960D02*
X7108777Y-17628436D01*
X7108777Y-17628436D02*
X7099253Y-17609389D01*
X7099253Y-17609389D02*
X7089729Y-17571293D01*
X7089729Y-17571293D02*
X7089729Y-17523674D01*
X7089729Y-17523674D02*
X7099253Y-17485579D01*
X7099253Y-17485579D02*
X7108777Y-17466531D01*
X7108777Y-17466531D02*
X7118301Y-17457008D01*
X7118301Y-17457008D02*
X7137348Y-17447484D01*
X7384967Y-17447484D02*
X7289729Y-17447484D01*
X7289729Y-17447484D02*
X7280206Y-17542722D01*
X7280206Y-17542722D02*
X7289729Y-17533198D01*
X7289729Y-17533198D02*
X7308777Y-17523674D01*
X7308777Y-17523674D02*
X7356396Y-17523674D01*
X7356396Y-17523674D02*
X7375444Y-17533198D01*
X7375444Y-17533198D02*
X7384967Y-17542722D01*
X7384967Y-17542722D02*
X7394491Y-17561770D01*
X7394491Y-17561770D02*
X7394491Y-17609389D01*
X7394491Y-17609389D02*
X7384967Y-17628436D01*
X7384967Y-17628436D02*
X7375444Y-17637960D01*
X7375444Y-17637960D02*
X7356396Y-17647484D01*
X7356396Y-17647484D02*
X7308777Y-17647484D01*
X7308777Y-17647484D02*
X7289729Y-17637960D01*
X7289729Y-17637960D02*
X7280206Y-17628436D01*
X7584967Y-17647484D02*
X7470682Y-17647484D01*
X7527825Y-17647484D02*
X7527825Y-17447484D01*
X7527825Y-17447484D02*
X7508777Y-17476055D01*
X7508777Y-17476055D02*
X7489729Y-17495103D01*
X7489729Y-17495103D02*
X7470682Y-17504627D01*
X7661158Y-17466531D02*
X7670682Y-17457008D01*
X7670682Y-17457008D02*
X7689729Y-17447484D01*
X7689729Y-17447484D02*
X7737348Y-17447484D01*
X7737348Y-17447484D02*
X7756396Y-17457008D01*
X7756396Y-17457008D02*
X7765920Y-17466531D01*
X7765920Y-17466531D02*
X7775444Y-17485579D01*
X7775444Y-17485579D02*
X7775444Y-17504627D01*
X7775444Y-17504627D02*
X7765920Y-17533198D01*
X7765920Y-17533198D02*
X7651634Y-17647484D01*
X7651634Y-17647484D02*
X7775444Y-17647484D01*
X7851634Y-17447484D02*
X7851634Y-17485579D01*
X7927825Y-17447484D02*
X7927825Y-17485579D01*
X8223063Y-17723674D02*
X8213539Y-17714150D01*
X8213539Y-17714150D02*
X8194491Y-17685579D01*
X8194491Y-17685579D02*
X8184968Y-17666531D01*
X8184968Y-17666531D02*
X8175444Y-17637960D01*
X8175444Y-17637960D02*
X8165920Y-17590341D01*
X8165920Y-17590341D02*
X8165920Y-17552246D01*
X8165920Y-17552246D02*
X8175444Y-17504627D01*
X8175444Y-17504627D02*
X8184968Y-17476055D01*
X8184968Y-17476055D02*
X8194491Y-17457008D01*
X8194491Y-17457008D02*
X8213539Y-17428436D01*
X8213539Y-17428436D02*
X8223063Y-17418912D01*
X8384968Y-17447484D02*
X8346872Y-17447484D01*
X8346872Y-17447484D02*
X8327825Y-17457008D01*
X8327825Y-17457008D02*
X8318301Y-17466531D01*
X8318301Y-17466531D02*
X8299253Y-17495103D01*
X8299253Y-17495103D02*
X8289729Y-17533198D01*
X8289729Y-17533198D02*
X8289729Y-17609389D01*
X8289729Y-17609389D02*
X8299253Y-17628436D01*
X8299253Y-17628436D02*
X8308777Y-17637960D01*
X8308777Y-17637960D02*
X8327825Y-17647484D01*
X8327825Y-17647484D02*
X8365920Y-17647484D01*
X8365920Y-17647484D02*
X8384968Y-17637960D01*
X8384968Y-17637960D02*
X8394491Y-17628436D01*
X8394491Y-17628436D02*
X8404015Y-17609389D01*
X8404015Y-17609389D02*
X8404015Y-17561770D01*
X8404015Y-17561770D02*
X8394491Y-17542722D01*
X8394491Y-17542722D02*
X8384968Y-17533198D01*
X8384968Y-17533198D02*
X8365920Y-17523674D01*
X8365920Y-17523674D02*
X8327825Y-17523674D01*
X8327825Y-17523674D02*
X8308777Y-17533198D01*
X8308777Y-17533198D02*
X8299253Y-17542722D01*
X8299253Y-17542722D02*
X8289729Y-17561770D01*
X8642111Y-17647484D02*
X8642111Y-17447484D01*
X8727825Y-17647484D02*
X8727825Y-17542722D01*
X8727825Y-17542722D02*
X8718301Y-17523674D01*
X8718301Y-17523674D02*
X8699253Y-17514150D01*
X8699253Y-17514150D02*
X8670682Y-17514150D01*
X8670682Y-17514150D02*
X8651634Y-17523674D01*
X8651634Y-17523674D02*
X8642111Y-17533198D01*
X8851634Y-17647484D02*
X8832587Y-17637960D01*
X8832587Y-17637960D02*
X8823063Y-17628436D01*
X8823063Y-17628436D02*
X8813539Y-17609389D01*
X8813539Y-17609389D02*
X8813539Y-17552246D01*
X8813539Y-17552246D02*
X8823063Y-17533198D01*
X8823063Y-17533198D02*
X8832587Y-17523674D01*
X8832587Y-17523674D02*
X8851634Y-17514150D01*
X8851634Y-17514150D02*
X8880206Y-17514150D01*
X8880206Y-17514150D02*
X8899253Y-17523674D01*
X8899253Y-17523674D02*
X8908777Y-17533198D01*
X8908777Y-17533198D02*
X8918301Y-17552246D01*
X8918301Y-17552246D02*
X8918301Y-17609389D01*
X8918301Y-17609389D02*
X8908777Y-17628436D01*
X8908777Y-17628436D02*
X8899253Y-17637960D01*
X8899253Y-17637960D02*
X8880206Y-17647484D01*
X8880206Y-17647484D02*
X8851634Y-17647484D01*
X9032587Y-17647484D02*
X9013539Y-17637960D01*
X9013539Y-17637960D02*
X9004015Y-17618912D01*
X9004015Y-17618912D02*
X9004015Y-17447484D01*
X9184968Y-17637960D02*
X9165920Y-17647484D01*
X9165920Y-17647484D02*
X9127825Y-17647484D01*
X9127825Y-17647484D02*
X9108777Y-17637960D01*
X9108777Y-17637960D02*
X9099253Y-17618912D01*
X9099253Y-17618912D02*
X9099253Y-17542722D01*
X9099253Y-17542722D02*
X9108777Y-17523674D01*
X9108777Y-17523674D02*
X9127825Y-17514150D01*
X9127825Y-17514150D02*
X9165920Y-17514150D01*
X9165920Y-17514150D02*
X9184968Y-17523674D01*
X9184968Y-17523674D02*
X9194492Y-17542722D01*
X9194492Y-17542722D02*
X9194492Y-17561770D01*
X9194492Y-17561770D02*
X9099253Y-17580817D01*
X9270682Y-17637960D02*
X9289730Y-17647484D01*
X9289730Y-17647484D02*
X9327825Y-17647484D01*
X9327825Y-17647484D02*
X9346873Y-17637960D01*
X9346873Y-17637960D02*
X9356396Y-17618912D01*
X9356396Y-17618912D02*
X9356396Y-17609389D01*
X9356396Y-17609389D02*
X9346873Y-17590341D01*
X9346873Y-17590341D02*
X9327825Y-17580817D01*
X9327825Y-17580817D02*
X9299253Y-17580817D01*
X9299253Y-17580817D02*
X9280206Y-17571293D01*
X9280206Y-17571293D02*
X9270682Y-17552246D01*
X9270682Y-17552246D02*
X9270682Y-17542722D01*
X9270682Y-17542722D02*
X9280206Y-17523674D01*
X9280206Y-17523674D02*
X9299253Y-17514150D01*
X9299253Y-17514150D02*
X9327825Y-17514150D01*
X9327825Y-17514150D02*
X9346873Y-17523674D01*
X9423063Y-17723674D02*
X9432587Y-17714150D01*
X9432587Y-17714150D02*
X9451634Y-17685579D01*
X9451634Y-17685579D02*
X9461158Y-17666531D01*
X9461158Y-17666531D02*
X9470682Y-17637960D01*
X9470682Y-17637960D02*
X9480206Y-17590341D01*
X9480206Y-17590341D02*
X9480206Y-17552246D01*
X9480206Y-17552246D02*
X9470682Y-17504627D01*
X9470682Y-17504627D02*
X9461158Y-17476055D01*
X9461158Y-17476055D02*
X9451634Y-17457008D01*
X9451634Y-17457008D02*
X9432587Y-17428436D01*
X9432587Y-17428436D02*
X9423063Y-17418912D01*
D19*
X4465120Y-17728560D02*
X4648000Y-17911440D01*
X4648000Y-17728560D02*
X4465120Y-17911440D01*
X4556560Y-17911440D02*
X4648000Y-17820000D01*
X4556560Y-17728560D01*
X4465120Y-17820000D01*
X4556560Y-17911440D01*
D11*
X5013539Y-17911484D02*
X4899253Y-17911484D01*
X4956396Y-17911484D02*
X4956396Y-17711484D01*
X4956396Y-17711484D02*
X4937348Y-17740055D01*
X4937348Y-17740055D02*
X4918301Y-17759103D01*
X4918301Y-17759103D02*
X4899253Y-17768627D01*
X5099253Y-17892436D02*
X5108777Y-17901960D01*
X5108777Y-17901960D02*
X5099253Y-17911484D01*
X5099253Y-17911484D02*
X5089729Y-17901960D01*
X5089729Y-17901960D02*
X5099253Y-17892436D01*
X5099253Y-17892436D02*
X5099253Y-17911484D01*
X5223063Y-17797198D02*
X5204015Y-17787674D01*
X5204015Y-17787674D02*
X5194491Y-17778150D01*
X5194491Y-17778150D02*
X5184967Y-17759103D01*
X5184967Y-17759103D02*
X5184967Y-17749579D01*
X5184967Y-17749579D02*
X5194491Y-17730531D01*
X5194491Y-17730531D02*
X5204015Y-17721008D01*
X5204015Y-17721008D02*
X5223063Y-17711484D01*
X5223063Y-17711484D02*
X5261158Y-17711484D01*
X5261158Y-17711484D02*
X5280205Y-17721008D01*
X5280205Y-17721008D02*
X5289729Y-17730531D01*
X5289729Y-17730531D02*
X5299253Y-17749579D01*
X5299253Y-17749579D02*
X5299253Y-17759103D01*
X5299253Y-17759103D02*
X5289729Y-17778150D01*
X5289729Y-17778150D02*
X5280205Y-17787674D01*
X5280205Y-17787674D02*
X5261158Y-17797198D01*
X5261158Y-17797198D02*
X5223063Y-17797198D01*
X5223063Y-17797198D02*
X5204015Y-17806722D01*
X5204015Y-17806722D02*
X5194491Y-17816246D01*
X5194491Y-17816246D02*
X5184967Y-17835293D01*
X5184967Y-17835293D02*
X5184967Y-17873389D01*
X5184967Y-17873389D02*
X5194491Y-17892436D01*
X5194491Y-17892436D02*
X5204015Y-17901960D01*
X5204015Y-17901960D02*
X5223063Y-17911484D01*
X5223063Y-17911484D02*
X5261158Y-17911484D01*
X5261158Y-17911484D02*
X5280205Y-17901960D01*
X5280205Y-17901960D02*
X5289729Y-17892436D01*
X5289729Y-17892436D02*
X5299253Y-17873389D01*
X5299253Y-17873389D02*
X5299253Y-17835293D01*
X5299253Y-17835293D02*
X5289729Y-17816246D01*
X5289729Y-17816246D02*
X5280205Y-17806722D01*
X5280205Y-17806722D02*
X5261158Y-17797198D01*
X5375444Y-17730531D02*
X5384967Y-17721008D01*
X5384967Y-17721008D02*
X5404015Y-17711484D01*
X5404015Y-17711484D02*
X5451634Y-17711484D01*
X5451634Y-17711484D02*
X5470682Y-17721008D01*
X5470682Y-17721008D02*
X5480205Y-17730531D01*
X5480205Y-17730531D02*
X5489729Y-17749579D01*
X5489729Y-17749579D02*
X5489729Y-17768627D01*
X5489729Y-17768627D02*
X5480205Y-17797198D01*
X5480205Y-17797198D02*
X5365920Y-17911484D01*
X5365920Y-17911484D02*
X5489729Y-17911484D01*
X5584967Y-17911484D02*
X5623062Y-17911484D01*
X5623062Y-17911484D02*
X5642110Y-17901960D01*
X5642110Y-17901960D02*
X5651634Y-17892436D01*
X5651634Y-17892436D02*
X5670682Y-17863865D01*
X5670682Y-17863865D02*
X5680205Y-17825770D01*
X5680205Y-17825770D02*
X5680205Y-17749579D01*
X5680205Y-17749579D02*
X5670682Y-17730531D01*
X5670682Y-17730531D02*
X5661158Y-17721008D01*
X5661158Y-17721008D02*
X5642110Y-17711484D01*
X5642110Y-17711484D02*
X5604015Y-17711484D01*
X5604015Y-17711484D02*
X5584967Y-17721008D01*
X5584967Y-17721008D02*
X5575444Y-17730531D01*
X5575444Y-17730531D02*
X5565920Y-17749579D01*
X5565920Y-17749579D02*
X5565920Y-17797198D01*
X5565920Y-17797198D02*
X5575444Y-17816246D01*
X5575444Y-17816246D02*
X5584967Y-17825770D01*
X5584967Y-17825770D02*
X5604015Y-17835293D01*
X5604015Y-17835293D02*
X5642110Y-17835293D01*
X5642110Y-17835293D02*
X5661158Y-17825770D01*
X5661158Y-17825770D02*
X5670682Y-17816246D01*
X5670682Y-17816246D02*
X5680205Y-17797198D01*
X5765920Y-17911484D02*
X5765920Y-17778150D01*
X5765920Y-17797198D02*
X5775443Y-17787674D01*
X5775443Y-17787674D02*
X5794491Y-17778150D01*
X5794491Y-17778150D02*
X5823063Y-17778150D01*
X5823063Y-17778150D02*
X5842110Y-17787674D01*
X5842110Y-17787674D02*
X5851634Y-17806722D01*
X5851634Y-17806722D02*
X5851634Y-17911484D01*
X5851634Y-17806722D02*
X5861158Y-17787674D01*
X5861158Y-17787674D02*
X5880205Y-17778150D01*
X5880205Y-17778150D02*
X5908777Y-17778150D01*
X5908777Y-17778150D02*
X5927824Y-17787674D01*
X5927824Y-17787674D02*
X5937348Y-17806722D01*
X5937348Y-17806722D02*
X5937348Y-17911484D01*
X6032586Y-17911484D02*
X6032586Y-17778150D01*
X6032586Y-17797198D02*
X6042110Y-17787674D01*
X6042110Y-17787674D02*
X6061158Y-17778150D01*
X6061158Y-17778150D02*
X6089729Y-17778150D01*
X6089729Y-17778150D02*
X6108777Y-17787674D01*
X6108777Y-17787674D02*
X6118301Y-17806722D01*
X6118301Y-17806722D02*
X6118301Y-17911484D01*
X6118301Y-17806722D02*
X6127824Y-17787674D01*
X6127824Y-17787674D02*
X6146872Y-17778150D01*
X6146872Y-17778150D02*
X6175443Y-17778150D01*
X6175443Y-17778150D02*
X6194491Y-17787674D01*
X6194491Y-17787674D02*
X6204015Y-17806722D01*
X6204015Y-17806722D02*
X6204015Y-17911484D01*
X6594491Y-17701960D02*
X6423063Y-17959103D01*
X6851634Y-17711484D02*
X6870682Y-17711484D01*
X6870682Y-17711484D02*
X6889729Y-17721008D01*
X6889729Y-17721008D02*
X6899253Y-17730531D01*
X6899253Y-17730531D02*
X6908777Y-17749579D01*
X6908777Y-17749579D02*
X6918301Y-17787674D01*
X6918301Y-17787674D02*
X6918301Y-17835293D01*
X6918301Y-17835293D02*
X6908777Y-17873389D01*
X6908777Y-17873389D02*
X6899253Y-17892436D01*
X6899253Y-17892436D02*
X6889729Y-17901960D01*
X6889729Y-17901960D02*
X6870682Y-17911484D01*
X6870682Y-17911484D02*
X6851634Y-17911484D01*
X6851634Y-17911484D02*
X6832586Y-17901960D01*
X6832586Y-17901960D02*
X6823063Y-17892436D01*
X6823063Y-17892436D02*
X6813539Y-17873389D01*
X6813539Y-17873389D02*
X6804015Y-17835293D01*
X6804015Y-17835293D02*
X6804015Y-17787674D01*
X6804015Y-17787674D02*
X6813539Y-17749579D01*
X6813539Y-17749579D02*
X6823063Y-17730531D01*
X6823063Y-17730531D02*
X6832586Y-17721008D01*
X6832586Y-17721008D02*
X6851634Y-17711484D01*
X7004015Y-17892436D02*
X7013539Y-17901960D01*
X7013539Y-17901960D02*
X7004015Y-17911484D01*
X7004015Y-17911484D02*
X6994491Y-17901960D01*
X6994491Y-17901960D02*
X7004015Y-17892436D01*
X7004015Y-17892436D02*
X7004015Y-17911484D01*
X7137348Y-17711484D02*
X7156396Y-17711484D01*
X7156396Y-17711484D02*
X7175444Y-17721008D01*
X7175444Y-17721008D02*
X7184967Y-17730531D01*
X7184967Y-17730531D02*
X7194491Y-17749579D01*
X7194491Y-17749579D02*
X7204015Y-17787674D01*
X7204015Y-17787674D02*
X7204015Y-17835293D01*
X7204015Y-17835293D02*
X7194491Y-17873389D01*
X7194491Y-17873389D02*
X7184967Y-17892436D01*
X7184967Y-17892436D02*
X7175444Y-17901960D01*
X7175444Y-17901960D02*
X7156396Y-17911484D01*
X7156396Y-17911484D02*
X7137348Y-17911484D01*
X7137348Y-17911484D02*
X7118301Y-17901960D01*
X7118301Y-17901960D02*
X7108777Y-17892436D01*
X7108777Y-17892436D02*
X7099253Y-17873389D01*
X7099253Y-17873389D02*
X7089729Y-17835293D01*
X7089729Y-17835293D02*
X7089729Y-17787674D01*
X7089729Y-17787674D02*
X7099253Y-17749579D01*
X7099253Y-17749579D02*
X7108777Y-17730531D01*
X7108777Y-17730531D02*
X7118301Y-17721008D01*
X7118301Y-17721008D02*
X7137348Y-17711484D01*
X7270682Y-17711484D02*
X7404015Y-17711484D01*
X7404015Y-17711484D02*
X7318301Y-17911484D01*
X7470682Y-17730531D02*
X7480206Y-17721008D01*
X7480206Y-17721008D02*
X7499253Y-17711484D01*
X7499253Y-17711484D02*
X7546872Y-17711484D01*
X7546872Y-17711484D02*
X7565920Y-17721008D01*
X7565920Y-17721008D02*
X7575444Y-17730531D01*
X7575444Y-17730531D02*
X7584967Y-17749579D01*
X7584967Y-17749579D02*
X7584967Y-17768627D01*
X7584967Y-17768627D02*
X7575444Y-17797198D01*
X7575444Y-17797198D02*
X7461158Y-17911484D01*
X7461158Y-17911484D02*
X7584967Y-17911484D01*
X7708777Y-17711484D02*
X7727825Y-17711484D01*
X7727825Y-17711484D02*
X7746872Y-17721008D01*
X7746872Y-17721008D02*
X7756396Y-17730531D01*
X7756396Y-17730531D02*
X7765920Y-17749579D01*
X7765920Y-17749579D02*
X7775444Y-17787674D01*
X7775444Y-17787674D02*
X7775444Y-17835293D01*
X7775444Y-17835293D02*
X7765920Y-17873389D01*
X7765920Y-17873389D02*
X7756396Y-17892436D01*
X7756396Y-17892436D02*
X7746872Y-17901960D01*
X7746872Y-17901960D02*
X7727825Y-17911484D01*
X7727825Y-17911484D02*
X7708777Y-17911484D01*
X7708777Y-17911484D02*
X7689729Y-17901960D01*
X7689729Y-17901960D02*
X7680206Y-17892436D01*
X7680206Y-17892436D02*
X7670682Y-17873389D01*
X7670682Y-17873389D02*
X7661158Y-17835293D01*
X7661158Y-17835293D02*
X7661158Y-17787674D01*
X7661158Y-17787674D02*
X7670682Y-17749579D01*
X7670682Y-17749579D02*
X7680206Y-17730531D01*
X7680206Y-17730531D02*
X7689729Y-17721008D01*
X7689729Y-17721008D02*
X7708777Y-17711484D01*
X7851634Y-17711484D02*
X7851634Y-17749579D01*
X7927825Y-17711484D02*
X7927825Y-17749579D01*
X8223063Y-17987674D02*
X8213539Y-17978150D01*
X8213539Y-17978150D02*
X8194491Y-17949579D01*
X8194491Y-17949579D02*
X8184968Y-17930531D01*
X8184968Y-17930531D02*
X8175444Y-17901960D01*
X8175444Y-17901960D02*
X8165920Y-17854341D01*
X8165920Y-17854341D02*
X8165920Y-17816246D01*
X8165920Y-17816246D02*
X8175444Y-17768627D01*
X8175444Y-17768627D02*
X8184968Y-17740055D01*
X8184968Y-17740055D02*
X8194491Y-17721008D01*
X8194491Y-17721008D02*
X8213539Y-17692436D01*
X8213539Y-17692436D02*
X8223063Y-17682912D01*
X8384968Y-17778150D02*
X8384968Y-17911484D01*
X8337348Y-17701960D02*
X8289729Y-17844817D01*
X8289729Y-17844817D02*
X8413539Y-17844817D01*
X8642111Y-17911484D02*
X8642111Y-17711484D01*
X8727825Y-17911484D02*
X8727825Y-17806722D01*
X8727825Y-17806722D02*
X8718301Y-17787674D01*
X8718301Y-17787674D02*
X8699253Y-17778150D01*
X8699253Y-17778150D02*
X8670682Y-17778150D01*
X8670682Y-17778150D02*
X8651634Y-17787674D01*
X8651634Y-17787674D02*
X8642111Y-17797198D01*
X8851634Y-17911484D02*
X8832587Y-17901960D01*
X8832587Y-17901960D02*
X8823063Y-17892436D01*
X8823063Y-17892436D02*
X8813539Y-17873389D01*
X8813539Y-17873389D02*
X8813539Y-17816246D01*
X8813539Y-17816246D02*
X8823063Y-17797198D01*
X8823063Y-17797198D02*
X8832587Y-17787674D01*
X8832587Y-17787674D02*
X8851634Y-17778150D01*
X8851634Y-17778150D02*
X8880206Y-17778150D01*
X8880206Y-17778150D02*
X8899253Y-17787674D01*
X8899253Y-17787674D02*
X8908777Y-17797198D01*
X8908777Y-17797198D02*
X8918301Y-17816246D01*
X8918301Y-17816246D02*
X8918301Y-17873389D01*
X8918301Y-17873389D02*
X8908777Y-17892436D01*
X8908777Y-17892436D02*
X8899253Y-17901960D01*
X8899253Y-17901960D02*
X8880206Y-17911484D01*
X8880206Y-17911484D02*
X8851634Y-17911484D01*
X9032587Y-17911484D02*
X9013539Y-17901960D01*
X9013539Y-17901960D02*
X9004015Y-17882912D01*
X9004015Y-17882912D02*
X9004015Y-17711484D01*
X9184968Y-17901960D02*
X9165920Y-17911484D01*
X9165920Y-17911484D02*
X9127825Y-17911484D01*
X9127825Y-17911484D02*
X9108777Y-17901960D01*
X9108777Y-17901960D02*
X9099253Y-17882912D01*
X9099253Y-17882912D02*
X9099253Y-17806722D01*
X9099253Y-17806722D02*
X9108777Y-17787674D01*
X9108777Y-17787674D02*
X9127825Y-17778150D01*
X9127825Y-17778150D02*
X9165920Y-17778150D01*
X9165920Y-17778150D02*
X9184968Y-17787674D01*
X9184968Y-17787674D02*
X9194492Y-17806722D01*
X9194492Y-17806722D02*
X9194492Y-17825770D01*
X9194492Y-17825770D02*
X9099253Y-17844817D01*
X9270682Y-17901960D02*
X9289730Y-17911484D01*
X9289730Y-17911484D02*
X9327825Y-17911484D01*
X9327825Y-17911484D02*
X9346873Y-17901960D01*
X9346873Y-17901960D02*
X9356396Y-17882912D01*
X9356396Y-17882912D02*
X9356396Y-17873389D01*
X9356396Y-17873389D02*
X9346873Y-17854341D01*
X9346873Y-17854341D02*
X9327825Y-17844817D01*
X9327825Y-17844817D02*
X9299253Y-17844817D01*
X9299253Y-17844817D02*
X9280206Y-17835293D01*
X9280206Y-17835293D02*
X9270682Y-17816246D01*
X9270682Y-17816246D02*
X9270682Y-17806722D01*
X9270682Y-17806722D02*
X9280206Y-17787674D01*
X9280206Y-17787674D02*
X9299253Y-17778150D01*
X9299253Y-17778150D02*
X9327825Y-17778150D01*
X9327825Y-17778150D02*
X9346873Y-17787674D01*
X9423063Y-17987674D02*
X9432587Y-17978150D01*
X9432587Y-17978150D02*
X9451634Y-17949579D01*
X9451634Y-17949579D02*
X9461158Y-17930531D01*
X9461158Y-17930531D02*
X9470682Y-17901960D01*
X9470682Y-17901960D02*
X9480206Y-17854341D01*
X9480206Y-17854341D02*
X9480206Y-17816246D01*
X9480206Y-17816246D02*
X9470682Y-17768627D01*
X9470682Y-17768627D02*
X9461158Y-17740055D01*
X9461158Y-17740055D02*
X9451634Y-17721008D01*
X9451634Y-17721008D02*
X9432587Y-17692436D01*
X9432587Y-17692436D02*
X9423063Y-17682912D01*
X4548000Y-18022880D02*
X4548000Y-18222880D01*
X4448000Y-18122880D02*
X4648000Y-18122880D01*
X4648000Y-18122880D02*
G75*
G03*
X4648000Y-18122880I-100000J0D01*
G01*
X4899253Y-18033411D02*
X4908777Y-18023888D01*
X4908777Y-18023888D02*
X4927824Y-18014364D01*
X4927824Y-18014364D02*
X4975444Y-18014364D01*
X4975444Y-18014364D02*
X4994491Y-18023888D01*
X4994491Y-18023888D02*
X5004015Y-18033411D01*
X5004015Y-18033411D02*
X5013539Y-18052459D01*
X5013539Y-18052459D02*
X5013539Y-18071507D01*
X5013539Y-18071507D02*
X5004015Y-18100078D01*
X5004015Y-18100078D02*
X4889729Y-18214364D01*
X4889729Y-18214364D02*
X5013539Y-18214364D01*
X5099253Y-18195316D02*
X5108777Y-18204840D01*
X5108777Y-18204840D02*
X5099253Y-18214364D01*
X5099253Y-18214364D02*
X5089729Y-18204840D01*
X5089729Y-18204840D02*
X5099253Y-18195316D01*
X5099253Y-18195316D02*
X5099253Y-18214364D01*
X5175444Y-18014364D02*
X5299253Y-18014364D01*
X5299253Y-18014364D02*
X5232586Y-18090554D01*
X5232586Y-18090554D02*
X5261158Y-18090554D01*
X5261158Y-18090554D02*
X5280205Y-18100078D01*
X5280205Y-18100078D02*
X5289729Y-18109602D01*
X5289729Y-18109602D02*
X5299253Y-18128650D01*
X5299253Y-18128650D02*
X5299253Y-18176269D01*
X5299253Y-18176269D02*
X5289729Y-18195316D01*
X5289729Y-18195316D02*
X5280205Y-18204840D01*
X5280205Y-18204840D02*
X5261158Y-18214364D01*
X5261158Y-18214364D02*
X5204015Y-18214364D01*
X5204015Y-18214364D02*
X5184967Y-18204840D01*
X5184967Y-18204840D02*
X5175444Y-18195316D01*
X5423063Y-18014364D02*
X5442110Y-18014364D01*
X5442110Y-18014364D02*
X5461158Y-18023888D01*
X5461158Y-18023888D02*
X5470682Y-18033411D01*
X5470682Y-18033411D02*
X5480205Y-18052459D01*
X5480205Y-18052459D02*
X5489729Y-18090554D01*
X5489729Y-18090554D02*
X5489729Y-18138173D01*
X5489729Y-18138173D02*
X5480205Y-18176269D01*
X5480205Y-18176269D02*
X5470682Y-18195316D01*
X5470682Y-18195316D02*
X5461158Y-18204840D01*
X5461158Y-18204840D02*
X5442110Y-18214364D01*
X5442110Y-18214364D02*
X5423063Y-18214364D01*
X5423063Y-18214364D02*
X5404015Y-18204840D01*
X5404015Y-18204840D02*
X5394491Y-18195316D01*
X5394491Y-18195316D02*
X5384967Y-18176269D01*
X5384967Y-18176269D02*
X5375444Y-18138173D01*
X5375444Y-18138173D02*
X5375444Y-18090554D01*
X5375444Y-18090554D02*
X5384967Y-18052459D01*
X5384967Y-18052459D02*
X5394491Y-18033411D01*
X5394491Y-18033411D02*
X5404015Y-18023888D01*
X5404015Y-18023888D02*
X5423063Y-18014364D01*
X5613539Y-18014364D02*
X5632586Y-18014364D01*
X5632586Y-18014364D02*
X5651634Y-18023888D01*
X5651634Y-18023888D02*
X5661158Y-18033411D01*
X5661158Y-18033411D02*
X5670682Y-18052459D01*
X5670682Y-18052459D02*
X5680205Y-18090554D01*
X5680205Y-18090554D02*
X5680205Y-18138173D01*
X5680205Y-18138173D02*
X5670682Y-18176269D01*
X5670682Y-18176269D02*
X5661158Y-18195316D01*
X5661158Y-18195316D02*
X5651634Y-18204840D01*
X5651634Y-18204840D02*
X5632586Y-18214364D01*
X5632586Y-18214364D02*
X5613539Y-18214364D01*
X5613539Y-18214364D02*
X5594491Y-18204840D01*
X5594491Y-18204840D02*
X5584967Y-18195316D01*
X5584967Y-18195316D02*
X5575444Y-18176269D01*
X5575444Y-18176269D02*
X5565920Y-18138173D01*
X5565920Y-18138173D02*
X5565920Y-18090554D01*
X5565920Y-18090554D02*
X5575444Y-18052459D01*
X5575444Y-18052459D02*
X5584967Y-18033411D01*
X5584967Y-18033411D02*
X5594491Y-18023888D01*
X5594491Y-18023888D02*
X5613539Y-18014364D01*
X5765920Y-18214364D02*
X5765920Y-18081030D01*
X5765920Y-18100078D02*
X5775443Y-18090554D01*
X5775443Y-18090554D02*
X5794491Y-18081030D01*
X5794491Y-18081030D02*
X5823063Y-18081030D01*
X5823063Y-18081030D02*
X5842110Y-18090554D01*
X5842110Y-18090554D02*
X5851634Y-18109602D01*
X5851634Y-18109602D02*
X5851634Y-18214364D01*
X5851634Y-18109602D02*
X5861158Y-18090554D01*
X5861158Y-18090554D02*
X5880205Y-18081030D01*
X5880205Y-18081030D02*
X5908777Y-18081030D01*
X5908777Y-18081030D02*
X5927824Y-18090554D01*
X5927824Y-18090554D02*
X5937348Y-18109602D01*
X5937348Y-18109602D02*
X5937348Y-18214364D01*
X6032586Y-18214364D02*
X6032586Y-18081030D01*
X6032586Y-18100078D02*
X6042110Y-18090554D01*
X6042110Y-18090554D02*
X6061158Y-18081030D01*
X6061158Y-18081030D02*
X6089729Y-18081030D01*
X6089729Y-18081030D02*
X6108777Y-18090554D01*
X6108777Y-18090554D02*
X6118301Y-18109602D01*
X6118301Y-18109602D02*
X6118301Y-18214364D01*
X6118301Y-18109602D02*
X6127824Y-18090554D01*
X6127824Y-18090554D02*
X6146872Y-18081030D01*
X6146872Y-18081030D02*
X6175443Y-18081030D01*
X6175443Y-18081030D02*
X6194491Y-18090554D01*
X6194491Y-18090554D02*
X6204015Y-18109602D01*
X6204015Y-18109602D02*
X6204015Y-18214364D01*
X6594491Y-18004840D02*
X6423063Y-18261983D01*
X6851634Y-18014364D02*
X6870682Y-18014364D01*
X6870682Y-18014364D02*
X6889729Y-18023888D01*
X6889729Y-18023888D02*
X6899253Y-18033411D01*
X6899253Y-18033411D02*
X6908777Y-18052459D01*
X6908777Y-18052459D02*
X6918301Y-18090554D01*
X6918301Y-18090554D02*
X6918301Y-18138173D01*
X6918301Y-18138173D02*
X6908777Y-18176269D01*
X6908777Y-18176269D02*
X6899253Y-18195316D01*
X6899253Y-18195316D02*
X6889729Y-18204840D01*
X6889729Y-18204840D02*
X6870682Y-18214364D01*
X6870682Y-18214364D02*
X6851634Y-18214364D01*
X6851634Y-18214364D02*
X6832586Y-18204840D01*
X6832586Y-18204840D02*
X6823063Y-18195316D01*
X6823063Y-18195316D02*
X6813539Y-18176269D01*
X6813539Y-18176269D02*
X6804015Y-18138173D01*
X6804015Y-18138173D02*
X6804015Y-18090554D01*
X6804015Y-18090554D02*
X6813539Y-18052459D01*
X6813539Y-18052459D02*
X6823063Y-18033411D01*
X6823063Y-18033411D02*
X6832586Y-18023888D01*
X6832586Y-18023888D02*
X6851634Y-18014364D01*
X7004015Y-18195316D02*
X7013539Y-18204840D01*
X7013539Y-18204840D02*
X7004015Y-18214364D01*
X7004015Y-18214364D02*
X6994491Y-18204840D01*
X6994491Y-18204840D02*
X7004015Y-18195316D01*
X7004015Y-18195316D02*
X7004015Y-18214364D01*
X7137348Y-18014364D02*
X7156396Y-18014364D01*
X7156396Y-18014364D02*
X7175444Y-18023888D01*
X7175444Y-18023888D02*
X7184967Y-18033411D01*
X7184967Y-18033411D02*
X7194491Y-18052459D01*
X7194491Y-18052459D02*
X7204015Y-18090554D01*
X7204015Y-18090554D02*
X7204015Y-18138173D01*
X7204015Y-18138173D02*
X7194491Y-18176269D01*
X7194491Y-18176269D02*
X7184967Y-18195316D01*
X7184967Y-18195316D02*
X7175444Y-18204840D01*
X7175444Y-18204840D02*
X7156396Y-18214364D01*
X7156396Y-18214364D02*
X7137348Y-18214364D01*
X7137348Y-18214364D02*
X7118301Y-18204840D01*
X7118301Y-18204840D02*
X7108777Y-18195316D01*
X7108777Y-18195316D02*
X7099253Y-18176269D01*
X7099253Y-18176269D02*
X7089729Y-18138173D01*
X7089729Y-18138173D02*
X7089729Y-18090554D01*
X7089729Y-18090554D02*
X7099253Y-18052459D01*
X7099253Y-18052459D02*
X7108777Y-18033411D01*
X7108777Y-18033411D02*
X7118301Y-18023888D01*
X7118301Y-18023888D02*
X7137348Y-18014364D01*
X7299253Y-18214364D02*
X7337348Y-18214364D01*
X7337348Y-18214364D02*
X7356396Y-18204840D01*
X7356396Y-18204840D02*
X7365920Y-18195316D01*
X7365920Y-18195316D02*
X7384967Y-18166745D01*
X7384967Y-18166745D02*
X7394491Y-18128650D01*
X7394491Y-18128650D02*
X7394491Y-18052459D01*
X7394491Y-18052459D02*
X7384967Y-18033411D01*
X7384967Y-18033411D02*
X7375444Y-18023888D01*
X7375444Y-18023888D02*
X7356396Y-18014364D01*
X7356396Y-18014364D02*
X7318301Y-18014364D01*
X7318301Y-18014364D02*
X7299253Y-18023888D01*
X7299253Y-18023888D02*
X7289729Y-18033411D01*
X7289729Y-18033411D02*
X7280206Y-18052459D01*
X7280206Y-18052459D02*
X7280206Y-18100078D01*
X7280206Y-18100078D02*
X7289729Y-18119126D01*
X7289729Y-18119126D02*
X7299253Y-18128650D01*
X7299253Y-18128650D02*
X7318301Y-18138173D01*
X7318301Y-18138173D02*
X7356396Y-18138173D01*
X7356396Y-18138173D02*
X7375444Y-18128650D01*
X7375444Y-18128650D02*
X7384967Y-18119126D01*
X7384967Y-18119126D02*
X7394491Y-18100078D01*
X7518301Y-18014364D02*
X7537348Y-18014364D01*
X7537348Y-18014364D02*
X7556396Y-18023888D01*
X7556396Y-18023888D02*
X7565920Y-18033411D01*
X7565920Y-18033411D02*
X7575444Y-18052459D01*
X7575444Y-18052459D02*
X7584967Y-18090554D01*
X7584967Y-18090554D02*
X7584967Y-18138173D01*
X7584967Y-18138173D02*
X7575444Y-18176269D01*
X7575444Y-18176269D02*
X7565920Y-18195316D01*
X7565920Y-18195316D02*
X7556396Y-18204840D01*
X7556396Y-18204840D02*
X7537348Y-18214364D01*
X7537348Y-18214364D02*
X7518301Y-18214364D01*
X7518301Y-18214364D02*
X7499253Y-18204840D01*
X7499253Y-18204840D02*
X7489729Y-18195316D01*
X7489729Y-18195316D02*
X7480206Y-18176269D01*
X7480206Y-18176269D02*
X7470682Y-18138173D01*
X7470682Y-18138173D02*
X7470682Y-18090554D01*
X7470682Y-18090554D02*
X7480206Y-18052459D01*
X7480206Y-18052459D02*
X7489729Y-18033411D01*
X7489729Y-18033411D02*
X7499253Y-18023888D01*
X7499253Y-18023888D02*
X7518301Y-18014364D01*
X7756396Y-18014364D02*
X7718301Y-18014364D01*
X7718301Y-18014364D02*
X7699253Y-18023888D01*
X7699253Y-18023888D02*
X7689729Y-18033411D01*
X7689729Y-18033411D02*
X7670682Y-18061983D01*
X7670682Y-18061983D02*
X7661158Y-18100078D01*
X7661158Y-18100078D02*
X7661158Y-18176269D01*
X7661158Y-18176269D02*
X7670682Y-18195316D01*
X7670682Y-18195316D02*
X7680206Y-18204840D01*
X7680206Y-18204840D02*
X7699253Y-18214364D01*
X7699253Y-18214364D02*
X7737348Y-18214364D01*
X7737348Y-18214364D02*
X7756396Y-18204840D01*
X7756396Y-18204840D02*
X7765920Y-18195316D01*
X7765920Y-18195316D02*
X7775444Y-18176269D01*
X7775444Y-18176269D02*
X7775444Y-18128650D01*
X7775444Y-18128650D02*
X7765920Y-18109602D01*
X7765920Y-18109602D02*
X7756396Y-18100078D01*
X7756396Y-18100078D02*
X7737348Y-18090554D01*
X7737348Y-18090554D02*
X7699253Y-18090554D01*
X7699253Y-18090554D02*
X7680206Y-18100078D01*
X7680206Y-18100078D02*
X7670682Y-18109602D01*
X7670682Y-18109602D02*
X7661158Y-18128650D01*
X7851634Y-18014364D02*
X7851634Y-18052459D01*
X7927825Y-18014364D02*
X7927825Y-18052459D01*
X8223063Y-18290554D02*
X8213539Y-18281030D01*
X8213539Y-18281030D02*
X8194491Y-18252459D01*
X8194491Y-18252459D02*
X8184968Y-18233411D01*
X8184968Y-18233411D02*
X8175444Y-18204840D01*
X8175444Y-18204840D02*
X8165920Y-18157221D01*
X8165920Y-18157221D02*
X8165920Y-18119126D01*
X8165920Y-18119126D02*
X8175444Y-18071507D01*
X8175444Y-18071507D02*
X8184968Y-18042935D01*
X8184968Y-18042935D02*
X8194491Y-18023888D01*
X8194491Y-18023888D02*
X8213539Y-17995316D01*
X8213539Y-17995316D02*
X8223063Y-17985792D01*
X8384968Y-18014364D02*
X8346872Y-18014364D01*
X8346872Y-18014364D02*
X8327825Y-18023888D01*
X8327825Y-18023888D02*
X8318301Y-18033411D01*
X8318301Y-18033411D02*
X8299253Y-18061983D01*
X8299253Y-18061983D02*
X8289729Y-18100078D01*
X8289729Y-18100078D02*
X8289729Y-18176269D01*
X8289729Y-18176269D02*
X8299253Y-18195316D01*
X8299253Y-18195316D02*
X8308777Y-18204840D01*
X8308777Y-18204840D02*
X8327825Y-18214364D01*
X8327825Y-18214364D02*
X8365920Y-18214364D01*
X8365920Y-18214364D02*
X8384968Y-18204840D01*
X8384968Y-18204840D02*
X8394491Y-18195316D01*
X8394491Y-18195316D02*
X8404015Y-18176269D01*
X8404015Y-18176269D02*
X8404015Y-18128650D01*
X8404015Y-18128650D02*
X8394491Y-18109602D01*
X8394491Y-18109602D02*
X8384968Y-18100078D01*
X8384968Y-18100078D02*
X8365920Y-18090554D01*
X8365920Y-18090554D02*
X8327825Y-18090554D01*
X8327825Y-18090554D02*
X8308777Y-18100078D01*
X8308777Y-18100078D02*
X8299253Y-18109602D01*
X8299253Y-18109602D02*
X8289729Y-18128650D01*
X8642111Y-18214364D02*
X8642111Y-18014364D01*
X8727825Y-18214364D02*
X8727825Y-18109602D01*
X8727825Y-18109602D02*
X8718301Y-18090554D01*
X8718301Y-18090554D02*
X8699253Y-18081030D01*
X8699253Y-18081030D02*
X8670682Y-18081030D01*
X8670682Y-18081030D02*
X8651634Y-18090554D01*
X8651634Y-18090554D02*
X8642111Y-18100078D01*
X8851634Y-18214364D02*
X8832587Y-18204840D01*
X8832587Y-18204840D02*
X8823063Y-18195316D01*
X8823063Y-18195316D02*
X8813539Y-18176269D01*
X8813539Y-18176269D02*
X8813539Y-18119126D01*
X8813539Y-18119126D02*
X8823063Y-18100078D01*
X8823063Y-18100078D02*
X8832587Y-18090554D01*
X8832587Y-18090554D02*
X8851634Y-18081030D01*
X8851634Y-18081030D02*
X8880206Y-18081030D01*
X8880206Y-18081030D02*
X8899253Y-18090554D01*
X8899253Y-18090554D02*
X8908777Y-18100078D01*
X8908777Y-18100078D02*
X8918301Y-18119126D01*
X8918301Y-18119126D02*
X8918301Y-18176269D01*
X8918301Y-18176269D02*
X8908777Y-18195316D01*
X8908777Y-18195316D02*
X8899253Y-18204840D01*
X8899253Y-18204840D02*
X8880206Y-18214364D01*
X8880206Y-18214364D02*
X8851634Y-18214364D01*
X9032587Y-18214364D02*
X9013539Y-18204840D01*
X9013539Y-18204840D02*
X9004015Y-18185792D01*
X9004015Y-18185792D02*
X9004015Y-18014364D01*
X9184968Y-18204840D02*
X9165920Y-18214364D01*
X9165920Y-18214364D02*
X9127825Y-18214364D01*
X9127825Y-18214364D02*
X9108777Y-18204840D01*
X9108777Y-18204840D02*
X9099253Y-18185792D01*
X9099253Y-18185792D02*
X9099253Y-18109602D01*
X9099253Y-18109602D02*
X9108777Y-18090554D01*
X9108777Y-18090554D02*
X9127825Y-18081030D01*
X9127825Y-18081030D02*
X9165920Y-18081030D01*
X9165920Y-18081030D02*
X9184968Y-18090554D01*
X9184968Y-18090554D02*
X9194492Y-18109602D01*
X9194492Y-18109602D02*
X9194492Y-18128650D01*
X9194492Y-18128650D02*
X9099253Y-18147697D01*
X9270682Y-18204840D02*
X9289730Y-18214364D01*
X9289730Y-18214364D02*
X9327825Y-18214364D01*
X9327825Y-18214364D02*
X9346873Y-18204840D01*
X9346873Y-18204840D02*
X9356396Y-18185792D01*
X9356396Y-18185792D02*
X9356396Y-18176269D01*
X9356396Y-18176269D02*
X9346873Y-18157221D01*
X9346873Y-18157221D02*
X9327825Y-18147697D01*
X9327825Y-18147697D02*
X9299253Y-18147697D01*
X9299253Y-18147697D02*
X9280206Y-18138173D01*
X9280206Y-18138173D02*
X9270682Y-18119126D01*
X9270682Y-18119126D02*
X9270682Y-18109602D01*
X9270682Y-18109602D02*
X9280206Y-18090554D01*
X9280206Y-18090554D02*
X9299253Y-18081030D01*
X9299253Y-18081030D02*
X9327825Y-18081030D01*
X9327825Y-18081030D02*
X9346873Y-18090554D01*
X9423063Y-18290554D02*
X9432587Y-18281030D01*
X9432587Y-18281030D02*
X9451634Y-18252459D01*
X9451634Y-18252459D02*
X9461158Y-18233411D01*
X9461158Y-18233411D02*
X9470682Y-18204840D01*
X9470682Y-18204840D02*
X9480206Y-18157221D01*
X9480206Y-18157221D02*
X9480206Y-18119126D01*
X9480206Y-18119126D02*
X9470682Y-18071507D01*
X9470682Y-18071507D02*
X9461158Y-18042935D01*
X9461158Y-18042935D02*
X9451634Y-18023888D01*
X9451634Y-18023888D02*
X9432587Y-17995316D01*
X9432587Y-17995316D02*
X9423063Y-17985792D01*
M02*
