%TF.GenerationSoftware,KiCad,Pcbnew,7.0.7*%
%TF.CreationDate,2023-09-23T13:03:43+02:00*%
%TF.ProjectId,Power Charging Scheduler 90x90x1_6mm,506f7765-7220-4436-9861-7267696e6720,5.3*%
%TF.SameCoordinates,Original*%
%TF.FileFunction,Drillmap*%
%TF.FilePolarity,Positive*%
%FSLAX45Y45*%
G04 Gerber Fmt 4.5, Leading zero omitted, Abs format (unit mm)*
G04 Created by KiCad (PCBNEW 7.0.7) date 2023-09-23 13:03:43*
%MOMM*%
%LPD*%
G01*
G04 APERTURE LIST*
%ADD10C,0.100000*%
%ADD11C,0.200000*%
%ADD12C,0.070000*%
G04 APERTURE END LIST*
D10*
X9355990Y-6660136D02*
G75*
G03*
X9344134Y-6678523I35080J-35634D01*
G01*
X9550034Y-6473333D02*
G75*
G03*
X9535707Y-6483196I20756J-45487D01*
G01*
X10719000Y-6575000D02*
G75*
G03*
X10769000Y-6525000I0J50000D01*
G01*
X9676483Y-6575002D02*
G75*
G03*
X9641404Y-6589370I-3J-49998D01*
G01*
X9476945Y-6751284D02*
G75*
G03*
X9462025Y-6786974I35075J-35626D01*
G01*
X9412941Y-7607000D02*
G75*
G03*
X9462941Y-7556940I-1J50001D01*
G01*
X9666865Y-6424998D02*
G75*
G03*
X9646115Y-6429509I5J-50002D01*
G01*
X10769000Y-6475000D02*
G75*
G03*
X10719000Y-6425000I-50000J0D01*
G01*
X9315076Y-6757623D02*
G75*
G03*
X9312011Y-6774924I46934J-17237D01*
G01*
X9312940Y-7557059D02*
G75*
G03*
X9362941Y-7607000I50000J60D01*
G01*
X9344134Y-6678523D02*
X9315077Y-6757623D01*
X9535707Y-6483196D02*
X9355989Y-6660135D01*
X9646115Y-6429509D02*
X9550035Y-6473335D01*
X9312011Y-6774924D02*
X9312941Y-7557059D01*
X10719000Y-6425000D02*
X9666865Y-6425000D01*
X10769000Y-6475000D02*
X10769000Y-6525000D01*
X9412941Y-7607000D02*
X9362941Y-7607000D01*
X9462025Y-6786974D02*
X9462941Y-7556940D01*
X9641404Y-6589370D02*
X9476946Y-6751285D01*
X10719000Y-6575000D02*
X9676483Y-6575000D01*
X6153000Y-5550000D02*
X12669000Y-5550000D01*
X13499907Y-14149000D02*
G75*
G03*
X13499907Y-14149000I-256907J0D01*
G01*
X12669000Y-15063000D02*
X6153000Y-15063000D01*
X6153000Y-5550000D02*
G75*
G03*
X4653000Y-7050000I0J-1500000D01*
G01*
X5921907Y-6544000D02*
G75*
G03*
X5921907Y-6544000I-256907J0D01*
G01*
X14169000Y-7050000D02*
G75*
G03*
X12669000Y-5550000I-1500000J0D01*
G01*
X5984907Y-14167093D02*
G75*
G03*
X5984907Y-14167093I-256907J0D01*
G01*
X13464907Y-6535000D02*
G75*
G03*
X13464907Y-6535000I-256907J0D01*
G01*
X12669000Y-15063000D02*
G75*
G03*
X14169000Y-13563000I0J1500000D01*
G01*
X4653000Y-13563000D02*
G75*
G03*
X6153000Y-15063000I1500000J0D01*
G01*
X14169000Y-7050000D02*
X14169000Y-13563000D01*
X4653000Y-13563000D02*
X4653000Y-7050000D01*
D11*
D12*
X13648500Y-10827000D02*
X13718500Y-10897000D01*
X13718500Y-10827000D02*
X13648500Y-10897000D01*
X13648500Y-11405000D02*
X13718500Y-11475000D01*
X13718500Y-11405000D02*
X13648500Y-11475000D01*
X13654000Y-12528000D02*
X13724000Y-12598000D01*
X13724000Y-12528000D02*
X13654000Y-12598000D01*
X13654000Y-13106000D02*
X13724000Y-13176000D01*
X13724000Y-13106000D02*
X13654000Y-13176000D01*
X13658000Y-9069000D02*
X13728000Y-9139000D01*
X13728000Y-9069000D02*
X13658000Y-9139000D01*
X13658000Y-9647000D02*
X13728000Y-9717000D01*
X13728000Y-9647000D02*
X13658000Y-9717000D01*
X13672000Y-7327000D02*
X13742000Y-7397000D01*
X13742000Y-7327000D02*
X13672000Y-7397000D01*
X13672000Y-7905000D02*
X13742000Y-7975000D01*
X13742000Y-7905000D02*
X13672000Y-7975000D01*
D11*
X4908777Y-15379484D02*
X4908777Y-15179484D01*
X4908777Y-15179484D02*
X4956396Y-15179484D01*
X4956396Y-15179484D02*
X4984967Y-15189008D01*
X4984967Y-15189008D02*
X5004015Y-15208055D01*
X5004015Y-15208055D02*
X5013539Y-15227103D01*
X5013539Y-15227103D02*
X5023063Y-15265198D01*
X5023063Y-15265198D02*
X5023063Y-15293769D01*
X5023063Y-15293769D02*
X5013539Y-15331865D01*
X5013539Y-15331865D02*
X5004015Y-15350912D01*
X5004015Y-15350912D02*
X4984967Y-15369960D01*
X4984967Y-15369960D02*
X4956396Y-15379484D01*
X4956396Y-15379484D02*
X4908777Y-15379484D01*
X5108777Y-15379484D02*
X5108777Y-15246150D01*
X5108777Y-15284246D02*
X5118301Y-15265198D01*
X5118301Y-15265198D02*
X5127824Y-15255674D01*
X5127824Y-15255674D02*
X5146872Y-15246150D01*
X5146872Y-15246150D02*
X5165920Y-15246150D01*
X5232586Y-15379484D02*
X5232586Y-15246150D01*
X5232586Y-15179484D02*
X5223063Y-15189008D01*
X5223063Y-15189008D02*
X5232586Y-15198531D01*
X5232586Y-15198531D02*
X5242110Y-15189008D01*
X5242110Y-15189008D02*
X5232586Y-15179484D01*
X5232586Y-15179484D02*
X5232586Y-15198531D01*
X5356396Y-15379484D02*
X5337348Y-15369960D01*
X5337348Y-15369960D02*
X5327824Y-15350912D01*
X5327824Y-15350912D02*
X5327824Y-15179484D01*
X5461158Y-15379484D02*
X5442110Y-15369960D01*
X5442110Y-15369960D02*
X5432586Y-15350912D01*
X5432586Y-15350912D02*
X5432586Y-15179484D01*
X5689729Y-15379484D02*
X5689729Y-15179484D01*
X5689729Y-15179484D02*
X5756396Y-15322341D01*
X5756396Y-15322341D02*
X5823062Y-15179484D01*
X5823062Y-15179484D02*
X5823062Y-15379484D01*
X6004015Y-15379484D02*
X6004015Y-15274722D01*
X6004015Y-15274722D02*
X5994491Y-15255674D01*
X5994491Y-15255674D02*
X5975443Y-15246150D01*
X5975443Y-15246150D02*
X5937348Y-15246150D01*
X5937348Y-15246150D02*
X5918301Y-15255674D01*
X6004015Y-15369960D02*
X5984967Y-15379484D01*
X5984967Y-15379484D02*
X5937348Y-15379484D01*
X5937348Y-15379484D02*
X5918301Y-15369960D01*
X5918301Y-15369960D02*
X5908777Y-15350912D01*
X5908777Y-15350912D02*
X5908777Y-15331865D01*
X5908777Y-15331865D02*
X5918301Y-15312817D01*
X5918301Y-15312817D02*
X5937348Y-15303293D01*
X5937348Y-15303293D02*
X5984967Y-15303293D01*
X5984967Y-15303293D02*
X6004015Y-15293769D01*
X6099253Y-15246150D02*
X6099253Y-15446150D01*
X6099253Y-15255674D02*
X6118301Y-15246150D01*
X6118301Y-15246150D02*
X6156396Y-15246150D01*
X6156396Y-15246150D02*
X6175443Y-15255674D01*
X6175443Y-15255674D02*
X6184967Y-15265198D01*
X6184967Y-15265198D02*
X6194491Y-15284246D01*
X6194491Y-15284246D02*
X6194491Y-15341388D01*
X6194491Y-15341388D02*
X6184967Y-15360436D01*
X6184967Y-15360436D02*
X6175443Y-15369960D01*
X6175443Y-15369960D02*
X6156396Y-15379484D01*
X6156396Y-15379484D02*
X6118301Y-15379484D01*
X6118301Y-15379484D02*
X6099253Y-15369960D01*
X6280205Y-15360436D02*
X6289729Y-15369960D01*
X6289729Y-15369960D02*
X6280205Y-15379484D01*
X6280205Y-15379484D02*
X6270682Y-15369960D01*
X6270682Y-15369960D02*
X6280205Y-15360436D01*
X6280205Y-15360436D02*
X6280205Y-15379484D01*
X6280205Y-15255674D02*
X6289729Y-15265198D01*
X6289729Y-15265198D02*
X6280205Y-15274722D01*
X6280205Y-15274722D02*
X6270682Y-15265198D01*
X6270682Y-15265198D02*
X6280205Y-15255674D01*
X6280205Y-15255674D02*
X6280205Y-15274722D01*
D12*
X4578000Y-15673000D02*
X4648000Y-15743000D01*
X4648000Y-15673000D02*
X4578000Y-15743000D01*
D11*
X4946872Y-15599484D02*
X4965920Y-15599484D01*
X4965920Y-15599484D02*
X4984967Y-15609008D01*
X4984967Y-15609008D02*
X4994491Y-15618531D01*
X4994491Y-15618531D02*
X5004015Y-15637579D01*
X5004015Y-15637579D02*
X5013539Y-15675674D01*
X5013539Y-15675674D02*
X5013539Y-15723293D01*
X5013539Y-15723293D02*
X5004015Y-15761388D01*
X5004015Y-15761388D02*
X4994491Y-15780436D01*
X4994491Y-15780436D02*
X4984967Y-15789960D01*
X4984967Y-15789960D02*
X4965920Y-15799484D01*
X4965920Y-15799484D02*
X4946872Y-15799484D01*
X4946872Y-15799484D02*
X4927824Y-15789960D01*
X4927824Y-15789960D02*
X4918301Y-15780436D01*
X4918301Y-15780436D02*
X4908777Y-15761388D01*
X4908777Y-15761388D02*
X4899253Y-15723293D01*
X4899253Y-15723293D02*
X4899253Y-15675674D01*
X4899253Y-15675674D02*
X4908777Y-15637579D01*
X4908777Y-15637579D02*
X4918301Y-15618531D01*
X4918301Y-15618531D02*
X4927824Y-15609008D01*
X4927824Y-15609008D02*
X4946872Y-15599484D01*
X5099253Y-15780436D02*
X5108777Y-15789960D01*
X5108777Y-15789960D02*
X5099253Y-15799484D01*
X5099253Y-15799484D02*
X5089729Y-15789960D01*
X5089729Y-15789960D02*
X5099253Y-15780436D01*
X5099253Y-15780436D02*
X5099253Y-15799484D01*
X5175444Y-15599484D02*
X5308777Y-15599484D01*
X5308777Y-15599484D02*
X5223063Y-15799484D01*
X5423063Y-15599484D02*
X5442110Y-15599484D01*
X5442110Y-15599484D02*
X5461158Y-15609008D01*
X5461158Y-15609008D02*
X5470682Y-15618531D01*
X5470682Y-15618531D02*
X5480205Y-15637579D01*
X5480205Y-15637579D02*
X5489729Y-15675674D01*
X5489729Y-15675674D02*
X5489729Y-15723293D01*
X5489729Y-15723293D02*
X5480205Y-15761388D01*
X5480205Y-15761388D02*
X5470682Y-15780436D01*
X5470682Y-15780436D02*
X5461158Y-15789960D01*
X5461158Y-15789960D02*
X5442110Y-15799484D01*
X5442110Y-15799484D02*
X5423063Y-15799484D01*
X5423063Y-15799484D02*
X5404015Y-15789960D01*
X5404015Y-15789960D02*
X5394491Y-15780436D01*
X5394491Y-15780436D02*
X5384967Y-15761388D01*
X5384967Y-15761388D02*
X5375444Y-15723293D01*
X5375444Y-15723293D02*
X5375444Y-15675674D01*
X5375444Y-15675674D02*
X5384967Y-15637579D01*
X5384967Y-15637579D02*
X5394491Y-15618531D01*
X5394491Y-15618531D02*
X5404015Y-15609008D01*
X5404015Y-15609008D02*
X5423063Y-15599484D01*
X5613539Y-15599484D02*
X5632586Y-15599484D01*
X5632586Y-15599484D02*
X5651634Y-15609008D01*
X5651634Y-15609008D02*
X5661158Y-15618531D01*
X5661158Y-15618531D02*
X5670682Y-15637579D01*
X5670682Y-15637579D02*
X5680205Y-15675674D01*
X5680205Y-15675674D02*
X5680205Y-15723293D01*
X5680205Y-15723293D02*
X5670682Y-15761388D01*
X5670682Y-15761388D02*
X5661158Y-15780436D01*
X5661158Y-15780436D02*
X5651634Y-15789960D01*
X5651634Y-15789960D02*
X5632586Y-15799484D01*
X5632586Y-15799484D02*
X5613539Y-15799484D01*
X5613539Y-15799484D02*
X5594491Y-15789960D01*
X5594491Y-15789960D02*
X5584967Y-15780436D01*
X5584967Y-15780436D02*
X5575444Y-15761388D01*
X5575444Y-15761388D02*
X5565920Y-15723293D01*
X5565920Y-15723293D02*
X5565920Y-15675674D01*
X5565920Y-15675674D02*
X5575444Y-15637579D01*
X5575444Y-15637579D02*
X5584967Y-15618531D01*
X5584967Y-15618531D02*
X5594491Y-15609008D01*
X5594491Y-15609008D02*
X5613539Y-15599484D01*
X5765920Y-15799484D02*
X5765920Y-15666150D01*
X5765920Y-15685198D02*
X5775443Y-15675674D01*
X5775443Y-15675674D02*
X5794491Y-15666150D01*
X5794491Y-15666150D02*
X5823063Y-15666150D01*
X5823063Y-15666150D02*
X5842110Y-15675674D01*
X5842110Y-15675674D02*
X5851634Y-15694722D01*
X5851634Y-15694722D02*
X5851634Y-15799484D01*
X5851634Y-15694722D02*
X5861158Y-15675674D01*
X5861158Y-15675674D02*
X5880205Y-15666150D01*
X5880205Y-15666150D02*
X5908777Y-15666150D01*
X5908777Y-15666150D02*
X5927824Y-15675674D01*
X5927824Y-15675674D02*
X5937348Y-15694722D01*
X5937348Y-15694722D02*
X5937348Y-15799484D01*
X6032586Y-15799484D02*
X6032586Y-15666150D01*
X6032586Y-15685198D02*
X6042110Y-15675674D01*
X6042110Y-15675674D02*
X6061158Y-15666150D01*
X6061158Y-15666150D02*
X6089729Y-15666150D01*
X6089729Y-15666150D02*
X6108777Y-15675674D01*
X6108777Y-15675674D02*
X6118301Y-15694722D01*
X6118301Y-15694722D02*
X6118301Y-15799484D01*
X6118301Y-15694722D02*
X6127824Y-15675674D01*
X6127824Y-15675674D02*
X6146872Y-15666150D01*
X6146872Y-15666150D02*
X6175443Y-15666150D01*
X6175443Y-15666150D02*
X6194491Y-15675674D01*
X6194491Y-15675674D02*
X6204015Y-15694722D01*
X6204015Y-15694722D02*
X6204015Y-15799484D01*
X6594491Y-15589960D02*
X6423063Y-15847103D01*
X6851634Y-15599484D02*
X6870682Y-15599484D01*
X6870682Y-15599484D02*
X6889729Y-15609008D01*
X6889729Y-15609008D02*
X6899253Y-15618531D01*
X6899253Y-15618531D02*
X6908777Y-15637579D01*
X6908777Y-15637579D02*
X6918301Y-15675674D01*
X6918301Y-15675674D02*
X6918301Y-15723293D01*
X6918301Y-15723293D02*
X6908777Y-15761388D01*
X6908777Y-15761388D02*
X6899253Y-15780436D01*
X6899253Y-15780436D02*
X6889729Y-15789960D01*
X6889729Y-15789960D02*
X6870682Y-15799484D01*
X6870682Y-15799484D02*
X6851634Y-15799484D01*
X6851634Y-15799484D02*
X6832586Y-15789960D01*
X6832586Y-15789960D02*
X6823063Y-15780436D01*
X6823063Y-15780436D02*
X6813539Y-15761388D01*
X6813539Y-15761388D02*
X6804015Y-15723293D01*
X6804015Y-15723293D02*
X6804015Y-15675674D01*
X6804015Y-15675674D02*
X6813539Y-15637579D01*
X6813539Y-15637579D02*
X6823063Y-15618531D01*
X6823063Y-15618531D02*
X6832586Y-15609008D01*
X6832586Y-15609008D02*
X6851634Y-15599484D01*
X7004015Y-15780436D02*
X7013539Y-15789960D01*
X7013539Y-15789960D02*
X7004015Y-15799484D01*
X7004015Y-15799484D02*
X6994491Y-15789960D01*
X6994491Y-15789960D02*
X7004015Y-15780436D01*
X7004015Y-15780436D02*
X7004015Y-15799484D01*
X7137348Y-15599484D02*
X7156396Y-15599484D01*
X7156396Y-15599484D02*
X7175444Y-15609008D01*
X7175444Y-15609008D02*
X7184967Y-15618531D01*
X7184967Y-15618531D02*
X7194491Y-15637579D01*
X7194491Y-15637579D02*
X7204015Y-15675674D01*
X7204015Y-15675674D02*
X7204015Y-15723293D01*
X7204015Y-15723293D02*
X7194491Y-15761388D01*
X7194491Y-15761388D02*
X7184967Y-15780436D01*
X7184967Y-15780436D02*
X7175444Y-15789960D01*
X7175444Y-15789960D02*
X7156396Y-15799484D01*
X7156396Y-15799484D02*
X7137348Y-15799484D01*
X7137348Y-15799484D02*
X7118301Y-15789960D01*
X7118301Y-15789960D02*
X7108777Y-15780436D01*
X7108777Y-15780436D02*
X7099253Y-15761388D01*
X7099253Y-15761388D02*
X7089729Y-15723293D01*
X7089729Y-15723293D02*
X7089729Y-15675674D01*
X7089729Y-15675674D02*
X7099253Y-15637579D01*
X7099253Y-15637579D02*
X7108777Y-15618531D01*
X7108777Y-15618531D02*
X7118301Y-15609008D01*
X7118301Y-15609008D02*
X7137348Y-15599484D01*
X7280206Y-15618531D02*
X7289729Y-15609008D01*
X7289729Y-15609008D02*
X7308777Y-15599484D01*
X7308777Y-15599484D02*
X7356396Y-15599484D01*
X7356396Y-15599484D02*
X7375444Y-15609008D01*
X7375444Y-15609008D02*
X7384967Y-15618531D01*
X7384967Y-15618531D02*
X7394491Y-15637579D01*
X7394491Y-15637579D02*
X7394491Y-15656627D01*
X7394491Y-15656627D02*
X7384967Y-15685198D01*
X7384967Y-15685198D02*
X7270682Y-15799484D01*
X7270682Y-15799484D02*
X7394491Y-15799484D01*
X7461158Y-15599484D02*
X7594491Y-15599484D01*
X7594491Y-15599484D02*
X7508777Y-15799484D01*
X7756396Y-15599484D02*
X7718301Y-15599484D01*
X7718301Y-15599484D02*
X7699253Y-15609008D01*
X7699253Y-15609008D02*
X7689729Y-15618531D01*
X7689729Y-15618531D02*
X7670682Y-15647103D01*
X7670682Y-15647103D02*
X7661158Y-15685198D01*
X7661158Y-15685198D02*
X7661158Y-15761388D01*
X7661158Y-15761388D02*
X7670682Y-15780436D01*
X7670682Y-15780436D02*
X7680206Y-15789960D01*
X7680206Y-15789960D02*
X7699253Y-15799484D01*
X7699253Y-15799484D02*
X7737348Y-15799484D01*
X7737348Y-15799484D02*
X7756396Y-15789960D01*
X7756396Y-15789960D02*
X7765920Y-15780436D01*
X7765920Y-15780436D02*
X7775444Y-15761388D01*
X7775444Y-15761388D02*
X7775444Y-15713769D01*
X7775444Y-15713769D02*
X7765920Y-15694722D01*
X7765920Y-15694722D02*
X7756396Y-15685198D01*
X7756396Y-15685198D02*
X7737348Y-15675674D01*
X7737348Y-15675674D02*
X7699253Y-15675674D01*
X7699253Y-15675674D02*
X7680206Y-15685198D01*
X7680206Y-15685198D02*
X7670682Y-15694722D01*
X7670682Y-15694722D02*
X7661158Y-15713769D01*
X7851634Y-15599484D02*
X7851634Y-15637579D01*
X7927825Y-15599484D02*
X7927825Y-15637579D01*
X8223063Y-15875674D02*
X8213539Y-15866150D01*
X8213539Y-15866150D02*
X8194491Y-15837579D01*
X8194491Y-15837579D02*
X8184968Y-15818531D01*
X8184968Y-15818531D02*
X8175444Y-15789960D01*
X8175444Y-15789960D02*
X8165920Y-15742341D01*
X8165920Y-15742341D02*
X8165920Y-15704246D01*
X8165920Y-15704246D02*
X8175444Y-15656627D01*
X8175444Y-15656627D02*
X8184968Y-15628055D01*
X8184968Y-15628055D02*
X8194491Y-15609008D01*
X8194491Y-15609008D02*
X8213539Y-15580436D01*
X8213539Y-15580436D02*
X8223063Y-15570912D01*
X8327825Y-15685198D02*
X8308777Y-15675674D01*
X8308777Y-15675674D02*
X8299253Y-15666150D01*
X8299253Y-15666150D02*
X8289729Y-15647103D01*
X8289729Y-15647103D02*
X8289729Y-15637579D01*
X8289729Y-15637579D02*
X8299253Y-15618531D01*
X8299253Y-15618531D02*
X8308777Y-15609008D01*
X8308777Y-15609008D02*
X8327825Y-15599484D01*
X8327825Y-15599484D02*
X8365920Y-15599484D01*
X8365920Y-15599484D02*
X8384968Y-15609008D01*
X8384968Y-15609008D02*
X8394491Y-15618531D01*
X8394491Y-15618531D02*
X8404015Y-15637579D01*
X8404015Y-15637579D02*
X8404015Y-15647103D01*
X8404015Y-15647103D02*
X8394491Y-15666150D01*
X8394491Y-15666150D02*
X8384968Y-15675674D01*
X8384968Y-15675674D02*
X8365920Y-15685198D01*
X8365920Y-15685198D02*
X8327825Y-15685198D01*
X8327825Y-15685198D02*
X8308777Y-15694722D01*
X8308777Y-15694722D02*
X8299253Y-15704246D01*
X8299253Y-15704246D02*
X8289729Y-15723293D01*
X8289729Y-15723293D02*
X8289729Y-15761388D01*
X8289729Y-15761388D02*
X8299253Y-15780436D01*
X8299253Y-15780436D02*
X8308777Y-15789960D01*
X8308777Y-15789960D02*
X8327825Y-15799484D01*
X8327825Y-15799484D02*
X8365920Y-15799484D01*
X8365920Y-15799484D02*
X8384968Y-15789960D01*
X8384968Y-15789960D02*
X8394491Y-15780436D01*
X8394491Y-15780436D02*
X8404015Y-15761388D01*
X8404015Y-15761388D02*
X8404015Y-15723293D01*
X8404015Y-15723293D02*
X8394491Y-15704246D01*
X8394491Y-15704246D02*
X8384968Y-15694722D01*
X8384968Y-15694722D02*
X8365920Y-15685198D01*
X8642111Y-15799484D02*
X8642111Y-15599484D01*
X8727825Y-15799484D02*
X8727825Y-15694722D01*
X8727825Y-15694722D02*
X8718301Y-15675674D01*
X8718301Y-15675674D02*
X8699253Y-15666150D01*
X8699253Y-15666150D02*
X8670682Y-15666150D01*
X8670682Y-15666150D02*
X8651634Y-15675674D01*
X8651634Y-15675674D02*
X8642111Y-15685198D01*
X8851634Y-15799484D02*
X8832587Y-15789960D01*
X8832587Y-15789960D02*
X8823063Y-15780436D01*
X8823063Y-15780436D02*
X8813539Y-15761388D01*
X8813539Y-15761388D02*
X8813539Y-15704246D01*
X8813539Y-15704246D02*
X8823063Y-15685198D01*
X8823063Y-15685198D02*
X8832587Y-15675674D01*
X8832587Y-15675674D02*
X8851634Y-15666150D01*
X8851634Y-15666150D02*
X8880206Y-15666150D01*
X8880206Y-15666150D02*
X8899253Y-15675674D01*
X8899253Y-15675674D02*
X8908777Y-15685198D01*
X8908777Y-15685198D02*
X8918301Y-15704246D01*
X8918301Y-15704246D02*
X8918301Y-15761388D01*
X8918301Y-15761388D02*
X8908777Y-15780436D01*
X8908777Y-15780436D02*
X8899253Y-15789960D01*
X8899253Y-15789960D02*
X8880206Y-15799484D01*
X8880206Y-15799484D02*
X8851634Y-15799484D01*
X9032587Y-15799484D02*
X9013539Y-15789960D01*
X9013539Y-15789960D02*
X9004015Y-15770912D01*
X9004015Y-15770912D02*
X9004015Y-15599484D01*
X9184968Y-15789960D02*
X9165920Y-15799484D01*
X9165920Y-15799484D02*
X9127825Y-15799484D01*
X9127825Y-15799484D02*
X9108777Y-15789960D01*
X9108777Y-15789960D02*
X9099253Y-15770912D01*
X9099253Y-15770912D02*
X9099253Y-15694722D01*
X9099253Y-15694722D02*
X9108777Y-15675674D01*
X9108777Y-15675674D02*
X9127825Y-15666150D01*
X9127825Y-15666150D02*
X9165920Y-15666150D01*
X9165920Y-15666150D02*
X9184968Y-15675674D01*
X9184968Y-15675674D02*
X9194492Y-15694722D01*
X9194492Y-15694722D02*
X9194492Y-15713769D01*
X9194492Y-15713769D02*
X9099253Y-15732817D01*
X9270682Y-15789960D02*
X9289730Y-15799484D01*
X9289730Y-15799484D02*
X9327825Y-15799484D01*
X9327825Y-15799484D02*
X9346873Y-15789960D01*
X9346873Y-15789960D02*
X9356396Y-15770912D01*
X9356396Y-15770912D02*
X9356396Y-15761388D01*
X9356396Y-15761388D02*
X9346873Y-15742341D01*
X9346873Y-15742341D02*
X9327825Y-15732817D01*
X9327825Y-15732817D02*
X9299253Y-15732817D01*
X9299253Y-15732817D02*
X9280206Y-15723293D01*
X9280206Y-15723293D02*
X9270682Y-15704246D01*
X9270682Y-15704246D02*
X9270682Y-15694722D01*
X9270682Y-15694722D02*
X9280206Y-15675674D01*
X9280206Y-15675674D02*
X9299253Y-15666150D01*
X9299253Y-15666150D02*
X9327825Y-15666150D01*
X9327825Y-15666150D02*
X9346873Y-15675674D01*
X9423063Y-15875674D02*
X9432587Y-15866150D01*
X9432587Y-15866150D02*
X9451634Y-15837579D01*
X9451634Y-15837579D02*
X9461158Y-15818531D01*
X9461158Y-15818531D02*
X9470682Y-15789960D01*
X9470682Y-15789960D02*
X9480206Y-15742341D01*
X9480206Y-15742341D02*
X9480206Y-15704246D01*
X9480206Y-15704246D02*
X9470682Y-15656627D01*
X9470682Y-15656627D02*
X9461158Y-15628055D01*
X9461158Y-15628055D02*
X9451634Y-15609008D01*
X9451634Y-15609008D02*
X9432587Y-15580436D01*
X9432587Y-15580436D02*
X9423063Y-15570912D01*
X9784968Y-15875674D02*
X9775444Y-15866150D01*
X9775444Y-15866150D02*
X9756396Y-15837579D01*
X9756396Y-15837579D02*
X9746873Y-15818531D01*
X9746873Y-15818531D02*
X9737349Y-15789960D01*
X9737349Y-15789960D02*
X9727825Y-15742341D01*
X9727825Y-15742341D02*
X9727825Y-15704246D01*
X9727825Y-15704246D02*
X9737349Y-15656627D01*
X9737349Y-15656627D02*
X9746873Y-15628055D01*
X9746873Y-15628055D02*
X9756396Y-15609008D01*
X9756396Y-15609008D02*
X9775444Y-15580436D01*
X9775444Y-15580436D02*
X9784968Y-15570912D01*
X9861158Y-15666150D02*
X9861158Y-15799484D01*
X9861158Y-15685198D02*
X9870682Y-15675674D01*
X9870682Y-15675674D02*
X9889730Y-15666150D01*
X9889730Y-15666150D02*
X9918301Y-15666150D01*
X9918301Y-15666150D02*
X9937349Y-15675674D01*
X9937349Y-15675674D02*
X9946873Y-15694722D01*
X9946873Y-15694722D02*
X9946873Y-15799484D01*
X10070682Y-15799484D02*
X10051634Y-15789960D01*
X10051634Y-15789960D02*
X10042111Y-15780436D01*
X10042111Y-15780436D02*
X10032587Y-15761388D01*
X10032587Y-15761388D02*
X10032587Y-15704246D01*
X10032587Y-15704246D02*
X10042111Y-15685198D01*
X10042111Y-15685198D02*
X10051634Y-15675674D01*
X10051634Y-15675674D02*
X10070682Y-15666150D01*
X10070682Y-15666150D02*
X10099254Y-15666150D01*
X10099254Y-15666150D02*
X10118301Y-15675674D01*
X10118301Y-15675674D02*
X10127825Y-15685198D01*
X10127825Y-15685198D02*
X10137349Y-15704246D01*
X10137349Y-15704246D02*
X10137349Y-15761388D01*
X10137349Y-15761388D02*
X10127825Y-15780436D01*
X10127825Y-15780436D02*
X10118301Y-15789960D01*
X10118301Y-15789960D02*
X10099254Y-15799484D01*
X10099254Y-15799484D02*
X10070682Y-15799484D01*
X10194492Y-15666150D02*
X10270682Y-15666150D01*
X10223063Y-15599484D02*
X10223063Y-15770912D01*
X10223063Y-15770912D02*
X10232587Y-15789960D01*
X10232587Y-15789960D02*
X10251634Y-15799484D01*
X10251634Y-15799484D02*
X10270682Y-15799484D01*
X10489730Y-15666150D02*
X10489730Y-15866150D01*
X10489730Y-15675674D02*
X10508777Y-15666150D01*
X10508777Y-15666150D02*
X10546873Y-15666150D01*
X10546873Y-15666150D02*
X10565920Y-15675674D01*
X10565920Y-15675674D02*
X10575444Y-15685198D01*
X10575444Y-15685198D02*
X10584968Y-15704246D01*
X10584968Y-15704246D02*
X10584968Y-15761388D01*
X10584968Y-15761388D02*
X10575444Y-15780436D01*
X10575444Y-15780436D02*
X10565920Y-15789960D01*
X10565920Y-15789960D02*
X10546873Y-15799484D01*
X10546873Y-15799484D02*
X10508777Y-15799484D01*
X10508777Y-15799484D02*
X10489730Y-15789960D01*
X10699254Y-15799484D02*
X10680206Y-15789960D01*
X10680206Y-15789960D02*
X10670682Y-15770912D01*
X10670682Y-15770912D02*
X10670682Y-15599484D01*
X10861158Y-15799484D02*
X10861158Y-15694722D01*
X10861158Y-15694722D02*
X10851635Y-15675674D01*
X10851635Y-15675674D02*
X10832587Y-15666150D01*
X10832587Y-15666150D02*
X10794492Y-15666150D01*
X10794492Y-15666150D02*
X10775444Y-15675674D01*
X10861158Y-15789960D02*
X10842111Y-15799484D01*
X10842111Y-15799484D02*
X10794492Y-15799484D01*
X10794492Y-15799484D02*
X10775444Y-15789960D01*
X10775444Y-15789960D02*
X10765920Y-15770912D01*
X10765920Y-15770912D02*
X10765920Y-15751865D01*
X10765920Y-15751865D02*
X10775444Y-15732817D01*
X10775444Y-15732817D02*
X10794492Y-15723293D01*
X10794492Y-15723293D02*
X10842111Y-15723293D01*
X10842111Y-15723293D02*
X10861158Y-15713769D01*
X10927825Y-15666150D02*
X11004015Y-15666150D01*
X10956396Y-15599484D02*
X10956396Y-15770912D01*
X10956396Y-15770912D02*
X10965920Y-15789960D01*
X10965920Y-15789960D02*
X10984968Y-15799484D01*
X10984968Y-15799484D02*
X11004015Y-15799484D01*
X11146873Y-15789960D02*
X11127825Y-15799484D01*
X11127825Y-15799484D02*
X11089730Y-15799484D01*
X11089730Y-15799484D02*
X11070682Y-15789960D01*
X11070682Y-15789960D02*
X11061158Y-15770912D01*
X11061158Y-15770912D02*
X11061158Y-15694722D01*
X11061158Y-15694722D02*
X11070682Y-15675674D01*
X11070682Y-15675674D02*
X11089730Y-15666150D01*
X11089730Y-15666150D02*
X11127825Y-15666150D01*
X11127825Y-15666150D02*
X11146873Y-15675674D01*
X11146873Y-15675674D02*
X11156396Y-15694722D01*
X11156396Y-15694722D02*
X11156396Y-15713769D01*
X11156396Y-15713769D02*
X11061158Y-15732817D01*
X11327825Y-15799484D02*
X11327825Y-15599484D01*
X11327825Y-15789960D02*
X11308777Y-15799484D01*
X11308777Y-15799484D02*
X11270682Y-15799484D01*
X11270682Y-15799484D02*
X11251634Y-15789960D01*
X11251634Y-15789960D02*
X11242111Y-15780436D01*
X11242111Y-15780436D02*
X11232587Y-15761388D01*
X11232587Y-15761388D02*
X11232587Y-15704246D01*
X11232587Y-15704246D02*
X11242111Y-15685198D01*
X11242111Y-15685198D02*
X11251634Y-15675674D01*
X11251634Y-15675674D02*
X11270682Y-15666150D01*
X11270682Y-15666150D02*
X11308777Y-15666150D01*
X11308777Y-15666150D02*
X11327825Y-15675674D01*
X11404015Y-15875674D02*
X11413539Y-15866150D01*
X11413539Y-15866150D02*
X11432587Y-15837579D01*
X11432587Y-15837579D02*
X11442111Y-15818531D01*
X11442111Y-15818531D02*
X11451634Y-15789960D01*
X11451634Y-15789960D02*
X11461158Y-15742341D01*
X11461158Y-15742341D02*
X11461158Y-15704246D01*
X11461158Y-15704246D02*
X11451634Y-15656627D01*
X11451634Y-15656627D02*
X11442111Y-15628055D01*
X11442111Y-15628055D02*
X11432587Y-15609008D01*
X11432587Y-15609008D02*
X11413539Y-15580436D01*
X11413539Y-15580436D02*
X11404015Y-15570912D01*
M02*
